<?xml version="1.0" encoding="utf-8"?>
<!-- Generator: Adobe Illustrator 25.1.0, SVG Export Plug-In . SVG Version: 6.00 Build 0)  -->
<svg version="1.1" id="Layer_1" xmlns="http://www.w3.org/2000/svg" xmlns:xlink="http://www.w3.org/1999/xlink" x="0px" y="0px"
	 viewBox="0 0 600 600" style="enable-background:new 0 0 600 600;" xml:space="preserve">
<style type="text/css">
	.st0{fill:none;}
	.st1{fill:#E0DD00;}
	.st2{fill:#B3B3B3;}
	.st3{fill:#D3D3D3;}
	.st4{fill:url(#SVGID_1_);}
	.st5{fill:url(#SVGID_2_);}
	.st6{fill:url(#SVGID_3_);}
	.st7{fill:#B4B4B3;}
	.st8{fill:url(#SVGID_4_);}
	.st9{fill:none;stroke:#000000;stroke-width:1;stroke-miterlimit:10;}
</style>
<pattern  y="600" width="540.24" height="540.24" patternUnits="userSpaceOnUse" id="New_Pattern_Swatch_1" viewBox="1 -541.24 540.24 540.24" style="overflow:visible;">
	<g>
		<rect x="1" y="-541.24" class="st0" width="540.24" height="540.24"/>
		
			<image style="overflow:visible;" width="2251" height="2251" xlink:href="./img/colores/961-Fog-swatch.jpg" transform="matrix(0.24 0 0 0.24 1 -541.24)">
		</image>
	</g>
</pattern>
<g>
	<path class="st1" d="M228.69,416.01v-2.27l0.03-0.27l0.1-0.22l0.11-0.1l0.14-0.04l0.24,0.02l0.25,0.11l0.25,0.19l0.24,0.25l0.2,0.3
		l0.16,0.32l0.1,0.33l0.03,0.31v2.27l-0.03,0.27l-0.1,0.22l-0.11,0.1l-0.14,0.04l-0.24-0.02l-0.25-0.11l-0.25-0.19l-0.24-0.25
		l-0.2-0.3l-0.16-0.32l-0.1-0.33L228.69,416.01z M228.69,416.01"/>
	<path class="st1" d="M228.69,413.74v2.27l-0.11,0.06v-2.27L228.69,413.74z M228.69,413.74"/>
	<path class="st2" d="M230.05,413.67l-0.24-0.25l-0.25-0.19l-0.25-0.11l-0.24-0.02l-0.14,0.04l-0.06,0.02l-0.16,0.14l-0.1,0.22
		l-0.03,0.27v2.27l0.03,0.31l0.1,0.33l0.16,0.32l0.2,0.3l0.24,0.25l0.25,0.19l-4.9-2.83v-9.06l9.81,5.66v9.06l-4.9-2.83l0.25,0.11
		l0.24,0.02l0.2-0.06l0.05-0.04l0.11-0.1l0.1-0.22l0.03-0.27v-2.27l-0.03-0.31l-0.1-0.33l-0.16-0.32L230.05,413.67z M226.62,408.37
		l-0.2-0.09l-0.19-0.02l-0.1,0.03l-0.06,0.02l-0.12,0.12l-0.08,0.17l-0.03,0.22l0.03,0.25l0.08,0.26l0.12,0.26l0.16,0.24l0.19,0.2
		l0.2,0.15l0.2,0.09l0.19,0.02l0.16-0.05l0.05-0.04l0.08-0.07l0.08-0.17l0.03-0.22l-0.03-0.25l-0.08-0.26l-0.12-0.26l-0.16-0.24
		l-0.19-0.2L226.62,408.37z M231.72,412.22l0.03,0.25l0.08,0.26l0.12,0.26l0.16,0.24l0.19,0.2l0.2,0.15l0.2,0.09l0.19,0.02
		l0.16-0.05l0.05-0.04l0.08-0.07l0.08-0.17l0.03-0.22l-0.03-0.25l-0.08-0.26l-0.12-0.26l-0.16-0.24l-0.19-0.2l-0.2-0.15l-0.2-0.09
		l-0.19-0.02l-0.1,0.03l-0.06,0.02l-0.12,0.12l-0.08,0.17L231.72,412.22z M231.72,412.22"/>
	<path class="st1" d="M224.76,405.81l9.81,5.66l-0.11,0.06l-9.81-5.66L224.76,405.81z M224.76,405.81"/>
	<path class="st1" d="M234.57,411.48v9.11l-2.94,5.1v2.21l-0.11,0.06v-2.27l2.94-5.1v-9.06L234.57,411.48z M234.57,411.48"/>
	<path class="st3" d="M221.71,420.03l2.94-5.1l4.9,2.83l4.9,2.83l-2.94,5.1L221.71,420.03z M221.71,420.03"/>
	<path class="st2" d="M221.71,422.3v-2.27l9.81,5.66v2.27L221.71,422.3z M221.71,422.3"/>
	<path class="st2" d="M290.5,561.72l7.78-4.49l0.59,0.34l-8.37,4.83V561.72z M290.5,561.72"/>
	<pattern  id="SVGID_1_" xlink:href="#New_Pattern_Swatch_1" patternTransform="matrix(0.2593 0 0 0.2593 -6000.6855 -6882.5225)">
	</pattern>
	<path class="st4" d="M298.28,557.22l-7.78,4.49V287.61l4.93-2.85l0.45-0.29l0.44-0.36l0.43-0.41l0.4-0.46l0.37-0.5l0.34-0.54
		l0.3-0.56l0.25-0.58l0.2-0.58l0.14-0.57l0.09-0.56l0.03-0.53v-3.96l-0.59-0.34L290.5,279V257.7l234.38-135.32v339.81L290.5,597.51
		v-27.18l4.93-2.85l0.45-0.29l0.44-0.36l0.43-0.41l0.4-0.46l0.37-0.5l0.34-0.54l0.3-0.56l0.25-0.58l0.2-0.58l0.14-0.57l0.09-0.56
		l0.03-0.53v-3.96L298.28,557.22z M298.28,557.22"/>
	<path class="st2" d="M290.5,279l7.78-4.49l0.59,0.34l-8.37,4.83V279z M290.5,279"/>
	<path d="M524.88,122.39L290.5,257.7v-2.72l232.02-133.96L524.88,122.39z M524.88,122.39"/>
	<path class="st2" d="M295.44,567.47l-4.93,2.85v-7.93l8.37-4.83v3.96l-0.03,0.53l-0.09,0.56l-0.14,0.57l-0.2,0.58l-0.25,0.58
		l-0.3,0.56l-0.34,0.54l-0.37,0.5l-0.4,0.46l-0.43,0.41l-0.44,0.36L295.44,567.47z M295.69,562.27l-0.25,0.11l-0.25,0.19l-0.24,0.25
		l-0.2,0.3l-0.16,0.32l-0.1,0.33l-0.03,0.31l0.03,0.27l0.1,0.22l0.16,0.14l0.39,0.23l0.2,0.06l0.24-0.02l0.25-0.11l0.25-0.19
		l0.24-0.25l0.2-0.3l0.16-0.32l0.1-0.33l0.03-0.31l-0.03-0.27l-0.1-0.22l-0.16-0.14l-0.39-0.23l-0.2-0.06L295.69,562.27z
		 M295.69,562.27"/>
	<path class="st2" d="M295.44,284.76l-4.93,2.85v-7.93l8.37-4.83v3.96l-0.03,0.53l-0.09,0.56l-0.14,0.57l-0.2,0.58l-0.25,0.58
		l-0.3,0.56l-0.34,0.54l-0.37,0.5l-0.4,0.46l-0.43,0.41l-0.44,0.36L295.44,284.76z M295.69,279.55l-0.25,0.11l-0.25,0.19l-0.24,0.25
		l-0.2,0.3l-0.16,0.32l-0.1,0.33l-0.03,0.31l0.03,0.27l0.1,0.22l0.16,0.14l0.39,0.23l0.2,0.06l0.24-0.02l0.25-0.11l0.25-0.19
		l0.24-0.25l0.2-0.3l0.16-0.32l0.1-0.33l0.03-0.31l-0.03-0.27l-0.1-0.22l-0.16-0.14l-0.39-0.23l-0.2-0.06L295.69,279.55z
		 M295.69,279.55"/>
	<path class="st1" d="M241.06,572.82l-0.07,0.04v-2.72l0.07,0.04V572.82z M241.06,572.82"/>
	<path class="st1" d="M241.06,570.18l-0.07-0.04V233.05l0.07-0.04V570.18z M241.06,570.18"/>
	<path d="M241.06,233.01l-0.07,0.04l-117.71-67.96l2.35-1.36l115.43,66.64V233.01z M241.06,233.01"/>
	<path d="M125.64,163.73l-2.35,1.36V51.93l0.88,0.51l1.47-0.85V163.73z M125.64,163.73"/>
	<pattern  id="SVGID_2_" xlink:href="#New_Pattern_Swatch_1" patternTransform="matrix(0.2593 0 0 0.2593 -5889.6274 -6918.2021)">
	</pattern>
	<path class="st5" d="M241,572.85l-117.71-67.96V165.09L241,233.05v337.09V572.85z M224.66,405.87v9.06l-2.94,5.1v2.27l9.81,5.66
		l0.11-0.06v-2.21l2.94-5.1v-9.11l-9.81-5.66L224.66,405.87z M224.66,405.87"/>
	<pattern  id="SVGID_3_" xlink:href="#New_Pattern_Swatch_1" patternTransform="matrix(0.2593 0 0 0.2593 -5889.6274 -6918.2021)">
	</pattern>
	<path class="st6" d="M123.29,165.09v339.81L76.2,477.71V24.75l47.08,27.18V165.09z M123.29,165.09"/>
	<path class="st7" d="M77.67,0l49.05,28.32l-2.55,1.47L75.12,1.47L77.67,0z M77.67,0"/>
	<path class="st7" d="M75.12,1.47l49.05,28.32v22.65l-0.88-0.51L76.2,24.75l-1.08-0.62V1.47z M75.12,1.47"/>
	<path class="st7" d="M124.17,29.79l2.55-1.47v22.65l-1.08,0.62l-1.47,0.85V29.79z M124.17,29.79"/>
	<path class="st7" d="M242.54,95.11l49.05,28.32l-2.55,1.47l-49.05-28.32L242.54,95.11z M242.54,95.11"/>
	<path class="st7" d="M239.99,96.58l49.05,28.32v22.65l-0.88-0.51l-47.08-27.18l-1.08-0.62V96.58z M239.99,96.58"/>
	<path class="st7" d="M289.03,124.9l2.55-1.47v22.65l-1.08,0.62l-1.47,0.85V124.9z M289.03,124.9"/>
	<path d="M290.5,598.64l-2.35,1.36V147.04l0.88,0.51l1.47-0.85v108.28v2.72V279v0.68v7.93v274.11v0.68v7.93v27.18V598.64z
		 M290.5,598.64"/>
	<pattern  id="SVGID_4_" xlink:href="#New_Pattern_Swatch_1" patternTransform="matrix(0.2593 0 0 0.2593 -5889.6274 -6918.2021)">
	</pattern>
	<path class="st8" d="M288.15,600l-47.08-27.18v-2.64V233.01v-2.64V119.86l47.08,27.18V600z M288.15,600"/>
	<path class="st9" d="M225.97,409.01l-0.03-0.25 M225.94,408.76l0.03-0.22 M226.72,410.12l0.2,0.09 M226.52,409.97l0.2,0.15
		 M226.52,409.97l-0.19-0.2 M226.33,409.77l-0.16-0.24 M226.17,409.53l-0.12-0.26 M226.93,410.2l0.19,0.02 M231.82,412.16l0.03-0.22
		 M228.69,416.01v-2.27 M228.72,416.32l-0.03-0.31 M228.82,416.65l-0.1-0.33 M228.97,416.97l-0.16-0.32 M229.18,417.27l-0.2-0.3
		 M229.41,417.52l-0.24-0.25 M229.41,417.52l0.25,0.19 M229.67,417.71l0.25,0.11 M229.92,417.81l0.24,0.02 M228.72,413.47l0.1-0.22
		 M228.69,413.74l0.03-0.27 M231.85,412.41l-0.03-0.25 M232.05,412.93l-0.12-0.26 M232.22,413.17l-0.16-0.24 M232.41,413.37
		l-0.19-0.2 M232.61,413.51l0.2,0.09 M232.41,413.37l0.2,0.15 M232.81,413.6l0.19,0.02 M224.76,405.81l9.81,5.66 M234.57,420.59
		v-9.11 M123.29,165.09l2.35-1.36 M224.66,414.93l-2.94,5.1 M224.66,414.93v-9.06 M231.75,412l0.08-0.17 M231.75,412.47l-0.03-0.25
		 M233.18,412.61l0.08,0.26 M233.26,412.87l0.03,0.25 M232.9,412.11l0.16,0.24 M232.5,411.76l0.2,0.15 M233.26,413.34l-0.08,0.17
		 M233.06,413.63l-0.16,0.05 M232.9,413.68l-0.19-0.02 M232.71,413.66l-0.2-0.09 M232.71,411.91l0.19,0.2 M233.06,412.35l0.12,0.26
		 M233.29,413.12l-0.03,0.22 M232.11,411.66l0.19,0.02 M232.3,411.68l0.2,0.09 M232.11,413.23l-0.16-0.24 M231.95,412.99l-0.12-0.26
		 M232.3,413.43l-0.19-0.2 M232.5,413.58l-0.2-0.15 M231.82,411.82l0.12-0.12 M231.72,412.22l0.03-0.22 M231.82,412.73l-0.08-0.26
		 M226.42,408.28l0.2,0.09 M225.86,409.07l-0.03-0.25 M225.83,408.82l0.03-0.22 M225.86,408.6l0.08-0.17 M225.97,408.54l0.08-0.17
		 M225.94,408.43l0.12-0.12 M226.04,408.36l0.08-0.07 M226.23,408.26l0.19,0.02 M226.04,409.27l-0.08-0.26 M227.38,409.94
		l-0.08,0.17 M227.4,409.72l-0.03,0.22 M226.82,410.26l-0.2-0.09 M226.62,410.18l-0.2-0.15 M226.42,410.03l-0.19-0.2 M226.23,409.83
		l-0.16-0.24 M226.06,409.59l-0.12-0.26 M225.94,409.33l-0.08-0.26 M226.62,408.37l0.2,0.15 M227.17,410.23l-0.16,0.05
		 M227.22,410.19l-0.1,0.03 M227.17,408.95l0.12,0.26 M227.01,408.71l0.16,0.24 M227.3,409.21l0.08,0.26 M226.82,408.51l0.19,0.2
		 M227.01,410.28l-0.19-0.02 M227.38,409.47l0.03,0.25 M231.93,411.76l0.08-0.07 M231.85,411.94l0.08-0.17 M221.71,422.3v-2.27
		 M233.1,413.59l-0.1,0.03 M231.93,412.67l-0.08-0.26 M229.81,413.42l0.24,0.25 M230.05,413.67l0.2,0.3 M230.25,413.97l0.16,0.32
		 M230.41,414.29l0.1,0.33 M230.51,414.62l0.03,0.31 M229.56,413.24l0.25,0.19 M228.58,413.8l0.03-0.27 M228.61,413.53l0.1-0.22
		 M230.3,417.79l-0.14,0.04 M228.82,413.25l0.11-0.1 M228.58,416.07l0.11-0.06 M228.58,413.8l0.11-0.06 M228.58,413.8v2.27
		 M228.61,416.38l-0.03-0.31 M228.71,416.71l-0.1-0.33 M228.87,417.03l-0.16-0.32 M229.07,417.33l-0.2-0.3 M229.31,417.58
		l-0.24-0.25 M229.56,417.77l0.11-0.06 M229.56,417.77l-0.25-0.19 M229.81,417.87l-0.25-0.11 M230.05,417.9l-0.24-0.02
		 M230.25,417.84l-0.2,0.06 M230.51,417.47l-0.1,0.22 M230.54,417.2l-0.03,0.27 M230.54,414.93v2.27 M229.31,413.13l0.25,0.11
		 M229.07,413.1l0.24,0.02 M228.71,413.31l0.16-0.14 M231.63,425.68l2.94-5.1 M221.71,420.03l9.81,5.66 M231.52,427.96l0.11-0.06
		 M221.71,422.3l9.81,5.66 M231.52,427.96v-2.27 M234.47,420.6l-2.94,5.1 M231.63,427.9v-2.21 M224.66,405.87l0.11-0.06
		 M224.66,405.87l9.81,5.66 M234.47,411.54l0.11-0.06 M234.47,420.6v-9.06 M522.52,121.03L290.5,254.98 M290.5,257.7l234.38-135.32
		 M524.88,122.39l-2.35-1.36 M524.88,462.19V122.39 M290.5,597.51l234.38-135.32 M296.3,563.61l-0.05,0.16 M296.11,563.5l-0.05,0.16
		 M296.26,563.77l-0.08,0.16 M296.06,563.66l-0.08,0.16 M296.18,563.94l-0.1,0.15 M295.98,563.82l-0.1,0.15 M295.7,564.36
		l-0.12,0.01 M295.51,564.24l-0.11,0.01 M295.59,564.37l-0.1-0.03 M295.36,563.86l0.05-0.16 M295.96,564.21l-0.13,0.09
		 M295.76,564.1l-0.13,0.09 M295.41,563.7l0.08-0.16 M295.36,564.16l-0.02-0.14 M295.34,564.02l0.02-0.16 M295.48,563.54l0.1-0.15
		 M295.59,563.39l0.12-0.12 M296.08,564.09l-0.12,0.12 M295.88,563.97l-0.12,0.12 M295.83,564.3l-0.13,0.05 M295.63,564.19
		l-0.13,0.05 M295.48,564.34l-0.08-0.07 M295.7,563.26l0.13-0.09 M295.83,563.17l0.13-0.05 M296.32,563.45l-0.02,0.16
		 M296.13,563.34l-0.02,0.16 M296.08,563.1l0.1,0.03 M296.18,563.14l0.08,0.07 M296.26,563.21l0.05,0.11 M296.06,563.11l0.04,0.1
		 M296.3,563.32l0.02,0.14 M296.11,563.2l0.02,0.14 M290.5,570.32l4.93-2.85 M295.44,567.47l0.45-0.29 M295.89,567.18l0.44-0.36
		 M296.33,566.83l0.43-0.41 M296.75,566.41l0.4-0.46 M297.16,565.95l0.37-0.5 M297.53,565.45l0.34-0.54 M297.87,564.91l0.3-0.56
		 M298.16,564.35l0.25-0.58 M298.41,563.78l0.2-0.58 M298.61,563.2l0.14-0.57 M298.75,562.62l0.09-0.56 M298.84,562.06l0.03-0.53
		 M298.87,561.53v-3.96 M298.87,557.56l-8.37,4.83 M295.69,562.27l-0.25,0.11 M295.93,562.25l-0.24,0.02 M296.13,562.31l-0.2-0.06
		 M294.59,564.57l0.16,0.14 M294.49,564.35l0.1,0.22 M294.46,564.08l0.03,0.27 M294.49,563.76l-0.03,0.31 M294.59,563.43l-0.1,0.33
		 M294.75,563.11l-0.16,0.32 M294.95,562.81l-0.2,0.3 M295.18,562.56l-0.24,0.25 M295.44,562.38l-0.25,0.19 M298.28,557.22
		l0.59,0.34 M296.32,564.43l0.2-0.3 M296.52,564.14l0.16-0.32 M296.68,563.81l0.1-0.33 M296.78,563.48l0.03-0.31 M296.81,563.17
		l-0.03-0.27 M296.78,562.9l-0.1-0.22 M296.68,562.68l-0.16-0.14 M296.52,562.54l-0.2-0.06 M296.32,562.47l-0.24,0.02 M296.08,562.5
		l-0.25,0.11"/>
	<path class="st9" d="M295.83,562.6l-0.25,0.19 M295.58,562.79l-0.24,0.25 M295.34,563.04l-0.2,0.3 M295.14,563.34l-0.16,0.32
		 M294.98,563.66l-0.1,0.33 M294.88,563.99l-0.03,0.31 M294.49,564.35l0.39,0.23 M294.46,564.08l0.39,0.23 M294.85,564.3l0.03,0.27
		 M294.59,564.57l0.39,0.23 M294.88,564.58l0.1,0.22 M294.75,564.71l0.39,0.23 M294.98,564.79l0.16,0.14 M295.14,564.94l0.2,0.06
		 M294.49,563.76l0.39,0.23 M294.59,563.43l0.39,0.23 M294.75,563.11l0.39,0.23 M295.44,562.38l0.39,0.23 M295.69,562.27l0.39,0.23
		 M295.18,562.56l0.39,0.23 M294.95,562.81l0.39,0.23 M295.93,562.25l0.39,0.23 M296.13,562.31l0.39,0.23 M296.08,564.68l0.24-0.25
		 M295.83,564.87l0.25-0.19 M295.58,564.98l0.25-0.11 M295.34,565l0.24-0.02 M296.3,280.89l-0.05,0.16 M296.11,280.78l-0.05,0.16
		 M296.26,281.06l-0.08,0.16 M296.06,280.94l-0.08,0.16 M296.18,281.22l-0.1,0.15 M295.98,281.11l-0.1,0.15 M295.7,281.64
		l-0.12,0.01 M295.51,281.53l-0.11,0.01 M295.59,281.65l-0.1-0.03 M295.36,281.15l0.05-0.16 M295.96,281.49l-0.13,0.09
		 M295.76,281.38l-0.13,0.09 M295.41,280.98l0.08-0.16 M295.36,281.44l-0.02-0.14 M295.34,281.3l0.02-0.16 M295.48,280.82l0.1-0.15
		 M295.59,280.67l0.12-0.12 M296.08,281.37l-0.12,0.12 M295.88,281.25l-0.12,0.12 M295.83,281.59l-0.13,0.05 M295.63,281.47
		l-0.13,0.05 M295.48,281.62l-0.08-0.07 M295.7,280.55l0.13-0.09 M295.83,280.45l0.13-0.05 M296.32,280.74l-0.02,0.16
		 M296.13,280.62l-0.02,0.16 M296.08,280.39l0.1,0.03 M296.18,280.42l0.08,0.07 M296.26,280.49l0.05,0.11 M296.06,280.39l0.04,0.1
		 M296.3,280.6l0.02,0.14 M296.11,280.49l0.02,0.14 M290.5,287.61l4.93-2.85 M295.44,284.76l0.45-0.29 M295.89,284.46l0.44-0.36
		 M296.33,284.11l0.43-0.41 M296.75,283.7l0.4-0.46 M297.16,283.23l0.37-0.5 M297.53,282.73l0.34-0.54 M297.87,282.19l0.3-0.56
		 M298.16,281.63l0.25-0.58 M298.41,281.06l0.2-0.58 M298.61,280.48l0.14-0.57 M298.75,279.9l0.09-0.56 M298.84,279.34l0.03-0.53
		 M298.87,278.81v-3.96 M298.87,274.85l-8.37,4.83 M295.69,279.55l-0.25,0.11 M295.93,279.53l-0.24,0.02 M296.13,279.59l-0.2-0.06
		 M294.59,281.85l0.16,0.14 M294.49,281.63l0.1,0.22 M294.46,281.36l0.03,0.27 M294.49,281.05l-0.03,0.31 M294.59,280.72l-0.1,0.33
		 M294.75,280.39l-0.16,0.32 M294.95,280.09l-0.2,0.3 M295.18,279.84l-0.24,0.25 M295.44,279.66l-0.25,0.19 M298.28,274.51
		l0.59,0.34 M296.32,281.72l0.2-0.3 M296.52,281.42l0.16-0.32 M296.68,281.09l0.1-0.33 M296.78,280.76l0.03-0.31 M296.81,280.45
		l-0.03-0.27 M296.78,280.18l-0.1-0.22 M296.68,279.96l-0.16-0.14 M296.52,279.82l-0.2-0.06 M296.32,279.75l-0.24,0.02
		 M296.08,279.78l-0.25,0.11 M295.83,279.89l-0.25,0.19 M295.58,280.07l-0.24,0.25 M295.34,280.32l-0.2,0.3 M295.14,280.62
		l-0.16,0.32 M294.98,280.94l-0.1,0.33 M294.88,281.27l-0.03,0.31 M294.49,281.63l0.39,0.23 M294.46,281.36l0.39,0.23
		 M294.85,281.59l0.03,0.27 M294.59,281.85l0.39,0.23 M294.88,281.86l0.1,0.22 M294.75,281.99l0.39,0.23 M294.98,282.08l0.16,0.14
		 M295.14,282.22l0.2,0.06 M294.49,281.05l0.39,0.23 M294.59,280.72l0.39,0.23 M294.75,280.39l0.39,0.23 M295.44,279.66l0.39,0.23
		 M295.69,279.55l0.39,0.23 M295.18,279.84l0.39,0.23 M294.95,280.09l0.39,0.23 M295.93,279.53l0.39,0.23 M296.13,279.59l0.39,0.23
		 M296.08,281.97l0.24-0.25 M295.83,282.15l0.25-0.19 M295.58,282.26l0.25-0.11 M295.34,282.28l0.24-0.02 M241.06,570.18l-0.07-0.04
		 M241,572.85l0.07-0.04 M241,233.05l0.07-0.04 M123.29,504.89V165.09 M123.29,504.89L241,572.85 M123.29,165.09L241,233.05
		 M241.06,230.37l-115.43-66.64 M77.67,0l49.05,28.32 M75.12,1.47L77.67,0 M124.17,29.79L75.12,1.47 M126.72,28.32l-2.55,1.47
		 M75.12,1.47v22.65 M124.17,29.79v22.65 M126.72,28.32v22.65 M242.54,95.11l49.05,28.32 M239.99,96.58l2.55-1.47 M289.03,124.9
		l-49.05-28.32 M291.58,123.42l-2.55,1.47 M239.99,96.58v22.65 M289.03,124.9v22.65 M291.58,123.42v22.65 M123.29,504.89
		L76.2,477.71 M76.2,24.75v452.96 M125.64,51.59v112.14 M290.5,598.64l-2.35,1.36 M288.15,600l-47.08-27.18 M288.15,147.04V600
		 M233.18,413.51l-0.08,0.07 M233.1,413.59l-0.05,0.04 M231.95,411.71l0.06-0.02 M232.01,411.69l0.1-0.03 M226.06,408.31l0.06-0.02
		 M226.12,408.29l0.1-0.03 M227.3,410.12l-0.08,0.07 M227.22,410.19l-0.05,0.04 M230.41,417.69l-0.11,0.1 M230.3,417.79l-0.05,0.04
		 M228.87,413.17l0.06-0.02 M228.93,413.15l0.14-0.04 M295.41,564.27l0-0.01 M295.4,564.25l-0.04-0.1 M295.96,563.12l0.11-0.01
		 M296.06,563.11l0.01,0 M295.41,281.55l0-0.01 M295.4,281.54l-0.04-0.1 M295.96,280.4l0.11-0.01 M296.06,280.39l0.01,0 M241,572.85
		v-2.72 M241,570.14V233.05 M76.2,24.75l-1.08-0.62 M126.72,50.97l-1.08,0.62 M125.64,51.59l-1.47,0.85 M241.06,119.86l-1.08-0.62
		 M291.58,146.08l-1.08,0.62 M290.5,146.7l-1.47,0.85 M123.29,51.93v113.16 M241.06,570.18v2.64 M124.17,52.44l-0.88-0.51
		 M123.29,51.93L76.2,24.75 M289.03,147.55l-0.88-0.51 M288.15,147.04l-47.08-27.18 M241.06,233.01v337.17 M290.5,561.72v0.68
		 M241.06,119.86v110.52 M241.06,230.37v2.64 M290.5,146.7v108.28 M290.5,287.61v274.11 M290.5,597.51v1.13 M290.5,254.98v2.72
		 M290.5,257.7V279 M290.5,279v0.68 M290.5,279.68v7.93 M290.5,562.39v7.93 M290.5,570.32v27.18 M229.56,417.77l4.9,2.83
		 M224.66,414.93l4.9,2.83"/>
	<line class="st9" x1="228.56" y1="417.12" x2="228.57" y2="417.12"/>
</g>
</svg>
