<svg xmlns="http://www.w3.org/2000/svg" width="248.979" height="74.749" viewBox="0 0 248.979 74.749"><defs><style>.a{fill:#aeb7ba;}.b{fill:#f3f3f3;}</style></defs><g transform="translate(-3702.479 -1003.887)"><g transform="translate(3702.479 1003.887)"><path class="a" d="M-560.609-412.2a35.123,35.123,0,0,1,6.85.769l104.831,19.255c6.785,2.107,12.115,7.964,12.876,14.525a18.273,18.273,0,0,1-7.187,17.772,20.794,20.794,0,0,1-9.133,3.678l-100.421,18.167a74.03,74.03,0,0,1-7.967.582,74.85,74.85,0,0,1-7.629-.912l-99.922-18.092A20.869,20.869,0,0,1-677.4-360.1a18.2,18.2,0,0,1-7.146-17.689c.751-6.533,6.065-12.362,12.806-14.458L-567.433-411.4a34.682,34.682,0,0,1,6.824-.805" transform="translate(684.79 412.202)"/></g><g transform="translate(3734.601 1030.69)"><path class="b" d="M-814.672-112.366l-9.3,8.328v-8.328h-5.265v20.011h5.265V-103.08l10.38,10.725h7.117s-10.78-11.224-11.068-11.523c.312-.26,9.8-8.489,9.8-8.489Zm-46.208,9.977c0,6.6,4.6,10.7,12.011,10.7,5.276,0,7.852-1.785,9.333-3.133a8.442,8.442,0,0,0,2.61-4.338l.081-.262-5.559.029-.078.132c-.613,1.156-1.9,3.556-6,3.556-3.418,0-6.883-2.278-6.883-6.629a6.343,6.343,0,0,1,6.769-6.626,6.227,6.227,0,0,1,5.691,3.075l.07.106,5.787-.714-.112-.26c-2.561-5.616-8.855-6.229-11.437-6.229-5.941,0-12.289,2.785-12.289,10.6m-13.57,10.034h5.322v-20.011h-5.322Zm-30.474-20.011v20.011h5.32v-16.167h7.408c1.959,0,2.34.5,2.616.878a2.884,2.884,0,0,1,.353,1.517c0,1.985-1.465,2.255-2.748,2.255h-4.774l2.359,3.538,5.309,7.98h6.283l-5.99-8.255a7.285,7.285,0,0,0,2.966-1.2,5.7,5.7,0,0,0,1.966-4.5,6.08,6.08,0,0,0-1.327-3.914c-1.725-1.982-3.844-2.146-6.039-2.146Zm-14.845,15.525a3.224,3.224,0,0,1-2.356.639h-7.19v-4.621h7.772c.709,0,2.385,0,2.385,2.153a2.465,2.465,0,0,1-.61,1.829m-9.546-11.71h7.219c1.12,0,2.156.234,2.156,1.9a1.842,1.842,0,0,1-1.042,1.818,4.393,4.393,0,0,1-1.5.19h-6.829Zm11.712,5.343a4.286,4.286,0,0,0,1.938-1.418,4.426,4.426,0,0,0,.823-2.735,4.877,4.877,0,0,0-.816-2.894c-1.387-1.992-3.925-2.062-5.964-2.112H-934.58v20.011h13.767c1.894-.029,4.486-.062,6.05-2.421a6.259,6.259,0,0,0,.92-3.421,4.828,4.828,0,0,0-3.759-5.011m-37.6,7.59c-3.717,0-5.107-1.966-5.556-2.608a6.382,6.382,0,0,1-1.21-4,6.5,6.5,0,0,1,6.58-6.826,6.854,6.854,0,0,1,5.055,1.829,6.627,6.627,0,0,1,1.956,4.917c0,4.063-2.678,6.686-6.824,6.686m10.1-13.481c-2.164-2.636-6.224-4.086-10.86-3.886-7.18.309-11.476,4.294-11.476,10.647,0,6.556,4.722,10.616,12.312,10.616,7.626,0,12.18-4.05,12.18-10.837A10.233,10.233,0,0,0-945.1-109.1M-980.32-96.841a3.227,3.227,0,0,1-2.356.639h-7.193v-4.621h7.772c.712,0,2.382,0,2.382,2.153a2.474,2.474,0,0,1-.605,1.829m-9.549-11.71h7.216c1.122,0,2.156.234,2.156,1.9a1.83,1.83,0,0,1-1.042,1.818,4.353,4.353,0,0,1-1.5.19h-6.829Zm11.712,5.343a4.345,4.345,0,0,0,1.946-1.418,4.472,4.472,0,0,0,.813-2.735,5.011,5.011,0,0,0-.81-2.894c-1.387-1.992-3.92-2.062-5.961-2.112h-12.962v20.011h13.764c1.891-.029,4.486-.062,6.05-2.421a6.286,6.286,0,0,0,.922-3.421,4.832,4.832,0,0,0-3.761-5.011" transform="translate(995.131 113.003)"/></g></g></svg>