<?xml version="1.0" encoding="UTF-8" standalone="no"?>
<!DOCTYPE svg PUBLIC "-//W3C//DTD SVG 1.1//EN" "http://www.w3.org/Graphics/SVG/1.1/DTD/svg11.dtd">
<svg width="100%" height="100%" viewBox="0 0 500 112" version="1.1" xmlns="http://www.w3.org/2000/svg" xmlns:xlink="http://www.w3.org/1999/xlink" xml:space="preserve" xmlns:serif="http://www.serif.com/" style="fill-rule:evenodd;clip-rule:evenodd;stroke-linejoin:round;stroke-miterlimit:2;">
    <g>
        <g>
            <g>
                <path d="M404,51.1L397.2,46.3C390.7,41.7 386.8,34 386.8,25.8L386.8,5.8L404,5.8L404,51.1Z" style="fill:rgb(174,183,186);fill-rule:nonzero;"/>
                <path d="M421.3,103.6L404,103.6L404,51.1L411,56C417.5,60.6 421.3,68.2 421.3,76.4L421.3,103.6Z" style="fill:rgb(174,183,186);fill-rule:nonzero;"/>
            </g>
            <g>
                <path d="M438.5,54.7L431.7,49.9C425.2,45.3 421.3,37.6 421.3,29.4L421.3,5.8L438.6,5.8L438.6,54.7L438.5,54.7Z" style="fill:rgb(174,183,186);fill-rule:nonzero;"/>
                <path d="M455.8,103.6L438.5,103.6L438.5,54.7L445.4,59.6C451.9,64.2 455.7,71.8 455.7,80L455.7,103.6L455.8,103.6Z" style="fill:rgb(174,183,186);fill-rule:nonzero;"/>
            </g>
            <g>
                <path d="M473,58.2L466.2,53.4C459.7,48.8 455.8,41.1 455.8,32.9L455.8,5.8L473,5.8L473,58.2Z" style="fill:rgb(174,183,186);fill-rule:nonzero;"/>
                <path d="M490.3,103.6L473,103.6L473,58.2L479.9,63.1C486.4,67.7 490.2,75.3 490.2,83.5L490.2,103.6L490.3,103.6Z" style="fill:rgb(174,183,186);fill-rule:nonzero;"/>
            </g>
        </g>
        <g>
            <g>
                <path d="M245.2,82.2C241.4,85.8 236.3,87.6 230,87.6C218.8,87.6 211.1,78.4 211.1,67.8L211.1,67.5C211.1,56.9 218.1,48 229.7,48C235.8,48 239.8,49.7 245,53.6L254.2,38.3C247.7,33.4 239.3,30.4 230,30.4C207.7,30.4 191.1,47.1 191.1,67.7L191.1,68C191.1,88.6 207.5,105 229.7,105C239.2,105 247.6,102 254.1,97L245.2,82.2Z" style="fill:rgb(174,183,186);fill-rule:nonzero;"/>
                <path d="M104.1,68L104.1,67.7C104.1,47.1 120.7,30.4 143,30.4C165.2,30.4 181.6,46.8 181.6,67.4L181.6,67.7C181.6,88.3 165,105 142.7,105C120.6,105 104.1,88.6 104.1,68ZM161.6,68L161.6,67.7C161.6,57.1 154,47.9 142.7,47.9C131.1,47.9 124.1,56.9 124.1,67.4L124.1,67.7C124.1,78.3 131.7,87.5 143,87.5C154.7,87.5 161.6,78.6 161.6,68Z" style="fill:rgb(174,183,186);fill-rule:nonzero;"/>
                <rect x="346.1" y="5.8" width="20.3" height="97.8" style="fill:rgb(174,183,186);fill-rule:nonzero;"/>
                <path d="M92.3,5.8L72,5.8L72,34.6C66.6,31.9 60.4,30.4 53.7,30.4C31.4,30.4 14.8,47.1 14.8,67.7L14.8,68C14.8,88.6 31.2,105 53.4,105C59.3,105 66.9,103 72,98.4L72,103.4L92.3,103.4L92.3,5.8ZM53.7,87.5C42.5,87.5 34.8,78.3 34.8,67.7L34.8,67.4C34.8,56.8 41.8,47.9 53.4,47.9C64.6,47.9 72.3,57.1 72.3,67.7L72.3,68C72.2,78.6 65.3,87.5 53.7,87.5Z" style="fill:rgb(174,183,186);fill-rule:nonzero;"/>
                <path d="M257.9,68L257.9,67.7C257.9,47.1 274.5,30.4 296.8,30.4C319,30.4 335.4,46.8 335.4,67.4L335.4,67.7C335.4,88.3 318.8,105 296.5,105C274.3,105 257.9,88.6 257.9,68ZM315.4,68L315.4,67.7C315.4,57.1 307.8,47.9 296.5,47.9C284.9,47.9 277.9,56.9 277.9,67.4L277.9,67.7C277.9,78.3 285.5,87.5 296.8,87.5C308.4,87.5 315.4,78.6 315.4,68Z" style="fill:rgb(174,183,186);fill-rule:nonzero;"/>
            </g>
        </g>
    </g>
</svg>
