<svg xmlns="http://www.w3.org/2000/svg" width="243.23" height="59.727" viewBox="0 0 243.23 59.727"><defs><style>.a{fill:none;}.b{fill:#aeb7ba;}</style></defs><g transform="translate(-14021.429 -1362.583)"><rect class="a" width="243.23" height="59.727" transform="translate(14021.429 1362.583)"/><g transform="translate(14022.03 1363.842)"><g transform="translate(131.717 9.194)"><path class="b" d="M-5966.94-6655.92l15.141,38.608h-6.535l-2.553-6.5h-13.2l-2.8,6.5h-9.992l-8.489-12.839v12.839h-6.386v-35.155l11.753.012a10.282,10.282,0,0,1,10.18,10.813c-.058,8.5-6.477,10.642-8.655,11.092,2.117,3.009,4.327,6.213,6.479,9.257l14.843-34.631Zm-28.428,19.229h5.226c3.265,0,3.928-2.609,3.928-4.948,0-2.51-1.026-4.441-3.87-4.441l-5.284,0Zm23.995,6.535h8.01l-3.832-9.742" transform="translate(6001.754 6655.924)"/></g><g transform="translate(0 9.584)"><path class="b" d="M-5858.376-1619.808l-9.072,9.616-7.679-28.321-17.43-19.306,25.166,2.629,18.78,12.772,7.965,12.394-28.848-19.682-9.314-1.2,26.667,29,2.329-7.136a12.069,12.069,0,0,0,12.321,3.155,12.542,12.542,0,0,0,7.963-9.015,12.117,12.117,0,0,0-4.208-11.868,10.7,10.7,0,0,0-9.766-2.555,13.859,13.859,0,0,0-6.685,3.908l-5.56-3.682a18.842,18.842,0,0,1,19.983-6.386c6.535,2.029,12.395,8.715,12.994,15.55.752,8.564-3,15.927-10.891,19.457-3.682,1.728-8.713,2.553-12.771.977l-3.142,9.314Zm-7-.62,3.032-3.912-5.808-6.435" transform="translate(5892.557 1657.819)"/></g><g transform="translate(20.499 19.282)"><path class="b" d="M0-305.273a1.774,1.774,0,0,1,1.765-1.781,1.774,1.774,0,0,1,1.765,1.781,1.774,1.774,0,0,1-1.765,1.781A1.774,1.774,0,0,1,0-305.273" transform="translate(0 307.054)"/></g><g transform="translate(168.268 0)"><path class="b" d="M-3605.756,52.162-3626.794,0l6.674.008,14.4,35.7,9.428-23.061h6.761" transform="translate(3626.794)"/></g><g transform="translate(208.637 12.65)"><rect class="b" width="6.31" height="35.156" transform="translate(0 0)"/></g><g transform="translate(218.292 12.648)"><path class="b" d="M-4068.6-4953.723h-8.788v28.771h-6.272v-28.771h-8.677v-6.386h23.738" transform="translate(4092.338 4960.108)"/></g><g transform="translate(102.665 12.648)"><path class="b" d="M-1079.515-3154.418c0,5.542-.751,11.926,6.108,11.926,6.692,0,6.036-6.306,6.036-11.936v-16.753h6.294v22.336c0,4.692-3.3,12.821-12.331,12.821-9.007,0-12.41-8.129-12.406-12.821l0-22.336,6.3,0v16.765" transform="translate(1085.814 3171.183)"/></g><g transform="translate(73.523 12.65)"><path class="b" d="M-1781.267-1074.517a21.832,21.832,0,0,1-3.826.23v-22.727a21.693,21.693,0,0,1,3.826.24c7.329,1.336,9.207,7.69,9.215,11.4a10.7,10.7,0,0,1-9.215,10.861m-4.1-28.756h-6.3l.006,35.156h5.826c10.075,0,19.862-5.367,19.862-17.6,0-10.432-6.443-17.555-19.4-17.555" transform="translate(1791.66 1103.273)"/></g></g></g></svg>