<?xml version="1.0" encoding="utf-8"?>
<!-- Generator: Adobe Illustrator 24.1.2, SVG Export Plug-In . SVG Version: 6.00 Build 0)  -->
<svg version="1.1" id="Residencial" xmlns="http://www.w3.org/2000/svg" xmlns:xlink="http://www.w3.org/1999/xlink" x="0px"
	 y="0px" viewBox="0 0 1000 1000" style="enable-background:new 0 0 1000 1000;" xml:space="preserve">
<style type="text/css">
	.st0{fill:#FFFFFF;fill-opacity:0;}
	.st1{display:none;}
	.st2{display:inline;fill:none;stroke:#333333;stroke-width:20;stroke-miterlimit:10;}
	.st3{display:inline;fill:#333333;}
	.st4{display:inline;}
	.st5{fill:none;stroke:#333333;stroke-width:20;stroke-miterlimit:10;}
	.st6{fill:#333333;}
	.st7{display:inline;fill:none;stroke:#333333;stroke-width:20;stroke-linecap:round;stroke-linejoin:round;stroke-miterlimit:10;}
	.st8{fill:none;stroke:#333333;stroke-width:20;stroke-linecap:square;stroke-linejoin:round;stroke-miterlimit:10;}
	.st9{fill:none;stroke:#333333;stroke-width:20;stroke-linecap:round;stroke-linejoin:round;stroke-miterlimit:10;}
	.st10{display:inline;fill:none;stroke:#333333;stroke-width:20;stroke-linecap:round;stroke-miterlimit:10;}
	.st11{display:inline;fill:none;stroke:#333333;stroke-width:30;stroke-miterlimit:10;}
	.st12{fill:none;stroke:#333333;stroke-width:20;stroke-linecap:round;stroke-miterlimit:10;}
	.st13{fill:none;stroke:#ACACAC;stroke-width:20;stroke-linecap:round;stroke-linejoin:round;stroke-miterlimit:10;}
</style>
<g id="Fondo">
	<rect class="st0" width="1000" height="1000"/>
</g>
<g id="asiento-toilet" class="st1">
	<path class="st2" d="M501,88.3c-71.2,0-142.5,1.2-213.7-0.7c-23.4-0.6-35.9,7.5-46,27.1c-116.6,227.2-119,454.5,1,681
		c26.3,49.7,63.8,91.1,109.7,124.3c93.1,67.5,205.8,70,296.5-0.4c38.7-30,73.1-68.5,101.2-108.8c56.3-80.8,82.6-174.1,92.6-271.5
		c15.4-151.2-6.6-295.5-83.9-428.9c-9.2-15.8-19.4-22.9-38.7-22.6C646.8,89.1,573.9,88.3,501,88.3z"/>
	<path class="st3" d="M364,56c-27.8,0-52.4,0-78.5,0c4.2-19.4,18.5-26.1,34.8-27.3C339.2,27.2,354.1,35.1,364,56z"/>
	<path class="st3" d="M717.4,56c-27.8,0-52.4,0-78.5,0c4.2-19.4,18.5-26.1,34.8-27.3C692.6,27.2,707.4,35.1,717.4,56z"/>
	<path class="st2" d="M501,88.3c72.9,0,145.8,0.8,218.6-0.5c19.3-0.3,29.5,6.8,38.7,22.6c77.4,133.4,99.4,277.7,83.9,428.9
		c-9.9,97.4-36.3,190.6-92.6,271.5c-28.1,40.4-62.5,78.8-101.2,108.8C557.8,990,445.1,987.5,352,920
		c-45.8-33.2-83.4-74.6-109.7-124.3c-119.9-226.5-117.6-453.7-1-681c10.1-19.6,22.6-27.7,46-27.1C358.5,89.5,429.8,88.3,501,88.3z"
		/>
</g>
<g id="regadera-higien" class="st1">
	<g class="st4">
		<path class="st5" d="M474.9,556.3c0,57.1-40,104.8-93.5,116.7v-78.5c12.2-8.3,20.2-22.3,20.2-38.2c0-25.5-20.7-46.2-46.2-46.2
			s-46.2,20.7-46.2,46.2c0,15.9,8,29.9,20.2,38.2V673c-53.5-11.9-93.5-59.6-93.5-116.7c0-66,53.5-119.5,119.5-119.5
			S474.9,490.3,474.9,556.3z"/>
		<path class="st5" d="M401.5,556.3c0,15.9-8,29.9-20.2,38.2v353.9h-52V594.5c-12.2-8.3-20.2-22.3-20.2-38.2
			c0-25.5,20.7-46.2,46.2-46.2C380.8,510.2,401.5,530.8,401.5,556.3z"/>
	</g>
	<g class="st4">
		<path class="st5" d="M670.6,744.7v203.7h-52V744.7c7.4,2.1,15.3,3.3,23.4,3.3h5.2C655.3,747.9,663.2,746.8,670.6,744.7z"/>
		<path class="st5" d="M732.1,252.6V663c0,38.8-26,71.5-61.5,81.6c-7.4,2.1-15.3,3.3-23.4,3.3H642c-8.1,0-16-1.1-23.4-3.3
			c-35.5-10.2-61.5-42.9-61.5-81.6V252.6c21.8,23.4,53,38.1,87.5,38.1C679.2,290.7,710.3,276,732.1,252.6z"/>
		<path class="st5" d="M764.2,171.2c0,31.4-12.1,60.1-32,81.4l0,0c-21.8,23.4-53,38.1-87.5,38.1s-65.6-14.6-87.5-38.1
			c-19.9-21.3-32-50-32-81.5c0-66,53.5-119.5,119.5-119.5C710.6,51.6,764.2,105.2,764.2,171.2z"/>
	</g>
	<g class="st4">
		<circle class="st6" cx="644.7" cy="122.7" r="11"/>
		<circle class="st6" cx="644.7" cy="171.2" r="11"/>
		<circle class="st6" cx="644.7" cy="219.7" r="11"/>
		<circle class="st6" cx="693.2" cy="171.2" r="11"/>
		<circle class="st6" cx="596.2" cy="171.2" r="11"/>
	</g>
</g>
<g id="espejos" class="st1">
	<path class="st7" d="M824.5,374.2c0,179-145.1,324.1-324.1,324.1S176.2,553.2,176.2,374.2S321.3,50.1,500.3,50.1
		S824.5,195.2,824.5,374.2z"/>
	<path class="st7" d="M896.1,374.2c0,218.5-177.1,395.7-395.7,395.7S104.7,592.8,104.7,374.2h71.6c0,179,145.1,324.1,324.1,324.1
		s324.1-145.1,324.1-324.1L896.1,374.2L896.1,374.2z"/>
	<rect x="264.7" y="865.7" class="st7" width="471.4" height="71.8"/>
	<line class="st7" x1="500.4" y1="769.9" x2="499.1" y2="865.7"/>
	<line class="st7" x1="318.3" y1="509" x2="375.7" y2="451.7"/>
	<line class="st7" x1="450.7" y1="374.2" x2="584.3" y2="240.6"/>
	<line class="st7" x1="619.1" y1="210.3" x2="651.6" y2="177.7"/>
	<line class="st7" x1="699.9" y1="240.6" x2="634.2" y2="306.3"/>
	<line class="st7" x1="584.3" y1="356.2" x2="538.9" y2="401.7"/>
	<line class="st7" x1="500.4" y1="437" x2="370.5" y2="566.9"/>
</g>
<g id="Bidet_2_" class="st1">
	<g id="Bidet_1_" class="st4">
		<path id="Bidet" class="st8" d="M113.5,957.2h651c0,0-40.7-216.3-53.5-308.4c169.2-100.6,175.6-351.2,175.6-351.2h-773
			L113.5,957.2L113.5,957.2z"/>
		<g id="Llave">
			<path class="st9" d="M227.1,271.5v14.1h-89.4v-14.1c0-4.6,3.7-8.3,8.3-8.3h1.8V109.7h69.3v153.5h1.8
				C223.4,263.3,227.1,266.9,227.1,271.5z"/>
			<path class="st9" d="M147.1,108.4c0,0-7.7-18.1,20-25.1s138.3-39.7,138.3-39.7c18.1-4.6,20,11.6,8.4,17.7
				c-13.5,7.1-96.8,48.4-96.8,48.4"/>
			<path class="st9" d="M217.1,161.6l83.9-54.2h61.9c0,0,8.7-0.3,8.7,10.9c0,11.3-1.3,33.7-1.3,33.7h-51.9"/>
			<line class="st9" x1="217.1" y1="241.3" x2="318.3" y2="152.1"/>
		</g>
	</g>
</g>
<g id="WC-Resid" class="st1">
	<path class="st2" d="M277.8,36.7H142.9C117,36.7,96,57.6,96,83.5v422.6h259.3l-30.7-426C322.8,55.7,302.4,36.7,277.8,36.7z"/>
	<line class="st2" x1="96" y1="129.1" x2="328.1" y2="129.1"/>
	<path class="st2" d="M168.2,506.1L355.3,695l-51.9,268.3h487l-47.3-228.6C946,677,928,440.2,846.8,390.6c-36.1,0-385.6,0-385.6,0
		s-33.8,28.1-33.8,81.7h470.3"/>
	<line class="st2" x1="352.9" y1="472.3" x2="427.4" y2="472.3"/>
</g>
<g id="WC-Inst" class="st1">
	<path class="st10" d="M132.1,460.1l187.1,222.7l-51.9,268.3h487L707,722.6c203-57.8,184.9-294.5,103.7-344.1
		c-36.1,0-385.6,0-385.6,0s-33.8,28.1-33.8,81.7h470.3"/>
	<line class="st10" x1="132.1" y1="460.1" x2="391.4" y2="460.1"/>
	<path class="st10" d="M252.3,402.1h-31.1c-16.8,0-30.4,13.6-30.4,30.4v27.6h92v-27.6C282.7,415.7,269.1,402.1,252.3,402.1z"/>
	<path class="st10" d="M271.6,117.1c0,13.2-7.4,24.7-18.2,30.7v254.3h-32.2V148.3c-11.4-5.7-19.3-17.5-19.3-31.2
		c0-3.6,0.5-7,1.5-10.2h66.7C271.1,110.1,271.6,113.5,271.6,117.1z"/>
	<path class="st10" d="M282.7,74.1v32.7h-92V74.1c0-14,11.3-25.3,25.3-25.3h41.4C271.4,48.8,282.7,60.2,282.7,74.1z"/>
</g>
<g id="r-portacepillos" class="st1">
	<polygon class="st7" points="660.3,933.2 248.8,933.2 248.8,718.4 248.8,458.2 660.3,458.2 660.3,721.4 	"/>
	<line class="st7" x1="660.3" y1="815.2" x2="248.8" y2="815.2"/>
	<line class="st7" x1="660.4" y1="879.1" x2="248.9" y2="879.1"/>
	<g class="st4">
		<polyline class="st9" points="399.4,458.2 399.4,405.5 355.7,310.8 355.7,159.1 355.7,66.8 		"/>
		<line class="st9" x1="454.7" y1="66.8" x2="355.8" y2="66.8"/>
		<line class="st9" x1="454.7" y1="98.7" x2="355.8" y2="98.7"/>
		<line class="st9" x1="454.7" y1="130.5" x2="355.8" y2="130.5"/>
		<line class="st9" x1="454.7" y1="162.4" x2="355.8" y2="162.4"/>
		<line class="st9" x1="454.7" y1="194.2" x2="355.8" y2="194.2"/>
		<line class="st9" x1="454.7" y1="226.1" x2="355.8" y2="226.1"/>
	</g>
	<g class="st4">
		<polyline class="st9" points="491.2,449.4 505.4,398.6 488.8,295.7 529.7,149.6 554.6,60.7 		"/>
		<line class="st9" x1="649.9" y1="87.4" x2="554.7" y2="60.8"/>
		<line class="st9" x1="641.3" y1="118.1" x2="546.1" y2="91.4"/>
		<line class="st9" x1="632.7" y1="148.8" x2="537.5" y2="122.1"/>
		<line class="st9" x1="624.1" y1="179.4" x2="528.9" y2="152.8"/>
		<line class="st9" x1="615.6" y1="210.1" x2="520.4" y2="183.5"/>
		<line class="st9" x1="607" y1="240.8" x2="511.8" y2="214.1"/>
	</g>
</g>
<g id="r-coladeras" class="st1">
	<circle class="st2" cx="500" cy="493.9" r="440.8"/>
	<circle class="st2" cx="500" cy="493.9" r="353.1"/>
	<circle class="st2" cx="500" cy="243.7" r="42.9"/>
	
		<ellipse transform="matrix(0.7071 -0.7071 0.7071 0.7071 -380.8429 571.9639)" class="st2" cx="500" cy="745.7" rx="42.9" ry="42.9"/>
	<path class="st2" d="M698.3,392.1H301.7c-14.6,0-26.4-11.8-26.4-26.4V345c0-14.6,11.8-26.4,26.4-26.4h396.6
		c14.6,0,26.4,11.8,26.4,26.4v20.7C724.7,380.2,712.9,392.1,698.3,392.1z"/>
	<path class="st2" d="M698.3,530.6H301.7c-14.6,0-26.4-11.8-26.4-26.4v-20.7c0-14.6,11.8-26.4,26.4-26.4h396.6
		c14.6,0,26.4,11.8,26.4,26.4v20.7C724.7,518.8,712.9,530.6,698.3,530.6z"/>
	<path class="st2" d="M698.3,669.2H301.7c-14.6,0-26.4-11.8-26.4-26.4V622c0-14.6,11.8-26.4,26.4-26.4h396.6
		c14.6,0,26.4,11.8,26.4,26.4v20.7C724.7,657.4,712.9,669.2,698.3,669.2z"/>
</g>
<g id="r-toallero" class="st1">
	<polyline class="st11" points="953.6,219 866,219 744,219 	"/>
	<line class="st11" x1="197.5" y1="219" x2="46.4" y2="219"/>
	<path class="st2" d="M744,130.4H291.3c-57.8,0-104.7,46.9-104.7,104.7v634.6H744V130.4z"/>
	<path class="st2" d="M755.6,130.4h33c42.7,0,77.4,34.6,77.4,77.4v559.8H744V142C744,135.6,749.2,130.4,755.6,130.4z"/>
	<polyline class="st2" points="186.6,573.1 265.9,600.4 369.9,562.9 465.3,600.4 554.1,562.9 647.9,600.4 744,562.9 	"/>
	<line class="st2" x1="186.6" y1="706.1" x2="744" y2="706.1"/>
</g>
<g id="r-consumibles" class="st1">
	<g class="st4">
		<path class="st9" d="M283.1,492.8L283.1,492.8v11.1c0,5.8,1,11.6,3,17.1"/>
		<path class="st9" d="M283.1,492.7L283.1,492.7C283,492.7,283.1,492.7,283.1,492.7C283,492.7,283,492.7,283.1,492.7
			C283.1,492.7,283.1,492.6,283.1,492.7C283.1,492.6,283.1,492.6,283.1,492.7C283.1,492.6,283.1,492.6,283.1,492.7
			C283.1,492.6,283.1,492.6,283.1,492.7L283.1,492.7v-0.3v-1.2v-1.3"/>
		<path class="st9" d="M377.5,589.2c2.2,0.7,4.4,1.4,6.7,2.1c33.5,10.1,73.2,16,115.9,16l0,0c36.5,0,70.9-4.3,101.1-11.9
			c7.4-1.9,14.6-3.9,21.4-6.2c47.6-15.5,81.6-39.9,91.5-68.1c2-5.6,3-11.3,3-17.1v-11.1v-0.1v-0.1v-0.2v-1.2V490v-97.1V179v-0.7
			c0,0.6,0,1.2,0,1.9c0,0.3,0,0.6,0,0.9c0,0.3,0,0.6-0.1,0.9c0,0.5-0.1,1.1-0.1,1.6c0,0.1,0,0.2,0,0.3c0,0.3-0.1,0.6-0.1,0.9
			c0,0.1,0,0.3-0.1,0.4c0,0.2,0,0.3-0.1,0.5c0,0.1,0,0.1,0,0.2c0,0.2-0.1,0.4-0.1,0.7c-0.1,0.7-0.2,1.3-0.4,2
			c-0.1,0.3-0.1,0.7-0.2,1c-0.1,0.3-0.2,0.7-0.2,1c-0.1,0.3-0.1,0.6-0.2,0.9c-0.1,0.3-0.2,0.6-0.2,0.8c-0.2,0.7-0.4,1.4-0.6,2.1
			c-0.2,0.7-0.5,1.4-0.7,2.1c-0.1,0.2-0.2,0.4-0.2,0.6v0.1c-0.1,0.2-0.2,0.4-0.3,0.6c-0.1,0.3-0.3,0.7-0.4,1
			c-0.3,0.6-0.6,1.3-0.9,1.9c-0.1,0.3-0.3,0.6-0.5,1c-0.1,0.3-0.3,0.6-0.4,0.9c-0.1,0.3-0.3,0.5-0.4,0.8c0,0.1-0.1,0.1-0.1,0.2
			c-0.2,0.4-0.4,0.8-0.6,1.1c0,0,0,0,0,0.1c-0.2,0.4-0.5,0.8-0.7,1.3c-0.2,0.4-0.5,0.8-0.7,1.2c0,0,0,0.1-0.1,0.1
			c-0.3,0.4-0.5,0.8-0.8,1.2c0,0,0,0,0,0.1c-0.7,1.1-1.5,2.2-2.3,3.3c-0.3,0.4-0.6,0.8-0.9,1.2c-0.3,0.4-0.6,0.8-0.9,1.2
			c-0.3,0.4-0.6,0.8-1,1.2c-0.3,0.4-0.7,0.8-1,1.2c-0.2,0.3-0.5,0.5-0.7,0.8c-0.2,0.2-0.4,0.4-0.5,0.6c-0.2,0.2-0.4,0.4-0.5,0.6
			c-0.3,0.3-0.5,0.6-0.8,0.9c-0.5,0.6-1.1,1.2-1.7,1.8c-0.3,0.3-0.6,0.6-0.9,0.9c-0.4,0.4-0.8,0.8-1.2,1.2c-0.6,0.6-1.2,1.2-1.9,1.8
			c-0.6,0.6-1.3,1.2-1.9,1.7c-0.3,0.3-0.6,0.5-0.8,0.7c-0.6,0.5-1.2,1-1.8,1.5c-0.3,0.2-0.5,0.4-0.8,0.6c-0.3,0.2-0.5,0.4-0.8,0.6
			c-0.6,0.5-1.2,1-1.9,1.5c-0.6,0.4-1.1,0.9-1.7,1.3c-1.9,1.4-3.8,2.8-5.8,4.1c-0.5,0.3-1,0.7-1.4,1c-1,0.7-2,1.3-3,2
			c-0.5,0.3-1,0.6-1.5,0.9c-1.2,0.7-2.3,1.4-3.5,2.1c-0.5,0.3-0.9,0.5-1.4,0.8c-0.4,0.2-0.8,0.5-1.2,0.7s-0.8,0.4-1.2,0.7
			c-0.4,0.2-0.7,0.4-1.1,0.6c-0.5,0.3-0.9,0.5-1.4,0.8s-1.1,0.6-1.6,0.9c-0.1,0-0.1,0.1-0.2,0.1c-0.5,0.3-1,0.5-1.6,0.8
			c-1.1,0.6-2.2,1.1-3.3,1.6s-2.3,1.1-3.5,1.6c-0.6,0.3-1.2,0.5-1.8,0.8c-0.7,0.3-1.5,0.7-2.2,1c-0.8,0.4-1.6,0.7-2.4,1.1
			c-0.5,0.2-1.1,0.5-1.6,0.7c-0.3,0.1-0.5,0.2-0.8,0.4c-0.3,0.1-0.6,0.3-0.9,0.4c-1.4,0.6-2.8,1.1-4.2,1.7c-0.7,0.3-1.3,0.5-2,0.8
			c-0.5,0.2-1,0.4-1.6,0.6c-0.5,0.2-1,0.4-1.5,0.6c-2.5,0.9-5.1,1.8-7.7,2.7c-0.8,0.3-1.6,0.5-2.4,0.8c-0.5,0.2-1.1,0.3-1.6,0.5
			c-0.4,0.1-0.8,0.2-1.2,0.4c-1,0.3-2,0.6-3,1c-3.1,1-6.3,1.9-9.6,2.8c-0.9,0.3-1.9,0.5-2.8,0.8c-1.2,0.3-2.4,0.6-3.6,0.9
			c-0.3,0.1-0.5,0.1-0.8,0.2c-0.8,0.2-1.6,0.4-2.4,0.6c-0.9,0.2-1.7,0.4-2.6,0.6c-0.4,0.1-0.9,0.2-1.3,0.3c-1.4,0.3-2.7,0.6-4.1,0.9
			c-0.9,0.2-1.8,0.4-2.7,0.6c-0.4,0.1-0.8,0.2-1.2,0.3c-1.8,0.4-3.6,0.7-5.4,1.1c-0.3,0.1-0.6,0.1-0.9,0.2c-0.5,0.1-1,0.2-1.4,0.3
			c-0.4,0.1-0.8,0.2-1.2,0.2c-0.2,0-0.4,0.1-0.5,0.1c-0.2,0-0.5,0.1-0.7,0.1c-0.9,0.2-1.8,0.3-2.6,0.5c-0.1,0-0.2,0-0.4,0.1
			c-0.6,0.1-1.2,0.2-1.8,0.3c-0.2,0-0.4,0.1-0.6,0.1c-0.1,0-0.1,0-0.2,0c-0.2,0-0.4,0.1-0.7,0.1h-0.1c-0.3,0-0.5,0.1-0.8,0.1h-0.1
			c-1.3,0.2-2.7,0.4-4,0.6c-3.5,0.5-7.1,1-10.7,1.4c-1.5,0.2-3.1,0.4-4.7,0.5h-0.1c-1.2,0.1-2.5,0.3-3.7,0.4
			c-0.9,0.1-1.7,0.2-2.6,0.3c-0.9,0.1-1.7,0.2-2.6,0.2c-1,0.1-2,0.2-3,0.3c-2.7,0.2-5.5,0.4-8.3,0.6c-0.9,0-1.7,0.1-2.6,0.2
			c-1.2,0.1-2.4,0.1-3.6,0.2c-0.1,0-0.2,0-0.2,0c-0.1,0-0.2,0-0.3,0c-1.3,0.1-2.6,0.1-3.9,0.2c-0.5,0-1.1,0.1-1.6,0.1
			c-1.2,0-2.5,0.1-3.7,0.1s-2.5,0.1-3.7,0.1c-1.1,0-2.1,0-3.2,0.1c-0.8,0-1.7,0-2.6,0c-1.1,0-2.2,0-3.4,0
			c-86.1,0-160.5-23.9-195.6-58.5c-13.7-13.6-21.4-28.8-21.4-44.8v0.7v213.8"/>
		<path class="st9" d="M716.9,178.3c0,57.1-97.1,103.3-216.9,103.3s-217-46.3-217-103.3c0-1.7,0.1-3.3,0.2-4.9
			C288.6,118.6,383.6,75,499.9,75s211.3,43.6,216.7,98.4C716.9,175,716.9,176.6,716.9,178.3z"/>
		<ellipse class="st9" cx="500" cy="187.7" rx="68.9" ry="15.6"/>
		<polyline class="st9" points="601.1,595.3 601.1,583.5 601.1,408.7 601.1,269.7 		"/>
	</g>
	<g class="st4">
		<path class="st9" d="M377.5,589.2c-28.5,6.6-60.6,10.3-94.4,10.3c-119.8,0-217-46.3-217-103.3v325.6c0,57.1,97.1,103.3,217,103.3
			c36.5,0,70.9-4.3,101.1-11.9C453,895.9,500,861.4,500,821.7V607.2"/>
		<path class="st9" d="M286,521c9.9,28.2,43.8,52.6,91.5,68.1c-28.5,6.6-60.6,10.3-94.4,10.3c-119.8,0-217-46.3-217-103.3
			c0-1.7,0.1-3.3,0.2-4.9c5.4-54.8,100.4-98.4,216.7-98.4v97.1"/>
		<polyline class="st9" points="282.9,491.2 283.1,491.2 283.2,491.2 		"/>
		<path class="st9" d="M283.1,492.4c0,0,0,0.1,0,0.2c0,0,0,0,0,0.1l0,0l0,0l0,0l0,0"/>
		<path class="st9" d="M283.1,492.6L283.1,492.6L283.1,492.6L283.1,492.6c0,0.1,0,0.1,0,0.1l0,0"/>
		<polyline class="st9" points="282.9,491.2 283.1,491.2 283.2,491.2 		"/>
		<path class="st9" d="M283.1,489.9c-38,0-68.9,7-68.9,15.6c0,8.6,30.8,15.6,68.9,15.6c1,0,2,0,3,0"/>
		<line class="st9" x1="384.1" y1="913.2" x2="384.1" y2="591.3"/>
	</g>
	<g class="st4">
		<path class="st9" d="M500,607.2v214.5c0,57.1,97.1,103.3,217,103.3c36.5,0,70.9-4.3,101.1-11.9C887,895.8,934,861.3,934,821.6
			V496.1c0,39.7-47,74.1-115.9,91.5c-30.2,7.6-64.6,11.9-101.1,11.9c-33.8,0-65.9-3.7-94.4-10.3"/>
		<line class="st9" x1="601.1" y1="583.5" x2="601.1" y2="408.7"/>
		<path class="st9" d="M622.5,589.2c28.5,6.6,60.6,10.3,94.4,10.3c36.5,0,70.9-4.3,101.1-11.9c68.9-17.3,115.9-51.8,115.9-91.5
			c0-1.7-0.1-3.3-0.2-4.9c-5.4-54.8-100.4-98.4-216.7-98.4l0,0"/>
		<path class="st9" d="M716.8,491.2h0.2c-0.2,1.6-0.2,3.3-0.2,4.9V491.2z"/>
		<path class="st9" d="M717.1,491.2v4.9c0-1.7-0.1-3.3-0.2-4.9H717.1z"/>
		<path class="st9" d="M716.9,489.9c38,0,68.9,7,68.9,15.6c0,8.6-30.8,15.6-68.9,15.6c-1,0-2,0-3,0"/>
		<line class="st9" x1="818" y1="587.6" x2="818" y2="913.2"/>
	</g>
</g>
<g id="r-accesorios_1_" class="st1">
	<g id="r-accesorios" class="st4">
		<path class="st12" d="M329.8,696.5v221.8H74.1V696.5c0-18.7,15.2-33.9,33.9-33.9h187.9C314.6,662.5,329.8,677.7,329.8,696.5z"/>
		<path class="st12" d="M268.8,562.7v99.8H135.1v-99.8c0-18.7,15.2-33.9,33.9-33.9h65.9C253.6,528.8,268.8,544,268.8,562.7z"/>
		<path class="st12" d="M607.9,345.7v572.6H329.8V696.5c0-18.7-15.2-33.9-33.9-33.9h-27.1v-99.8c0-18.7-15.2-33.9-33.9-33.9h-16.2
			V345.7c0-18.7,15.2-33.9,33.9-33.9H574C592.7,311.7,607.9,326.9,607.9,345.7z"/>
		<path class="st12" d="M515.1,165.5v146.3H311.5V165.5c0-18.7,15.2-33.9,33.9-33.9h135.7C499.9,131.5,515.1,146.7,515.1,165.5z"/>
		<line class="st12" x1="369.3" y1="131.5" x2="369.3" y2="81.7"/>
		<line class="st12" x1="460.3" y1="131.5" x2="460.3" y2="81.7"/>
		<path class="st12" d="M925.8,612.2l-31.6,306.1H607.9V585.7h294C916.2,585.7,927.3,598.1,925.8,612.2z"/>
	</g>
	<g class="st4">
		<polyline class="st9" points="729.3,585.7 743.5,535 726.9,432.1 767.8,286 792.7,197.1 		"/>
		<line class="st9" x1="888" y1="223.8" x2="792.8" y2="197.2"/>
		<line class="st9" x1="879.4" y1="254.5" x2="784.2" y2="227.8"/>
		<line class="st9" x1="870.9" y1="285.1" x2="775.7" y2="258.5"/>
		<line class="st9" x1="862.3" y1="315.8" x2="767.1" y2="289.2"/>
		<line class="st9" x1="853.7" y1="346.5" x2="758.5" y2="319.8"/>
		<line class="st9" x1="845.1" y1="377.2" x2="749.9" y2="350.5"/>
	</g>
</g>
<g id="r-muebles" class="st1">
	<path class="st7" d="M943.3,369.1v450.3H56.7V369.1h158.1C254.3,435.6,327,480.2,410,480.2h180.1c62.7,0,119.4-25.4,160.5-66.5
		c13.3-13.3,25-28.3,34.7-44.7h158V369.1z"/>
	<path class="st7" d="M817,253.3c0,42.3-11.6,81.9-31.7,115.8c-9.7,16.3-21.4,31.3-34.7,44.7c-41.1,41.1-97.8,66.5-160.5,66.5H409.9
		c-83,0-155.6-44.6-195.2-111.1c-20.2-33.9-31.7-73.5-31.7-115.8h634V253.3z"/>
	<rect x="140.3" y="819.5" class="st7" width="719.4" height="88.8"/>
	<line class="st7" x1="500" y1="819.5" x2="500" y2="480.3"/>
	<line class="st7" x1="443.4" y1="564.5" x2="443.4" y2="688.5"/>
	<line class="st7" x1="568.6" y1="564.5" x2="568.6" y2="688.5"/>
	<path class="st7" d="M500,253.3v-87.7c0-91.2-116.2-110-117.4,12.9"/>
</g>
<g id="r-espejos">
	<g>
		<rect x="177.2" y="600.3" class="st13" width="645.7" height="125.5"/>
		<path class="st13" d="M881.6,74.1v416.4H545.5v-22.4c0-25.1-20.4-45.5-45.5-45.5s-45.5,20.4-45.5,45.5v22.4H118.4V74.1H881.6z"/>
		<line class="st13" x1="208.6" y1="266.4" x2="317.9" y2="165.2"/>
		<line class="st13" x1="199" y1="399.5" x2="452.1" y2="165.2"/>
		<line class="st13" x1="334.3" y1="399.5" x2="508.2" y2="238.5"/>
		<g>
			<path class="st13" d="M545.5,499.3v93.4h-91v-93.4C476.8,529.8,530.2,527,545.5,499.3z"/>
			<path class="st13" d="M545.5,468.2v31.1c-15.3,27.7-68.8,30.6-91,0v-31.1c0-25.1,20.4-45.5,45.5-45.5
				C525.1,422.7,545.5,443,545.5,468.2z"/>
		</g>
	</g>
	<rect x="212.4" y="725.8" class="st13" width="575.2" height="200.1"/>
</g>
</svg>
