<?xml version="1.0" encoding="utf-8"?>
<!-- Generator: Adobe Illustrator 25.1.0, SVG Export Plug-In . SVG Version: 6.00 Build 0)  -->
<svg version="1.1" id="Capa_1" xmlns="http://www.w3.org/2000/svg" xmlns:xlink="http://www.w3.org/1999/xlink" x="0px" y="0px"
	 viewBox="0 0 141.7 141.7" style="enable-background:new 0 0 141.7 141.7;" xml:space="preserve">
<style type="text/css">
	.st0{fill:#020203;}
</style>
<g>
	<path class="st0" d="M92,111.6c-12.7,0-27.3-8.2-43.5-24.4C24.4,63.1,22.4,46.6,25,37c0.8-2.7,2.5-4.9,4.9-6.3l7.2-4.3
		c0.9-0.5,1.9-0.8,2.9-0.8c1.9,0,3.6,0.9,4.6,2.5l11.5,17.2c1.6,2.4,1.1,5.7-1.2,7.5l-6.4,5c-0.6,0.5-0.8,1.3-0.4,2l0.5,1
		c1.7,3.1,3.8,7,11.7,14.9s11.8,10,14.9,11.7l1,0.5c0.2,0.1,0.5,0.2,0.8,0.2c0.5,0,1-0.2,1.3-0.6l5-6.4c1.1-1.4,2.7-2.1,4.4-2.1
		c1.1,0,2.2,0.3,3.1,0.9L108,91.4c2.5,1.7,3.2,4.9,1.7,7.5l-4.3,7.2c-1.4,2.4-3.7,4.1-6.3,4.9c-2.2,0.6-4.4,0.9-6.7,0.9
		C92.1,111.6,92,111.6,92,111.6z M40,29.5c-0.3,0-0.6,0.1-0.8,0.2L32,34c-1.5,0.9-2.6,2.3-3.1,4c-2.4,8.6-0.4,23.6,22.5,46.4
		c15.4,15.4,29.1,23.2,40.6,23.2c2,0,4-0.3,5.8-0.8c1.7-0.5,3.1-1.6,4-3.1l4.3-7.2c0.4-0.7,0.2-1.7-0.5-2.2L88.4,83
		c-0.3-0.2-0.6-0.3-0.9-0.3c-0.5,0-1,0.2-1.3,0.6l-5,6.4c-1.1,1.4-2.7,2.2-4.4,2.2c-0.9,0-1.9-0.2-2.7-0.7l-0.9-0.5
		c-3.4-1.8-7.5-4.1-15.8-12.4C49.1,70.1,46.9,65.9,45,62.6l-0.5-0.9c-1.3-2.4-0.7-5.4,1.5-7.1l6.4-5c0.7-0.5,0.8-1.5,0.3-2.2
		L41.3,30.2C41,29.8,40.5,29.5,40,29.5z"/>
	<path class="st0" d="M107.5,91.7L90.3,80.2c-2.2-1.4-5.1-1-6.7,1.1l-5,6.4c-0.6,0.8-1.8,1.1-2.7,0.6l-1-0.5
		c-3.2-1.7-7.1-3.9-15-11.8S49.8,64.1,48,61l-0.5-1c-0.5-0.9-0.3-2.1,0.6-2.8l6.4-5c2.1-1.6,2.5-4.5,1.1-6.7L44.1,28.3
		c-1.5-2.2-4.4-2.9-6.7-1.5l-7.2,4.3c-2.3,1.3-3.9,3.5-4.6,6C23,46.5,25,62.8,49,86.8c19,19.1,33.2,24.3,43,24.3
		c2.2,0,4.5-0.3,6.7-0.9c2.5-0.7,4.7-2.4,6-4.6l4.3-7.2C110.4,96.1,109.7,93.1,107.5,91.7z M106.6,96.9l-4.3,7.2
		c-1,1.6-2.5,2.8-4.3,3.3c-8.7,2.4-23.9,0.4-47-22.6s-25-38.3-22.6-47c0.5-1.8,1.7-3.4,3.4-4.3l7.2-4.3c1-0.6,2.3-0.3,2.9,0.7
		l6.2,9.4l5.2,7.8c0.6,0.9,0.4,2.2-0.5,2.9l-6.4,5c-2,1.5-2.5,4.2-1.3,6.4l0.5,0.9c1.8,3.3,4.1,7.5,12.3,15.7s12.3,10.5,15.7,12.3
		l0.9,0.5c2.2,1.2,4.9,0.6,6.4-1.3l5-6.4c0.7-0.9,2-1.1,2.9-0.5L105.9,94C106.9,94.7,107.2,95.9,106.6,96.9z"/>
	<path class="st0" d="M98.4,66.3c-1.1,0-2-0.9-2-2c0-12.9-10.6-23.5-23.5-23.5c-1.1,0-2-0.9-2-2s0.9-2,2-2
		c15.1,0,27.5,12.3,27.5,27.5C100.4,65.4,99.5,66.3,98.4,66.3z"/>
	<path class="st0" d="M72.9,40.3c13.3,0,24,10.7,24.1,24c0,0.8,0.6,1.4,1.4,1.4s1.4-0.6,1.4-1.4c0-14.9-12.1-26.9-26.9-26.9
		c-0.8,0-1.4,0.6-1.4,1.4C71.5,39.6,72.1,40.3,72.9,40.3z"/>
	<path class="st0" d="M89.9,66.3c-1.1,0-2-0.9-2-2c0-8.3-6.7-15-15-15c-1.1,0-2-0.9-2-2s0.9-2,2-2c10.5,0,19,8.5,19,19
		C91.9,65.4,91,66.3,89.9,66.3z"/>
	<path class="st0" d="M72.9,48.8c8.6,0,15.6,7,15.6,15.6c0,0.8,0.6,1.4,1.4,1.4s1.4-0.6,1.4-1.4c0-10.2-8.2-18.4-18.4-18.4
		c-0.8,0-1.4,0.6-1.4,1.4C71.5,48.1,72.1,48.8,72.9,48.8z"/>
	<path class="st0" d="M81.4,66.3c-1.1,0-2-0.9-2-2c0-3.6-2.9-6.5-6.5-6.5c-1.1,0-2-0.9-2-2s0.9-2,2-2c5.8,0,10.5,4.7,10.5,10.5
		C83.4,65.4,82.5,66.3,81.4,66.3z"/>
	<path class="st0" d="M72.9,57.3c3.9,0,7.1,3.2,7.1,7.1c0,0.8,0.6,1.4,1.4,1.4s1.4-0.6,1.4-1.4c0-5.5-4.4-9.9-9.9-9.9
		c-0.8,0-1.4,0.6-1.4,1.4S72.1,57.3,72.9,57.3z"/>
</g>
</svg>
