<?xml version="1.0" encoding="utf-8"?>
<!-- Generator: Adobe Illustrator 25.1.0, SVG Export Plug-In . SVG Version: 6.00 Build 0)  -->
<svg version="1.1" id="Capa_1" xmlns="http://www.w3.org/2000/svg" xmlns:xlink="http://www.w3.org/1999/xlink" x="0px" y="0px"
	 viewBox="0 0 141.7 141.7" style="enable-background:new 0 0 141.7 141.7;" xml:space="preserve">
<style type="text/css">
	.st0{fill:#020203;}
</style>
<g>
	<g>
		<g>
			<path class="st0" d="M55.5,94.5c-4.9,0-8.9,4-8.9,8.9s4,8.9,8.9,8.9s8.9-4,8.9-8.9C64.4,98.4,60.4,94.5,55.5,94.5z M55.5,108.3
				c-2.7,0-4.9-2.2-4.9-4.9c0-2.7,2.2-4.9,4.9-4.9c2.7,0,4.9,2.2,4.9,4.9C60.4,106,58.2,108.3,55.5,108.3z"/>
			<path class="st0" d="M92.9,94.5c-4.9,0-8.9,4-8.9,8.9s4,8.9,8.9,8.9s8.9-4,8.9-8.9C101.8,98.4,97.8,94.5,92.9,94.5z M92.9,108.3
				c-2.7,0-4.9-2.2-4.9-4.9c0-2.7,2.2-4.9,4.9-4.9c2.7,0,4.9,2.2,4.9,4.9C97.9,106,95.7,108.3,92.9,108.3z"/>
			<path class="st0" d="M112.9,42.7c-0.4-0.4-1-0.7-1.6-0.8L47.2,41l-1.8-5.4c-1.2-3.6-4.6-6.1-8.5-6.1h-6.6c-1.1,0-2,0.9-2,2
				c0,1.1,0.9,2,2,2h6.6c2.1,0,4,1.4,4.7,3.4l12.5,37.7l-1,2.3c-1.1,2.8-0.8,6,0.9,8.6c1.6,2.5,4.4,4,7.4,4.1h38.4c1.1,0,2-0.9,2-2
				s-0.9-2-2-2H61.5c-1.7,0-3.2-0.9-4.1-2.4c-0.9-1.4-1.1-3.2-0.5-4.7l0.8-1.8l41.5-4.3c4.6-0.5,8.3-3.8,9.4-8.3l4.7-19.8
				C113.5,43.8,113.3,43.2,112.9,42.7z M104.7,63.3c-0.6,2.9-3.1,5-6,5.2l-41,4.2L48.5,45l60.4,0.9L104.7,63.3z"/>
		</g>
	</g>
</g>
</svg>
