<svg xmlns="http://www.w3.org/2000/svg" width="171.447" height="71.322" viewBox="0 0 171.447 71.322"><defs><style>.a,.b{fill:#b8bfc2;}.b{fill-rule:evenodd;}</style></defs><g transform="translate(-45.733 -751.58)"><g transform="translate(45.733 766.201)"><path class="a" d="M-1399.5-782.153c-2.288,2.686-2.768,4.732-4.265,8.1-9.792,22.042-43.763,7.315-55.172,12.637-10.046,4.687-13.994,12.019-19.765,22.007,4.4-4.715,7.528-7.455,13.109-10.086,14.514-6.84,25.121,4.936,40.622-3.215,2.887-1.516,16.679-14.55,28.48-25.394,4.705-4.324,10.526-2.943,16.994-1.5.981.218,1.672,1.159,3.369.64V-787c-.978.454-2.526-.361-3.6-.513-7.2-1.01-14.442-.888-19.768,5.363" transform="translate(1478.705 787.988)"/></g><g transform="translate(46.513 790.092)"><path class="a" d="M-1330.926-602.791c-10.066,8.327-10.171,17.7-21.116,23.1-13.338,6.583-24.28-3.126-38.137,0a30.791,30.791,0,0,0-16.067,9.209c4.265-7.18,6.388-10.712,11.5-15.155,3.01-1.686,3.237-2.594,9.56-3.186,6.021-.563,23.477,5.7,33.02-1.216,1.577-1.144,2.976-2.043,4.249-3.093,8.144-2.248,11.332-3.746,15.725-10.16q.623.274,1.266.5" transform="translate(1406.247 603.288)"/></g><g transform="translate(89.523 752.243)"><path class="a" d="M0,38.642c12.312,0,17.372-.773,17.372-14.906V0H8.295V25.283c0,3.147-.99,4.084-4.643,4.084H0v9.275"/></g><g transform="translate(170.477 752.241)"><path class="a" d="M-418.622-721.455h-6.995c-9.81,0-16.7,8.612-16.7,19.321s6.887,19.321,16.7,19.321h6.995v-8.943c-8.192,0-11.586-1.028-13.987-6.66v-7.912c2.3-5.191,5.587-6.185,13.987-6.185v-8.942" transform="translate(442.313 721.455)"/></g><g transform="translate(197.25 752.241)"><path class="a" d="M-352.17-143.8h-6.209c-3.65,0-4.644-.938-4.644-4.084v-25.285H-372.1V-147c0,8.944,4.176,12.478,12.992,12.478h6.938V-143.8" transform="translate(372.1 173.167)"/></g><g transform="translate(156.885 767.233)"><rect class="a" width="37.516" height="8.049" transform="translate(0 0)"/></g><g transform="translate(108.955 751.58)"><path class="b" d="M-494.1-353.137c0,5.52-4.068,10.159-9.391,10.159s-9.39-4.639-9.39-10.159,4.069-10.158,9.39-10.158,9.391,4.638,9.391,10.158m9.182,0c0-10.821-8.192-19.984-18.573-19.984s-18.571,9.163-18.571,19.984,8.191,19.985,18.571,19.985,18.573-9.166,18.573-19.985" transform="translate(522.063 373.121)"/></g><g transform="translate(126.222 774.076)"><path class="a" d="M-59.452-71.769A13.508,13.508,0,0,1-53.7-74.058c-.954,3.3-4.136,6.243-7.62,6.243a9.1,9.1,0,0,1-1.493-.067,12.371,12.371,0,0,1,3.365-3.887" transform="translate(62.817 74.058)"/></g><g transform="translate(171.96 767.236)"><rect class="a" width="0.748" height="8.026" transform="translate(0 0)"/></g><g transform="translate(171.167 767.236)"><rect class="a" width="0.747" height="8.026" transform="translate(0 0)"/></g><g transform="translate(170.374 767.236)"><rect class="a" width="0.746" height="8.026" transform="translate(0 0)"/></g><g transform="translate(169.581 767.236)"><rect class="a" width="0.746" height="8.026" transform="translate(0 0)"/></g><g transform="translate(168.787 767.236)"><rect class="a" width="0.746" height="8.026" transform="translate(0 0)"/></g><g transform="translate(167.994 767.236)"><rect class="a" width="0.746" height="8.026" transform="translate(0 0)"/></g><g transform="translate(167.2 767.236)"><rect class="a" width="0.747" height="8.026" transform="translate(0 0)"/></g><g transform="translate(166.406 767.236)"><rect class="a" width="0.747" height="8.026" transform="translate(0 0)"/></g><g transform="translate(165.614 767.236)"><rect class="a" width="0.747" height="8.026" transform="translate(0 0)"/></g><g transform="translate(164.82 767.236)"><rect class="a" width="0.748" height="8.026" transform="translate(0 0)"/></g><g transform="translate(164.028 767.236)"><rect class="a" width="0.746" height="8.026" transform="translate(0 0)"/></g><g transform="translate(163.235 767.236)"><rect class="a" width="0.746" height="8.026" transform="translate(0 0)"/></g><g transform="translate(162.441 767.236)"><rect class="a" width="0.747" height="8.026" transform="translate(0 0)"/></g><g transform="translate(161.648 767.236)"><rect class="a" width="0.746" height="8.026" transform="translate(0 0)"/></g><g transform="translate(160.853 767.236)"><rect class="a" width="0.747" height="8.026" transform="translate(0 0)"/></g><g transform="translate(160.06 767.236)"><rect class="a" width="0.747" height="8.026" transform="translate(0 0)"/></g><g transform="translate(159.267 767.236)"><rect class="a" width="0.747" height="8.026" transform="translate(0 0)"/></g><g transform="translate(158.474 767.236)"><rect class="a" width="0.747" height="8.026" transform="translate(0 0)"/></g><g transform="translate(157.682 767.236)"><rect class="a" width="0.747" height="8.026" transform="translate(0 0)"/></g><g transform="translate(156.889 767.236)"><rect class="a" width="0.746" height="8.026" transform="translate(0 0)"/></g><g transform="translate(147.965 752.242)"><path class="a" d="M-160.4-267.846v-10.807c0-1.986.782-2.98,3.182-2.98h8.925v-9.275h-10.387c-6.626,0-10.8,5.08-10.8,11.814v26.829h9.077v-15.581" transform="translate(169.475 290.909)"/></g></g></svg>