<svg xmlns="http://www.w3.org/2000/svg" width="201.809" height="59.989" viewBox="0 0 201.809 59.989"><defs><style>.a{fill:#b8bfc2;}</style></defs><g transform="translate(-2800.759 -1054.932)"><g transform="translate(2834.101 1062.254)"><path class="a" d="M-333.242-855.172q0,.489-1.357.489a16.128,16.128,0,0,0-3.036.161c-.389.107-.613.292-.68.55a17.377,17.377,0,0,0-.1,2.524v26.786q.064,4.465,0,7.312a34.762,34.762,0,0,1-.58,6.018,10.289,10.289,0,0,1-3.8,5.791,10.121,10.121,0,0,1-6.436,2.426,6.018,6.018,0,0,1-4.056-1.323,4.341,4.341,0,0,1-1.545-3.459q0-3.681,3.62-3.683a3.581,3.581,0,0,1,2.488.9,2.993,2.993,0,0,1,1,2.326,3.273,3.273,0,0,1-.84,2.2,2.068,2.068,0,0,0-.582,1.1q0,.581.969.582,2.068,0,2.908-2.52.452-1.359.453-7.949v-36.9q0-2.068-1.228-2.585a13.928,13.928,0,0,0-3.1-.193,4.762,4.762,0,0,1-1.454-.129.415.415,0,0,1-.29-.388c0-.43.343-.646,1.034-.646h14.54q2.068,0,2.067.61" transform="translate(354.826 855.782)"/></g><g transform="translate(2848.682 1061.349)"><path class="a" d="M-419.047-186.7a12.423,12.423,0,0,1-4.233,9.468,14.47,14.47,0,0,1-10.178,3.91,21.384,21.384,0,0,1-8.336-2.132,5.362,5.362,0,0,0-1.939-.582q-.775,0-.969,1.79c-.043.615-.324.925-.84.925-.432,0-.646-.258-.646-.776a3.417,3.417,0,0,1,.065-.775,56.389,56.389,0,0,0,.517-7.3q0-.645-.129-3.619a6.622,6.622,0,0,1-.065-1.034q0-.969.776-.969.645,0,.905,1.566,1.678,11.618,10.921,11.618a8.119,8.119,0,0,0,6.107-2.231,8.669,8.669,0,0,0,2.164-6.3,9.4,9.4,0,0,0-2.1-6.171,21.942,21.942,0,0,0-7.2-5.074q-6.141-3.036-8.531-5.881a10.56,10.56,0,0,1-2.39-7.043,12.059,12.059,0,0,1,3.457-8.853,11.81,11.81,0,0,1,8.757-3.49,18.414,18.414,0,0,1,6.074,1.487,6.367,6.367,0,0,0,2,.517,1.251,1.251,0,0,0,.937-.258,3.371,3.371,0,0,0,.42-1.357.687.687,0,0,1,.71-.646q.646,0,.647.776a3.466,3.466,0,0,1-.065.775,30.814,30.814,0,0,0-.194,3.749,29.184,29.184,0,0,0,.324,4.91l.064,1.034q.064.713-.581.712-.713,0-.97-1.487a11.537,11.537,0,0,0-3.361-6.365,8.368,8.368,0,0,0-5.945-2.553,6.649,6.649,0,0,0-5.137,2.068,7.973,7.973,0,0,0-1.907,5.622,8.556,8.556,0,0,0,2.78,6.657,33.947,33.947,0,0,0,6.72,4.005q6.073,3.04,8.724,6.172a10.756,10.756,0,0,1,2.65,7.14" transform="translate(446.188 219.917)"/></g><g transform="translate(2800.759 1066.024)"><path class="a" d="M-322.511-650.934a8.308,8.308,0,0,0-.08,1.158,6.215,6.215,0,0,0,2.02,4.834,24.649,24.649,0,0,0,4.881,2.911,20.04,20.04,0,0,1,6.339,4.483,7.817,7.817,0,0,1,1.925,5.186,9.022,9.022,0,0,1-3.075,6.877,10.509,10.509,0,0,1-7.394,2.841,15.537,15.537,0,0,1-6.056-1.551,3.92,3.92,0,0,0-1.409-.421.414.414,0,0,0-.223.066c-.051.377-.11.716-.175,1.006a7.481,7.481,0,0,1-2.758,4.208,7.357,7.357,0,0,1-4.676,1.761,4.369,4.369,0,0,1-2.945-.962,3.149,3.149,0,0,1-1.123-2.512,2.345,2.345,0,0,1,2.629-2.675,2.593,2.593,0,0,1,1.808.659,2.172,2.172,0,0,1,.727,1.689,2.382,2.382,0,0,1-.61,1.6,1.5,1.5,0,0,0-.424.8c0,.282.236.424.7.424q1.5,0,2.113-1.832a27.55,27.55,0,0,0,.329-5.774V-649.9A19.82,19.82,0,0,0-343.4-631.152a19.813,19.813,0,0,0,19.814,19.814,19.813,19.813,0,0,0,19.814-19.814,19.813,19.813,0,0,0-18.738-19.783" transform="translate(343.4 650.934)"/></g><g transform="translate(2818.823 1073.771)"><path class="a" d="M-117.778,19.605a5.9,5.9,0,0,0,4.436-1.621,6.3,6.3,0,0,0,1.572-4.577A6.833,6.833,0,0,0-113.3,8.925,15.933,15.933,0,0,0-118.53,5.24a19.522,19.522,0,0,1-6.2-4.271A7.071,7.071,0,0,1-125.407,0V9.961q.023,1.6.023,2.905,1.614,6.731,7.605,6.739" transform="translate(125.407)"/></g><g transform="translate(2875.301 1065.635)"><path class="a" d="M-582.636-24.554q0,.535-1.681.611a27.59,27.59,0,0,0-10.465,2.6,1.22,1.22,0,0,1-.534.154q-.46,0-.459-.611v-4.278a11.318,11.318,0,0,1-9.777,4.889q-5.608,0-8.033-3.262a6.12,6.12,0,0,1-1.175-2.5,55.183,55.183,0,0,1-.189-6.145V-50.476a8.384,8.384,0,0,0-.306-3.111q-.306-.455-2.063-.531h-.993q-2.062.156-2.063-.611,0-.533,1.3-.535,1.374,0,3.972.2,1.3.1,1.528.1a37.677,37.677,0,0,0,4.966-.306v21.211q0,5.855.763,7.755,1.221,2.965,4.965,2.965a6.386,6.386,0,0,0,5.958-3.346q1.375-2.432,1.375-7.756V-46.217a24.139,24.139,0,0,0-.23-3.878V-52.6q-.077-1.137-.5-1.33a4.994,4.994,0,0,0-1.719-.19q-3.209.077-3.208-.685,0-.453,1.6-.455H-589.2v21.313A61.9,61.9,0,0,0-588.978-27q.226,1.451,1.168,1.681a23.783,23.783,0,0,0,4.269.229c.6,0,.905.179.905.535" transform="translate(620.373 55.263)"/></g><g transform="translate(2911.892 1054.932)"><path class="a" d="M-168.653-667.287q0,3.436-3.437,3.437a3.388,3.388,0,0,1-2.445-.955,3.1,3.1,0,0,1-.992-2.331q0-3.589,3.437-3.589t3.437,3.438m5.731,40.113q0,.688-1.3.687c.052,0-.561-.051-1.833-.152q-2.291-.153-3.82-.153h-7.944a1.43,1.43,0,0,1-.916.3c-.563,0-.841-.188-.841-.566q0-.81,1.527-.809,2.9-.076,3.171-.421a9.141,9.141,0,0,0,.268-3.169V-654.6a13.151,13.151,0,0,0-.191-2.254q-.116-.343-.956-.344h-2.978c-.563,0-.841-.177-.841-.535,0-.311.426-.489,1.281-.535a18.233,18.233,0,0,0,8.668-2.381l.755-.446a10,10,0,0,1,.6,4.192v24.542a29,29,0,0,0,.114,3.582.915.915,0,0,0,.8.686,14.012,14.012,0,0,0,3.363.3c.712,0,1.07.2,1.07.611" transform="translate(179.577 670.725)"/></g><g transform="translate(2927.399 1059.294)"><path class="a" d="M-350.282-54.022q0,.689-1.91,2.446a11.214,11.214,0,0,1-7.792,2.978q-4.2,0-6.34-2.134-1.223-1.217-1.223-7.165V-80.608a.85.85,0,0,0-.841-.84h-2.9q-1.681,0-1.68-.534c0-.355.279-.56.835-.611a11.753,11.753,0,0,0,9.26-5.875,1.336,1.336,0,0,1,1.139-.7.47.47,0,0,1,.53.535v1.6A16.761,16.761,0,0,0-360.9-82.9a11.813,11.813,0,0,0,2.291.152,25.5,25.5,0,0,0,5.577-.382,2.265,2.265,0,0,1,.534-.076q.613,0,.613.659,0,1.1-6.188,1.1h-3.132v14.134q0,10.7.535,13.406a3.16,3.16,0,0,0,3.515,2.713q2.52,0,5.652-2.827a.88.88,0,0,1,.687-.382c.357,0,.535.129.535.382" transform="translate(372.97 89.162)"/></g><g transform="translate(2948.713 1064.718)"><path class="a" d="M-337.334-397.824q-.308-9.168-6.571-9.167-6.186,0-7.715,9.167Zm6.644,15.583a6.718,6.718,0,0,1-1.183,2.712,16.82,16.82,0,0,1-2.407,3.17A11.711,11.711,0,0,1-343.064-373a15.066,15.066,0,0,1-11.5-4.965,17.364,17.364,0,0,1-4.621-12.3,18.9,18.9,0,0,1,4.393-12.758,13.859,13.859,0,0,1,10.964-5.118,13.414,13.414,0,0,1,9.089,3.169,10.975,10.975,0,0,1,3.9,8.137,39.127,39.127,0,0,1-6.491.307h-5.348q-.536,0-9.167.226a31.768,31.768,0,0,0-.383,4.8q0,7.69,2.942,11.837A9.565,9.565,0,0,0-341-375.518a7.949,7.949,0,0,0,4.89-1.375,16.836,16.836,0,0,0,3.972-5.27.931.931,0,0,1,.84-.611c.407,0,.609.179.609.534" transform="translate(359.183 408.136)"/></g><g transform="translate(2980.644 1063.572)"><path class="a" d="M-338.484-149.3a10.071,10.071,0,0,1-3.224,7.541,10.72,10.72,0,0,1-7.7,3.1,14.875,14.875,0,0,1-6.3-1.832,3.78,3.78,0,0,0-1.746-.535q-1.064,0-1.594,1.451c-.2.61-.481.917-.835.917s-.529-.2-.529-.611V-149.5c0-.559.176-.84.533-.84.409,0,.637.283.689.847a11.41,11.41,0,0,0,1.987,5.54,9.758,9.758,0,0,0,8.172,4,6.147,6.147,0,0,0,4.433-1.607,5.661,5.661,0,0,0,1.68-4.286,6.149,6.149,0,0,0-1.91-4.749,8.228,8.228,0,0,0-1.949-1.417q-.878-.42-5.156-2.029-8.48-3.215-8.479-9.645a9.832,9.832,0,0,1,2.879-7.2A9.627,9.627,0,0,1-350.4-173.8a17.434,17.434,0,0,1,4.547.917,4.774,4.774,0,0,0,1.364.23,1.836,1.836,0,0,0,1.97-1.528c.152-.509.381-.764.683-.764.355,0,.531.2.531.612v3.667a42.941,42.941,0,0,0,.381,5.881v.154a.54.54,0,0,1-.611.611q-.457,0-1.146-2.313a8.917,8.917,0,0,0-2.941-4.472,7.512,7.512,0,0,0-4.851-1.7,5.937,5.937,0,0,0-4.277,1.608,5.377,5.377,0,0,0-1.681,4.059q0,3.83,5.118,5.819,7.945,3.14,10.084,5.206a8.748,8.748,0,0,1,2.75,6.509" transform="translate(360.408 174.943)"/></g></g></svg>