<?xml version="1.0" encoding="utf-8"?>
<!-- Generator: Adobe Illustrator 24.1.2, SVG Export Plug-In . SVG Version: 6.00 Build 0)  -->
<svg version="1.1" xmlns="http://www.w3.org/2000/svg" xmlns:xlink="http://www.w3.org/1999/xlink" x="0px" y="0px"
	 viewBox="0 0 1000 1000" style="enable-background:new 0 0 1000 1000;" xml:space="preserve">
<style type="text/css">
	.st0{display:none;}
	.st1{display:inline;fill:#FFFFFF;fill-opacity:0;}
	.st2{display:inline;fill:none;stroke:#333333;stroke-width:20;stroke-miterlimit:10;}
	.st3{display:inline;fill:#333333;}
	.st4{display:inline;}
	.st5{fill:none;stroke:#333333;stroke-width:20;stroke-miterlimit:10;}
	.st6{fill:#333333;}
	.st7{display:inline;fill:none;stroke:#333333;stroke-width:20;stroke-linecap:round;stroke-linejoin:round;stroke-miterlimit:10;}
	.st8{fill:none;stroke:#333333;stroke-width:20;stroke-linecap:square;stroke-linejoin:round;stroke-miterlimit:10;}
	.st9{fill:none;stroke:#333333;stroke-width:20;stroke-linecap:round;stroke-linejoin:round;stroke-miterlimit:10;}
	.st10{display:inline;fill:none;stroke:#333333;stroke-width:20;stroke-linecap:round;stroke-miterlimit:10;}
	.st11{display:inline;fill:none;stroke:#333333;stroke-width:30;stroke-miterlimit:10;}
	.st12{fill:none;stroke:#333333;stroke-width:20;stroke-linecap:round;stroke-miterlimit:10;}
	.st13{fill:none;stroke:#333333;stroke-width:20;stroke-linecap:round;stroke-miterlimit:10;stroke-dasharray:18.0215,52.5627;}
	.st14{fill:none;stroke:#333333;stroke-width:20;stroke-linecap:round;stroke-miterlimit:10;stroke-dasharray:17.7876,51.8804;}
	.st15{fill:none;stroke:#333333;stroke-width:20;stroke-linecap:round;stroke-miterlimit:10;stroke-dasharray:17.7475,51.7635;}
	.st16{fill:none;stroke:#333333;stroke-width:20;stroke-linecap:round;stroke-miterlimit:10;stroke-dasharray:17.9678,52.406;}
	.st17{fill:none;stroke:#333333;stroke-width:20;stroke-linecap:round;stroke-miterlimit:10;stroke-dasharray:17.5869,51.2951;}
	.st18{display:inline;fill:none;stroke:#ACACAC;stroke-width:20;stroke-linecap:round;stroke-linejoin:round;stroke-miterlimit:10;}
	.st19{display:inline;fill:none;stroke:#ACACAC;stroke-width:20;stroke-miterlimit:10;}
	.st20{display:inline;fill:none;stroke:#ACACAC;stroke-width:20;stroke-linecap:round;stroke-miterlimit:10;}
	.st21{fill:none;stroke:#ACACAC;stroke-width:20;stroke-linecap:round;stroke-linejoin:round;stroke-miterlimit:10;}
	.st22{fill:#ACACAC;}
	.st23{fill:none;stroke:#ACACAC;stroke-width:29;stroke-miterlimit:10;}
	.st24{display:inline;fill:none;stroke:#ACACAC;stroke-width:29;stroke-miterlimit:10;}
	.st25{display:inline;fill:none;stroke:#ACACAC;stroke-width:29;stroke-miterlimit:10;stroke-dasharray:43.1394;}
	.st26{fill:none;stroke:#ACACAC;stroke-width:23.2091;stroke-linecap:round;stroke-linejoin:round;stroke-miterlimit:10;}
	.st27{fill:none;stroke:#ACACAC;stroke-width:23.2091;stroke-miterlimit:10;}
	.st28{fill:none;stroke:#ACACAC;stroke-width:20;stroke-miterlimit:10;}
	.st29{display:inline;fill:none;stroke:#ACACAC;stroke-width:20;stroke-miterlimit:10;stroke-dasharray:24;}
	.st30{display:inline;fill:#ACACAC;stroke:#ACACAC;stroke-width:20;stroke-miterlimit:10;}
	.st31{display:inline;opacity:0.4;fill:#ACACAC;}
	.st32{fill:none;stroke:#ACACAC;stroke-width:20;stroke-linecap:round;stroke-linejoin:round;}
	.st33{fill:none;stroke:#ACACAC;stroke-width:20;stroke-linecap:round;stroke-linejoin:round;stroke-dasharray:54.0285,54.0285;}
	
		.st34{display:inline;fill:none;stroke:#ACACAC;stroke-width:20;stroke-linecap:round;stroke-linejoin:round;stroke-miterlimit:10;stroke-dasharray:32.3618;}
	.st35{fill:none;stroke:#ACACAC;stroke-width:16;stroke-miterlimit:10;}
	.st36{fill:none;stroke:#ACACAC;stroke-width:17;stroke-miterlimit:10;}
</style>
<g id="iconos">
	<g id="Fondo" class="st0">
		<rect class="st1" width="1000" height="1000"/>
	</g>
	<g id="r-asiento-inodoro" class="st0">
		<path class="st2" d="M501,88.3c-71.2,0-142.5,1.2-213.7-0.7c-23.4-0.6-35.9,7.5-46,27.1c-116.6,227.2-119,454.5,1,681
			c26.3,49.7,63.8,91.1,109.7,124.3c93.1,67.5,205.8,70,296.5-0.4c38.7-30,73.1-68.5,101.2-108.8c56.3-80.8,82.6-174.1,92.6-271.5
			c15.4-151.2-6.6-295.5-83.9-428.9c-9.2-15.8-19.4-22.9-38.7-22.6C646.8,89.1,573.9,88.3,501,88.3z"/>
		<path class="st3" d="M364,56c-27.8,0-52.4,0-78.5,0c4.2-19.4,18.5-26.1,34.8-27.3C339.2,27.2,354.1,35.1,364,56z"/>
		<path class="st3" d="M717.4,56c-27.8,0-52.4,0-78.5,0c4.2-19.4,18.5-26.1,34.8-27.3C692.6,27.2,707.4,35.1,717.4,56z"/>
		<path class="st2" d="M501,88.3c72.9,0,145.8,0.8,218.6-0.5c19.3-0.3,29.5,6.8,38.7,22.6c77.4,133.4,99.4,277.7,83.9,428.9
			c-9.9,97.4-36.3,190.6-92.6,271.5c-28.1,40.4-62.5,78.8-101.2,108.8C557.8,990,445.1,987.5,352,920
			c-45.8-33.2-83.4-74.6-109.7-124.3c-119.9-226.5-117.6-453.7-1-681c10.1-19.6,22.6-27.7,46-27.1C358.5,89.5,429.8,88.3,501,88.3z"
			/>
	</g>
	<g id="r-regadera-higien" class="st0">
		<g class="st4">
			<path class="st5" d="M474.9,556.3c0,57.1-40,104.8-93.5,116.7v-78.5c12.2-8.3,20.2-22.3,20.2-38.2c0-25.5-20.7-46.2-46.2-46.2
				c-25.5,0-46.2,20.7-46.2,46.2c0,15.9,8,29.9,20.2,38.2V673c-53.5-11.9-93.5-59.6-93.5-116.7c0-66,53.5-119.5,119.5-119.5
				S474.9,490.3,474.9,556.3z"/>
			<path class="st5" d="M401.5,556.3c0,15.9-8,29.9-20.2,38.2v353.9h-52V594.5c-12.2-8.3-20.2-22.3-20.2-38.2
				c0-25.5,20.7-46.2,46.2-46.2C380.8,510.2,401.5,530.8,401.5,556.3z"/>
		</g>
		<g class="st4">
			<path class="st5" d="M670.6,744.7v203.7h-52V744.7c7.4,2.1,15.3,3.3,23.4,3.3h5.2C655.3,747.9,663.2,746.8,670.6,744.7z"/>
			<path class="st5" d="M732.1,252.6V663c0,38.8-26,71.5-61.5,81.6c-7.4,2.1-15.3,3.3-23.4,3.3h-5.2c-8.1,0-16-1.1-23.4-3.3
				c-35.5-10.2-61.5-42.9-61.5-81.6V252.6c21.8,23.4,53,38.1,87.5,38.1C679.2,290.7,710.3,276,732.1,252.6z"/>
			<path class="st5" d="M764.2,171.2c0,31.4-12.1,60.1-32,81.4v0c-21.8,23.4-53,38.1-87.5,38.1c-34.5,0-65.6-14.6-87.5-38.1
				c-19.9-21.3-32-50-32-81.5c0-66,53.5-119.5,119.5-119.5C710.6,51.6,764.2,105.2,764.2,171.2z"/>
		</g>
		<g class="st4">
			<circle class="st6" cx="644.7" cy="122.7" r="11"/>
			<circle class="st6" cx="644.7" cy="171.2" r="11"/>
			<circle class="st6" cx="644.7" cy="219.7" r="11"/>
			<circle class="st6" cx="693.2" cy="171.2" r="11"/>
			<circle class="st6" cx="596.2" cy="171.2" r="11"/>
		</g>
	</g>
	<g id="r-espejos_1_" class="st0">
		<path class="st7" d="M824.5,374.2c0,179-145.1,324.1-324.1,324.1S176.2,553.2,176.2,374.2c0-179,145.1-324.1,324.1-324.1
			S824.5,195.2,824.5,374.2z"/>
		<path class="st7" d="M896.1,374.2c0,218.5-177.1,395.7-395.7,395.7S104.7,592.8,104.7,374.2h71.6c0,179,145.1,324.1,324.1,324.1
			s324.1-145.1,324.1-324.1H896.1z"/>
		<rect x="264.7" y="865.7" class="st7" width="471.4" height="71.8"/>
		<line class="st7" x1="500.4" y1="769.9" x2="499.1" y2="865.7"/>
		<line class="st7" x1="318.3" y1="509" x2="375.7" y2="451.7"/>
		<line class="st7" x1="450.7" y1="374.2" x2="584.3" y2="240.6"/>
		<line class="st7" x1="619.1" y1="210.3" x2="651.6" y2="177.7"/>
		<line class="st7" x1="699.9" y1="240.6" x2="634.2" y2="306.3"/>
		<line class="st7" x1="584.3" y1="356.2" x2="538.9" y2="401.7"/>
		<line class="st7" x1="500.4" y1="437" x2="370.5" y2="566.9"/>
	</g>
	<g id="r-bidet" class="st0">
		<g id="Bidet_1_" class="st4">
			<path id="Bidet" class="st8" d="M113.5,957.2h651c0,0-40.7-216.3-53.5-308.4c169.2-100.6,175.6-351.2,175.6-351.2h-773V957.2z"/>
			<g id="Llave">
				<path class="st9" d="M227.1,271.5v14.1h-89.4v-14.1c0-4.6,3.7-8.3,8.3-8.3h1.8V109.7h69.3v153.5h1.8
					C223.4,263.3,227.1,266.9,227.1,271.5z"/>
				<path class="st9" d="M147.1,108.4c0,0-7.7-18.1,20-25.1s138.3-39.7,138.3-39.7c18.1-4.6,20,11.6,8.4,17.7
					c-13.5,7.1-96.8,48.4-96.8,48.4"/>
				<path class="st9" d="M217.1,161.6l83.9-54.2h61.9c0,0,8.7-0.3,8.7,10.9c0,11.3-1.3,33.7-1.3,33.7h-51.9"/>
				<line class="st9" x1="217.1" y1="241.3" x2="318.3" y2="152.1"/>
			</g>
		</g>
	</g>
	<g id="r-inodoro" class="st0">
		<path class="st2" d="M277.8,36.7H142.9C117,36.7,96,57.6,96,83.5v422.6h259.3l-30.7-426C322.8,55.7,302.4,36.7,277.8,36.7z"/>
		<line class="st2" x1="96" y1="129.1" x2="328.1" y2="129.1"/>
		<path class="st2" d="M168.2,506.1L355.3,695l-51.9,268.3h487l-47.3-228.6C946,677,928,440.2,846.8,390.6c-36.1,0-385.6,0-385.6,0
			s-33.8,28.1-33.8,81.7h470.3"/>
		<line class="st2" x1="352.9" y1="472.3" x2="427.4" y2="472.3"/>
	</g>
	<g id="i-inodoro" class="st0">
		<path class="st10" d="M132.1,460.1l187.1,222.7l-51.9,268.3h487L707,722.6C910,664.8,891.9,428.1,810.7,378.5
			c-36.1,0-385.6,0-385.6,0s-33.8,28.1-33.8,81.7h470.3"/>
		<line class="st10" x1="132.1" y1="460.1" x2="391.4" y2="460.1"/>
		<path class="st10" d="M252.3,402.1h-31.1c-16.8,0-30.4,13.6-30.4,30.4v27.6h92v-27.6C282.7,415.7,269.1,402.1,252.3,402.1z"/>
		<path class="st10" d="M271.6,117.1c0,13.2-7.4,24.7-18.2,30.7v254.3h-32.2V148.3c-11.4-5.7-19.3-17.5-19.3-31.2
			c0-3.6,0.5-7,1.5-10.2h66.7C271.1,110.1,271.6,113.5,271.6,117.1z"/>
		<path class="st10" d="M282.7,74.1v32.7h-92V74.1c0-14,11.3-25.3,25.3-25.3h41.4C271.4,48.8,282.7,60.2,282.7,74.1z"/>
	</g>
	<g id="r-portacepillos" class="st0">
		<polygon class="st7" points="660.3,933.2 248.8,933.2 248.8,718.4 248.8,458.2 660.3,458.2 660.3,721.4 		"/>
		<line class="st7" x1="660.3" y1="815.2" x2="248.8" y2="815.2"/>
		<line class="st7" x1="660.4" y1="879.1" x2="248.9" y2="879.1"/>
		<g class="st4">
			<polyline class="st9" points="399.4,458.2 399.4,405.5 355.7,310.8 355.7,159.1 355.7,66.8 			"/>
			<line class="st9" x1="454.7" y1="66.8" x2="355.8" y2="66.8"/>
			<line class="st9" x1="454.7" y1="98.7" x2="355.8" y2="98.7"/>
			<line class="st9" x1="454.7" y1="130.5" x2="355.8" y2="130.5"/>
			<line class="st9" x1="454.7" y1="162.4" x2="355.8" y2="162.4"/>
			<line class="st9" x1="454.7" y1="194.2" x2="355.8" y2="194.2"/>
			<line class="st9" x1="454.7" y1="226.1" x2="355.8" y2="226.1"/>
		</g>
		<g class="st4">
			<polyline class="st9" points="491.2,449.4 505.4,398.6 488.8,295.7 529.7,149.6 554.6,60.7 			"/>
			<line class="st9" x1="649.9" y1="87.4" x2="554.7" y2="60.8"/>
			<line class="st9" x1="641.3" y1="118.1" x2="546.1" y2="91.4"/>
			<line class="st9" x1="632.7" y1="148.8" x2="537.5" y2="122.1"/>
			<line class="st9" x1="624.1" y1="179.4" x2="528.9" y2="152.8"/>
			<line class="st9" x1="615.6" y1="210.1" x2="520.4" y2="183.5"/>
			<line class="st9" x1="607" y1="240.8" x2="511.8" y2="214.1"/>
		</g>
	</g>
	<g id="r-coladeras" class="st0">
		<circle class="st2" cx="500" cy="493.9" r="440.8"/>
		<circle class="st2" cx="500" cy="493.9" r="353.1"/>
		<circle class="st2" cx="500" cy="243.7" r="42.9"/>
		<circle class="st2" cx="500" cy="745.7" r="42.9"/>
		<path class="st2" d="M698.3,392.1H301.7c-14.6,0-26.4-11.8-26.4-26.4v-20.7c0-14.6,11.8-26.4,26.4-26.4h396.6
			c14.6,0,26.4,11.8,26.4,26.4v20.7C724.7,380.2,712.9,392.1,698.3,392.1z"/>
		<path class="st2" d="M698.3,530.6H301.7c-14.6,0-26.4-11.8-26.4-26.4v-20.7c0-14.6,11.8-26.4,26.4-26.4h396.6
			c14.6,0,26.4,11.8,26.4,26.4v20.7C724.7,518.8,712.9,530.6,698.3,530.6z"/>
		<path class="st2" d="M698.3,669.2H301.7c-14.6,0-26.4-11.8-26.4-26.4V622c0-14.6,11.8-26.4,26.4-26.4h396.6
			c14.6,0,26.4,11.8,26.4,26.4v20.7C724.7,657.4,712.9,669.2,698.3,669.2z"/>
	</g>
	<g id="r-toallero" class="st0">
		<polyline class="st11" points="953.6,219 866,219 744,219 		"/>
		<line class="st11" x1="197.5" y1="219" x2="46.4" y2="219"/>
		<path class="st2" d="M744,130.4H291.3c-57.8,0-104.7,46.9-104.7,104.7v634.6H744V130.4z"/>
		<path class="st2" d="M755.6,130.4h33c42.7,0,77.4,34.6,77.4,77.4v559.8H744V142C744,135.6,749.2,130.4,755.6,130.4z"/>
		<polyline class="st2" points="186.6,573.1 265.9,600.4 369.9,562.9 465.3,600.4 554.1,562.9 647.9,600.4 744,562.9 		"/>
		<line class="st2" x1="186.6" y1="706.1" x2="744" y2="706.1"/>
	</g>
	<g id="r-consumibles" class="st0">
		<g class="st4">
			<path class="st9" d="M283.1,492.8C283.1,492.8,283.1,492.8,283.1,492.8v11.1c0,5.8,1,11.6,3,17.1"/>
			<path class="st9" d="M283.1,492.7L283.1,492.7C283,492.7,283.1,492.7,283.1,492.7C283,492.7,283,492.7,283.1,492.7
				C283.1,492.7,283.1,492.6,283.1,492.7C283.1,492.6,283.1,492.6,283.1,492.7C283.1,492.6,283.1,492.6,283.1,492.7
				C283.1,492.6,283.1,492.6,283.1,492.7L283.1,492.7v-0.3v-1.2v-1.3"/>
			<path class="st9" d="M377.5,589.2c2.2,0.7,4.4,1.4,6.7,2.1c33.5,10.1,73.2,16,115.9,16h0c36.5,0,70.9-4.3,101.1-11.9
				c7.4-1.9,14.6-3.9,21.4-6.2c47.6-15.5,81.6-39.9,91.5-68.1c2-5.6,3-11.3,3-17.1v-11.1v-0.1v-0.1v-0.2v-1.2v-1.3v-97.1V179v-0.7
				c0,0.6,0,1.2,0,1.9c0,0.3,0,0.6,0,0.9c0,0.3,0,0.6-0.1,0.9c0,0.5-0.1,1.1-0.1,1.6c0,0.1,0,0.2,0,0.3c0,0.3-0.1,0.6-0.1,0.9
				c0,0.1,0,0.3-0.1,0.4c0,0.2,0,0.3-0.1,0.5c0,0.1,0,0.1,0,0.2c0,0.2-0.1,0.4-0.1,0.7c-0.1,0.7-0.2,1.3-0.4,2
				c-0.1,0.3-0.1,0.7-0.2,1c-0.1,0.3-0.2,0.7-0.2,1c-0.1,0.3-0.1,0.6-0.2,0.9c-0.1,0.3-0.2,0.6-0.2,0.8c-0.2,0.7-0.4,1.4-0.6,2.1
				c-0.2,0.7-0.5,1.4-0.7,2.1c-0.1,0.2-0.2,0.4-0.2,0.6c0,0,0,0.1,0,0.1c-0.1,0.2-0.2,0.4-0.3,0.6c-0.1,0.3-0.3,0.7-0.4,1
				c-0.3,0.6-0.6,1.3-0.9,1.9c-0.1,0.3-0.3,0.6-0.5,1c-0.1,0.3-0.3,0.6-0.4,0.9c-0.1,0.3-0.3,0.5-0.4,0.8c0,0.1-0.1,0.1-0.1,0.2
				c-0.2,0.4-0.4,0.8-0.6,1.1c0,0,0,0,0,0.1c-0.2,0.4-0.5,0.8-0.7,1.3c-0.2,0.4-0.5,0.8-0.7,1.2c0,0,0,0.1-0.1,0.1
				c-0.3,0.4-0.5,0.8-0.8,1.2c0,0,0,0,0,0.1c-0.7,1.1-1.5,2.2-2.3,3.3c-0.3,0.4-0.6,0.8-0.9,1.2c-0.3,0.4-0.6,0.8-0.9,1.2
				c-0.3,0.4-0.6,0.8-1,1.2c-0.3,0.4-0.7,0.8-1,1.2c-0.2,0.3-0.5,0.5-0.7,0.8c-0.2,0.2-0.4,0.4-0.5,0.6c-0.2,0.2-0.4,0.4-0.5,0.6
				c-0.3,0.3-0.5,0.6-0.8,0.9c-0.5,0.6-1.1,1.2-1.7,1.8c-0.3,0.3-0.6,0.6-0.9,0.9c-0.4,0.4-0.8,0.8-1.2,1.2
				c-0.6,0.6-1.2,1.2-1.9,1.8c-0.6,0.6-1.3,1.2-1.9,1.7c-0.3,0.3-0.6,0.5-0.8,0.7c-0.6,0.5-1.2,1-1.8,1.5c-0.3,0.2-0.5,0.4-0.8,0.6
				c-0.3,0.2-0.5,0.4-0.8,0.6c-0.6,0.5-1.2,1-1.9,1.5c-0.6,0.4-1.1,0.9-1.7,1.3c-1.9,1.4-3.8,2.8-5.8,4.1c-0.5,0.3-1,0.7-1.4,1
				c-1,0.7-2,1.3-3,2c-0.5,0.3-1,0.6-1.5,0.9c-1.2,0.7-2.3,1.4-3.5,2.1c-0.5,0.3-0.9,0.5-1.4,0.8c-0.4,0.2-0.8,0.5-1.2,0.7
				c-0.4,0.2-0.8,0.4-1.2,0.7c-0.4,0.2-0.7,0.4-1.1,0.6c-0.5,0.3-0.9,0.5-1.4,0.8c-0.5,0.3-1.1,0.6-1.6,0.9c-0.1,0-0.1,0.1-0.2,0.1
				c-0.5,0.3-1,0.5-1.6,0.8c-1.1,0.6-2.2,1.1-3.3,1.6c-1.1,0.5-2.3,1.1-3.5,1.6c-0.6,0.3-1.2,0.5-1.8,0.8c-0.7,0.3-1.5,0.7-2.2,1
				c-0.8,0.4-1.6,0.7-2.4,1.1c-0.5,0.2-1.1,0.5-1.6,0.7c-0.3,0.1-0.5,0.2-0.8,0.4c-0.3,0.1-0.6,0.3-0.9,0.4
				c-1.4,0.6-2.8,1.1-4.2,1.7c-0.7,0.3-1.3,0.5-2,0.8c-0.5,0.2-1,0.4-1.6,0.6c-0.5,0.2-1,0.4-1.5,0.6c-2.5,0.9-5.1,1.8-7.7,2.7
				c-0.8,0.3-1.6,0.5-2.4,0.8c-0.5,0.2-1.1,0.3-1.6,0.5c-0.4,0.1-0.8,0.2-1.2,0.4c-1,0.3-2,0.6-3,1c-3.1,1-6.3,1.9-9.6,2.8
				c-0.9,0.3-1.9,0.5-2.8,0.8c-1.2,0.3-2.4,0.6-3.6,0.9c-0.3,0.1-0.5,0.1-0.8,0.2c-0.8,0.2-1.6,0.4-2.4,0.6
				c-0.9,0.2-1.7,0.4-2.6,0.6c-0.4,0.1-0.9,0.2-1.3,0.3c-1.4,0.3-2.7,0.6-4.1,0.9c-0.9,0.2-1.8,0.4-2.7,0.6
				c-0.4,0.1-0.8,0.2-1.2,0.3c-1.8,0.4-3.6,0.7-5.4,1.1c-0.3,0.1-0.6,0.1-0.9,0.2c-0.5,0.1-1,0.2-1.4,0.3c-0.4,0.1-0.8,0.2-1.2,0.2
				c-0.2,0-0.4,0.1-0.5,0.1c-0.2,0-0.5,0.1-0.7,0.1c-0.9,0.2-1.8,0.3-2.6,0.5c-0.1,0-0.2,0-0.4,0.1c-0.6,0.1-1.2,0.2-1.8,0.3
				c-0.2,0-0.4,0.1-0.6,0.1c-0.1,0-0.1,0-0.2,0c-0.2,0-0.4,0.1-0.7,0.1c0,0-0.1,0-0.1,0c-0.3,0-0.5,0.1-0.8,0.1c0,0-0.1,0-0.1,0
				c-1.3,0.2-2.7,0.4-4,0.6c-3.5,0.5-7.1,1-10.7,1.4c-1.5,0.2-3.1,0.4-4.7,0.5c0,0-0.1,0-0.1,0c-1.2,0.1-2.5,0.3-3.7,0.4
				c-0.9,0.1-1.7,0.2-2.6,0.3c-0.9,0.1-1.7,0.2-2.6,0.2c-1,0.1-2,0.2-3,0.3c-2.7,0.2-5.5,0.4-8.3,0.6c-0.9,0-1.7,0.1-2.6,0.2
				c-1.2,0.1-2.4,0.1-3.6,0.2c-0.1,0-0.2,0-0.2,0c-0.1,0-0.2,0-0.3,0c-1.3,0.1-2.6,0.1-3.9,0.2c-0.5,0-1.1,0.1-1.6,0.1
				c-1.2,0-2.5,0.1-3.7,0.1c-1.2,0-2.5,0.1-3.7,0.1c-1.1,0-2.1,0-3.2,0.1c-0.8,0-1.7,0-2.6,0c-1.1,0-2.2,0-3.4,0
				c-86.1,0-160.5-23.9-195.6-58.5c-13.7-13.6-21.4-28.8-21.4-44.8v0.7v213.8"/>
			<path class="st9" d="M716.9,178.3c0,57.1-97.1,103.3-216.9,103.3c-119.8,0-217-46.3-217-103.3c0-1.7,0.1-3.3,0.2-4.9
				c5.4-54.8,100.4-98.4,216.7-98.4s211.3,43.6,216.7,98.4C716.9,175,716.9,176.6,716.9,178.3z"/>
			<ellipse class="st9" cx="500" cy="187.7" rx="68.9" ry="15.6"/>
			<polyline class="st9" points="601.1,595.3 601.1,583.5 601.1,408.7 601.1,269.7 			"/>
		</g>
		<g class="st4">
			<path class="st9" d="M377.5,589.2c-28.5,6.6-60.6,10.3-94.4,10.3c-119.8,0-217-46.3-217-103.3v325.6c0,57.1,97.1,103.3,217,103.3
				c36.5,0,70.9-4.3,101.1-11.9C453,895.9,500,861.4,500,821.7V607.2"/>
			<path class="st9" d="M286,521c9.9,28.2,43.8,52.6,91.5,68.1c-28.5,6.6-60.6,10.3-94.4,10.3c-119.8,0-217-46.3-217-103.3
				c0-1.7,0.1-3.3,0.2-4.9c5.4-54.8,100.4-98.4,216.7-98.4v97.1"/>
			<polyline class="st9" points="282.9,491.2 283.1,491.2 283.2,491.2 			"/>
			<path class="st9" d="M283.1,492.4c0,0,0,0.1,0,0.2c0,0,0,0,0,0.1c0,0,0,0,0,0c0,0,0,0,0,0c0,0,0,0,0,0c0,0,0,0,0,0"/>
			<path class="st9" d="M283.1,492.6C283.1,492.6,283.1,492.6,283.1,492.6C283.1,492.6,283.1,492.6,283.1,492.6
				C283.1,492.6,283.1,492.6,283.1,492.6c0,0.1,0,0.1,0,0.1c0,0,0,0,0,0"/>
			<polyline class="st9" points="282.9,491.2 283.1,491.2 283.2,491.2 			"/>
			<path class="st9" d="M283.1,489.9c-38,0-68.9,7-68.9,15.6c0,8.6,30.8,15.6,68.9,15.6c1,0,2,0,3,0"/>
			<line class="st9" x1="384.1" y1="913.2" x2="384.1" y2="591.3"/>
		</g>
		<g class="st4">
			<path class="st9" d="M500,607.2v214.5c0,57.1,97.1,103.3,217,103.3c36.5,0,70.9-4.3,101.1-11.9c68.9-17.3,115.9-51.8,115.9-91.5
				V496.1c0,39.7-47,74.1-115.9,91.5c-30.2,7.6-64.6,11.9-101.1,11.9c-33.8,0-65.9-3.7-94.4-10.3"/>
			<line class="st9" x1="601.1" y1="583.5" x2="601.1" y2="408.7"/>
			<path class="st9" d="M622.5,589.2c28.5,6.6,60.6,10.3,94.4,10.3c36.5,0,70.9-4.3,101.1-11.9c68.9-17.3,115.9-51.8,115.9-91.5
				c0-1.7-0.1-3.3-0.2-4.9c-5.4-54.8-100.4-98.4-216.7-98.4h0"/>
			<path class="st9" d="M716.8,491.2h0.2c-0.2,1.6-0.2,3.3-0.2,4.9V491.2z"/>
			<path class="st9" d="M717.1,491.2v4.9c0-1.7-0.1-3.3-0.2-4.9H717.1z"/>
			<path class="st9" d="M716.9,489.9c38,0,68.9,7,68.9,15.6c0,8.6-30.8,15.6-68.9,15.6c-1,0-2,0-3,0"/>
			<line class="st9" x1="818" y1="587.6" x2="818" y2="913.2"/>
		</g>
	</g>
	<g id="r-accesorios_1_" class="st0">
		<g id="r-accesorios" class="st4">
			<path class="st12" d="M329.8,696.5v221.8H74.1V696.5c0-18.7,15.2-33.9,33.9-33.9h187.9C314.6,662.5,329.8,677.7,329.8,696.5z"/>
			<path class="st12" d="M268.8,562.7v99.8H135.1v-99.8c0-18.7,15.2-33.9,33.9-33.9h65.9C253.6,528.8,268.8,544,268.8,562.7z"/>
			<path class="st12" d="M607.9,345.7v572.6H329.8V696.5c0-18.7-15.2-33.9-33.9-33.9h-27.1v-99.8c0-18.7-15.2-33.9-33.9-33.9h-16.2
				V345.7c0-18.7,15.2-33.9,33.9-33.9H574C592.7,311.7,607.9,326.9,607.9,345.7z"/>
			<path class="st12" d="M515.1,165.5v146.3H311.5V165.5c0-18.7,15.2-33.9,33.9-33.9h135.7C499.9,131.5,515.1,146.7,515.1,165.5z"/>
			<line class="st12" x1="369.3" y1="131.5" x2="369.3" y2="81.7"/>
			<line class="st12" x1="460.3" y1="131.5" x2="460.3" y2="81.7"/>
			<path class="st12" d="M925.8,612.2l-31.6,306.1H607.9V585.7h294C916.2,585.7,927.3,598.1,925.8,612.2z"/>
		</g>
		<g class="st4">
			<polyline class="st9" points="729.3,585.7 743.5,535 726.9,432.1 767.8,286 792.7,197.1 			"/>
			<line class="st9" x1="888" y1="223.8" x2="792.8" y2="197.2"/>
			<line class="st9" x1="879.4" y1="254.5" x2="784.2" y2="227.8"/>
			<line class="st9" x1="870.9" y1="285.1" x2="775.7" y2="258.5"/>
			<line class="st9" x1="862.3" y1="315.8" x2="767.1" y2="289.2"/>
			<line class="st9" x1="853.7" y1="346.5" x2="758.5" y2="319.8"/>
			<line class="st9" x1="845.1" y1="377.2" x2="749.9" y2="350.5"/>
		</g>
	</g>
	<g id="r-muebles" class="st0">
		<path class="st7" d="M943.3,369.1v450.3H56.7V369.1h158.1c39.5,66.5,112.2,111.1,195.2,111.1h180.1c62.7,0,119.4-25.4,160.5-66.5
			c13.3-13.3,25-28.3,34.7-44.7H943.3z"/>
		<path class="st7" d="M817,253.3c0,42.3-11.6,81.9-31.7,115.8c-9.7,16.3-21.4,31.3-34.7,44.7c-41.1,41.1-97.8,66.5-160.5,66.5
			H409.9c-83,0-155.6-44.6-195.2-111.1c-20.2-33.9-31.7-73.5-31.7-115.8H817z"/>
		<rect x="140.3" y="819.5" class="st7" width="719.4" height="88.8"/>
		<line class="st7" x1="500" y1="819.5" x2="500" y2="480.3"/>
		<line class="st7" x1="443.4" y1="564.5" x2="443.4" y2="688.5"/>
		<line class="st7" x1="568.6" y1="564.5" x2="568.6" y2="688.5"/>
		<path class="st7" d="M500,253.3v-87.7c0-91.2-116.2-110-117.4,12.9"/>
	</g>
	<g id="r-espejos" class="st0">
		<g class="st4">
			<rect x="177.2" y="600.3" class="st9" width="645.7" height="125.5"/>
			<path class="st9" d="M881.6,74.1v416.4H545.5v-22.4c0-25.1-20.4-45.5-45.5-45.5s-45.5,20.4-45.5,45.5v22.4H118.4V74.1H881.6z"/>
			<line class="st9" x1="208.6" y1="266.4" x2="317.9" y2="165.2"/>
			<line class="st9" x1="199" y1="399.5" x2="452.1" y2="165.2"/>
			<line class="st9" x1="334.3" y1="399.5" x2="508.2" y2="238.5"/>
			<g>
				<path class="st9" d="M545.5,499.3v93.4h-91v-93.4C476.8,529.8,530.2,527,545.5,499.3z"/>
				<path class="st9" d="M545.5,468.2v31.1c-15.3,27.7-68.8,30.6-91,0v-31.1c0-25.1,20.4-45.5,45.5-45.5S545.5,443,545.5,468.2z"/>
			</g>
		</g>
		<rect x="212.4" y="725.8" class="st7" width="575.2" height="200.1"/>
	</g>
	<g id="r-griferia" class="st0">
		<rect x="57.8" y="181.3" class="st7" width="165" height="637.3"/>
		<line class="st7" x1="57.8" y1="644.2" x2="222.9" y2="644.2"/>
		<line class="st7" x1="57.8" y1="316" x2="222.9" y2="316"/>
		<rect x="222.9" y="181.3" class="st7" width="155.5" height="62.5"/>
		<rect x="222.9" y="316" class="st7" width="301.6" height="72.1"/>
		<path class="st7" d="M524.5,463.9c0,15.1-12.2,27.3-27.3,27.3c-15.1,0-27.3-12.2-27.3-27.3c0-8.1,3.5-15.3,9.1-20.3l17.6-39.4
			l18.1,38.8C520.6,447.9,524.5,455.5,524.5,463.9z"/>
		<path class="st7" d="M734,818.7H472.5c-115,0-208.2-93.2-208.2-208.2v-58.5h677.8v58.5C942.2,725.5,848.9,818.7,734,818.7z"/>
	</g>
	<g id="r-cepillos" class="st0">
		<path class="st7" d="M624.3,881.9L624.3,881.9c-41.5,0-75.2-33.7-75.2-75.2V618.4c0-7.3,5.9-13.2,13.2-13.2h124
			c7.3,0,13.2,5.9,13.2,13.2v188.3C699.5,848.2,665.8,881.9,624.3,881.9z"/>
		<line class="st7" x1="624.3" y1="605.2" x2="624.3" y2="454.9"/>
		<line class="st7" x1="457.9" y1="66" x2="457.9" y2="934"/>
		<line class="st7" x1="258.4" y1="934" x2="661.4" y2="934"/>
		<line class="st7" x1="300.5" y1="398.8" x2="457.9" y2="398.8"/>
		<line class="st7" x1="459.9" y1="114.1" x2="721.5" y2="114.1"/>
		<path class="st7" d="M620.2,188.3h-26c-33.8,0-61.2-27.4-61.2-61.2v-13h148.3v13C681.4,160.9,654,188.3,620.2,188.3z"/>
		<line class="st7" x1="466.9" y1="605.2" x2="741.6" y2="605.2"/>
	</g>
	<g id="r-jabonera" class="st0">
		<path class="st7" d="M652.9,591.8c8.4,21.7,29.4,37.1,54,37.1s45.7-15.4,54-37.1h45.8c63.5,0,115,51.5,115,115v100
			c0,63.5-51.5,115-115,115H193.2c-63.5,0-115-51.5-115-115v-100c0-63.5,51.5-115,115-115h30c16.3,22.5,42.8,37.1,72.8,37.1
			c29.9,0,56.4-14.6,72.8-37.1"/>
		<path class="st7" d="M130.3,661c14,39.9,51.9,68.5,96.6,68.5h546.2c44.6,0,82.6-28.6,96.6-68.5"/>
		<path class="st7" d="M764.8,571c0,7.3-1.4,14.4-3.9,20.8c-8.4,21.7-29.4,37.1-54,37.1c-24.6,0-45.7-15.4-54-37.1
			c-2.5-6.5-3.9-13.5-3.9-20.8c0-32,25.9-57.9,57.9-57.9C738.9,513.1,764.8,539,764.8,571z"/>
		<path class="st7" d="M663.4,499.8c0,39.3-31.9,71.2-71.2,71.2c-32.6,0-60.1-21.9-68.5-51.8c-18.4,21-45.5,34.3-75.7,34.3
			c-23.6,0-45.3-8.1-62.5-21.8c0.2,2.4,0.3,4.8,0.3,7.2c0,19.8-6.4,38-17.2,52.9c-16.3,22.5-42.8,37.1-72.8,37.1
			c-29.9,0-56.4-14.6-72.8-37.1C212.4,577,206,558.7,206,539c0-49.7,40.3-89.9,89.9-89.9c19.5,0,37.6,6.2,52.3,16.8
			c-0.5-4.2-0.8-8.5-0.8-12.9c0-55.6,45.1-100.6,100.6-100.6c52.5,0,95.7,40.3,100.2,91.6c12.1-9.5,27.4-15.2,43.9-15.2
			C631.6,428.7,663.4,460.5,663.4,499.8z"/>
		<circle class="st7" cx="548.7" cy="267.3" r="57.9"/>
		<circle class="st7" cx="706.9" cy="364" r="38.8"/>
		<circle class="st7" cx="726.1" cy="209.4" r="38.8"/>
		<circle class="st7" cx="745.7" cy="97.3" r="19.1"/>
	</g>
	<g id="r-servicio" class="st0">
		<path class="st7" d="M644.5,559.6h-289c-116.4,0-210.8,94.4-210.8,210.8V926h710.6V770.4C855.3,654,760.9,559.6,644.5,559.6z"/>
		<rect x="403.7" y="559.6" class="st7" width="192.6" height="269.7"/>
		<polyline class="st7" points="322.2,565.1 322.2,825.2 269.3,926 		"/>
		<polyline class="st7" points="677.8,561.7 677.8,824.3 730.7,926 		"/>
		<path class="st7" d="M500,505.4L500,505.4c-98.2,0-177.8-79.6-177.8-177.8V209.8c0-75,60.8-135.8,135.8-135.8h84.1
			c75,0,135.8,60.8,135.8,135.8v117.7C677.8,425.8,598.2,505.4,500,505.4z"/>
		<line class="st7" x1="329.7" y1="256.4" x2="768.3" y2="256.4"/>
	</g>
	<g id="r-perchas" class="st0">
		<circle class="st7" cx="500" cy="378.9" r="226.1"/>
		<circle class="st7" cx="500" cy="378.9" r="97.6"/>
		<path class="st7" d="M175.5,649.8c0,28.7-23.3,52-52,52c-28.7,0-52-23.3-52-52c0-28.7,23.3-52,52-52
			C152.3,597.8,175.5,621.1,175.5,649.8z"/>
		<path class="st7" d="M402.4,378.9v196.9v7.1v163.5c0,77-62.4,139.4-139.4,139.4s-139.4-62.4-139.4-139.4v-44.6
			c28.7,0,52-23.3,52-52c0-28.7-23.3-52-52-52"/>
		<path class="st7" d="M824.5,649.8c0,28.7,23.3,52,52,52c28.7,0,52-23.3,52-52c0-28.7-23.3-52-52-52
			C847.7,597.8,824.5,621.1,824.5,649.8z"/>
		<path class="st7" d="M876.4,597.8c-28.7,0-52,23.3-52,52c0,28.7,23.3,52,52,52v44.6c0,77-62.4,139.4-139.4,139.4
			s-139.4-62.4-139.4-139.4V582.8v-7.1V378.9"/>
	</g>
	<g id="r-cespol" class="st0">
		<rect x="86.7" y="161.6" class="st7" width="93.6" height="222.6"/>
		<rect x="354.3" y="495.5" class="st7" width="222.6" height="93.6"/>
		<rect x="657.3" y="118.1" class="st7" width="222.6" height="93.6"/>
		<path class="st7" d="M387.1,351.1H180.3V194.7H403c78.3,0,140.6,63.5,140.6,141.8l0,14.7l0,0v144.4H387.1V351.1z"/>
		<path class="st7" d="M846.9,211.7v514.8c0,116.9-94.7,211.6-211.6,211.6h-36.5c-116.9,0-211.6-94.7-211.6-211.6V589.1h157.7v93.9
			c0,20.1,8.1,38.3,21.3,51.5c13.2,13.2,31.4,21.3,51.5,21.3c40.2,0,72.8-32.6,72.8-72.8V211.7H846.9z"/>
	</g>
	<g id="r-tanques-empotrados" class="st0">
		<g class="st4">
			<polyline class="st9" points="344.2,952.6 229.9,952.6 229.9,47.4 770.1,47.4 770.1,952.6 655.8,952.6 			"/>
			<line class="st9" x1="229.9" y1="468" x2="770.1" y2="468"/>
			<line class="st9" x1="229.9" y1="585.4" x2="770.1" y2="585.4"/>
			<line class="st9" x1="229.9" y1="781.8" x2="770.1" y2="781.8"/>
		</g>
		<g class="st4">
			<rect x="443.8" y="781.8" class="st9" width="112.4" height="170.8"/>
			<line class="st9" x1="556.2" y1="883.1" x2="443.8" y2="883.1"/>
		</g>
		<circle class="st7" cx="500" cy="679.8" r="55.6"/>
		<circle class="st7" cx="500" cy="528.1" r="23.5"/>
		<path class="st7" d="M564.2,412.7H435.8c-67.9,0-123-55-123-123V111.2h374.4v178.6C687.2,357.7,632.1,412.7,564.2,412.7z"/>
	</g>
	<g id="r-dosificador-jabon" class="st0">
		<g class="st4">
			<path class="st9" d="M735.1,931.6H264.9V414.2c0-52,42.2-94.2,94.2-94.2h281.8c52,0,94.2,42.2,94.2,94.2V931.6z"/>
			<rect x="372.6" y="207.3" class="st9" width="254.8" height="112.7"/>
			<rect x="446.1" y="62.7" class="st9" width="107.8" height="144.6"/>
			<polyline class="st9" points="381.4,62.7 667.7,62.7 735.1,135 			"/>
		</g>
		<rect x="329.6" y="580.1" class="st7" width="340.8" height="132.8"/>
	</g>
	<g id="_x2D_r-repisas" class="st0">
		<line class="st7" x1="310.7" y1="531.2" x2="310.7" y2="327.1"/>
		<line class="st7" x1="310.7" y1="835" x2="310.7" y2="631"/>
		<polyline class="st7" points="310.7,227.3 310.7,176.4 310.7,149.1 		"/>
		<rect x="176.9" y="835.1" class="st7" width="646.3" height="99.8"/>
		<rect x="176.9" y="531.2" class="st7" width="646.3" height="99.8"/>
		<rect x="176.9" y="227.3" class="st7" width="646.3" height="99.8"/>
		<circle class="st7" cx="310.6" cy="107.1" r="42"/>
		<line class="st7" x1="689.3" y1="531.2" x2="689.3" y2="327.1"/>
		<line class="st7" x1="689.3" y1="835" x2="689.3" y2="631"/>
		<polyline class="st7" points="689.3,227.3 689.3,176.4 689.3,149.1 		"/>
		<circle class="st7" cx="689.4" cy="107.1" r="42"/>
	</g>
	<g id="r-pulsador-tanque" class="st0">
		<path class="st7" d="M884.5,788H115.5c-13.1,0-23.8-10.6-23.8-23.8V235.8c0-13.1,10.6-23.8,23.8-23.8h768.9
			c13.1,0,23.8,10.6,23.8,23.8v528.4C908.3,777.4,897.6,788,884.5,788z"/>
		<circle class="st7" cx="369.8" cy="543.6" r="137.1"/>
		<circle class="st7" cx="702" cy="593.1" r="87.6"/>
	</g>
	<g id="r-refacciones" class="st0">
		<g class="st4">
			<rect x="154.1" y="387.5" class="st9" width="247.3" height="48"/>
			<rect x="154.1" y="342" class="st9" width="247.3" height="45.5"/>
			<rect x="154.1" y="435.5" class="st9" width="247.3" height="93.5"/>
			<rect x="154.1" y="751.8" class="st9" width="247.3" height="187"/>
			<rect x="78.5" y="529" class="st9" width="398.6" height="222.8"/>
			<line class="st9" x1="154.1" y1="483.6" x2="401.4" y2="483.6"/>
			<line class="st9" x1="154.1" y1="797.3" x2="401.4" y2="797.3"/>
			<line class="st9" x1="154.1" y1="845.3" x2="401.4" y2="845.3"/>
			<line class="st9" x1="154.1" y1="893.4" x2="401.4" y2="893.4"/>
		</g>
		<g class="st4">
			<path class="st9" d="M477.1,619.8c14.3,8.1,29.4,15,45,20.6h0c31.5,11.3,65.5,17.5,101,17.5c34.4,0,67.4-5.8,98.1-16.5
				C837.8,600.9,921.5,490,921.5,359.6c0-164.8-133.6-298.4-298.4-298.4c-158.9,0-288.8,124.2-297.9,280.9"/>
			<path class="st9" d="M721.2,641.5v239.4H522.1V640.4h0c31.5,11.3,65.5,17.5,101,17.5C657.5,658,690.5,652.2,721.2,641.5z"/>
			<line class="st9" x1="522.1" y1="719.5" x2="721.2" y2="719.5"/>
			<line class="st9" x1="522.1" y1="774.6" x2="721.2" y2="774.6"/>
			<line class="st9" x1="522.1" y1="829.6" x2="721.2" y2="829.6"/>
		</g>
	</g>
	<g id="r-regadera" class="st0">
		<path class="st7" d="M610.7,356.7V248.9C610.7,147,530,64.5,430.4,64.5S250,147,250,248.9v686.6"/>
		<line class="st7" x1="471.4" y1="358" x2="750" y2="358"/>
		<line class="st7" x1="538.1" y1="401" x2="538.1" y2="593.5"/>
		<line class="st7" x1="538.1" y1="636.2" x2="538.1" y2="735.3"/>
		<line class="st7" x1="538.1" y1="774.2" x2="538.1" y2="935.5"/>
		<line class="st7" x1="610.7" y1="401" x2="610.7" y2="568.2"/>
		<line class="st7" x1="610.7" y1="616.8" x2="610.7" y2="803.4"/>
		<line class="st7" x1="610.7" y1="846.1" x2="610.7" y2="935.5"/>
		<line class="st7" x1="689.7" y1="401" x2="689.7" y2="515.3"/>
		<line class="st7" x1="689.7" y1="558.5" x2="689.7" y2="669.3"/>
		<path class="st7" d="M689.7,710.1c0,0,0,118.6,0,112.7"/>
		<line class="st7" x1="689.7" y1="865.6" x2="689.7" y2="935.5"/>
	</g>
	<g id="r-tarjas" class="st0">
		<path class="st7" d="M903.5,813.4h-807c-17.1,0-31-13.9-31-31v-565c0-17.1,13.9-31,31-31h807c17.1,0,31,13.9,31,31v565
			C934.4,799.6,920.6,813.4,903.5,813.4z"/>
		<path class="st7" d="M798.6,734.5H443.4c-25.8,0-46.8-20.9-46.8-46.8V332.5c0-25.8,20.9-46.8,46.8-46.8h355.2
			c25.8,0,46.8,20.9,46.8,46.8v355.2C845.4,713.5,824.4,734.5,798.6,734.5z"/>
		<circle class="st7" cx="694.5" cy="506.3" r="49.2"/>
		<circle class="st7" cx="304.4" cy="312.5" r="32.8"/>
		<line class="st7" x1="138.5" y1="435.1" x2="337.1" y2="435.1"/>
		<line class="st7" x1="138.5" y1="510.1" x2="337.1" y2="510.1"/>
		<line class="st7" x1="138.5" y1="585.1" x2="337.1" y2="585.1"/>
		<line class="st7" x1="138.5" y1="660.1" x2="337.1" y2="660.1"/>
		<line class="st7" x1="138.5" y1="735.1" x2="337.1" y2="735.1"/>
	</g>
	<g id="r-tina" class="st0">
		<path class="st7" d="M949.9,538.1c0,10.7-4.4,20.5-11.4,27.5c-7,7-16.8,11.4-27.5,11.4H89c-21.5,0-38.9-17.4-38.9-38.9
			c0-10.7,4.4-20.5,11.4-27.5c7-7,16.8-11.4,27.5-11.4h822C932.5,499.2,949.9,516.6,949.9,538.1z"/>
		<line class="st7" x1="739.9" y1="836.5" x2="251.9" y2="836.5"/>
		<path class="st7" d="M120.7,576.9c114.5,67.9,52.7,206.8,131.2,259.6"/>
		<path class="st7" d="M871.1,576.9c-114.5,67.9-52.7,206.8-131.2,259.6"/>
		<path class="st7" d="M661.6,195.2v-2.6c0-48.7,39.5-88.2,88.2-88.2c48.7,0,88.2,39.5,88.2,88.2v306.6"/>
		<circle class="st3" cx="628.1" cy="275.4" r="11.9"/>
		<circle class="st3" cx="698.5" cy="275.4" r="11.9"/>
		<circle class="st3" cx="628.1" cy="400.2" r="11.9"/>
		<circle class="st3" cx="595.7" cy="339.7" r="11.9"/>
		<circle class="st3" cx="661.6" cy="339.7" r="11.9"/>
		<circle class="st3" cx="728" cy="339.7" r="11.9"/>
		<circle class="st3" cx="698.5" cy="400.2" r="11.9"/>
		<line class="st7" x1="254.9" y1="836.5" x2="223.4" y2="895.6"/>
		<line class="st7" x1="728" y1="836.5" x2="759.5" y2="895.6"/>
	</g>
	<g id="r-lavabos" class="st0">
		<path class="st7" d="M909.2,251.5c15.6,0,27.5,13.8,25.3,29.2c-6.4,44.6-27.2,84.6-57.7,115c-36.9,36.9-87.9,59.7-144.2,59.7
			H267.3c-102.7,0-187.7-75.9-201.9-174.7c-2.2-15.4,9.7-29.2,25.3-29.2H909.2z"/>
		<path class="st7" d="M572.9,933.2H427.1c-17.6,0-31.9-14.3-31.9-31.9V455.5h209.6v445.8C604.8,918.9,590.5,933.2,572.9,933.2z"/>
		<path class="st3" d="M500,251.5"/>
		<path class="st7" d="M500,251.5V119.3c0-29,23.5-52.4,52.4-52.4c28.3,0,51.4,22.4,52.4,50.5"/>
	</g>
	<g id="r-griferia_1_" class="st0">
		<path class="st7" d="M404.8,871.2V920H95.7v-48.8c0-15.9,12.8-28.6,28.6-28.6h6.1v-531h239.6v531h6.1
			C392,842.5,404.8,855.3,404.8,871.2z"/>
		<path class="st7" d="M128.2,307c0,0-26.8-62.5,69.1-87S675.7,82.8,675.7,82.8c62.5-16,69.1,40.1,29,61.3
			C658,168.9,370.1,311.6,370.1,311.6"/>
		<path class="st7" d="M370.1,491l290-187.4h214.2c0,0,30-1.1,30,37.9c0,39.1-4.4,116.6-4.4,116.6H720.4"/>
		<line class="st7" x1="370.1" y1="766.4" x2="720.3" y2="458.2"/>
	</g>
	<g id="r-portarrollo" class="st0">
		<path class="st7" d="M883.6,528.8c0,138.6-55.4,251-123.8,251S636,667.4,636,528.8s55.4-251,123.8-251S883.6,390.1,883.6,528.8z"
			/>
		<path class="st7" d="M759.8,277.7c-68.4,0-123.8,112.4-123.8,251v389.1H116.4V439.2c0-89.2,72.3-161.4,161.5-161.4H759.8z"/>
		<path class="st7" d="M759.8,779.8H636v-251C636,667.4,691.4,779.8,759.8,779.8z"/>
		<ellipse class="st7" cx="758.5" cy="533.9" rx="37.3" ry="64"/>
		<path class="st7" d="M656.7,155.3c0,40.4-22.6,73.2-50.5,73.2c-27.9,0-50.5-32.8-50.5-73.2c0-40.4,22.6-73.2,50.5-73.2
			C634.1,82.1,656.7,114.9,656.7,155.3z"/>
		<path class="st7" d="M606.3,228.4H440.2c-40.4,0-73.2-32.8-73.2-73.2c0-20.2,8.2-38.5,21.4-51.7c13.2-13.2,31.5-21.4,51.7-21.4
			h166.1c-27.9,0-50.5,32.8-50.5,73.2C555.8,195.7,578.4,228.4,606.3,228.4z"/>
		<polyline class="st7" points="606.3,149.9 828.7,149.9 828.7,533.9 758.5,533.9 		"/>
		<line class="st7" x1="116.4" y1="469.9" x2="210.3" y2="469.9"/>
		<line class="st7" x1="279.1" y1="469.9" x2="367" y2="469.9"/>
		<line class="st7" x1="421.5" y1="469.9" x2="497.8" y2="469.9"/>
		<line class="st7" x1="555.8" y1="469.9" x2="636" y2="469.9"/>
	</g>
	<g id="r-portacepillos_1_" class="st0">
		<path class="st7" d="M922,780v59.8c0,55.5-45.9,100.4-102.6,100.4H180.6c-56.7,0-102.6-45-102.6-100.4V780H922z"/>
		<path class="st7" d="M884.7,315.8v407.4c0,19.9-3.3,39-9.5,56.9H383.1c-6.2-17.8-9.5-37-9.5-56.9V315.8H884.7z"/>
		<path class="st7" d="M383.1,780H122.6c-8.9-21-13.9-44.1-13.9-68.3V432.6h264.8v290.6C373.6,743.1,376.9,762.2,383.1,780z"/>
		<g class="st4">
			<polyline class="st9" points="193.3,433.4 193.3,382.4 151,290.8 151,144 151,54.7 			"/>
			<line class="st9" x1="246.8" y1="54.7" x2="151.1" y2="54.7"/>
			<line class="st9" x1="246.8" y1="85.5" x2="151.1" y2="85.5"/>
			<line class="st9" x1="246.8" y1="116.4" x2="151.1" y2="116.4"/>
			<line class="st9" x1="246.8" y1="147.2" x2="151.1" y2="147.2"/>
			<line class="st9" x1="246.8" y1="178" x2="151.1" y2="178"/>
			<line class="st9" x1="246.8" y1="208.8" x2="151.1" y2="208.8"/>
		</g>
		<g class="st4">
			<polyline class="st9" points="270.2,90.5 270.2,179.8 270.2,326.6 312.4,418.2 312.4,432.6 			"/>
			<line class="st9" x1="366" y1="90.5" x2="270.3" y2="90.5"/>
			<line class="st9" x1="366" y1="121.4" x2="270.3" y2="121.4"/>
			<line class="st9" x1="366" y1="152.2" x2="270.3" y2="152.2"/>
			<line class="st9" x1="366" y1="183" x2="270.3" y2="183"/>
			<line class="st9" x1="366" y1="213.8" x2="270.3" y2="213.8"/>
			<line class="st9" x1="366" y1="244.6" x2="270.3" y2="244.6"/>
		</g>
		<rect x="541.8" y="116.1" class="st7" width="174.7" height="195.3"/>
		<line class="st7" x1="716.5" y1="171.8" x2="815" y2="171.8"/>
	</g>
	<g id="r-tanque_presurizado" class="st0">
		<path class="st7" d="M745.3,703.3H445.8c-114.1,0-206.6-92.5-206.6-206.6v-20.5c0-114.1,92.5-206.6,206.6-206.6h299.5
			c114.1,0,206.6,92.5,206.6,206.6v20.5C951.9,610.8,859.4,703.3,745.3,703.3z"/>
		<rect x="367" y="711.6" class="st7" width="457.1" height="46.6"/>
		<rect x="48.1" y="465.3" class="st7" width="62.8" height="206.5"/>
		<path class="st7" d="M79.5,465.3c0,0-0.7-165.9,229.7-150.8"/>
		<line class="st7" x1="595.6" y1="269.7" x2="595.6" y2="241.8"/>
		<line class="st7" x1="562.1" y1="241.8" x2="629" y2="241.8"/>
	</g>
	<g id="r-contra" class="st0">
		<rect x="334.3" y="197.7" class="st7" width="331.5" height="133"/>
		<rect x="334.3" y="450.8" class="st7" width="331.5" height="471.7"/>
		<path class="st7" d="M696.7,197.7H303.3c-66.4,0-120.2-53.8-120.2-120.2v0h633.8v0C816.9,143.9,763.1,197.7,696.7,197.7z"/>
		<path class="st7" d="M816.9,330.6c0,33.2-13.5,63.2-35.2,85s-51.8,35.2-85,35.2H303.3c-66.4,0-120.2-53.8-120.2-120.2H816.9z"/>
		<line class="st7" x1="334.3" y1="614.7" x2="665.7" y2="585.6"/>
		<line class="st7" x1="334.3" y1="673.4" x2="665.7" y2="644.3"/>
		<line class="st7" x1="334.3" y1="732.1" x2="665.7" y2="703"/>
		<line class="st7" x1="334.3" y1="790.8" x2="665.7" y2="761.7"/>
		<line class="st7" x1="334.3" y1="849.5" x2="665.7" y2="820.4"/>
		<line class="st7" x1="334.3" y1="908.2" x2="665.7" y2="879.1"/>
	</g>
	<g id="r-tendederos" class="st0">
		<g class="st4">
			<circle class="st5" cx="339.4" cy="439.2" r="300.4"/>
			<circle class="st5" cx="339.4" cy="439.2" r="110.1"/>
			<circle class="st5" cx="339.4" cy="439.2" r="29.5"/>
		</g>
		<g class="st4">
			<ellipse class="st5" cx="864.3" cy="442.4" rx="96.7" ry="215.5"/>
			<g>
				<g>
					<path class="st6" d="M864.3,398.5c19.1,0,34.6,15.5,34.6,34.6c0,14.3-8.7,26.6-21.1,31.9c6.4,4.3,10.5,11.6,10.5,19.9
						c0,13.3-10.8,24-24,24s-24-10.8-24-24c0-8.3,4.2-15.6,10.5-19.9c-12.4-5.3-21.1-17.5-21.1-31.9
						C829.7,413.9,845.2,398.5,864.3,398.5 M864.3,378.5c-30.1,0-54.6,24.5-54.6,54.6c0,13.5,5,26.2,13.5,36
						c-1.9,5-2.9,10.3-2.9,15.8c0,24.3,19.8,44,44,44c24.3,0,44-19.8,44-44c0-5.5-1-10.8-2.9-15.8c8.5-9.7,13.5-22.4,13.5-35.9
						C918.9,402.9,894.4,378.5,864.3,378.5L864.3,378.5z"/>
				</g>
			</g>
		</g>
		<path class="st7" d="M339.4,439.2c0,0-157.8,337.9,29.5,401.4s129.4-42.9,262-16.8c124.7,24.6,102.3,45.9,145.9,4.8"/>
		<circle class="st7" cx="805.7" cy="804" r="38"/>
	</g>
	<g id="r-destapador" class="st0">
		<path class="st7" d="M730.2,699c0,127.1-103.1,230.2-230.2,230.2S269.8,826.2,269.8,699c0-49,15.3-94.4,41.4-131.8c0,0,0,0,0-0.1
			C423.8,389,422.9,237,417.4,180.3c-1.5-15.3-3.3-23.7-3.3-23.7c0-47.4,38.5-85.9,85.9-85.9s85.9,38.5,85.9,85.9
			c0,0-1.8,8.2-3.2,23.2c-5.4,56.5-6.2,209.5,106.7,388.3c0,0,0,0,0,0.1C715.1,605.4,730.2,650.5,730.2,699z"/>
		<path class="st7" d="M607.6,636c-0.1,12-2.1,23.6-5.8,34.4c-0.2,0.6-1,0.6-1.2,0C585,630,545.9,601.2,500,601.2
			c-45.9,0-85,28.7-100.5,69.1c-0.2,0.6-1,0.6-1.2,0c-3.8-11-5.8-22.8-5.8-35.1c0-59.1,47.7-107.1,106.7-107.6
			C558.9,527.3,607.9,576.2,607.6,636z"/>
		<circle class="st7" cx="500" cy="166.2" r="34.5"/>
		<circle class="st7" cx="500" cy="852" r="34.5"/>
	</g>
	<g id="r-tendedero" class="st0">
		<path class="st7" d="M873.8,427.1v388.6h-144v107.1H270.2V815.7h-144V427.1c0-93.6,52.2-175,129-216.7
			c30-16.3,63.7-26.5,99.6-29.1c-0.1,2.1-0.1,4.2-0.1,6.3c0,80.3,65.1,145.4,145.4,145.4s145.4-65.1,145.4-145.4
			c0-2.1,0-4.2-0.1-6.3c40.4,2.9,78.2,15.6,110.9,35.6C826.7,260.3,873.8,338.2,873.8,427.1z"/>
		<path class="st7" d="M78.2,77.3c478.1,131.1,843.7,0,843.7,0"/>
		<line class="st7" x1="244.7" y1="113.7" x2="260" y2="254.5"/>
		<line class="st7" x1="767.1" y1="115.6" x2="751.8" y2="256.1"/>
		<line class="st7" x1="729.8" y1="422.5" x2="729.8" y2="815.7"/>
		<line class="st7" x1="270.2" y1="422.5" x2="270.2" y2="815.7"/>
	</g>
	<g id="r-regadera_1_" class="st0">
		<path class="st2" d="M847.9,461.9H382.7c0-72.3,52.2-132.4,121-144.6c8.4-1.5,17.1-2.3,25.9-2.3H701c40.6,0,77.3,16.4,103.9,43
			C831.5,384.6,847.9,421.3,847.9,461.9z"/>
		<rect x="549.2" y="243.9" class="st2" width="137.8" height="71.2"/>
		<path class="st2" d="M662.6,194.6v49.2h-88.8v-47.4c0-22-17.8-39.8-39.8-39.8H128.7V67.9h406.4v0c0.2,0,0.5,0,0.7,0
			c13.2,0,26,2,38,5.8C625.2,89.8,662.6,137.8,662.6,194.6z"/>
		<g class="st4">
			<g>
				<line class="st12" x1="457.5" y1="519.8" x2="455.7" y2="527.9"/>
				<line class="st13" x1="444.5" y1="579.2" x2="374.6" y2="898.3"/>
				<line class="st12" x1="368.9" y1="924" x2="367.2" y2="932.1"/>
			</g>
		</g>
		<g class="st4">
			<g>
				<line class="st12" x1="547.8" y1="519.8" x2="546.6" y2="528"/>
				<line class="st14" x1="539" y1="579.3" x2="491.7" y2="898.2"/>
				<line class="st12" x1="487.9" y1="923.9" x2="486.6" y2="932.1"/>
			</g>
		</g>
		<g class="st4">
			<g>
				<line class="st12" x1="754.7" y1="932.1" x2="753.7" y2="923.9"/>
				<line class="st15" x1="746.8" y1="872.6" x2="704.5" y2="553.7"/>
				<line class="st12" x1="701.1" y1="528" x2="700" y2="519.8"/>
			</g>
		</g>
		<g class="st4">
			<g>
				<line class="st12" x1="871.3" y1="932.1" x2="869.6" y2="924"/>
				<line class="st16" x1="859.1" y1="872.6" x2="793.7" y2="553.6"/>
				<line class="st12" x1="788.5" y1="527.9" x2="786.8" y2="519.8"/>
			</g>
		</g>
		<g class="st4">
			<g>
				<line class="st12" x1="618.2" y1="519.8" x2="618.1" y2="528.1"/>
				<line class="st17" x1="618" y1="579.4" x2="617.5" y2="898.2"/>
				<line class="st12" x1="617.4" y1="923.8" x2="617.4" y2="932.1"/>
			</g>
		</g>
	</g>
	<g id="I-barra" class="st0">
		<path class="st10" d="M188.4,890.2c0,43.5-35.2,78.7-78.7,78.7c-43.5,0-78.7-35.2-78.7-78.7c0-43.5,35.2-78.7,78.7-78.7
			c6.3,0,12.5,0.7,18.4,2.2L98,843.9C81.9,859.9,81.9,886,98,902c8,8,18.6,12,29.1,12c10.5,0,21-4,29.1-12l30.2-30.2
			C187.7,877.8,188.4,883.9,188.4,890.2z"/>
		<path class="st10" d="M968.9,109.8c0,43.5-35.2,78.7-78.7,78.7c-6.3,0-12.5-0.8-18.4-2.2l25.5-25.5c16.1-16.1,16.1-42.1,0-58.2
			c-16.1-16.1-42.1-16.1-58.2,0l-25.5,25.5c-1.4-5.9-2.2-12-2.2-18.4c0-43.5,35.2-78.7,78.7-78.7S968.9,66.3,968.9,109.8z"/>
		<path class="st7" d="M897.4,160.8l-25.5,25.5L186.3,871.9L156.1,902c-8,8-18.6,12-29.1,12c-10.5,0-21.1-4-29.1-12
			c-16.1-16.1-16.1-42.1,0-58.2l741.2-741.2c16.1-16.1,42.1-16.1,58.2,0C913.4,118.7,913.4,144.7,897.4,160.8z"/>
	</g>
	<g id="I-asientos" class="st0">
		<path class="st7" d="M897,515c0,207.5-117,383.1-278.3,442c-5.3,1.9-10.7,3.8-16.1,5.4c-28.8,5.4-23.6-25.7-23.6-25.7V797.8
			C681.1,759.1,755,647.1,755,515c0-164.2-114.2-297.4-255-297.4S245,350.7,245,515c0,125.9,67,233.5,161.8,276.9v139.3
			c0,0,5.9,35.6-30.2,24c-3.5-1.3-7-2.7-10.4-4.2C212.7,886.9,103,715.9,103,515c0-170.2,78.7-318.9,196-399.4H701
			C818.3,196,897,344.8,897,515z"/>
		<polygon class="st7" points="720.8,115.6 279.2,115.6 313.1,37 686.7,37 		"/>
	</g>
	<g id="i-coladeras" class="st0">
		<rect x="77.1" y="77.1" class="st18" width="845.7" height="845.7"/>
		<circle class="st19" cx="500" cy="500" r="302"/>
		<line class="st20" x1="345.1" y1="315.3" x2="654.9" y2="315.3"/>
		<line class="st20" x1="345.1" y1="408.9" x2="654.9" y2="408.9"/>
		<line class="st20" x1="345.1" y1="502.5" x2="654.9" y2="502.5"/>
		<line class="st20" x1="345.1" y1="596" x2="654.9" y2="596"/>
		<line class="st20" x1="345.1" y1="689.6" x2="654.9" y2="689.6"/>
		<circle class="st20" cx="837.2" cy="837.2" r="37.9"/>
		<circle class="st20" cx="837.2" cy="162.8" r="37.9"/>
		<circle class="st20" cx="160.2" cy="837.2" r="37.9"/>
		<circle class="st20" cx="160.2" cy="162.8" r="37.9"/>
	</g>
	<g id="i-accesorios-para-basureros" class="st0">
		<g class="st4">
			<path class="st21" d="M805.2,615.7H194.7c-17.8,0-32.3-14.4-32.3-32.3V55h675v528.5C837.4,601.3,823,615.7,805.2,615.7z"/>
			<rect x="162.5" y="661.9" class="st21" width="675" height="89.7"/>
			<path class="st21" d="M315,868.7c0,42.1-34.2,76.3-76.3,76.3c-42.1,0-76.3-34.2-76.3-76.3c0-42.1,34.2-76.3,76.3-76.3v76.3
				l51.5-56.2C305.5,826.4,315,846.5,315,868.7z"/>
			<path class="st21" d="M837.4,868.7c0,42.1-34.2,76.3-76.3,76.3c-42.1,0-76.3-34.2-76.3-76.3c0-22.3,9.5-42.3,24.7-56.2l51.5,56.2
				v-76.3C803.3,792.5,837.4,826.6,837.4,868.7z"/>
			<polygon class="st21" points="346.1,751.7 290.3,812.5 238.8,868.7 238.8,751.7 			"/>
			<polygon class="st21" points="761.2,751.7 761.2,868.7 709.6,812.5 653.9,751.7 			"/>
		</g>
		<g class="st4">
			<line class="st21" x1="303.8" y1="523.3" x2="303.8" y2="169"/>
			<line class="st21" x1="500" y1="523.3" x2="500" y2="169"/>
			<line class="st21" x1="696.1" y1="523.3" x2="696.1" y2="169"/>
		</g>
	</g>
	<g id="i-asiento-para-regaderas" class="st0">
		<path class="st18" d="M847.5,785.8H152.5c-30.1,0-54.6-24.4-54.6-54.6V299.5h804.2v431.8C902.1,761.4,877.7,785.8,847.5,785.8z"/>
		<path class="st18" d="M786.7,441.5H213.3c-12.6,0-22.7-10.2-22.7-22.7v0c0-12.6,10.2-22.7,22.7-22.7h573.3
			c12.6,0,22.7,10.2,22.7,22.7v0C809.4,431.3,799.2,441.5,786.7,441.5z"/>
		<path class="st18" d="M786.7,565.4H213.3c-12.6,0-22.7-10.2-22.7-22.7v0c0-12.6,10.2-22.7,22.7-22.7h573.3
			c12.6,0,22.7,10.2,22.7,22.7v0C809.4,555.2,799.2,565.4,786.7,565.4z"/>
		<path class="st18" d="M786.7,689.2H213.3c-12.6,0-22.7-10.2-22.7-22.7v0c0-12.6,10.2-22.7,22.7-22.7h573.3
			c12.6,0,22.7,10.2,22.7,22.7v0C809.4,679.1,799.2,689.2,786.7,689.2z"/>
		<g class="st4">
			<line class="st21" x1="32.6" y1="214.2" x2="163.2" y2="214.2"/>
			<line class="st21" x1="97.9" y1="299.5" x2="97.9" y2="214.2"/>
		</g>
		<g class="st4">
			<line class="st21" x1="836.8" y1="214.2" x2="967.4" y2="214.2"/>
			<line class="st21" x1="902.1" y1="299.5" x2="902.1" y2="214.2"/>
		</g>
	</g>
	<g id="I-BASUREROS" class="st0">
		<g class="st4">
			<g>
				<g>
					<path class="st21" d="M770.9,364.2l-50,553.1c-2.2,24.6-22.8,43.4-47.5,43.4H326.6c-24.7,0-45.3-18.8-47.5-43.4l-50-553.1
						H770.9z"/>
				</g>
			</g>
			<g>
				<path class="st21" d="M740.7,263.2L690,85.6c-7.8-27.4-32.9-46.4-61.4-46.4H371.4c-28.5,0-53.6,18.9-61.4,46.4l-50.6,177.6
					h-74.6v101h630.5v-101H740.7z M305.3,302.2l11.1-39l37.6-131.9c6-21.1,25.3-35.6,47.2-35.6h197.5c21.9,0,41.2,14.5,47.2,35.6
					l37.6,131.9l11.1,39H305.3z"/>
				<path class="st21" d="M694.7,302.2H305.3l11.1-39l37.6-131.9c6-21.1,25.3-35.6,47.2-35.6h197.5c21.9,0,41.2,14.5,47.2,35.6
					l37.6,131.9L694.7,302.2z"/>
			</g>
		</g>
		<path class="st18" d="M567.5,803.6H432.5c-43.2,0-78.3-35-78.3-78.3V560.9c0-43.2,35-78.3,78.3-78.3h134.9
			c43.2,0,78.3,35,78.3,78.3v164.4C645.8,768.5,610.7,803.6,567.5,803.6z"/>
	</g>
	<g id="i-bebederos" class="st0">
		<polygon class="st18" points="390.9,469.1 74.4,469.1 74.4,302.5 451.8,302.5 		"/>
		<path class="st18" d="M143.9,302.5c0,0,0-20.9,0-154.6c0-101.5,146.3-105.4,146.3,0"/>
		<circle class="st18" cx="493" cy="152.9" r="82.6"/>
		<g class="st4">
			<path class="st22" d="M633.5,200.6c5.9,0,11.7,1.8,16.5,5.2l202.3,141.2c0.5,0.3,0.9,0.6,1.4,0.9c5.1,3,10,6.4,14.5,10.2
				c0.4,0.4,0.9,0.7,1.4,1l3.2,2.2c4.7,3.3,8.4,7.4,11,12.5c0.5,0.9,1,1.7,1.6,2.5c13.2,17.8,20.1,39,20.1,61.3v430.2
				c0,23-18.7,41.7-41.7,41.7s-41.7-18.7-41.7-41.7V438.2c0-7.7-4.5-14.8-11.5-18.1l-156-73.7c-2.7-1.3-5.6-1.9-8.5-1.9
				c-3.7,0-7.5,1-10.7,3.1c-5.8,3.7-9.3,10-9.3,16.9v111c0,0.3,0,0.6-0.1,0.8c-0.1,0.8-0.2,1.6-0.2,2.4l-94.3,102.9
				c-6,6.5-14.1,10.1-22.9,10.1c-7.8,0-15.2-2.9-21-8.2c-12.6-11.6-13.5-31.3-1.9-43.9l72.9-79.6c3.4-3.7,5.3-8.5,5.3-13.5V289.9
				c0-6.1,1.5-12.1,4.5-17.4c0.3-0.6,0.6-1.1,0.9-1.7l40.3-57.8C615.1,205.3,624,200.6,633.5,200.6
				C633.5,200.6,633.5,200.6,633.5,200.6 M633.5,180.6c-15.5,0-30.7,7.3-40.2,20.9l-42.6,61.1l0.3,0.2c-4.4,8-6.9,17.2-6.9,27v156.6
				l-72.9,79.6c-19,20.8-17.6,53.1,3.2,72.2c9.8,9,22.2,13.4,34.5,13.4c13.8,0,27.6-5.6,37.7-16.6l96.5-105.4c2.8-3,3.8-7,3-10.8
				c0,0,0,0,0,0c0.2-1.1,0.2-2.3,0.2-3.5v-111l156,73.7v429.6c0,34.1,27.6,61.7,61.7,61.7c34.1,0,61.7-27.6,61.7-61.7V437.7
				c0-27.4-8.9-52.7-24-73.2c-4-7.5-9.8-14.3-17.3-19.5l-3.2-2.2c-5.4-4.5-11.2-8.5-17.3-12.1L661.5,189.4
				C652.9,183.5,643.2,180.6,633.5,180.6L633.5,180.6z"/>
		</g>
	</g>
	<g id="i-accesorios_para_bebe" class="st0">
		<circle class="st19" cx="505" cy="221.1" r="104.6"/>
		<circle class="st19" cx="884.8" cy="743.4" r="70"/>
		<path class="st19" d="M764.4,624.8v207.6c0,26.2-21.2,47.4-47.4,47.4H570c-23.7,0-43-19.2-43-43v-58.6h-87.6
			c-25.5,0-46.1-20.7-46.1-46.1c0-12.7,5.2-24.3,13.5-32.6c8.4-8.4,19.9-13.5,32.6-13.5h142.5c25.5,0,46.1,20.7,46.1,46.1v46.1h44.2
			V624.8c0-25.5,20.7-46.1,46.1-46.1c12.7,0,24.3,5.2,32.6,13.5C759.3,600.5,764.4,612,764.4,624.8z"/>
		<path class="st19" d="M764.4,832.4v1.3c0,25.5-20.7,46.1-46.1,46.1H717C743.2,879.8,764.4,858.6,764.4,832.4z"/>
		<line class="st18" x1="408" y1="883.4" x2="966.6" y2="883.4"/>
		<path class="st18" d="M623,539.2c0,13.9-5.6,26.5-14.8,35.6c-9.1,9.1-21.7,14.8-35.6,14.8H394.2c-0.3,0-0.7,0-1,0
			c-21.8-0.4-41.5-15-47.6-37.1l-12.3-44.9L229.1,624v225c0,6.5-5.3,11.9-11.9,11.9h-172c-6.6,0-11.9-5.3-11.9-11.9V586.7
			c0-20.2,6.1-39.1,16.7-54.7l-0.7-0.6l190.8-213.1c31.7-35.4,86-38.4,121.4-6.7l17.7,15.8c20.5,18.4,30.2,44.4,28.4,70l25,91.4
			h139.9C600.4,488.8,623,511.4,623,539.2z"/>
		<path class="st18" d="M394.2,589.6h-1v0C393.6,589.6,393.9,589.6,394.2,589.6z"/>
	</g>
	<g id="i-consumibles" class="st0">
		<g class="st4">
			<path class="st23" d="M654.8,178.6v587.8c0,18.3-2.8,35.9-7.9,52.6c-22.1,71-87.7,122.9-165.6,124.3c-1.1,0-2.2,0-3.3,0H322.2
				c-97.7,0-176.9-79.2-176.9-176.9V178.6c0,67.4,114,122,254.7,122c28.4,0,55.7-2.2,81.2-6.3C582.1,278.1,654.8,232.4,654.8,178.6z
				"/>
		</g>
		<line class="st24" x1="481.2" y1="943.3" x2="481.2" y2="943.3"/>
		<path class="st24" d="M650.4,156c-22.2-56.5-125.8-99.3-250.3-99.3S171.9,99.4,149.7,156c-2.9,7.4-4.4,14.9-4.4,22.7
			c0,67.4,114,122,254.7,122c28.4,0,55.7-2.2,81.2-6.3c100.9-16.2,173.6-61.9,173.6-115.6C654.8,170.9,653.3,163.3,650.4,156z
			 M400.1,217.5c-44.8,0-81.2-17.4-81.2-38.8c0-8.5,5.7-16.3,15.3-22.7c14.7-9.8,38.8-16.2,65.9-16.2c27.1,0,51.1,6.4,65.9,16.2
			c9.6,6.4,15.3,14.2,15.3,22.7C481.2,200.1,444.9,217.5,400.1,217.5z"/>
		<path class="st24" d="M481.2,178.6c0,21.5-36.3,38.8-81.2,38.8c-44.8,0-81.2-17.4-81.2-38.8c0-8.5,5.7-16.3,15.3-22.7
			c14.7-9.8,38.8-16.2,65.9-16.2c27.1,0,51.1,6.4,65.9,16.2C475.5,162.3,481.2,170.2,481.2,178.6z"/>
		<path class="st24" d="M854.7,56.7V819H646.8c5.2-16.6,7.9-34.3,7.9-52.6V178.6c0-7.7-1.5-15.3-4.4-22.7
			c-22.2-56.5-125.8-99.3-250.3-99.3H854.7z"/>
		<polyline class="st25" points="481.2,943.3 481.2,943.3 481.2,294.3 		"/>
	</g>
	<g id="dispensador-de-jabon" class="st0">
		<g class="st4">
			<path class="st26" d="M666.4,815.2c15.6,17.4-2,50.2-32.6,55.3c-42,1.8-129.6,7-159.4,0c-29.8-7-73.6-47.3-73.6-47.3"/>
			<path class="st26" d="M756.7,716.2c0,4.1-0.8,8-2.3,11.6c-6,5.5-12.3,11.6-18.7,17.8c-25.2,24.5-68.4,68.6-69.4,69.6
				c-5.8-6.5-16.4-10.9-32.6-10.9c-59.5,0-64.9-0.4-64.9-0.4s-31.4,8.8-129.5-59.5c-20.1-15.2-39.9-25.5-59.6-32
				c-15.4-5.1-30.6-7.8-45.7-8.8c-6.5-7-10.4-16.3-10.4-26.6c0-11.8,5.3-22.5,13.6-29.7c-3.4-5.8-5.4-12.6-5.4-19.8
				c0-21.7,17.6-39.2,39.2-39.2c5,0,9.9,1,14.3,2.7c0.9-40,33.7-72.2,73.9-72.2c33.3,0,61.5,22.1,70.8,52.4
				c6.7-3.1,14.2-4.9,22.2-4.9c28.9,0,52.3,23.4,52.3,52.3c0,3.9-0.4,7.8-1.3,11.5c8.3-7.2,19.2-11.5,31-11.5
				c24.1,0,44,17.9,47.2,41.1c7.2-8.5,17.9-13.8,29.9-13.8c21.7,0,39.2,17.5,39.2,39.2c0,3.7-0.5,7.4-1.5,10.8
				C753.8,701.3,756.7,708.4,756.7,716.2z"/>
			<path class="st26" d="M807.2,775.9c-36.8,31.5-201.4,178.6-215.4,185.6c-14,7-136.6,19.3-234.7-40.3
				c-98.1-59.5-134.9-57.8-180.4-24.5V737c47.9-16.1,101.3-37.1,157.5-33.4c15,1,30.3,3.7,45.7,8.8c19.6,6.5,39.5,16.7,59.6,32
				c98.1,68.3,129.5,59.5,129.5,59.5s5.3,0.4,64.9,0.4c16.2,0,26.7,4.4,32.6,10.9c1-1,44.1-45.1,69.4-69.6
				c6.4-6.2,12.7-12.3,18.7-17.8c3.8-3.5,7.4-6.8,10.7-9.7C812.5,688.3,844,744.4,807.2,775.9z"/>
			<path class="st26" d="M666.4,815.2C666.4,815.2,666.4,815.2,666.4,815.2"/>
			<path class="st26" d="M772.6,677"/>
			<circle class="st26" cx="619.3" cy="500.4" r="25"/>
			<circle class="st26" cx="701.2" cy="578.6" r="34.6"/>
			<path class="st26" d="M405.3,613.2c-22.4,25.7,7.5,69.6,50.4,45.3"/>
			<path class="st26" d="M555.6,722c6.5-32.7,56-17.5,43.9,15.1"/>
		</g>
		<g class="st4">
			<path class="st27" d="M674.2,32.4v329.2c0,27.1-21.9,49-49,49H374.8c-27.1,0-49-21.9-49-49V32.4H674.2z"/>
			<rect x="490.5" y="410.6" class="st27" width="19" height="20.6"/>
			<path class="st27" d="M506.7,351.4l7.9-13.7c3-5.2-0.7-11.6-6.7-11.6h-15.8c-6,0-9.7,6.5-6.7,11.6l7.9,13.7
				C496.3,356.6,503.7,356.6,506.7,351.4z"/>
		</g>
	</g>
	<g id="Dispensador_toalla_rollo" class="st0">
		<g class="st4">
			<g>
				<path class="st28" d="M366.1,814.6c0,21.1,0,42.2,0,42.2H110.4V584.8l126.7-122v138.7l82.1-76.6c39.9-36.3,100.8,18.8,72.7,56.9
					c-2.3,7.7-75,78-75,78c6,9.8,9.3,21.2,10.2,32.8h83.6C410.6,720.8,422.4,779.4,366.1,814.6z"/>
			</g>
			<path class="st28" d="M327,692.6c3,38.5-20.9,79.4-64.2,70.4"/>
			<line class="st28" x1="237.1" y1="601.5" x2="197.2" y2="638.7"/>
			<rect x="75.6" y="856.8" class="st28" width="336.1" height="87.9"/>
		</g>
		<path class="st19" d="M237.1,178.3h3.8c-1.3,0-2.6,0.1-3.8,0.1V178.3z"/>
		<path class="st19" d="M763.1,178.3v0.2c-1.3-0.1-2.7-0.2-4-0.2H763.1z"/>
		<path class="st19" d="M895.8,55.3V246c0,48.7-39,88.4-87.5,89.3c-0.6,0-1.2,0-1.8,0h-43.4V178.4c-1.3-0.1-2.7-0.2-4-0.2H240.9
			c-1.3,0-2.6,0.1-3.8,0.1v156.9h-43.6c-0.6,0-1.2,0-1.8,0c-48.5-0.9-87.5-40.6-87.5-89.3V55.3H895.8z"/>
		<path class="st19" d="M237.1,178.4v156.9h-45.4V227.5C191.7,201.6,211.7,180.4,237.1,178.4z"/>
		<path class="st19" d="M808.3,227.5v107.9h-45.2V178.4C788.4,180.5,808.3,201.6,808.3,227.5z"/>
		<path class="st19" d="M763.1,178.4v514.2H327c-0.9-11.6-4.2-23-10.2-32.8c0,0,72.7-70.4,75-78c28.1-38.1-32.8-93.2-72.7-56.9
			l-82.1,76.6V178.4c1.2-0.1,2.5-0.1,3.8-0.1h518.2C760.5,178.3,761.8,178.3,763.1,178.4z"/>
	</g>
	<g id="Dispensador_toalla_inter" class="st0">
		<g id="Dispensador_de_toalla_inter" class="st4">
			<g>
				<g>
					<g>
						<path class="st28" d="M366.1,814.6c0,21.1,0,42.2,0,42.2H110.4V584.8l126.7-122v138.7l82.1-76.6
							c39.9-36.3,100.8,18.8,72.7,56.9c-2.3,7.7-75,78-75,78c6,9.8,9.3,21.2,10.2,32.8h83.6C410.6,720.8,422.4,779.4,366.1,814.6z"
							/>
					</g>
					<path class="st28" d="M327,692.6c3,38.5-20.9,79.4-64.2,70.4"/>
					<line class="st28" x1="237.1" y1="601.5" x2="197.2" y2="638.7"/>
					<rect x="75.6" y="856.8" class="st28" width="336.1" height="87.9"/>
				</g>
				<g>
					<g>
						<line class="st28" x1="763.1" y1="463" x2="762.9" y2="462.8"/>
					</g>
					<path class="st28" d="M673,692.6c-3,38.5,20.9,79.4,64.1,70.4"/>
					<line class="st28" x1="802.8" y1="638.7" x2="763.1" y2="601.7"/>
					<rect x="588.4" y="856.8" class="st28" width="336.1" height="87.9"/>
				</g>
				<path class="st28" d="M889.6,584.8v272.1H633.9c0,0,0-21.1,0-42.2c-56.3-35.2-44.6-93.8-44.6-122H673c0.9-11.6,4.2-23,10.2-32.8
					c0,0-72.7-70.4-75.1-78c-28.1-38.1,32.8-93.2,72.7-56.9l82.3,76.8V463L889.6,584.8z"/>
				<path class="st28" d="M763.1,178.4v423.2l-82.3-76.8c-39.9-36.3-100.9,18.8-72.7,56.9c2.3,7.7,75.1,78,75.1,78
					c-6,9.8-9.3,21.2-10.2,32.8H327c-0.9-11.6-4.2-23-10.2-32.8c0,0,72.7-70.4,75-78c28.1-38.1-32.8-93.2-72.7-56.9l-82.1,76.6
					V178.4c1.3-0.1,2.5-0.1,3.8-0.1h518.2C760.5,178.3,761.8,178.3,763.1,178.4z"/>
				<path class="st28" d="M237.1,178.3h3.8c-1.3,0-2.6,0.1-3.8,0.1V178.3z"/>
				<path class="st28" d="M763.1,178.3v0.2c-1.3-0.1-2.7-0.2-4-0.2H763.1z"/>
			</g>
			<path class="st28" d="M895.8,55.3V246c0,48.7-39,88.4-87.5,89.3c-0.6,0-1.2,0-1.8,0h-43.4V178.4c-1.3-0.1-2.7-0.2-4-0.2H240.9
				c-1.3,0-2.6,0.1-3.8,0.1v156.9h-43.6c-0.6,0-1.2,0-1.8,0c-48.5-0.9-87.5-40.6-87.5-89.3V55.3H895.8z"/>
			<path class="st28" d="M237.1,178.4v156.9h-45.4V227.5C191.7,201.6,211.7,180.4,237.1,178.4z"/>
			<path class="st28" d="M808.3,227.5v107.9h-45.2V178.4C788.4,180.5,808.3,201.6,808.3,227.5z"/>
		</g>
		<line class="st29" x1="237.1" y1="367.7" x2="756.4" y2="367.7"/>
	</g>
	<g id="TAMPO" class="st0">
		<g class="st4">
			<path class="st21" d="M308.8,302.7l6.4,109.8l-4.8,83.7h-1.6c-29,0-52.5-23.5-52.5-52.5v-88.5
				C256.2,326.2,279.7,302.7,308.8,302.7L308.8,302.7z"/>
			<path class="st21" d="M547.3,355.2v88.5c0,29-23.5,52.5-52.5,52.5h-2.5l-5.6-83.7l7.4-109.8h0.7
				C523.8,302.7,547.3,326.2,547.3,355.2z"/>
			<path class="st21" d="M492.4,496.2l6.1,91.4c0,37.4-30.4,67.8-67.8,67.8h-57.9c-37.5,0-67.8-30.4-67.8-67.8l5.3-91.4l4.8-83.7
				l-6.4-109.8l-3.8-65.2c0-37.5,30.4-67.8,67.8-67.8h57.9c37.5,0,67.8,30.3,67.8,67.8l-4.4,65.2l-7.4,109.8L492.4,496.2z"/>
			<path class="st21" d="M345.4,578.6c0,0,21.9-143,6.7-225.5"/>
			<path class="st21" d="M345.4,270.7c-1.7-47.1,30.2-65.6,56.3-65.6"/>
			<path class="st21" d="M662.9,205.1L662.9,205.1c-20.9,0-37.9,17-37.9,37.9v169.6h75.7V242.9C700.8,222,683.8,205.1,662.9,205.1z"
				/>
			<rect x="637.7" y="412.5" class="st21" width="50.5" height="50.5"/>
			<line class="st21" x1="602" y1="412.5" x2="723.8" y2="412.5"/>
			<path class="st21" d="M662.9,463c8.6,34-10.5,81.7-10.5,164.5"/>
		</g>
		<path class="st18" d="M844.9,962.1H155.1c-30.8,0-55.8-25-55.8-55.8V93.7c0-30.8,25-55.8,55.8-55.8h689.8
			c30.8,0,55.8,25,55.8,55.8v812.5C900.7,937.1,875.7,962.1,844.9,962.1z"/>
		<path class="st18" d="M715.3,898.5H284.7c-31.5,0-57-25.5-57-57v-70.9h544.7v70.9C772.3,873,746.8,898.5,715.3,898.5z"/>
		<g class="st4">
			<path class="st22" d="M281.5,861.6c-2.1-0.9-3.7-2.1-4.9-3.6c-1.1-1.5-1.9-3.2-2.3-5.1c-0.4-1.9-0.6-3.9-0.6-6.1V845H285
				c0,1.1,0,2.3,0.1,3.3c0.1,1.1,0.3,2,0.6,2.9c0.3,0.9,0.8,1.6,1.4,2.3c0.6,0.6,1.5,1.1,2.6,1.4v-16.6l-4.1-1.5
				c-4-1.4-6.9-3.5-8.6-6.1c-1.7-2.7-2.6-5.9-2.6-9.6c0-5.1,1.3-9,4-11.8c2.7-2.8,6.4-4.4,11.4-5v-5.7h5.2v5.7
				c3.1,0.3,5.6,0.9,7.5,1.8c1.9,1,3.5,2.1,4.6,3.6s1.9,3,2.4,4.8c0.4,1.7,0.7,3.5,0.7,5.3v1.1h-11.3c-0.1-2.1-0.4-3.8-0.9-5.2
				c-0.5-1.4-1.5-2.3-3-2.8v15.5l6.5,2.6c1.5,0.7,2.9,1.4,4.1,2.1c1.2,0.8,2.3,1.7,3.2,2.8c0.9,1.1,1.6,2.5,2.1,4.1
				c0.5,1.6,0.7,3.5,0.7,5.8c0,5.9-1.4,10.2-4.2,12.8c-2.8,2.6-6.9,4.1-12.4,4.5v7.1h-5.2v-7.1C286.4,863,283.6,862.5,281.5,861.6z
				 M285.8,819.3c0,3.1,1.3,5.4,4,6.9V813C287.1,813.8,285.8,815.9,285.8,819.3z M298.7,852.5c0.7-1.2,1.1-2.6,1.1-4.1
				c0-2.1-0.4-3.7-1.2-4.9c-0.8-1.2-2-2.2-3.6-3v14.5C296.7,854.5,297.9,853.7,298.7,852.5z"/>
		</g>
		<line class="st30" x1="345.4" y1="770.6" x2="345.4" y2="898.5"/>
	</g>
	<g id="STEAMIST" class="st0">
		<g class="st4">
			<path class="st22" d="M40.4,533.7c5.1,6.8,13.5,17.8,39.8,17.8c13.5,0,31.9-3.9,31.9-17.5c0-26.6-76.4-3.2-76.4-38.8
				c0-18.7,17.2-26.3,41.1-26.3c23.1,0,37.4,9.5,43.4,18l-7.7,6.3c-3.6-4.1-12-15.3-35.9-15.3c-17.6,0-30,4.6-30,15.7
				c0,26.5,76.4,1.2,76.4,40.5c0,14.7-14.2,26.9-44,26.9c-28.7,0-39.3-11.9-46.7-20.2L40.4,533.7z"/>
			<path class="st22" d="M195.2,480.5h-42.3v-9.4h95.2v9.4h-42.3v78.2h-10.6V480.5z"/>
			<path class="st22" d="M284,471.1h78.1v9.4h-67.5v27.9H351v9.4h-56.4v31.4h68.9v9.4H284V471.1z"/>
			<path class="st22" d="M410.3,558.7h-11.8l45.1-87.6h13l44.9,87.6h-11.9L450,479.4L410.3,558.7z"/>
			<path class="st22" d="M545.1,471.1h16.4l32.4,73.7l32.4-73.7h16.4v87.6h-9.8v-78.2h-0.2l-34.2,78.2h-8.9l-34.5-78.2h-0.2v78.2
				h-9.8V471.1z"/>
			<path class="st22" d="M695.7,471.1h10.6v87.6h-10.6V471.1z"/>
			<path class="st22" d="M760.1,533.7c5.1,6.8,13.5,17.8,39.8,17.8c13.5,0,31.9-3.9,31.9-17.5c0-26.6-76.4-3.2-76.4-38.8
				c0-18.7,17.2-26.3,41.1-26.3c23.1,0,37.3,9.5,43.4,18l-7.7,6.3c-3.6-4.1-12-15.3-35.9-15.3c-17.6,0-30,4.6-30,15.7
				c0,26.5,76.4,1.2,76.4,40.5c0,14.7-14.2,26.9-44,26.9c-28.7,0-39.3-11.9-46.8-20.2L760.1,533.7z"/>
			<path class="st22" d="M914.9,480.5h-42.3v-9.4h95.2v9.4h-42.3v78.2h-10.6V480.5z"/>
		</g>
		<path class="st31" d="M386.8,515.8c-0.9-0.3,41.5,40.1,95.1-11.3c38.4-36.9,61.4-64.4,115.2-65.4c-21.6,0.4-27.6,0.3-50,4.8
			c-30.3,6.1-54.4,26.2-76.5,46.3c-10.1,9.2-17.3,18.6-31.2,24.8C430.5,519.1,401.7,523.7,386.8,515.8z"/>
	</g>
	<g id="i-Espejos" class="st0">
		<path class="st18" d="M745.8,962.7H254.2c-19.7,0-35.7-16-35.7-35.7V73.1c0-19.7,16-35.7,35.7-35.7h491.6
			c19.7,0,35.7,16,35.7,35.7v853.9C781.5,946.7,765.5,962.7,745.8,962.7z"/>
		<line class="st18" x1="431.5" y1="331.1" x2="596.7" y2="165.9"/>
		<line class="st18" x1="514.1" y1="331.1" x2="679.3" y2="165.9"/>
		<circle class="st18" cx="278.5" cy="97.3" r="8.6"/>
		<circle class="st18" cx="713" cy="902.7" r="8.6"/>
		<circle class="st18" cx="287" cy="902.7" r="8.6"/>
		<circle class="st18" cx="721.5" cy="97.3" r="8.6"/>
	</g>
	<g id="Llaves" class="st0">
		<g class="st4">
			<path class="st21" d="M485.3,760.5c-15.6,17.4,2,50.2,32.6,55.3c42,1.8,129.6,7,159.4,0c29.8-7,73.6-47.3,73.6-47.3"/>
			<path class="st21" d="M344.5,721.2c36.8,31.5,201.4,178.6,215.4,185.6c14,7,136.6,19.3,234.7-40.3
				c98.1-59.5,134.9-57.8,180.4-24.5V682.4c-47.9-16.1-101.3-37.1-157.5-33.4c-15,1-30.3,3.7-45.7,8.8c-19.6,6.5-39.5,16.7-59.6,32
				c-98.1,68.3-129.5,59.5-129.5,59.5s-5.3,0.4-64.9,0.4c-16.2,0-26.7,4.4-32.6,10.9c-1-1-44.1-45.1-69.4-69.6
				c-6.4-6.2-12.7-12.3-18.7-17.8c-3.8-3.5-7.4-6.8-10.7-9.7C339.2,633.7,307.7,689.7,344.5,721.2z"/>
			<path class="st21" d="M485.3,760.5C485.3,760.6,485.3,760.6,485.3,760.5"/>
		</g>
		<polygon class="st18" points="640.8,87.1 640.8,188.8 438.3,188.8 75.9,398.1 25,310 384,102.7 411.1,87.1 		"/>
		<rect x="490.9" y="188.8" class="st18" width="131.3" height="63.3"/>
		<g class="st4">
			<g>
				<line class="st32" x1="496.1" y1="283.6" x2="496.1" y2="312.6"/>
				<line class="st33" x1="496.1" y1="366.7" x2="496.1" y2="555.8"/>
				<line class="st32" x1="496.1" y1="582.8" x2="496.1" y2="611.8"/>
			</g>
		</g>
		<g class="st4">
			<g>
				<line class="st32" x1="536.1" y1="283.6" x2="536.1" y2="312.6"/>
				<line class="st33" x1="536.1" y1="366.7" x2="536.1" y2="555.8"/>
				<line class="st32" x1="536.1" y1="582.8" x2="536.1" y2="611.8"/>
			</g>
		</g>
		<g class="st4">
			<g>
				<line class="st32" x1="576.2" y1="283.6" x2="576.2" y2="312.6"/>
				<line class="st33" x1="576.2" y1="366.7" x2="576.2" y2="555.8"/>
				<line class="st32" x1="576.2" y1="582.8" x2="576.2" y2="611.8"/>
			</g>
		</g>
		<g class="st4">
			<g>
				<line class="st32" x1="616.2" y1="283.6" x2="616.2" y2="312.6"/>
				<line class="st33" x1="616.2" y1="366.7" x2="616.2" y2="555.8"/>
				<line class="st32" x1="616.2" y1="582.8" x2="616.2" y2="611.8"/>
			</g>
		</g>
		<path class="st34" d="M670.4,346.4"/>
	</g>
	<g class="st0">
		<g class="st4">
			<rect x="46.7" y="182" class="st21" width="302.2" height="536.4"/>
			<line class="st21" x1="290.1" y1="422.6" x2="290.1" y2="470.9"/>
			<line class="st21" x1="46.7" y1="718.4" x2="46.7" y2="818"/>
			<line class="st21" x1="348.9" y1="718.4" x2="348.9" y2="818"/>
		</g>
		<g class="st4">
			<rect x="348.9" y="182" class="st21" width="302.2" height="536.4"/>
			<line class="st21" x1="592.3" y1="422.6" x2="592.3" y2="470.9"/>
			<line class="st21" x1="348.9" y1="718.4" x2="348.9" y2="818"/>
			<line class="st21" x1="651.1" y1="718.4" x2="651.1" y2="818"/>
		</g>
		<g class="st4">
			<rect x="651.1" y="182" class="st21" width="302.2" height="536.4"/>
			<line class="st21" x1="894.5" y1="422.6" x2="894.5" y2="470.9"/>
			<line class="st21" x1="651.1" y1="718.4" x2="651.1" y2="818"/>
			<line class="st21" x1="953.3" y1="718.4" x2="953.3" y2="818"/>
		</g>
	</g>
	<g id="mingitorio">
		<path class="st28" d="M500,971.8L500,971.8c-169.9,0-307.7-137.7-307.7-307.7V365.3c0-49.9,40.5-90.4,90.4-90.4h434.6
			c49.9,0,90.4,40.5,90.4,90.4v298.8C807.7,834.1,669.9,971.8,500,971.8z"/>
		<path class="st28" d="M517.3,776.7h-34.6c-112.1,0-202.9-90.9-202.9-202.9v-161c0-32.9,26.7-59.6,59.6-59.6h321.2
			c32.9,0,59.6,26.7,59.6,59.6v161C720.2,685.8,629.4,776.7,517.3,776.7z"/>
		<rect x="444" y="101.4" class="st28" width="112" height="173.5"/>
		<rect x="444" y="28.2" class="st28" width="112" height="73.3"/>
	</g>
</g>
<g id="Hospitalario" class="st0">
	<g class="st4">
		<path class="st35" d="M796.4,877.1H203.6c-44.6,0-80.7-36.1-80.7-80.7V203.6c0-44.6,36.1-80.7,80.7-80.7h592.8
			c44.6,0,80.7,36.1,80.7,80.7v592.8C877.1,840.9,840.9,877.1,796.4,877.1z"/>
		<path class="st36" d="M765.5,438.6v122.8c0,10.9-8.8,19.6-19.6,19.6H581.1v164.8c0,10.8-8.8,19.6-19.6,19.6H438.6
			c-10.9,0-19.6-8.8-19.6-19.6V581.1H254.2c-10.8,0-19.6-8.8-19.6-19.6V438.6c0-10.9,8.8-19.6,19.6-19.6h164.8V254.2
			c0-10.8,8.8-19.6,19.6-19.6h122.8c10.9,0,19.6,8.8,19.6,19.6v164.8h164.8C756.7,418.9,765.5,427.7,765.5,438.6z"/>
	</g>
</g>
</svg>
