<?xml version="1.0" encoding="UTF-8"?>
<!-- Generator: Adobe Illustrator 23.0.4, SVG Export Plug-In . SVG Version: 6.00 Build 0)  -->
<svg version="1.1" xmlns="http://www.w3.org/2000/svg" xmlns:xlink="http://www.w3.org/1999/xlink" x="0px" y="0px" viewBox="0 0 1000 1000" style="enable-background:new 0 0 1000 1000;" xml:space="preserve">
<style type="text/css">
	.st0{display:none;}
	.st1{display:inline;fill:#FFFFFF;stroke:#00608B;stroke-width:5;stroke-miterlimit:10;}
	.st2{display:inline;}
	.st3{fill:#FFFFFF;fill-opacity:0;}
	.st4{fill:none;stroke:#A5B0B3;stroke-width:12.5134;stroke-miterlimit:10;}
	.st5{display:inline;fill:none;stroke:#A5B0B3;stroke-width:12.0803;stroke-linecap:round;stroke-linejoin:round;}
	.st6{display:inline;fill:none;stroke:#A5B0B3;stroke-width:12.5134;stroke-linecap:round;stroke-linejoin:round;}
	.st7{fill:#A5B0B3;}
	.st8{fill:none;stroke:#A5B0B3;stroke-width:18.6869;stroke-miterlimit:10;}
	.st9{fill:none;stroke:#A5B0B3;stroke-width:14.5823;stroke-miterlimit:10;}
	.st10{fill:none;stroke:#A5AFB3;stroke-width:13;stroke-linecap:round;stroke-linejoin:round;}
</style>
<g id="Margin" class="st0">
	<rect x="30" y="30" class="st1" width="940" height="940"/>
</g>
<g id="Bidet_Electronico" class="st0">
	<title>Bidet_elec</title>
	<g id="Bakcground" class="st2">
		<rect class="st3" width="1000" height="1000"/>
	</g>
	<g id="Bidet" class="st2">
		<path class="st4" d="M216.7,49.5h566.5c18.2,0,32.9,22.5,32.9,50.4v534.3c0.1,174.6-141.5,316.2-316.1,316.2l0,0    c-174.6,0-316.2-141.6-316.2-316.2V100C183.8,72,198.5,49.5,216.7,49.5z"/>
		<path class="st4" d="M550.5,231.4"/>
		<path class="st4" d="M550.5,231.4"/>
		<path class="st4" d="M625.1,231.4"/>
		<path class="st4" d="M625.1,231.4H278.9c-14.2,0-25.8,16.1-25.8,35.9v380.2c0,124.3,110.6,225,247.1,225l0,0    c136.5,0,247.1-100.8,247.1-225V267.3c0-19.8-11.6-35.9-25.8-35.9L625.1,231.4"/>
		<path class="st4" d="M550.5,231.4"/>
	</g>
	<rect x="253.1" y="84.8" class="st5" width="234" height="101.7"/>
	<rect x="285.5" y="114.6" class="st6" width="42.1" height="42.1"/>
	<rect x="357.6" y="114.6" class="st6" width="42.1" height="42.1"/>
	<g class="st2">
		<path class="st7" d="M487.1,495.3c0-7.1,5.7-12.9,12.8-12.9s12.9,5.7,12.9,12.8c0,7.1-5.7,12.9-12.8,12.9c0,0,0,0,0,0    C492.9,508.2,487.2,502.4,487.1,495.3"/>
		<path class="st7" d="M487.1,536.4c0-7.1,5.7-12.9,12.8-12.9c7.1,0,12.9,5.7,12.9,12.8c0,7.1-5.7,12.9-12.8,12.9c0,0,0,0,0,0    C492.9,549.2,487.1,543.5,487.1,536.4"/>
		<path class="st7" d="M487.1,577.6c0-7.1,5.7-12.9,12.9-12.9c7.1,0,12.9,5.7,12.9,12.9s-5.7,12.9-12.9,12.9c0,0,0,0,0,0    C492.9,590.4,487.1,584.7,487.1,577.6"/>
		<path class="st7" d="M507.4,460.4c0-7.1,5.7-12.9,12.8-12.9c7.1,0,12.9,5.7,12.9,12.8c0,7.1-5.7,12.9-12.8,12.9c0,0,0,0,0,0    C513.2,473.2,507.5,467.5,507.4,460.4"/>
		<path class="st7" d="M537.1,432.1c0-7.1,5.8-12.9,12.9-12.9s12.9,5.8,12.9,12.9c0,7.1-5.8,12.9-12.9,12.9l0,0    C542.9,445,537.1,439.2,537.1,432.1"/>
		<path class="st7" d="M576.6,422.4c0-7.1,5.8-12.9,12.9-12.9c7.1,0,12.9,5.8,12.9,12.9c0,7.1-5.8,12.9-12.9,12.9    C582.3,435.3,576.6,429.5,576.6,422.4"/>
		<path class="st7" d="M613.7,438.1c0-7.1,5.8-12.9,12.9-12.9s12.9,5.8,12.9,12.9c0,7.1-5.8,12.9-12.9,12.9l0,0    C619.4,451,613.7,445.2,613.7,438.1"/>
		<path class="st7" d="M492.5,460.4c0-7.1-5.7-12.9-12.8-12.9c-7.1,0-12.9,5.7-12.9,12.8c0,7.1,5.7,12.9,12.8,12.9c0,0,0,0,0,0    C486.8,473.2,492.5,467.5,492.5,460.4"/>
		<path class="st7" d="M462.9,432.1c0-7.1-5.8-12.9-12.9-12.9c-7.1,0-12.9,5.8-12.9,12.9c0,7.1,5.8,12.9,12.9,12.9l0,0    C457.1,445,462.9,439.2,462.9,432.1"/>
		<path class="st7" d="M423.4,422.4c0-7.1-5.8-12.9-12.9-12.9c-7.1,0-12.9,5.8-12.9,12.9c0,7.1,5.8,12.9,12.9,12.9l0,0    C417.7,435.3,423.4,429.5,423.4,422.4"/>
		<path class="st7" d="M386.3,438.1c0-7.1-5.8-12.9-12.9-12.9c-7.1,0-12.9,5.8-12.9,12.9c0,7.1,5.8,12.9,12.9,12.9l0,0    C380.6,451,386.3,445.2,386.3,438.1"/>
	</g>
</g>
<g id="Layer_3" class="st0">
	<title>Neorest2</title>
	<g class="st2">
		<path class="st8" d="M45.5,378.9c15.3,82.1,49.7,159.5,100.2,225.9c42.8,60.9,90.3,145.5,98.8,164.3c6.3,15,19.5,26.1,35.4,29.7    c16.3,5,500.7,9.6,548.9,3.2c19-3,35.4-14.8,44.3-31.9c42.5-71,69.6-150.2,79.7-232.3c8.9-97.4,0-168.6-28.7-220.3    c-24.2-44.4-61.2-80.4-106.2-103.4c-35.3-15.5-73.9-21.8-112.3-18.4c-50.1,1.6-99.1,15.7-142.4,41.1    c-65.8,42.5-140.1,70-217.8,80.4C254.5,327.8,163.1,332,71.7,330c-18.4,0-27.6,7.4-27.6,17.3C43.9,357.9,44.4,368.4,45.5,378.9z"/>
		<path class="st8" d="M44.7,363.3h280.8c82.2-3,163.5-17.6,241.5-43.6c80.1-29.4,156.9-67.1,229.1-112.6"/>
	</g>
</g>
<g id="Layer_4" class="st0">
	<g class="st2">
		<path class="st9" d="M839.1,199c47.6,47.6,119.4,133.5,128,224.3c5.9,79.6-7.5,159.4-39.3,232.6c-18.8,42.9-34.4,87.2-46.9,132.4    c-5.4,20.2-23.1,26-45.4,31c-22.4,5-195.9,6.1-271.2,6.1c-75.4,0-247.4-3.6-273.8-7.6c-18.3-1.4-34.5-12.3-42.6-28.9L145.1,629.7    C101.1,559,31.8,426.3,31.8,385.9v-36.1c-2.2-15.9,7.4-31.1,22.7-36.1C188,269.9,324,234.1,461.8,206.6    c137.4-22.7,314.5-37.5,338.7-30.3C815,180.6,828.3,188.4,839.1,199z"/>
		<path class="st9" d="M839.1,199c-47.6,52.7-144.3,88-252.5,121.9c-111.7,32.9-227.3,50.9-343.7,53.7c-88,0-211,0-211,0"/>
	</g>
</g>
<g id="Layer_5">
	<line class="st10" x1="155.8" y1="882.1" x2="921.7" y2="882.1"/>
	<line class="st10" x1="155.8" y1="882.1" x2="155.8" y2="881.6"/>
	<g>
		<path class="st10" d="M48,346.5"/>
		<polyline class="st10" points="949.8,234.2 954.3,237.6 954.3,234.2 872.8,199.9 799.1,225.5 725.4,252.7 652.8,282.2     580.8,312.9 580.8,312.9 555,323 528.1,331.9 501.1,338.7 473.6,343.1 445.5,346 417.4,347.1 417.5,347.1 32.8,347.1 32.8,347.1     31.2,346.5 30,344.3 30,343.7 30,344.3 33.4,308.9 33.4,308.9 34.5,303.8 37.9,299.9 42.4,298.2 42.4,298.2 95.8,287.5     353.6,236.3 851.2,138.8 953.2,232.5 953.1,232.5 968.9,368.9 968.3,368.4 507.3,368.4 509,368.4 510.1,368.4 510.1,368.4     528.1,368.4 528.1,368.4 528.6,368.4 512.9,368.4 512.4,368.4 135,368.4 95.7,368.4   "/>
		<line class="st10" x1="968.3" y1="420.4" x2="968.9" y2="381"/>
		<polyline class="st10" points="921.7,882.1 943.6,742.3 953.2,668.2 959.9,593.5 965,518.8 968.3,444.7 969.4,369.5 968.9,368.9     967.8,368.4 967.7,368.4 57,368.4 51.9,370 48,374 47.4,379 47.4,379 63.7,480.7 82.8,581.7 104.7,682.8 128.9,782.8 155.8,882.1     155.8,882.1 644.9,882.1 644.9,368.4   "/>
		<path class="st10" d="M689.4,442.9H790H689.4z"/>
		<path class="st10" d="M689.4,409.8H790H689.4z"/>
		<path class="st10" d="M689.4,475.9H790H689.4z"/>
	</g>
</g>
</svg>