<?xml version="1.0" encoding="utf-8"?>
<!-- Generator: Adobe Illustrator 24.1.2, SVG Export Plug-In . SVG Version: 6.00 Build 0)  -->
<svg version="1.1" id="Residencial" xmlns="http://www.w3.org/2000/svg" xmlns:xlink="http://www.w3.org/1999/xlink" x="0px"
	 y="0px" viewBox="0 0 1000 1000" style="enable-background:new 0 0 1000 1000;" xml:space="preserve">
<style type="text/css">
	.st0{fill:#FFFFFF;fill-opacity:0;}
	.st1{display:none;}
	.st2{display:inline;fill:none;stroke:#333333;stroke-width:20;stroke-miterlimit:10;}
	.st3{display:inline;fill:#333333;}
	.st4{display:inline;}
	.st5{fill:none;stroke:#333333;stroke-width:20;stroke-miterlimit:10;}
	.st6{fill:#333333;}
	.st7{display:inline;fill:none;stroke:#333333;stroke-width:20;stroke-linecap:round;stroke-linejoin:round;stroke-miterlimit:10;}
	.st8{fill:none;stroke:#333333;stroke-width:20;stroke-linecap:square;stroke-linejoin:round;stroke-miterlimit:10;}
	.st9{fill:none;stroke:#333333;stroke-width:20;stroke-linecap:round;stroke-linejoin:round;stroke-miterlimit:10;}
	.st10{display:inline;fill:none;stroke:#333333;stroke-width:20;stroke-linecap:round;stroke-miterlimit:10;}
	.st11{display:inline;fill:none;stroke:#333333;stroke-width:30;stroke-miterlimit:10;}
	.st12{fill:none;stroke:#333333;stroke-width:20;stroke-linecap:round;stroke-miterlimit:10;}
	.st13{fill:none;stroke:#ACACAC;stroke-width:20;stroke-linecap:round;stroke-linejoin:round;stroke-miterlimit:10;}
</style>
<g id="Fondo">
	<rect class="st0" width="1000" height="1000"/>
</g>
<g id="r-asiento-inodoro" class="st1">
	<path class="st2" d="M501,88.3c-71.2,0-142.5,1.2-213.7-0.7c-23.4-0.6-35.9,7.5-46,27.1c-116.6,227.2-119,454.5,1,681
		c26.3,49.7,63.8,91.1,109.7,124.3c93.1,67.5,205.8,70,296.5-0.4c38.7-30,73.1-68.5,101.2-108.8c56.3-80.8,82.6-174.1,92.6-271.5
		c15.4-151.2-6.6-295.5-83.9-428.9c-9.2-15.8-19.4-22.9-38.7-22.6C646.8,89.1,573.9,88.3,501,88.3z"/>
	<path class="st3" d="M364,56c-27.8,0-52.4,0-78.5,0c4.2-19.4,18.5-26.1,34.8-27.3C339.2,27.2,354.1,35.1,364,56z"/>
	<path class="st3" d="M717.4,56c-27.8,0-52.4,0-78.5,0c4.2-19.4,18.5-26.1,34.8-27.3C692.6,27.2,707.4,35.1,717.4,56z"/>
	<path class="st2" d="M501,88.3c72.9,0,145.8,0.8,218.6-0.5c19.3-0.3,29.5,6.8,38.7,22.6c77.4,133.4,99.4,277.7,83.9,428.9
		c-9.9,97.4-36.3,190.6-92.6,271.5c-28.1,40.4-62.5,78.8-101.2,108.8C557.8,990,445.1,987.5,352,920
		c-45.8-33.2-83.4-74.6-109.7-124.3c-119.9-226.5-117.6-453.7-1-681c10.1-19.6,22.6-27.7,46-27.1C358.5,89.5,429.8,88.3,501,88.3z"
		/>
</g>
<g id="r-regadera-higien" class="st1">
	<g class="st4">
		<path class="st5" d="M474.9,556.3c0,57.1-40,104.8-93.5,116.7v-78.5c12.2-8.3,20.2-22.3,20.2-38.2c0-25.5-20.7-46.2-46.2-46.2
			s-46.2,20.7-46.2,46.2c0,15.9,8,29.9,20.2,38.2V673c-53.5-11.9-93.5-59.6-93.5-116.7c0-66,53.5-119.5,119.5-119.5
			S474.9,490.3,474.9,556.3z"/>
		<path class="st5" d="M401.5,556.3c0,15.9-8,29.9-20.2,38.2v353.9h-52V594.5c-12.2-8.3-20.2-22.3-20.2-38.2
			c0-25.5,20.7-46.2,46.2-46.2C380.8,510.2,401.5,530.8,401.5,556.3z"/>
	</g>
	<g class="st4">
		<path class="st5" d="M670.6,744.7v203.7h-52V744.7c7.4,2.1,15.3,3.3,23.4,3.3h5.2C655.3,747.9,663.2,746.8,670.6,744.7z"/>
		<path class="st5" d="M732.1,252.6V663c0,38.8-26,71.5-61.5,81.6c-7.4,2.1-15.3,3.3-23.4,3.3H642c-8.1,0-16-1.1-23.4-3.3
			c-35.5-10.2-61.5-42.9-61.5-81.6V252.6c21.8,23.4,53,38.1,87.5,38.1C679.2,290.7,710.3,276,732.1,252.6z"/>
		<path class="st5" d="M764.2,171.2c0,31.4-12.1,60.1-32,81.4l0,0c-21.8,23.4-53,38.1-87.5,38.1s-65.6-14.6-87.5-38.1
			c-19.9-21.3-32-50-32-81.5c0-66,53.5-119.5,119.5-119.5C710.6,51.6,764.2,105.2,764.2,171.2z"/>
	</g>
	<g class="st4">
		<circle class="st6" cx="644.7" cy="122.7" r="11"/>
		<circle class="st6" cx="644.7" cy="171.2" r="11"/>
		<circle class="st6" cx="644.7" cy="219.7" r="11"/>
		<circle class="st6" cx="693.2" cy="171.2" r="11"/>
		<circle class="st6" cx="596.2" cy="171.2" r="11"/>
	</g>
</g>
<g id="r-espejos_1_" class="st1">
	<path class="st7" d="M824.5,374.2c0,179-145.1,324.1-324.1,324.1S176.2,553.2,176.2,374.2S321.3,50.1,500.3,50.1
		S824.5,195.2,824.5,374.2z"/>
	<path class="st7" d="M896.1,374.2c0,218.5-177.1,395.7-395.7,395.7S104.7,592.8,104.7,374.2h71.6c0,179,145.1,324.1,324.1,324.1
		s324.1-145.1,324.1-324.1L896.1,374.2L896.1,374.2z"/>
	<rect x="264.7" y="865.7" class="st7" width="471.4" height="71.8"/>
	<line class="st7" x1="500.4" y1="769.9" x2="499.1" y2="865.7"/>
	<line class="st7" x1="318.3" y1="509" x2="375.7" y2="451.7"/>
	<line class="st7" x1="450.7" y1="374.2" x2="584.3" y2="240.6"/>
	<line class="st7" x1="619.1" y1="210.3" x2="651.6" y2="177.7"/>
	<line class="st7" x1="699.9" y1="240.6" x2="634.2" y2="306.3"/>
	<line class="st7" x1="584.3" y1="356.2" x2="538.9" y2="401.7"/>
	<line class="st7" x1="500.4" y1="437" x2="370.5" y2="566.9"/>
</g>
<g id="r-bidet" class="st1">
	<g id="Bidet_1_" class="st4">
		<path id="Bidet" class="st8" d="M113.5,957.2h651c0,0-40.7-216.3-53.5-308.4c169.2-100.6,175.6-351.2,175.6-351.2h-773
			L113.5,957.2L113.5,957.2z"/>
		<g id="Llave">
			<path class="st9" d="M227.1,271.5v14.1h-89.4v-14.1c0-4.6,3.7-8.3,8.3-8.3h1.8V109.7h69.3v153.5h1.8
				C223.4,263.3,227.1,266.9,227.1,271.5z"/>
			<path class="st9" d="M147.1,108.4c0,0-7.7-18.1,20-25.1s138.3-39.7,138.3-39.7c18.1-4.6,20,11.6,8.4,17.7
				c-13.5,7.1-96.8,48.4-96.8,48.4"/>
			<path class="st9" d="M217.1,161.6l83.9-54.2h61.9c0,0,8.7-0.3,8.7,10.9c0,11.3-1.3,33.7-1.3,33.7h-51.9"/>
			<line class="st9" x1="217.1" y1="241.3" x2="318.3" y2="152.1"/>
		</g>
	</g>
</g>
<g id="r-inodoro" class="st1">
	<path class="st2" d="M277.8,36.7H142.9C117,36.7,96,57.6,96,83.5v422.6h259.3l-30.7-426C322.8,55.7,302.4,36.7,277.8,36.7z"/>
	<line class="st2" x1="96" y1="129.1" x2="328.1" y2="129.1"/>
	<path class="st2" d="M168.2,506.1L355.3,695l-51.9,268.3h487l-47.3-228.6C946,677,928,440.2,846.8,390.6c-36.1,0-385.6,0-385.6,0
		s-33.8,28.1-33.8,81.7h470.3"/>
	<line class="st2" x1="352.9" y1="472.3" x2="427.4" y2="472.3"/>
</g>
<g id="i-inodoro" class="st1">
	<path class="st10" d="M132.1,460.1l187.1,222.7l-51.9,268.3h487L707,722.6c203-57.8,184.9-294.5,103.7-344.1
		c-36.1,0-385.6,0-385.6,0s-33.8,28.1-33.8,81.7h470.3"/>
	<line class="st10" x1="132.1" y1="460.1" x2="391.4" y2="460.1"/>
	<path class="st10" d="M252.3,402.1h-31.1c-16.8,0-30.4,13.6-30.4,30.4v27.6h92v-27.6C282.7,415.7,269.1,402.1,252.3,402.1z"/>
	<path class="st10" d="M271.6,117.1c0,13.2-7.4,24.7-18.2,30.7v254.3h-32.2V148.3c-11.4-5.7-19.3-17.5-19.3-31.2
		c0-3.6,0.5-7,1.5-10.2h66.7C271.1,110.1,271.6,113.5,271.6,117.1z"/>
	<path class="st10" d="M282.7,74.1v32.7h-92V74.1c0-14,11.3-25.3,25.3-25.3h41.4C271.4,48.8,282.7,60.2,282.7,74.1z"/>
</g>
<g id="r-portacepillos" class="st1">
	<polygon class="st7" points="660.3,933.2 248.8,933.2 248.8,718.4 248.8,458.2 660.3,458.2 660.3,721.4 	"/>
	<line class="st7" x1="660.3" y1="815.2" x2="248.8" y2="815.2"/>
	<line class="st7" x1="660.4" y1="879.1" x2="248.9" y2="879.1"/>
	<g class="st4">
		<polyline class="st9" points="399.4,458.2 399.4,405.5 355.7,310.8 355.7,159.1 355.7,66.8 		"/>
		<line class="st9" x1="454.7" y1="66.8" x2="355.8" y2="66.8"/>
		<line class="st9" x1="454.7" y1="98.7" x2="355.8" y2="98.7"/>
		<line class="st9" x1="454.7" y1="130.5" x2="355.8" y2="130.5"/>
		<line class="st9" x1="454.7" y1="162.4" x2="355.8" y2="162.4"/>
		<line class="st9" x1="454.7" y1="194.2" x2="355.8" y2="194.2"/>
		<line class="st9" x1="454.7" y1="226.1" x2="355.8" y2="226.1"/>
	</g>
	<g class="st4">
		<polyline class="st9" points="491.2,449.4 505.4,398.6 488.8,295.7 529.7,149.6 554.6,60.7 		"/>
		<line class="st9" x1="649.9" y1="87.4" x2="554.7" y2="60.8"/>
		<line class="st9" x1="641.3" y1="118.1" x2="546.1" y2="91.4"/>
		<line class="st9" x1="632.7" y1="148.8" x2="537.5" y2="122.1"/>
		<line class="st9" x1="624.1" y1="179.4" x2="528.9" y2="152.8"/>
		<line class="st9" x1="615.6" y1="210.1" x2="520.4" y2="183.5"/>
		<line class="st9" x1="607" y1="240.8" x2="511.8" y2="214.1"/>
	</g>
</g>
<g id="r-coladeras" class="st1">
	<circle class="st2" cx="500" cy="493.9" r="440.8"/>
	<circle class="st2" cx="500" cy="493.9" r="353.1"/>
	<circle class="st2" cx="500" cy="243.7" r="42.9"/>
	
		<ellipse transform="matrix(0.7071 -0.7071 0.7071 0.7071 -380.8429 571.9639)" class="st2" cx="500" cy="745.7" rx="42.9" ry="42.9"/>
	<path class="st2" d="M698.3,392.1H301.7c-14.6,0-26.4-11.8-26.4-26.4V345c0-14.6,11.8-26.4,26.4-26.4h396.6
		c14.6,0,26.4,11.8,26.4,26.4v20.7C724.7,380.2,712.9,392.1,698.3,392.1z"/>
	<path class="st2" d="M698.3,530.6H301.7c-14.6,0-26.4-11.8-26.4-26.4v-20.7c0-14.6,11.8-26.4,26.4-26.4h396.6
		c14.6,0,26.4,11.8,26.4,26.4v20.7C724.7,518.8,712.9,530.6,698.3,530.6z"/>
	<path class="st2" d="M698.3,669.2H301.7c-14.6,0-26.4-11.8-26.4-26.4V622c0-14.6,11.8-26.4,26.4-26.4h396.6
		c14.6,0,26.4,11.8,26.4,26.4v20.7C724.7,657.4,712.9,669.2,698.3,669.2z"/>
</g>
<g id="r-toallero" class="st1">
	<polyline class="st11" points="953.6,219 866,219 744,219 	"/>
	<line class="st11" x1="197.5" y1="219" x2="46.4" y2="219"/>
	<path class="st2" d="M744,130.4H291.3c-57.8,0-104.7,46.9-104.7,104.7v634.6H744V130.4z"/>
	<path class="st2" d="M755.6,130.4h33c42.7,0,77.4,34.6,77.4,77.4v559.8H744V142C744,135.6,749.2,130.4,755.6,130.4z"/>
	<polyline class="st2" points="186.6,573.1 265.9,600.4 369.9,562.9 465.3,600.4 554.1,562.9 647.9,600.4 744,562.9 	"/>
	<line class="st2" x1="186.6" y1="706.1" x2="744" y2="706.1"/>
</g>
<g id="r-consumibles" class="st1">
	<g class="st4">
		<path class="st9" d="M283.1,492.8L283.1,492.8v11.1c0,5.8,1,11.6,3,17.1"/>
		<path class="st9" d="M283.1,492.7L283.1,492.7C283,492.7,283.1,492.7,283.1,492.7C283,492.7,283,492.7,283.1,492.7
			C283.1,492.7,283.1,492.6,283.1,492.7C283.1,492.6,283.1,492.6,283.1,492.7C283.1,492.6,283.1,492.6,283.1,492.7
			C283.1,492.6,283.1,492.6,283.1,492.7L283.1,492.7v-0.3v-1.2v-1.3"/>
		<path class="st9" d="M377.5,589.2c2.2,0.7,4.4,1.4,6.7,2.1c33.5,10.1,73.2,16,115.9,16l0,0c36.5,0,70.9-4.3,101.1-11.9
			c7.4-1.9,14.6-3.9,21.4-6.2c47.6-15.5,81.6-39.9,91.5-68.1c2-5.6,3-11.3,3-17.1v-11.1v-0.1v-0.1v-0.2v-1.2V490v-97.1V179v-0.7
			c0,0.6,0,1.2,0,1.9c0,0.3,0,0.6,0,0.9c0,0.3,0,0.6-0.1,0.9c0,0.5-0.1,1.1-0.1,1.6c0,0.1,0,0.2,0,0.3c0,0.3-0.1,0.6-0.1,0.9
			c0,0.1,0,0.3-0.1,0.4c0,0.2,0,0.3-0.1,0.5c0,0.1,0,0.1,0,0.2c0,0.2-0.1,0.4-0.1,0.7c-0.1,0.7-0.2,1.3-0.4,2
			c-0.1,0.3-0.1,0.7-0.2,1c-0.1,0.3-0.2,0.7-0.2,1c-0.1,0.3-0.1,0.6-0.2,0.9c-0.1,0.3-0.2,0.6-0.2,0.8c-0.2,0.7-0.4,1.4-0.6,2.1
			c-0.2,0.7-0.5,1.4-0.7,2.1c-0.1,0.2-0.2,0.4-0.2,0.6v0.1c-0.1,0.2-0.2,0.4-0.3,0.6c-0.1,0.3-0.3,0.7-0.4,1
			c-0.3,0.6-0.6,1.3-0.9,1.9c-0.1,0.3-0.3,0.6-0.5,1c-0.1,0.3-0.3,0.6-0.4,0.9c-0.1,0.3-0.3,0.5-0.4,0.8c0,0.1-0.1,0.1-0.1,0.2
			c-0.2,0.4-0.4,0.8-0.6,1.1c0,0,0,0,0,0.1c-0.2,0.4-0.5,0.8-0.7,1.3c-0.2,0.4-0.5,0.8-0.7,1.2c0,0,0,0.1-0.1,0.1
			c-0.3,0.4-0.5,0.8-0.8,1.2c0,0,0,0,0,0.1c-0.7,1.1-1.5,2.2-2.3,3.3c-0.3,0.4-0.6,0.8-0.9,1.2c-0.3,0.4-0.6,0.8-0.9,1.2
			c-0.3,0.4-0.6,0.8-1,1.2c-0.3,0.4-0.7,0.8-1,1.2c-0.2,0.3-0.5,0.5-0.7,0.8c-0.2,0.2-0.4,0.4-0.5,0.6c-0.2,0.2-0.4,0.4-0.5,0.6
			c-0.3,0.3-0.5,0.6-0.8,0.9c-0.5,0.6-1.1,1.2-1.7,1.8c-0.3,0.3-0.6,0.6-0.9,0.9c-0.4,0.4-0.8,0.8-1.2,1.2c-0.6,0.6-1.2,1.2-1.9,1.8
			c-0.6,0.6-1.3,1.2-1.9,1.7c-0.3,0.3-0.6,0.5-0.8,0.7c-0.6,0.5-1.2,1-1.8,1.5c-0.3,0.2-0.5,0.4-0.8,0.6c-0.3,0.2-0.5,0.4-0.8,0.6
			c-0.6,0.5-1.2,1-1.9,1.5c-0.6,0.4-1.1,0.9-1.7,1.3c-1.9,1.4-3.8,2.8-5.8,4.1c-0.5,0.3-1,0.7-1.4,1c-1,0.7-2,1.3-3,2
			c-0.5,0.3-1,0.6-1.5,0.9c-1.2,0.7-2.3,1.4-3.5,2.1c-0.5,0.3-0.9,0.5-1.4,0.8c-0.4,0.2-0.8,0.5-1.2,0.7s-0.8,0.4-1.2,0.7
			c-0.4,0.2-0.7,0.4-1.1,0.6c-0.5,0.3-0.9,0.5-1.4,0.8s-1.1,0.6-1.6,0.9c-0.1,0-0.1,0.1-0.2,0.1c-0.5,0.3-1,0.5-1.6,0.8
			c-1.1,0.6-2.2,1.1-3.3,1.6s-2.3,1.1-3.5,1.6c-0.6,0.3-1.2,0.5-1.8,0.8c-0.7,0.3-1.5,0.7-2.2,1c-0.8,0.4-1.6,0.7-2.4,1.1
			c-0.5,0.2-1.1,0.5-1.6,0.7c-0.3,0.1-0.5,0.2-0.8,0.4c-0.3,0.1-0.6,0.3-0.9,0.4c-1.4,0.6-2.8,1.1-4.2,1.7c-0.7,0.3-1.3,0.5-2,0.8
			c-0.5,0.2-1,0.4-1.6,0.6c-0.5,0.2-1,0.4-1.5,0.6c-2.5,0.9-5.1,1.8-7.7,2.7c-0.8,0.3-1.6,0.5-2.4,0.8c-0.5,0.2-1.1,0.3-1.6,0.5
			c-0.4,0.1-0.8,0.2-1.2,0.4c-1,0.3-2,0.6-3,1c-3.1,1-6.3,1.9-9.6,2.8c-0.9,0.3-1.9,0.5-2.8,0.8c-1.2,0.3-2.4,0.6-3.6,0.9
			c-0.3,0.1-0.5,0.1-0.8,0.2c-0.8,0.2-1.6,0.4-2.4,0.6c-0.9,0.2-1.7,0.4-2.6,0.6c-0.4,0.1-0.9,0.2-1.3,0.3c-1.4,0.3-2.7,0.6-4.1,0.9
			c-0.9,0.2-1.8,0.4-2.7,0.6c-0.4,0.1-0.8,0.2-1.2,0.3c-1.8,0.4-3.6,0.7-5.4,1.1c-0.3,0.1-0.6,0.1-0.9,0.2c-0.5,0.1-1,0.2-1.4,0.3
			c-0.4,0.1-0.8,0.2-1.2,0.2c-0.2,0-0.4,0.1-0.5,0.1c-0.2,0-0.5,0.1-0.7,0.1c-0.9,0.2-1.8,0.3-2.6,0.5c-0.1,0-0.2,0-0.4,0.1
			c-0.6,0.1-1.2,0.2-1.8,0.3c-0.2,0-0.4,0.1-0.6,0.1c-0.1,0-0.1,0-0.2,0c-0.2,0-0.4,0.1-0.7,0.1h-0.1c-0.3,0-0.5,0.1-0.8,0.1h-0.1
			c-1.3,0.2-2.7,0.4-4,0.6c-3.5,0.5-7.1,1-10.7,1.4c-1.5,0.2-3.1,0.4-4.7,0.5h-0.1c-1.2,0.1-2.5,0.3-3.7,0.4
			c-0.9,0.1-1.7,0.2-2.6,0.3c-0.9,0.1-1.7,0.2-2.6,0.2c-1,0.1-2,0.2-3,0.3c-2.7,0.2-5.5,0.4-8.3,0.6c-0.9,0-1.7,0.1-2.6,0.2
			c-1.2,0.1-2.4,0.1-3.6,0.2c-0.1,0-0.2,0-0.2,0c-0.1,0-0.2,0-0.3,0c-1.3,0.1-2.6,0.1-3.9,0.2c-0.5,0-1.1,0.1-1.6,0.1
			c-1.2,0-2.5,0.1-3.7,0.1s-2.5,0.1-3.7,0.1c-1.1,0-2.1,0-3.2,0.1c-0.8,0-1.7,0-2.6,0c-1.1,0-2.2,0-3.4,0
			c-86.1,0-160.5-23.9-195.6-58.5c-13.7-13.6-21.4-28.8-21.4-44.8v0.7v213.8"/>
		<path class="st9" d="M716.9,178.3c0,57.1-97.1,103.3-216.9,103.3s-217-46.3-217-103.3c0-1.7,0.1-3.3,0.2-4.9
			C288.6,118.6,383.6,75,499.9,75s211.3,43.6,216.7,98.4C716.9,175,716.9,176.6,716.9,178.3z"/>
		<ellipse class="st9" cx="500" cy="187.7" rx="68.9" ry="15.6"/>
		<polyline class="st9" points="601.1,595.3 601.1,583.5 601.1,408.7 601.1,269.7 		"/>
	</g>
	<g class="st4">
		<path class="st9" d="M377.5,589.2c-28.5,6.6-60.6,10.3-94.4,10.3c-119.8,0-217-46.3-217-103.3v325.6c0,57.1,97.1,103.3,217,103.3
			c36.5,0,70.9-4.3,101.1-11.9C453,895.9,500,861.4,500,821.7V607.2"/>
		<path class="st9" d="M286,521c9.9,28.2,43.8,52.6,91.5,68.1c-28.5,6.6-60.6,10.3-94.4,10.3c-119.8,0-217-46.3-217-103.3
			c0-1.7,0.1-3.3,0.2-4.9c5.4-54.8,100.4-98.4,216.7-98.4v97.1"/>
		<polyline class="st9" points="282.9,491.2 283.1,491.2 283.2,491.2 		"/>
		<path class="st9" d="M283.1,492.4c0,0,0,0.1,0,0.2c0,0,0,0,0,0.1l0,0l0,0l0,0l0,0"/>
		<path class="st9" d="M283.1,492.6L283.1,492.6L283.1,492.6L283.1,492.6c0,0.1,0,0.1,0,0.1l0,0"/>
		<polyline class="st9" points="282.9,491.2 283.1,491.2 283.2,491.2 		"/>
		<path class="st9" d="M283.1,489.9c-38,0-68.9,7-68.9,15.6c0,8.6,30.8,15.6,68.9,15.6c1,0,2,0,3,0"/>
		<line class="st9" x1="384.1" y1="913.2" x2="384.1" y2="591.3"/>
	</g>
	<g class="st4">
		<path class="st9" d="M500,607.2v214.5c0,57.1,97.1,103.3,217,103.3c36.5,0,70.9-4.3,101.1-11.9C887,895.8,934,861.3,934,821.6
			V496.1c0,39.7-47,74.1-115.9,91.5c-30.2,7.6-64.6,11.9-101.1,11.9c-33.8,0-65.9-3.7-94.4-10.3"/>
		<line class="st9" x1="601.1" y1="583.5" x2="601.1" y2="408.7"/>
		<path class="st9" d="M622.5,589.2c28.5,6.6,60.6,10.3,94.4,10.3c36.5,0,70.9-4.3,101.1-11.9c68.9-17.3,115.9-51.8,115.9-91.5
			c0-1.7-0.1-3.3-0.2-4.9c-5.4-54.8-100.4-98.4-216.7-98.4l0,0"/>
		<path class="st9" d="M716.8,491.2h0.2c-0.2,1.6-0.2,3.3-0.2,4.9V491.2z"/>
		<path class="st9" d="M717.1,491.2v4.9c0-1.7-0.1-3.3-0.2-4.9H717.1z"/>
		<path class="st9" d="M716.9,489.9c38,0,68.9,7,68.9,15.6c0,8.6-30.8,15.6-68.9,15.6c-1,0-2,0-3,0"/>
		<line class="st9" x1="818" y1="587.6" x2="818" y2="913.2"/>
	</g>
</g>
<g id="r-accesorios_1_" class="st1">
	<g id="r-accesorios" class="st4">
		<path class="st12" d="M329.8,696.5v221.8H74.1V696.5c0-18.7,15.2-33.9,33.9-33.9h187.9C314.6,662.5,329.8,677.7,329.8,696.5z"/>
		<path class="st12" d="M268.8,562.7v99.8H135.1v-99.8c0-18.7,15.2-33.9,33.9-33.9h65.9C253.6,528.8,268.8,544,268.8,562.7z"/>
		<path class="st12" d="M607.9,345.7v572.6H329.8V696.5c0-18.7-15.2-33.9-33.9-33.9h-27.1v-99.8c0-18.7-15.2-33.9-33.9-33.9h-16.2
			V345.7c0-18.7,15.2-33.9,33.9-33.9H574C592.7,311.7,607.9,326.9,607.9,345.7z"/>
		<path class="st12" d="M515.1,165.5v146.3H311.5V165.5c0-18.7,15.2-33.9,33.9-33.9h135.7C499.9,131.5,515.1,146.7,515.1,165.5z"/>
		<line class="st12" x1="369.3" y1="131.5" x2="369.3" y2="81.7"/>
		<line class="st12" x1="460.3" y1="131.5" x2="460.3" y2="81.7"/>
		<path class="st12" d="M925.8,612.2l-31.6,306.1H607.9V585.7h294C916.2,585.7,927.3,598.1,925.8,612.2z"/>
	</g>
	<g class="st4">
		<polyline class="st9" points="729.3,585.7 743.5,535 726.9,432.1 767.8,286 792.7,197.1 		"/>
		<line class="st9" x1="888" y1="223.8" x2="792.8" y2="197.2"/>
		<line class="st9" x1="879.4" y1="254.5" x2="784.2" y2="227.8"/>
		<line class="st9" x1="870.9" y1="285.1" x2="775.7" y2="258.5"/>
		<line class="st9" x1="862.3" y1="315.8" x2="767.1" y2="289.2"/>
		<line class="st9" x1="853.7" y1="346.5" x2="758.5" y2="319.8"/>
		<line class="st9" x1="845.1" y1="377.2" x2="749.9" y2="350.5"/>
	</g>
</g>
<g id="r-muebles" class="st1">
	<path class="st7" d="M943.3,369.1v450.3H56.7V369.1h158.1C254.3,435.6,327,480.2,410,480.2h180.1c62.7,0,119.4-25.4,160.5-66.5
		c13.3-13.3,25-28.3,34.7-44.7h158V369.1z"/>
	<path class="st7" d="M817,253.3c0,42.3-11.6,81.9-31.7,115.8c-9.7,16.3-21.4,31.3-34.7,44.7c-41.1,41.1-97.8,66.5-160.5,66.5H409.9
		c-83,0-155.6-44.6-195.2-111.1c-20.2-33.9-31.7-73.5-31.7-115.8h634V253.3z"/>
	<rect x="140.3" y="819.5" class="st7" width="719.4" height="88.8"/>
	<line class="st7" x1="500" y1="819.5" x2="500" y2="480.3"/>
	<line class="st7" x1="443.4" y1="564.5" x2="443.4" y2="688.5"/>
	<line class="st7" x1="568.6" y1="564.5" x2="568.6" y2="688.5"/>
	<path class="st7" d="M500,253.3v-87.7c0-91.2-116.2-110-117.4,12.9"/>
</g>
<g id="r-espejos" class="st1">
	<g class="st4">
		<rect x="177.2" y="600.3" class="st9" width="645.7" height="125.5"/>
		<path class="st9" d="M881.6,74.1v416.4H545.5v-22.4c0-25.1-20.4-45.5-45.5-45.5s-45.5,20.4-45.5,45.5v22.4H118.4V74.1H881.6z"/>
		<line class="st9" x1="208.6" y1="266.4" x2="317.9" y2="165.2"/>
		<line class="st9" x1="199" y1="399.5" x2="452.1" y2="165.2"/>
		<line class="st9" x1="334.3" y1="399.5" x2="508.2" y2="238.5"/>
		<g>
			<path class="st9" d="M545.5,499.3v93.4h-91v-93.4C476.8,529.8,530.2,527,545.5,499.3z"/>
			<path class="st9" d="M545.5,468.2v31.1c-15.3,27.7-68.8,30.6-91,0v-31.1c0-25.1,20.4-45.5,45.5-45.5
				C525.1,422.7,545.5,443,545.5,468.2z"/>
		</g>
	</g>
	<rect x="212.4" y="725.8" class="st7" width="575.2" height="200.1"/>
</g>
<g id="r-griferia" class="st1">
	<rect x="57.8" y="181.3" class="st7" width="165" height="637.3"/>
	<line class="st7" x1="57.8" y1="644.2" x2="222.9" y2="644.2"/>
	<line class="st7" x1="57.8" y1="316" x2="222.9" y2="316"/>
	<rect x="222.9" y="181.3" class="st7" width="155.5" height="62.5"/>
	<rect x="222.9" y="316" class="st7" width="301.6" height="72.1"/>
	<path class="st7" d="M524.5,463.9c0,15.1-12.2,27.3-27.3,27.3c-15.1,0-27.3-12.2-27.3-27.3c0-8.1,3.5-15.3,9.1-20.3l17.6-39.4
		l18.1,38.8C520.6,447.9,524.5,455.5,524.5,463.9z"/>
	<path class="st7" d="M734,818.7H472.5c-115,0-208.2-93.2-208.2-208.2V552h677.8v58.5C942.2,725.5,848.9,818.7,734,818.7z"/>
</g>
<g id="r-cepillos" class="st1">
	<path class="st7" d="M624.3,881.9L624.3,881.9c-41.5,0-75.2-33.7-75.2-75.2V618.4c0-7.3,5.9-13.2,13.2-13.2h124
		c7.3,0,13.2,5.9,13.2,13.2v188.3C699.5,848.2,665.8,881.9,624.3,881.9z"/>
	<line class="st7" x1="624.3" y1="605.2" x2="624.3" y2="454.9"/>
	<line class="st7" x1="457.9" y1="66" x2="457.9" y2="934"/>
	<line class="st7" x1="258.4" y1="934" x2="661.4" y2="934"/>
	<line class="st7" x1="300.5" y1="398.8" x2="457.9" y2="398.8"/>
	<line class="st7" x1="459.9" y1="114.1" x2="721.5" y2="114.1"/>
	<path class="st7" d="M620.2,188.3h-26c-33.8,0-61.2-27.4-61.2-61.2v-13h148.3v13C681.4,160.9,654,188.3,620.2,188.3z"/>
	<line class="st7" x1="466.9" y1="605.2" x2="741.6" y2="605.2"/>
</g>
<g id="r-jabonera" class="st1">
	<path class="st7" d="M652.9,591.8c8.4,21.7,29.4,37.1,54,37.1s45.7-15.4,54-37.1h45.8c63.5,0,115,51.5,115,115v100
		c0,63.5-51.5,115-115,115H193.2c-63.5,0-115-51.5-115-115v-100c0-63.5,51.5-115,115-115h30c16.3,22.5,42.8,37.1,72.8,37.1
		c29.9,0,56.4-14.6,72.8-37.1"/>
	<path class="st7" d="M130.3,661c14,39.9,51.9,68.5,96.6,68.5h546.2c44.6,0,82.6-28.6,96.6-68.5"/>
	<path class="st7" d="M764.8,571c0,7.3-1.4,14.4-3.9,20.8c-8.4,21.7-29.4,37.1-54,37.1s-45.7-15.4-54-37.1
		c-2.5-6.5-3.9-13.5-3.9-20.8c0-32,25.9-57.9,57.9-57.9C738.9,513.1,764.8,539,764.8,571z"/>
	<path class="st7" d="M663.4,499.8c0,39.3-31.9,71.2-71.2,71.2c-32.6,0-60.1-21.9-68.5-51.8c-18.4,21-45.5,34.3-75.7,34.3
		c-23.6,0-45.3-8.1-62.5-21.8c0.2,2.4,0.3,4.8,0.3,7.2c0,19.8-6.4,38-17.2,52.9c-16.3,22.5-42.8,37.1-72.8,37.1
		c-29.9,0-56.4-14.6-72.8-37.1c-10.6-14.8-17-33.1-17-52.8c0-49.7,40.3-89.9,89.9-89.9c19.5,0,37.6,6.2,52.3,16.8
		c-0.5-4.2-0.8-8.5-0.8-12.9c0-55.6,45.1-100.6,100.6-100.6c52.5,0,95.7,40.3,100.2,91.6c12.1-9.5,27.4-15.2,43.9-15.2
		C631.6,428.7,663.4,460.5,663.4,499.8z"/>
	
		<ellipse transform="matrix(0.1602 -0.9871 0.9871 0.1602 196.9596 766.0982)" class="st7" cx="548.7" cy="267.3" rx="57.9" ry="57.9"/>
	<circle class="st7" cx="706.9" cy="364" r="38.8"/>
	<circle class="st7" cx="726.1" cy="209.4" r="38.8"/>
	<circle class="st7" cx="745.7" cy="97.3" r="19.1"/>
</g>
<g id="r-servicio" class="st1">
	<path class="st7" d="M644.5,559.6h-289c-116.4,0-210.8,94.4-210.8,210.8V926h710.6V770.4C855.3,654,760.9,559.6,644.5,559.6z"/>
	<rect x="403.7" y="559.6" class="st7" width="192.6" height="269.7"/>
	<polyline class="st7" points="322.2,565.1 322.2,825.2 269.3,926 	"/>
	<polyline class="st7" points="677.8,561.7 677.8,824.3 730.7,926 	"/>
	<path class="st7" d="M500,505.4L500,505.4c-98.2,0-177.8-79.6-177.8-177.8V209.8C322.2,134.8,383,74,458,74h84.1
		c75,0,135.8,60.8,135.8,135.8v117.7C677.8,425.8,598.2,505.4,500,505.4z"/>
	<line class="st7" x1="329.7" y1="256.4" x2="768.3" y2="256.4"/>
</g>
<g id="r-perchas" class="st1">
	<circle class="st7" cx="500" cy="378.9" r="226.1"/>
	<circle class="st7" cx="500" cy="378.9" r="97.6"/>
	<path class="st7" d="M175.5,649.8c0,28.7-23.3,52-52,52s-52-23.3-52-52s23.3-52,52-52C152.3,597.8,175.5,621.1,175.5,649.8z"/>
	<path class="st7" d="M402.4,378.9v196.9v7.1v163.5c0,77-62.4,139.4-139.4,139.4s-139.4-62.4-139.4-139.4v-44.6
		c28.7,0,52-23.3,52-52s-23.3-52-52-52"/>
	<path class="st7" d="M824.5,649.8c0,28.7,23.3,52,52,52s52-23.3,52-52s-23.3-52-52-52C847.7,597.8,824.5,621.1,824.5,649.8z"/>
	<path class="st7" d="M876.4,597.8c-28.7,0-52,23.3-52,52s23.3,52,52,52v44.6c0,77-62.4,139.4-139.4,139.4s-139.4-62.4-139.4-139.4
		V582.8v-7.1V378.9"/>
</g>
<g id="r-cespol" class="st1">
	<rect x="86.7" y="161.6" class="st7" width="93.6" height="222.6"/>
	<rect x="354.3" y="495.5" class="st7" width="222.6" height="93.6"/>
	<rect x="657.3" y="118.1" class="st7" width="222.6" height="93.6"/>
	<path class="st7" d="M387.1,351.1H180.3V194.7H403c78.3,0,140.6,63.5,140.6,141.8v14.7l0,0v144.4H387.1V351.1z"/>
	<path class="st7" d="M846.9,211.7v514.8c0,116.9-94.7,211.6-211.6,211.6h-36.5c-116.9,0-211.6-94.7-211.6-211.6V589.1h157.7V683
		c0,20.1,8.1,38.3,21.3,51.5s31.4,21.3,51.5,21.3c40.2,0,72.8-32.6,72.8-72.8V211.7H846.9z"/>
</g>
<g id="r-tanques-empotrados" class="st1">
	<g class="st4">
		<polyline class="st9" points="344.2,952.6 229.9,952.6 229.9,47.4 770.1,47.4 770.1,952.6 655.8,952.6 		"/>
		<line class="st9" x1="229.9" y1="468" x2="770.1" y2="468"/>
		<line class="st9" x1="229.9" y1="585.4" x2="770.1" y2="585.4"/>
		<line class="st9" x1="229.9" y1="781.8" x2="770.1" y2="781.8"/>
	</g>
	<g class="st4">
		<rect x="443.8" y="781.8" class="st9" width="112.4" height="170.8"/>
		<line class="st9" x1="556.2" y1="883.1" x2="443.8" y2="883.1"/>
	</g>
	<circle class="st7" cx="500" cy="679.8" r="55.6"/>
	<circle class="st7" cx="500" cy="528.1" r="23.5"/>
	<path class="st7" d="M564.2,412.7H435.8c-67.9,0-123-55-123-123V111.2h374.4v178.6C687.2,357.7,632.1,412.7,564.2,412.7z"/>
</g>
<g id="r-dosificador-jabon" class="st1">
	<g class="st4">
		<path class="st9" d="M735.1,931.6H264.9V414.2c0-52,42.2-94.2,94.2-94.2h281.8c52,0,94.2,42.2,94.2,94.2V931.6z"/>
		<rect x="372.6" y="207.3" class="st9" width="254.8" height="112.7"/>
		<rect x="446.1" y="62.7" class="st9" width="107.8" height="144.6"/>
		<polyline class="st9" points="381.4,62.7 667.7,62.7 735.1,135 		"/>
	</g>
	<rect x="329.6" y="580.1" class="st7" width="340.8" height="132.8"/>
</g>
<g id="_x2D_r-repisas" class="st1">
	<line class="st7" x1="310.7" y1="531.2" x2="310.7" y2="327.1"/>
	<line class="st7" x1="310.7" y1="835" x2="310.7" y2="631"/>
	<polyline class="st7" points="310.7,227.3 310.7,176.4 310.7,149.1 	"/>
	<rect x="176.9" y="835.1" class="st7" width="646.3" height="99.8"/>
	<rect x="176.9" y="531.2" class="st7" width="646.3" height="99.8"/>
	<rect x="176.9" y="227.3" class="st7" width="646.3" height="99.8"/>
	<circle class="st7" cx="310.6" cy="107.1" r="42"/>
	<line class="st7" x1="689.3" y1="531.2" x2="689.3" y2="327.1"/>
	<line class="st7" x1="689.3" y1="835" x2="689.3" y2="631"/>
	<polyline class="st7" points="689.3,227.3 689.3,176.4 689.3,149.1 	"/>
	<circle class="st7" cx="689.4" cy="107.1" r="42"/>
</g>
<g id="r-pulsador-tanque" class="st1">
	<path class="st7" d="M884.5,788h-769c-13.1,0-23.8-10.6-23.8-23.8V235.8c0-13.1,10.6-23.8,23.8-23.8h768.9
		c13.1,0,23.8,10.6,23.8,23.8v528.4C908.3,777.4,897.6,788,884.5,788z"/>
	<circle class="st7" cx="369.8" cy="543.6" r="137.1"/>
	<circle class="st7" cx="702" cy="593.1" r="87.6"/>
</g>
<g id="r-refacciones" class="st1">
	<g class="st4">
		<rect x="154.1" y="387.5" class="st9" width="247.3" height="48"/>
		<rect x="154.1" y="342" class="st9" width="247.3" height="45.5"/>
		<rect x="154.1" y="435.5" class="st9" width="247.3" height="93.5"/>
		<rect x="154.1" y="751.8" class="st9" width="247.3" height="187"/>
		<rect x="78.5" y="529" class="st9" width="398.6" height="222.8"/>
		<line class="st9" x1="154.1" y1="483.6" x2="401.4" y2="483.6"/>
		<line class="st9" x1="154.1" y1="797.3" x2="401.4" y2="797.3"/>
		<line class="st9" x1="154.1" y1="845.3" x2="401.4" y2="845.3"/>
		<line class="st9" x1="154.1" y1="893.4" x2="401.4" y2="893.4"/>
	</g>
	<g class="st4">
		<path class="st9" d="M477.1,619.8c14.3,8.1,29.4,15,45,20.6l0,0c31.5,11.3,65.5,17.5,101,17.5c34.4,0,67.4-5.8,98.1-16.5
			C837.8,600.9,921.5,490,921.5,359.6c0-164.8-133.6-298.4-298.4-298.4c-158.9,0-288.8,124.2-297.9,280.9"/>
		<path class="st9" d="M721.2,641.5v239.4H522.1V640.4l0,0c31.5,11.3,65.5,17.5,101,17.5C657.5,658,690.5,652.2,721.2,641.5z"/>
		<line class="st9" x1="522.1" y1="719.5" x2="721.2" y2="719.5"/>
		<line class="st9" x1="522.1" y1="774.6" x2="721.2" y2="774.6"/>
		<line class="st9" x1="522.1" y1="829.6" x2="721.2" y2="829.6"/>
	</g>
</g>
<g id="r-regadera" class="st1">
	<path class="st7" d="M610.7,356.7V248.9C610.7,147,530,64.5,430.4,64.5S250,147,250,248.9v686.6"/>
	<line class="st7" x1="471.4" y1="358" x2="750" y2="358"/>
	<line class="st7" x1="538.1" y1="401" x2="538.1" y2="593.5"/>
	<line class="st7" x1="538.1" y1="636.2" x2="538.1" y2="735.3"/>
	<line class="st7" x1="538.1" y1="774.2" x2="538.1" y2="935.5"/>
	<line class="st7" x1="610.7" y1="401" x2="610.7" y2="568.2"/>
	<line class="st7" x1="610.7" y1="616.8" x2="610.7" y2="803.4"/>
	<line class="st7" x1="610.7" y1="846.1" x2="610.7" y2="935.5"/>
	<line class="st7" x1="689.7" y1="401" x2="689.7" y2="515.3"/>
	<line class="st7" x1="689.7" y1="558.5" x2="689.7" y2="669.3"/>
	<path class="st7" d="M689.7,710.1c0,0,0,118.6,0,112.7"/>
	<line class="st7" x1="689.7" y1="865.6" x2="689.7" y2="935.5"/>
</g>
<g id="r-tarjas" class="st1">
	<path class="st7" d="M903.5,813.4h-807c-17.1,0-31-13.9-31-31v-565c0-17.1,13.9-31,31-31h807c17.1,0,31,13.9,31,31v565
		C934.4,799.6,920.6,813.4,903.5,813.4z"/>
	<path class="st7" d="M798.6,734.5H443.4c-25.8,0-46.8-20.9-46.8-46.8V332.5c0-25.8,20.9-46.8,46.8-46.8h355.2
		c25.8,0,46.8,20.9,46.8,46.8v355.2C845.4,713.5,824.4,734.5,798.6,734.5z"/>
	<circle class="st7" cx="694.5" cy="506.3" r="49.2"/>
	<circle class="st7" cx="304.4" cy="312.5" r="32.8"/>
	<line class="st7" x1="138.5" y1="435.1" x2="337.1" y2="435.1"/>
	<line class="st7" x1="138.5" y1="510.1" x2="337.1" y2="510.1"/>
	<line class="st7" x1="138.5" y1="585.1" x2="337.1" y2="585.1"/>
	<line class="st7" x1="138.5" y1="660.1" x2="337.1" y2="660.1"/>
	<line class="st7" x1="138.5" y1="735.1" x2="337.1" y2="735.1"/>
</g>
<g id="r-tina" class="st1">
	<path class="st7" d="M949.9,538.1c0,10.7-4.4,20.5-11.4,27.5S921.7,577,911,577H89c-21.5,0-38.9-17.4-38.9-38.9
		c0-10.7,4.4-20.5,11.4-27.5s16.8-11.4,27.5-11.4h822C932.5,499.2,949.9,516.6,949.9,538.1z"/>
	<line class="st7" x1="739.9" y1="836.5" x2="251.9" y2="836.5"/>
	<path class="st7" d="M120.7,576.9c114.5,67.9,52.7,206.8,131.2,259.6"/>
	<path class="st7" d="M871.1,576.9c-114.5,67.9-52.7,206.8-131.2,259.6"/>
	<path class="st7" d="M661.6,195.2v-2.6c0-48.7,39.5-88.2,88.2-88.2s88.2,39.5,88.2,88.2v306.6"/>
	<circle class="st3" cx="628.1" cy="275.4" r="11.9"/>
	<circle class="st3" cx="698.5" cy="275.4" r="11.9"/>
	<circle class="st3" cx="628.1" cy="400.2" r="11.9"/>
	<circle class="st3" cx="595.7" cy="339.7" r="11.9"/>
	<circle class="st3" cx="661.6" cy="339.7" r="11.9"/>
	<circle class="st3" cx="728" cy="339.7" r="11.9"/>
	<circle class="st3" cx="698.5" cy="400.2" r="11.9"/>
	<line class="st7" x1="254.9" y1="836.5" x2="223.4" y2="895.6"/>
	<line class="st7" x1="728" y1="836.5" x2="759.5" y2="895.6"/>
</g>
<g id="r-lavabos" class="st1">
	<path class="st7" d="M909.2,251.5c15.6,0,27.5,13.8,25.3,29.2c-6.4,44.6-27.2,84.6-57.7,115c-36.9,36.9-87.9,59.7-144.2,59.7H267.3
		c-102.7,0-187.7-75.9-201.9-174.7c-2.2-15.4,9.7-29.2,25.3-29.2L909.2,251.5L909.2,251.5z"/>
	<path class="st7" d="M572.9,933.2H427.1c-17.6,0-31.9-14.3-31.9-31.9V455.5h209.6v445.8C604.8,918.9,590.5,933.2,572.9,933.2z"/>
	<path class="st3" d="M500,251.5L500,251.5z"/>
	<path class="st7" d="M500,251.5V119.3c0-29,23.5-52.4,52.4-52.4c28.3,0,51.4,22.4,52.4,50.5"/>
</g>
<g id="r-griferia_1_" class="st1">
	<path class="st7" d="M404.8,871.2V920H95.7v-48.8c0-15.9,12.8-28.6,28.6-28.6h6.1v-531H370v531h6.1
		C392,842.5,404.8,855.3,404.8,871.2z"/>
	<path class="st7" d="M128.2,307c0,0-26.8-62.5,69.1-87S675.7,82.8,675.7,82.8c62.5-16,69.1,40.1,29,61.3
		C658,168.9,370.1,311.6,370.1,311.6"/>
	<path class="st7" d="M370.1,491l290-187.4h214.2c0,0,30-1.1,30,37.9c0,39.1-4.4,116.6-4.4,116.6H720.4"/>
	<line class="st7" x1="370.1" y1="766.4" x2="720.3" y2="458.2"/>
</g>
<g id="r-portarrollo">
	<path class="st13" d="M883.6,528.8c0,138.6-55.4,251-123.8,251S636,667.4,636,528.8s55.4-251,123.8-251S883.6,390.1,883.6,528.8z"
		/>
	<path class="st13" d="M759.8,277.7c-68.4,0-123.8,112.4-123.8,251v389.1H116.4V439.2c0-89.2,72.3-161.4,161.5-161.4h481.9V277.7z"
		/>
	<path class="st13" d="M759.8,779.8H636v-251C636,667.4,691.4,779.8,759.8,779.8z"/>
	<ellipse class="st13" cx="758.5" cy="533.9" rx="37.3" ry="64"/>
	<path class="st13" d="M656.7,155.3c0,40.4-22.6,73.2-50.5,73.2s-50.5-32.8-50.5-73.2s22.6-73.2,50.5-73.2
		C634.1,82.1,656.7,114.9,656.7,155.3z"/>
	<path class="st13" d="M606.3,228.4H440.2c-40.4,0-73.2-32.8-73.2-73.2c0-20.2,8.2-38.5,21.4-51.7c13.2-13.2,31.5-21.4,51.7-21.4
		h166.1c-27.9,0-50.5,32.8-50.5,73.2C555.8,195.7,578.4,228.4,606.3,228.4z"/>
	<polyline class="st13" points="606.3,149.9 828.7,149.9 828.7,533.9 758.5,533.9 	"/>
	<line class="st13" x1="116.4" y1="469.9" x2="210.3" y2="469.9"/>
	<line class="st13" x1="279.1" y1="469.9" x2="367" y2="469.9"/>
	<line class="st13" x1="421.5" y1="469.9" x2="497.8" y2="469.9"/>
	<line class="st13" x1="555.8" y1="469.9" x2="636" y2="469.9"/>
</g>
</svg>
