<svg xmlns="http://www.w3.org/2000/svg" width="222.446" height="47.173" viewBox="0 0 222.446 47.173"><defs><style>.a{fill:#b8bfc2;}</style></defs><g transform="translate(-206.865 -717.019)"><g transform="translate(206.865 718.717)"><path class="a" d="M-102.754-159.353v28.389c0,3.288.814,4.426,4.247,4.426h5.619v4.862h-31.054v-4.862h5.606c3.287,0,4.264-1.7,4.264-4.426v-28.389h-4.2c-8.439,0-9.611,6.9-9.611,10.636l-5.385-.049v-15.79H-84.1v15.79l-5.115.049c0-3.734-1.159-10.636-9.6-10.636Z" transform="translate(133.266 164.557)"/></g><g transform="translate(312.56 718.717)"><path class="a" d="M-102.668-159.353v28.389c0,3.288.827,4.426,4.266,4.426h5.623v4.862h-31.054v-4.862h5.6c3.284,0,4.261-1.7,4.261-4.426v-28.389h-4.213c-8.433,0-9.6,6.9-9.6,10.636l-5.378-.049v-15.79H-84v15.79l-5.094.049c0-3.734-1.184-10.636-9.633-10.636Z" transform="translate(133.155 164.557)"/></g><g transform="translate(257.913 717.019)"><path class="a" d="M-87.95,17.344c-9.345,0-13.832-7.167-13.832-18.045,0-10.581,4.318-18.015,13.832-18.015,8.975,0,13.8,6.642,13.8,18.015,0,10.531-4.394,18.045-13.8,18.045m0-41.616c-15.885,0-26.116,10.37-26.116,23.594,0,14.55,11.253,23.579,26.116,23.579,15.749,0,26.1-9.652,26.1-23.579,0-13.068-10.877-23.594-26.1-23.594" transform="translate(114.067 24.272)"/></g><g transform="translate(363.813 717.019)"><path class="a" d="M-87.942,17.344c-9.319,0-13.8-7.167-13.8-18.045,0-10.581,4.294-18.015,13.8-18.015,8.986,0,13.822,6.642,13.822,18.015,0,10.531-4.4,18.045-13.822,18.045m0-41.616c-15.861,0-26.114,10.37-26.114,23.594,0,14.55,11.253,23.579,26.114,23.579,15.759,0,26.117-9.652,26.117-23.579,0-13.068-10.874-23.594-26.117-23.594" transform="translate(114.056 24.272)"/></g><g transform="translate(417.207 749.488)"><path class="a" d="M-11.809,3.638a4.812,4.812,0,0,1-1.877-1.883A4.827,4.827,0,0,1-14.4-.817a5.209,5.209,0,0,1,.682-2.588A4.98,4.98,0,0,1-11.84-5.3a5.174,5.174,0,0,1,2.565-.658A5.132,5.132,0,0,1-6.715-5.3a4.938,4.938,0,0,1,1.893,1.9A5.208,5.208,0,0,1-4.146-.817a4.933,4.933,0,0,1-.692,2.573A5.04,5.04,0,0,1-6.732,3.638a5.307,5.307,0,0,1-2.543.638,5.319,5.319,0,0,1-2.533-.638m5.519.8A5.939,5.939,0,0,0-4.06,2.25a5.985,5.985,0,0,0,.85-3.1,5.943,5.943,0,0,0-.822-3.016A5.6,5.6,0,0,0-6.246-6.085,5.832,5.832,0,0,0-9.284-6.9a5.751,5.751,0,0,0-3,.81,5.783,5.783,0,0,0-2.247,2.224,5.981,5.981,0,0,0-.783,3.016,5.931,5.931,0,0,0,.833,3.1,5.968,5.968,0,0,0,2.231,2.185,5.867,5.867,0,0,0,2.967.782A5.958,5.958,0,0,0-6.29,4.435M-10.413-.2h.877c.1,0,.321.248.592.732L-8.7.967l1.017,1.961h1.33L-7.582.644A3.411,3.411,0,0,0-8.407-.429a2.316,2.316,0,0,0,1.073-.883A2.325,2.325,0,0,0-7-2.549a2.092,2.092,0,0,0-.245-1.035,1.8,1.8,0,0,0-.692-.724,2.582,2.582,0,0,0-1.277-.253h-2.361V2.927h1.163Zm0-3.45h.877a1.606,1.606,0,0,1,.856.177,1.388,1.388,0,0,1,.362.429,1.112,1.112,0,0,1,.137.561,1.556,1.556,0,0,1-.323.953,1.3,1.3,0,0,1-1.109.423h-.8Z" transform="translate(15.315 6.895)"/></g></g></svg>