<svg xmlns="http://www.w3.org/2000/svg" viewBox="0 0 1001 1001"><defs><style>.a{fill:#fff;stroke:#231f20;opacity:0;}.a,.b,.c{stroke-miterlimit:10;}.b,.c{fill:none;stroke:#a5b0b3;}.c{stroke-linecap:round;stroke-width:12px;}</style></defs><title>Washlet</title><rect class="a" x="0.5" y="0.5" width="1000" height="1000"/><path class="b" d="M165.24,112.43" transform="translate(0.5 0.5)"/><path class="b" d="M279.59,112.43" transform="translate(0.5 0.5)"/><path class="c" d="M165.24,112.43l665.18,2.36c20.92,0,30.36,10.45,30.36,23.27,0,7.76-14.5,393-14.5,393S815.92,866.32,570,887.57C321.08,872.39,287.68,543.51,287.68,543.51L277.23,297.27H238.77l2,232.08c0,16.52-9.78,27.66-23.61,28-14.18.35-36.43-.33-51.95-.33-12.82,0-22.26-13.83-20.91-26.65,1.06-10.07-5.74-377.12-5.06-389.94S146.35,113.78,165.24,112.43Z" transform="translate(0.5 0.5)"/><line class="c" x1="316.52" y1="263.79" x2="821.98" y2="263.33"/><rect class="c" x="170.71" y="483.79" width="44.36" height="44.36" rx="14.74"/><rect class="c" x="186.06" y="390.2" width="13.66" height="51.61"/><rect class="c" x="186.06" y="307.56" width="13.66" height="51.61"/><rect class="c" x="778.48" y="163.78" width="13.66" height="51.61" transform="translate(975.39 -595.22) rotate(90)"/></svg>