<svg xmlns="http://www.w3.org/2000/svg" width="164.619" height="126.505" viewBox="0 0 164.619 126.505"><defs><style>.a,.b{fill:#aeb7ba;}.b{stroke:#f3f3f3;}.b,.c{stroke-miterlimit:10;}.c{fill:none;stroke:#aeb7ba;}</style></defs><g transform="translate(0.01 -1.001)"><path class="a" d="M129,463.057l9.253-19.527h4.709l8.885,19.527h-5.433l-1.781-4.134h-8.6l-1.75,4.134Zm8.712-8.081h5.162l-2.625-6.034Z" transform="translate(-129.01 -361.548)"/><path class="a" d="M258.752,460.573a12.746,12.746,0,0,1-2.68.846,15.9,15.9,0,0,1-3.049.277,12.475,12.475,0,0,1-8.53-2.793,10.409,10.409,0,0,1,0-14.965,14.375,14.375,0,0,1,17.045,0,9.513,9.513,0,0,1,3.173,7.487,10.92,10.92,0,0,1-.654,3.907,7.968,7.968,0,0,1-1.948,2.962h0Zm-3.049-3.406h0l3.023-2.729h0a4.728,4.728,0,0,0,.468-1.314,8.472,8.472,0,0,0,.152-1.709,5.843,5.843,0,0,0-6.313-6.275,6.3,6.3,0,0,0-4.629,1.676,7.057,7.057,0,0,0,.044,9.222,6.672,6.672,0,0,0,4.8,1.671,6.294,6.294,0,0,0,1.345-.133,4.285,4.285,0,0,0,1.109-.4Z" transform="translate(-217.568 -359.664)"/><path class="a" d="M378.188,443.53v10.5a6.015,6.015,0,0,0,1.214,4.185,5.107,5.107,0,0,0,3.895,1.307,6.951,6.951,0,0,0,2.482-.4,3.956,3.956,0,0,0,1.7-1.2,3.713,3.713,0,0,0,.734-1.42,10.282,10.282,0,0,0,.212-2.475v-10.5h4.866v11.011q0,4.443-2.539,6.732t-7.459,2.3q-4.912,0-7.447-2.3t-2.539-6.732V443.53Z" transform="translate(-321.635 -361.548)"/><path class="a" d="M477.13,463.057l9.256-19.527h4.7l8.9,19.527h-5.439l-1.788-4.134h-8.591l-1.756,4.134Zm8.714-8.081h5.162l-2.628-6.034Z" transform="translate(-403.491 -361.548)"/><path class="a" d="M592.717,454.374h5v.184a2.765,2.765,0,0,0,1.451,2.515,8.41,8.41,0,0,0,4.231.865,6.986,6.986,0,0,0,3.3-.635,1.954,1.954,0,0,0,1.161-1.775,1.538,1.538,0,0,0-.759-1.42,8.495,8.495,0,0,0-3.07-.694l-3.472-.343a11.416,11.416,0,0,1-5.591-1.731,4.423,4.423,0,0,1-1.786-3.755,5.5,5.5,0,0,1,2.581-4.688,11.658,11.658,0,0,1,6.833-1.809,12.884,12.884,0,0,1,7.148,1.7,5.3,5.3,0,0,1,2.581,4.654v.159h-4.866a2.811,2.811,0,0,0-1.373-2.185,6.683,6.683,0,0,0-3.427-.726,7.057,7.057,0,0,0-3.194.588,1.82,1.82,0,0,0-1.136,1.656,1.35,1.35,0,0,0,.669,1.255,10.289,10.289,0,0,0,3.279.685l3.632.383a10.756,10.756,0,0,1,5.5,1.8,4.753,4.753,0,0,1,1.762,3.929,5.521,5.521,0,0,1-2.647,4.957q-2.647,1.695-7.743,1.692-4.866,0-7.474-1.781a5.794,5.794,0,0,1-2.613-5.077Z" transform="translate(-494.612 -359.625)"/><path class="a" d="M712,463.057V443.53h11.566a7.532,7.532,0,0,1,5.314,1.762,7.218,7.218,0,0,1,0,9.77,7.562,7.562,0,0,1-5.314,1.75h-6.658v6.245Zm4.9-10.062h4.489a6.807,6.807,0,0,0,3.459-.635,2.309,2.309,0,0,0,.99-2.1,2.423,2.423,0,0,0-.859-2.126,6.159,6.159,0,0,0-3.275-.607h-4.8Z" transform="translate(-588.673 -361.548)"/><path class="a" d="M799.11,463.057l9.256-19.527h4.7l8.9,19.527h-5.441l-1.781-4.134h-8.6l-1.756,4.134Zm8.714-8.081h5.162l-2.628-6.034Z" transform="translate(-657.355 -361.548)"/><path class="a" d="M349.087,634.247a2.375,2.375,0,0,1-1.089.912,4.165,4.165,0,0,1-1.692.317,4,4,0,0,1-2.672-.846,3.064,3.064,0,0,1,0-4.542,4.223,4.223,0,0,1,2.771-.831,4.1,4.1,0,0,1,2.226.548,1.976,1.976,0,0,1,.988,1.481h-.757a1.654,1.654,0,0,0-.808-1.083,3.348,3.348,0,0,0-1.692-.372,3.308,3.308,0,0,0-2.2.675,2.3,2.3,0,0,0-.806,1.857,2.327,2.327,0,0,0,.8,1.853,3.163,3.163,0,0,0,2.145.7,3.309,3.309,0,0,0,1.921-.539,1.555,1.555,0,0,0,.785-1.3v-.3h-2.251v-.516h2.989v3.065h-.58Z" transform="translate(-297.44 -507.981)"/><path class="a" d="M427.45,635.909V630h3.444a3.721,3.721,0,0,1,1.929.4,1.316,1.316,0,0,1,.647,1.193,1.417,1.417,0,0,1-.3.944,1.844,1.844,0,0,1-.946.529,1.384,1.384,0,0,1,.785.3,1.422,1.422,0,0,1,.317.825c.023.152.047.362.068.635a2.1,2.1,0,0,0,.283,1.1h-.846a3.3,3.3,0,0,1-.178-.95c-.03-.408-.053-.666-.07-.778a.817.817,0,0,0-.385-.635,2.1,2.1,0,0,0-1.018-.186h-3.015v2.539Zm3.275-5.367h-2.556v2.27h2.642a3.028,3.028,0,0,0,1.481-.269.937.937,0,0,0,.453-.872.926.926,0,0,0-.453-.872A3.486,3.486,0,0,0,430.725,630.542Z" transform="translate(-364.321 -508.57)"/><path class="a" d="M513.027,632.386a2.79,2.79,0,0,1-1.011,2.281,5.017,5.017,0,0,1-5.538,0,3.091,3.091,0,0,1,0-4.565,5.028,5.028,0,0,1,5.538,0A2.771,2.771,0,0,1,513.027,632.386Zm-3.78,2.539a3.379,3.379,0,0,0,2.232-.675,2.553,2.553,0,0,0,0-3.732,3.364,3.364,0,0,0-2.232-.675,3.421,3.421,0,0,0-2.238.675,2.558,2.558,0,0,0,0,3.732A3.39,3.39,0,0,0,509.246,634.925Z" transform="translate(-425.836 -507.994)"/><path class="a" d="M591.642,630h.73v3.635a1.7,1.7,0,0,0,.578,1.417,3.912,3.912,0,0,0,3.645,0,1.679,1.679,0,0,0,.582-1.417V630h.724v3.791a1.97,1.97,0,0,1-.808,1.693,4.89,4.89,0,0,1-4.654,0,2.013,2.013,0,0,1-.8-1.726Z" transform="translate(-493.776 -508.57)"/><path class="a" d="M673.35,635.909V630h2.924a3.764,3.764,0,0,1,2,.423,1.659,1.659,0,0,1,0,2.632,3.685,3.685,0,0,1-2,.423h-2.2V635.9Zm.719-3h2.08a3.281,3.281,0,0,0,1.578-.264.977.977,0,0,0,.438-.912.99.99,0,0,0-.44-.922,3.284,3.284,0,0,0-1.576-.266h-2.08Z" transform="translate(-558.2 -508.57)"/><path class="a" d="M137.72,579.984V573.54h.719v6.444Z" transform="translate(-135.885 -464.054)"/><path class="a" d="M179.69,579.984V573.54h.912l5.031,5.776V573.54h.694v6.444h-.956l-4.98-5.784v5.784Z" transform="translate(-168.976 -464.054)"/><path class="a" d="M248.314,579.984V574.13H245.54v-.59h6.268v.59h-2.776v5.854Z" transform="translate(-220.895 -464.054)"/><path class="a" d="M309.59,579.984V573.54h5.526v.6h-4.8v2.247h4.443v.605h-4.443v2.372h4.807v.62Z" transform="translate(-271.395 -464.054)"/><path class="a" d="M372.25,579.984V573.54H375.7a3.478,3.478,0,0,1,1.927.434,1.464,1.464,0,0,1,.647,1.3,1.627,1.627,0,0,1-.3,1.024,1.794,1.794,0,0,1-.946.578,1.322,1.322,0,0,1,.785.326,1.623,1.623,0,0,1,.317.9c.023.165.047.4.068.688a2.422,2.422,0,0,0,.284,1.193h-.836a3.759,3.759,0,0,1-.18-1.034c-.03-.442-.053-.724-.07-.846a.906.906,0,0,0-.385-.681,1.953,1.953,0,0,0-1.018-.212h-3.023v2.78Zm3.275-5.837h-2.556V576.6h2.644a2.857,2.857,0,0,0,1.481-.29,1.058,1.058,0,0,0,.453-.95,1.03,1.03,0,0,0-.453-.948,3.3,3.3,0,0,0-1.57-.271Z" transform="translate(-320.799 -464.054)"/><path class="a" d="M438.19,579.984V573.54h.914l5.029,5.776V573.54h.7v6.444h-.967l-4.984-5.778v5.778Z" transform="translate(-372.789 -464.054)"/><path class="a" d="M504.32,579.984l3.317-6.444h.827l3.271,6.444h-.713L510.015,578h-3.941l-1.016,1.989Zm2.069-2.613h3.3l-1.644-3.29Z" transform="translate(-424.929 -464.054)"/><path class="a" d="M569.356,579.984V574.13H566.58v-.59h6.268v.59h-2.773v5.854Z" transform="translate(-474.018 -464.054)"/><path class="a" d="M630.87,579.984V573.54h.719v6.444Z" transform="translate(-524.707 -464.054)"/><path class="a" d="M678.713,576.121A3.157,3.157,0,0,1,677.7,578.6a4.7,4.7,0,0,1-5.545,0,3.566,3.566,0,0,1,0-4.967,4.688,4.688,0,0,1,5.539,0A3.185,3.185,0,0,1,678.713,576.121Zm-3.787,2.765a3.2,3.2,0,0,0,2.232-.736,2.948,2.948,0,0,0,0-4.06,3.181,3.181,0,0,0-2.232-.732,3.218,3.218,0,0,0-2.238.732,2.953,2.953,0,0,0,0,4.06A3.215,3.215,0,0,0,674.926,578.886Z" transform="translate(-556.465 -463.415)"/><path class="a" d="M743.58,579.984V573.54h.912l5.031,5.776V573.54h.7v6.444h-.956l-4.986-5.778v5.778Z" transform="translate(-613.573 -464.054)"/><path class="a" d="M809.7,580.008l3.315-6.438h.825l3.275,6.438h-.724l-1.007-1.989h-3.929l-1.015,1.989Zm2.071-2.613h3.294l-1.644-3.29Z" transform="translate(-665.704 -464.078)"/><path class="a" d="M879.52,579.984V573.54h.719v5.833h4.515v.611Z" transform="translate(-720.754 -464.054)"/><path class="b" d="M285.3,503.475c12.659-5.168,12.863,6.62,29.106,9.9.057,0,.1.123.042.133-16.431,3.313-18.312-8.722-29.129-9.943a.051.051,0,0,1-.019-.091Z" transform="translate(-252.228 -407.793)"/><path class="a" d="M523.11,175.444c6.931-1.722,14.868.059,12.632,4.821S527.024,181.759,523.11,175.444Z" transform="translate(-439.744 -149.671)"/><path class="a" d="M534.86,191.229c4.536,2.807,11.779,4.98,11.72-3.349C555.87,192.392,543.663,204.785,534.86,191.229Z" transform="translate(-449.008 -159.982)"/><path class="a" d="M535.23,195.67c8.1,8.858,22.636,4.051,14.367-5.24C566.72,201.071,546.032,218.3,535.23,195.67Z" transform="translate(-449.3 -161.993)"/><path class="a" d="M545.61,200.061c13.575,16.044,29.023-1.087,13.732-11.724a.087.087,0,0,1,.089-.148c27.176,14.339-5.365,42.622-13.821,11.872" transform="translate(-457.484 -160.219)"/><path class="a" d="M565.019,174.8c35.736,20.455-.635,55.781-13.719,22.482C570.615,218.1,587.061,190.461,565.019,174.8Z" transform="translate(-461.97 -149.67)"/><path class="a" d="M569.885,181.11c29.817,16.529,2.539,66.428-18.585,26.819C571.912,235.152,595.894,200.313,569.885,181.11Z" transform="translate(-461.97 -154.645)"/><path class="a" d="M584.326,187.88c30.993,24.09-6.194,67.609-20.616,33.413C584.326,248.429,609.73,209.215,584.326,187.88Z" transform="translate(-471.755 -159.982)"/><path class="a" d="M498.927,284.91c-6.931,1.722-14.868-.057-12.632-4.821S495.013,278.6,498.927,284.91Z" transform="translate(-410.414 -230.893)"/><path class="a" d="M479.617,262.524c-4.538-2.809-11.781-4.982-11.722,3.349C458.6,261.364,470.812,248.965,479.617,262.524Z" transform="translate(-393.587 -213.978)"/><path class="a" d="M457.4,232.58c-8.1-8.858-22.636-4.051-14.367,5.238C425.911,227.177,446.6,209.944,457.4,232.58Z" transform="translate(-371.452 -186.463)"/><path class="a" d="M433.831,193.485c-13.575-16.046-29.023,1.09-13.738,11.724a.085.085,0,1,1-.089.146c-27.17-14.346,5.378-42.62,13.827-11.87" transform="translate(-350.078 -153.536)"/><path class="a" d="M397.421,179.548c-35.736-20.455.635-55.781,13.719-22.48C391.836,136.244,375.379,163.888,397.421,179.548Z" transform="translate(-328.591 -124.888)"/><path class="a" d="M382.36,152.489c-29.817-16.529-2.539-66.428,18.585-26.817C380.334,98.449,356.352,133.288,382.36,152.489Z" transform="translate(-318.396 -99.164)"/><path class="a" d="M364.688,129.743c-30.993-24.092,6.194-67.609,20.616-33.413C364.688,69.192,339.284,108.408,364.688,129.743Z" transform="translate(-305.38 -77.849)"/><path class="a" d="M519.25,165.41" transform="translate(-436.701 -142.266)"/><path class="a" d="M603.69,158.52" transform="translate(-503.277 -136.834)"/><path class="c" d="M370.484,82.956c-19.412-55.654-71.245,21.877-10.6,36.756.118.03.245.023.366.051,2.412.533,9.173.235,14.714-1.481a1.769,1.769,0,0,1,2.215,1.18c15.769,51.749,71.7-15.7,15.188-36.165-11.092-4.02-16.455-.977-19.351.635a1.775,1.775,0,0,1-2.534-.975Z" transform="translate(-288.535 -61.61)"/></g></svg>