<?xml version="1.0" encoding="utf-8"?>
<!-- Generator: Adobe Illustrator 24.1.2, SVG Export Plug-In . SVG Version: 6.00 Build 0)  -->
<svg version="1.1" id="Layer_1" xmlns="http://www.w3.org/2000/svg" xmlns:xlink="http://www.w3.org/1999/xlink" x="0px" y="0px"
	 viewBox="0 0 1000 1000" style="enable-background:new 0 0 1000 1000;" xml:space="preserve">
<style type="text/css">
	.st0{fill:#FFFFFF;fill-opacity:0;}
	.st1{display:none;}
	.st2{display:inline;}
	.st3{fill:none;stroke:#A5B0B3;stroke-width:13;stroke-linecap:round;stroke-linejoin:round;stroke-miterlimit:10;}
	.st4{fill:none;stroke:#A5B0B3;stroke-width:13;stroke-miterlimit:10;}
	.st5{fill:none;stroke:#A5B0B3;stroke-width:13;stroke-linecap:round;stroke-linejoin:round;}
	.st6{fill:none;stroke:#A5B0B3;stroke-width:14;stroke-linecap:round;stroke-linejoin:round;}
	.st7{fill:none;stroke:#A5B0B3;stroke-width:20;stroke-linecap:round;stroke-linejoin:round;}
	.st8{display:inline;fill:none;stroke:#A5B0B3;stroke-width:13;stroke-miterlimit:10;}
	.st9{fill:none;}
	.st10{fill:#A5B0B3;}
	.st11{fill:#A8D3C7;}
	.st12{fill:#5EC1AC;}
	.st13{fill:none;stroke:#A5B0B3;stroke-width:13;stroke-linejoin:round;stroke-miterlimit:10;}
	.st14{fill:#FFFFFF;stroke:#A5B0B3;stroke-width:13;stroke-linecap:round;stroke-linejoin:round;stroke-miterlimit:10;}
	.st15{fill:none;stroke:#A5B0B3;stroke-width:12.9996;stroke-linecap:round;stroke-linejoin:round;stroke-miterlimit:9.9996;}
	.st16{fill:none;stroke:#A5B0B3;stroke-width:22;stroke-linecap:round;stroke-linejoin:round;stroke-miterlimit:10;}
	.st17{fill:#AEB8BB;}
	.st18{display:inline;opacity:0.3;}
	.st19{display:inline;fill:none;stroke:#A5B0B3;stroke-width:13;stroke-linecap:round;stroke-linejoin:round;stroke-miterlimit:10;}
	.st20{fill:none;stroke:#ACACAC;stroke-width:13;stroke-miterlimit:10;}
	.st21{fill:none;stroke:#ACACAC;stroke-width:13;stroke-linecap:round;stroke-linejoin:round;stroke-miterlimit:10;}
	.st22{fill:#FFFFFF;stroke:#ACACAC;stroke-width:13;stroke-linecap:round;stroke-linejoin:round;stroke-miterlimit:10;}
	.st23{fill:#FFFFFF;stroke:#ACACAC;stroke-width:7;stroke-linecap:round;stroke-linejoin:round;stroke-miterlimit:10;}
	.st24{fill:none;stroke:#ACACAC;stroke-width:17;stroke-linecap:round;stroke-linejoin:round;stroke-miterlimit:10;}
	.st25{fill:#ACACAC;stroke:#ACACAC;stroke-width:13;stroke-linecap:round;stroke-linejoin:round;stroke-miterlimit:10;}
	.st26{fill:#ACACAC;}
	.st27{fill:none;stroke:#ACACAC;stroke-width:7;stroke-linecap:round;stroke-linejoin:round;stroke-miterlimit:10;}
	.st28{fill:none;stroke:#ACACAC;stroke-width:20;stroke-miterlimit:10;}
	.st29{fill:none;stroke:#ACACAC;stroke-width:20;stroke-miterlimit:10.0002;}
	.st30{fill:none;stroke:#ACACAC;stroke-width:20;stroke-linecap:round;stroke-linejoin:round;stroke-miterlimit:10;}
	.st31{fill:#FFFFFF;stroke:#A5B0B3;stroke-width:7;stroke-linecap:round;stroke-linejoin:round;stroke-miterlimit:10;}
	.st32{fill:#F0F8F8;stroke:#A5B0B3;stroke-width:13;stroke-linecap:round;stroke-linejoin:round;stroke-miterlimit:10;}
	.st33{fill:none;stroke:#A5B0B3;stroke-width:13;}
</style>
<g id="Bakcground">
	<rect class="st0" width="1000" height="1000"/>
</g>
<g id="Accesorios_ok" class="st1">
	<g class="st2">
		<g>
			<path class="st3" d="M959.5,459.3C956.1,554.1,885,629.9,797.8,630v-32.5H202.3V630c-89.4-0.2-161.7-79.7-161.7-177.8l0,0
				c0-98.2,72.6-177.8,162.1-177.8H707"/>
			<polygon class="st4" points="202.3,597.5 202.3,630.1 202.3,906.4 797.7,906.4 797.7,630.1 797.7,597.5 			"/>
		</g>
		<circle class="st3" cx="492.4" cy="156.2" r="62.6"/>
		<line class="st3" x1="492.4" y1="156.2" x2="492.4" y2="274.5"/>
	</g>
</g>
<g id="Muebles_ok" class="st1">
	<g class="st2">
		<g>
			<g>
				<rect x="232.9" y="314.9" class="st5" width="523.7" height="48.4"/>
				<line class="st6" x1="568.9" y1="285.2" x2="593.6" y2="285.2"/>
				<line class="st6" x1="581.2" y1="308.7" x2="581.2" y2="285.2"/>
				<line class="st6" x1="412.4" y1="285.2" x2="437.1" y2="285.2"/>
				<line class="st6" x1="424.7" y1="308.7" x2="424.7" y2="285.2"/>
				<polyline class="st6" points="498,314.1 498,162.5 584.6,162.5 584.6,176.9 				"/>
			</g>
			<rect x="69.3" y="363.3" class="st5" width="861.3" height="406.8"/>
		</g>
		<rect x="138.7" y="772" class="st5" width="44.5" height="65.5"/>
		<rect x="813.7" y="772" class="st5" width="44.5" height="65.5"/>
		<line class="st5" x1="75.7" y1="562.1" x2="930.7" y2="562.1"/>
		<line class="st5" x1="355.2" y1="411.2" x2="634.2" y2="411.2"/>
		<line class="st5" x1="354.7" y1="612.5" x2="633.7" y2="612.5"/>
	</g>
</g>
<g id="Lavabo_ok" class="st1">
	<g class="st2">
		<g>
			<rect x="173.5" y="503.5" class="st5" width="653" height="150.3"/>
			<line class="st7" x1="58.4" y1="686.5" x2="941.6" y2="686.5"/>
			<line class="st6" x1="592.4" y1="466.5" x2="623.2" y2="466.5"/>
			<line class="st6" x1="607.8" y1="495.8" x2="607.8" y2="466.5"/>
			<line class="st6" x1="397.3" y1="466.5" x2="428.1" y2="466.5"/>
			<line class="st6" x1="412.7" y1="495.8" x2="412.7" y2="466.5"/>
			<polyline class="st6" points="504,502.5 504,313.5 612,313.5 612,331.5 			"/>
		</g>
		<path class="st5" d="M844,469"/>
	</g>
</g>
<g id="Duck_2_Base" class="st1">
	<g id="Se1eaJ.tif" class="st2">
	</g>
</g>
<g id="Duck" class="st1">
	<path class="st8" d="M621,504c-144.6-5.5-153-153-153-153c-63-18-45-54-45-54c36,18,54,27,45,9c-27-54-27-63-27-63
		c45,18,45,36,63,18s216-144,288,81c-9,27,45,27,54,0c27-18,27,45,9,63c9,18,18,54-9,54s-72-18-81-9s-18,18-27,27
		c18,27,216,252-72,351c-279,81-477-198-450-315c36,63,38.5,51.1,54,45c-54-90-36-108-27-108C270,486,351.2,581.8,621,504z"/>
</g>
<g id="Robot_ok" class="st1">
	<g class="st2">
		<path class="st9" d="M491.2,618.1h7.5l92,0.2c9.9,0,18-8,18.1-18l0.3-107.5c0-9.9-8-18-18-18.1l-183.6-0.5c-9.9,0-18,8-18.1,18
			l-0.3,107.5c0,10,8,18,18,18.1h16.8l112.5-112.6c9.3-9.3,24.4-9.3,33.8,0c9.3,9.3,9.3,24.4,0,33.7L491.2,618.1z"/>
		<path class="st10" d="M321.1,406.5c-11.1-0.1-20.2,8.9-20.2,20.1l-0.6,249.3c0,11.1,8.9,20.1,20.1,20.2L677,697
			c11.1,0.1,20.2-8.9,20.2-20.1l0.6-249.2c0-11.1-9-20.2-20.1-20.2L321.1,406.5z M608.8,600.4c0,10-8.1,18-18.1,18l-92-0.2h-7.5
			l79-79c9.3-9.3,9.3-24.4,0-33.7s-24.4-9.3-33.8,0L423.9,618h-16.8c-10,0-18-8.1-18-18.1l0.3-107.5c0-9.9,8.1-18,18.1-18l183.6,0.5
			c10,0,18,8.1,18,18.1L608.8,600.4z M647.9,511.8c-7.4,0-13.4-6-13.4-13.4s6-13.4,13.4-13.4s13.4,6,13.4,13.4
			C661.3,505.8,655.3,511.8,647.9,511.8z M647.9,475.1c-7.4,0-13.4-6-13.4-13.4s6-13.4,13.4-13.4s13.4,6,13.4,13.4
			C661.3,469.1,655.3,475.1,647.9,475.1z"/>
		<path class="st10" d="M225.9,407.2c-4.7,0-8.6,3.8-8.6,8.6l-0.6,243.5c0,4.8,3.8,8.6,8.6,8.7l49.9,0.1c4.8,0,8.6-3.8,8.6-8.6
			l0.6-243.5c0-4.8-3.9-8.6-8.6-8.7L225.9,407.2z"/>
		<path class="st10" d="M250.8,719.6c17.6,0,31.8,14.4,31.8,31.9c0,11.1,8.9,20.2,20.1,20.2c11.1,0,20.1-9,20.2-20.1
			c0.1-39.8-32.2-72.2-71.9-72.3c-39.8-0.1-72.2,32.2-72.3,71.9c-0.1,39.8,32.2,72.2,72,72.3c11.1,0,20.1-9,20.2-20.1
			c0-11.1-9-20.2-20.1-20.2c-17.6,0-31.8-14.4-31.8-31.9C218.9,733.8,233.3,719.5,250.8,719.6z"/>
		<path class="st10" d="M724.4,404.6c-4.8,0-8.6,3.8-8.7,8.6l-0.6,243.5c0,4.8,3.9,8.6,8.6,8.7l49.9,0.1c4.7,0,8.6-3.8,8.6-8.6
			l0.6-243.5c0.1-4.8-3.8-8.6-8.6-8.6L724.4,404.6z"/>
		<path class="st10" d="M749.2,784.5c-11.1,0-20.1,8.9-20.2,20.1c0,11.1,9,20.1,20.1,20.2c39.8,0.1,72.2-32.2,72.3-71.9
			c0.1-39.8-32.2-72.2-72-72.3c-39.7-0.1-72.2,32.2-72.3,72c0,11.1,8.9,20.1,20.1,20.2c11.1,0,20.2-9,20.2-20.1
			c0-17.6,14.4-31.8,31.9-31.8c17.6,0,31.8,14.4,31.8,31.9C781.1,770.3,766.7,784.6,749.2,784.5z"/>
		<path class="st10" d="M389.7,715.4c-4.7,0-8.6,3.8-8.6,8.6l-0.3,113.1c0,4.8,3.9,8.6,8.6,8.6l71,0.2c4.8,0,8.6-3.8,8.6-8.6
			l0.3-113.1c0-4.8-3.8-8.6-8.6-8.6L389.7,715.4z"/>
		<path class="st10" d="M540.2,715.7c-4.8,0-8.6,3.8-8.6,8.6l-0.3,113.1c0,4.8,3.8,8.6,8.6,8.6l70.9,0.2c4.8,0,8.6-3.8,8.7-8.6
			l0.3-113.1c0-4.8-3.8-8.6-8.6-8.6L540.2,715.7z"/>
		<path class="st10" d="M355.4,866.8c-4.7,0-8.6,6-8.6,13.5l-0.1,42c0,7.5,3.8,13.5,8.6,13.5l109.3,0.3c4.8,0,8.7-6,8.7-13.5l0.1-42
			c0-7.4-3.8-13.5-8.6-13.5L355.4,866.8z"/>
		<path class="st10" d="M534.7,867.2c-4.8,0-8.6,6-8.7,13.5l-0.1,42c0,7.4,3.8,13.5,8.6,13.5l109.3,0.3c4.8,0,8.6-6,8.7-13.5l0.1-42
			c0-7.5-3.8-13.5-8.6-13.5L534.7,867.2z"/>
		<path class="st10" d="M417,63.5h-7.7c-4.8,0-8.6,3.8-8.7,8.6l-0.1,44.1l-46.5-0.1l0,0h-3.3c-12.5,0-22.6,10.1-22.7,22.6l-0.5,227
			c-0.1,12.5,10.1,22.7,22.6,22.7l303.9,0.7c12.5,0,22.6-10.1,22.7-22.6l0.6-227c0-12.5-10.1-22.6-22.6-22.7h-9.5l-40.3-0.1
			l0.1-44.1c0-4.8-3.9-8.6-8.6-8.6h-7.7c-4.8,0-8.7,3.8-8.7,8.6l-0.1,44.1l-154.3-0.4l0.1-44.1C425.6,67.4,421.8,63.5,417,63.5z
			 M392.1,197.8c16.2,0,29.3,13.1,29.3,29.3s-13.1,29.3-29.3,29.3c-16.2,0-29.3-13.1-29.3-29.3C362.8,210.9,375.9,197.8,392.1,197.8
			z M611.4,197.8c16.2,0,29.3,13.1,29.3,29.3s-13.1,29.3-29.3,29.3s-29.3-13.1-29.3-29.3C582.1,210.9,595.3,197.8,611.4,197.8z
			 M667.5,299.9v8.4H339.4v-8.4H667.5z"/>
		<path class="st10" d="M257.2,207.4l-0.2,89.2c0,4.8,3.9,8.7,8.6,8.7l33.6,0.1V198.9l-33.3-0.1
			C261.1,198.8,257.2,202.7,257.2,207.4z"/>
		<path class="st11" d="M299.1,198.9v106.4h9.6c4.8,0,8.6-3.8,8.6-8.6l0.2-89.2c0-4.8-3.8-8.6-8.6-8.6L299.1,198.9z"/>
		<path class="st10" d="M707.9,198.8v106.4l33.3,0.1c4.8,0,8.7-3.9,8.7-8.6l0.2-89.2c0-4.8-3.9-8.6-8.6-8.6L707.9,198.8z"/>
		<path class="st11" d="M689.7,207.4l-0.2,89.2c0,4.8,3.8,8.6,8.6,8.6h9.8V198.8h-9.6C693.5,198.8,689.7,202.6,689.7,207.4z"/>
		<path class="st9" d="M362.8,227.1c0,16.2,13.1,29.3,29.3,29.3c16.2,0,29.3-13.1,29.3-29.3s-13.1-29.3-29.3-29.3
			C375.9,197.8,362.8,210.9,362.8,227.1z"/>
		<path class="st9" d="M582.1,227.1c0,16.2,13.1,29.3,29.3,29.3s29.3-13.1,29.3-29.3s-13.1-29.3-29.3-29.3
			C595.3,197.8,582.1,210.9,582.1,227.1z"/>
		<rect x="339.4" y="299.9" class="st9" width="328.2" height="8.4"/>
		<path class="st12" d="M634.5,461.7c0,7.4,6,13.4,13.4,13.4s13.4-6,13.4-13.4s-6-13.4-13.4-13.4
			C640.5,448.3,634.5,454.3,634.5,461.7z"/>
		<path class="st12" d="M634.5,498.4c0,7.4,6,13.4,13.4,13.4s13.4-6,13.4-13.4s-6-13.4-13.4-13.4S634.5,491,634.5,498.4z"/>
	</g>
</g>
<g id="Bidet" class="st1">
	<g class="st2">
		<path class="st4" d="M205.7,32h588.5c18.9,0,34.2,23.4,34.2,52.4v555.1C828.5,820.9,681.4,968,500,968l0,0
			c-181.4,0-328.5-147.1-328.5-328.5V84.4C171.5,55.4,186.8,32,205.7,32z"/>
		<circle class="st4" cx="504.5" cy="419" r="36"/>
		<path class="st4" d="M552.5,221"/>
		<path class="st4" d="M549.8,237.1"/>
		<path class="st4" d="M552.5,221"/>
		<path class="st4" d="M630,221"/>
		<path class="st4" d="M549.8,237.1L535.2,325c-1.8,16-15.3,28.1-31.4,28.1h-2.7c-18.2,0-33.5-13.7-35.4-31.8L448.2,221"/>
		<path class="st4" d="M448.2,221H270.3c-14.8,0-26.8,16.7-26.8,37.3v395c0,129.1,114.9,233.7,256.7,233.7l0,0
			c141.8,0,256.7-104.7,256.7-233.7v-395c0-20.6-12-37.3-26.8-37.3H630"/>
		<line class="st4" x1="567.8" y1="125.2" x2="567.8" y2="125.2"/>
		<path class="st4" d="M448.2,221l-15.7-90c-3.6-33.4,35.1-64.9,68.7-64.9l0,0c31.7,0,65.9,27.9,66.6,59.1"/>
		<path class="st4" d="M567.8,125.2"/>
		<path class="st4" d="M567.5,131"/>
		<path class="st4" d="M567.8,125.2"/>
		<path class="st4" d="M552.5,221"/>
		<line class="st4" x1="567.8" y1="125.2" x2="567.8" y2="125.2"/>
		<line class="st4" x1="567.8" y1="125.2" x2="567.8" y2="125.2"/>
		<path class="st4" d="M549.8,237.1l27.8,18.3c11.5,8.9,29.3,6.5,41.4-5.6l1.8-1.8c7.7-7.7,11-18.1,9.2-27.1"/>
		<path class="st4" d="M549.8,237.1l-101.1-66.7c-21.1-16.4-13.3-59.7,9-81.9l0,0c22.3-22.3,64.1-28.7,80.4-7.4l29.7,44.2"/>
		<line class="st4" x1="567.8" y1="125.2" x2="567.8" y2="125.2"/>
		<path class="st4" d="M630,221c-0.7-3.4-2.1-6.7-4.2-9.5l-58.1-86.3"/>
		<circle class="st4" cx="500" cy="135.5" r="13.5"/>
	</g>
</g>
<g id="Espejos" class="st1">
	<g class="st2">
		<g>
			<rect x="210.7" y="106.3" class="st13" width="581.4" height="723.8"/>
			<rect x="238.4" y="140.8" class="st13" width="526" height="654.9"/>
		</g>
		<rect x="139.2" y="862" class="st13" width="721.5" height="31.7"/>
		<line class="st3" x1="368.9" y1="456.6" x2="530.7" y2="258.2"/>
		<line class="st3" x1="334.6" y1="674" x2="673.4" y2="258.2"/>
		<line class="st3" x1="498.2" y1="674" x2="648.7" y2="489.4"/>
	</g>
</g>
<g id="Canceles__x28_modulos_x29_" class="st1">
	<g class="st2">
		<g>
			<polygon class="st3" points="128.8,101.6 872.1,103.2 872.1,859.2 131.2,859.2 			"/>
			<line class="st3" x1="333.3" y1="103.2" x2="333.3" y2="859.2"/>
			<line class="st3" x1="602.7" y1="103.2" x2="602.7" y2="175.2"/>
			<path class="st3" d="M632.2,177.4h-58.9c-16.3,0-29.5,14.1-29.5,31.5l0,0h117.9C661.6,191.5,648.4,177.4,632.2,177.4z"/>
		</g>
		<rect x="108.5" y="862.4" class="st3" width="783" height="36"/>
		<rect x="335.8" y="439.4" class="st3" width="25.3" height="117"/>
		<g>
			<line class="st3" x1="605.2" y1="233.4" x2="605.2" y2="259.4"/>
			<line class="st3" x1="578.1" y1="235.5" x2="565" y2="257.3"/>
			<line class="st3" x1="634.2" y1="235.5" x2="647.3" y2="257.3"/>
		</g>
	</g>
</g>
<g id="Barras" class="st1">
	<g class="st2">
		<g>
			<path class="st14" d="M279.5,329c-17.4,0-31.5-14.1-31.5-31.5l0,0c0-17.4,14.1-31.5,31.5-31.5h79.8
				c-12.8-34.2-45.7-58.5-84.3-58.5c-49.7,0-90,40.3-90,90s40.3,90,90,90c38.6,0,71.6-24.3,84.3-58.5H279.5z"/>
			<path class="st14" d="M720.5,266c17.4,0,31.5,14.1,31.5,31.5l0,0c0,17.4-14.1,31.5-31.5,31.5h-79.8
				c12.8,34.2,45.7,58.5,84.3,58.5c49.7,0,90-40.3,90-90s-40.3-90-90-90c-38.6,0-71.6,24.3-84.3,58.5H720.5z"/>
			<path class="st14" d="M720.5,328.5h-441c-17.4,0-31.5-14.1-31.5-31.5l0,0c0-17.4,14.1-31.5,31.5-31.5h441
				c17.4,0,31.5,14.1,31.5,31.5l0,0C752,314.4,737.9,328.5,720.5,328.5z"/>
		</g>
		<g>
			<path class="st14" d="M153.5,734c-17.4,0-31.5-14.1-31.5-31.5l0,0c0-17.4,14.1-31.5,31.5-31.5h79.8
				c-12.8-34.2-45.7-58.5-84.3-58.5c-49.7,0-90,40.3-90,90s40.3,90,90,90c38.6,0,71.6-24.3,84.3-58.5H153.5z"/>
			<path class="st14" d="M846.5,671c17.4,0,31.5,14.1,31.5,31.5l0,0c0,17.4-14.1,31.5-31.5,31.5h-79.8
				c12.8,34.2,45.7,58.5,84.3,58.5c49.7,0,90-40.3,90-90s-40.3-90-90-90c-38.6,0-71.6,24.3-84.3,58.5H846.5z"/>
			<path class="st14" d="M846.5,733.5h-693c-17.4,0-31.5-14.1-31.5-31.5l0,0c0-17.4,14.1-31.5,31.5-31.5h693
				c17.4,0,31.5,14.1,31.5,31.5l0,0C878,719.4,863.9,733.5,846.5,733.5z"/>
		</g>
	</g>
</g>
<g id="Basureros" class="st1">
	<g class="st2">
		<path class="st3" d="M720.5,199.4H176.6v-124C176.6,57,191.5,42,210,42h477.1c18.4,0,33.4,14.9,33.4,33.4V199.4z"/>
		<rect x="176.6" y="199.4" class="st3" width="543.9" height="758.6"/>
		<line class="st3" x1="751.9" y1="743.3" x2="937.9" y2="743.3"/>
		<line class="st3" x1="720.5" y1="874.9" x2="852" y2="743.3"/>
		<rect x="62.1" y="99.2" class="st3" width="114.5" height="100.2"/>
		<polyline class="st4" points="62.1,199.4 62.1,299.6 133.6,342.6 133.6,514.3 176.6,557.3 		"/>
		<line class="st3" x1="720.5" y1="958" x2="920.9" y2="958"/>
	</g>
</g>
<g id="Tarjas" class="st1">
	<g class="st2">
		<path class="st3" d="M921.9,680H77.1c-7.8,0-14.1-6.3-14.1-14.1V334.1c0-7.8,6.3-14.1,14.1-14.1H922c7.8,0,14.1,6.3,14.1,14.1V666
			C936,673.7,929.7,680,921.9,680z"/>
		<line class="st3" x1="720" y1="500" x2="909" y2="500"/>
		<line class="st3" x1="720" y1="567" x2="909" y2="567"/>
		<line class="st3" x1="720" y1="432" x2="909" y2="432"/>
		<g>
			<path class="st3" d="M326.4,641H150.6C121,641,97,617,97,587.4V411.6c0-29.6,24-53.6,53.6-53.6h175.8c29.6,0,53.6,24,53.6,53.6
				v175.8C380,617,356,641,326.4,641z"/>
			<circle class="st3" cx="238.5" cy="499.5" r="22.5"/>
		</g>
		<g>
			<path class="st3" d="M643.4,641H467.6c-29.6,0-53.6-24-53.6-53.6V411.6c0-29.6,24-53.6,53.6-53.6h175.8c29.6,0,53.6,24,53.6,53.6
				v175.8C697,617,673,641,643.4,641z"/>
			<circle class="st3" cx="555.5" cy="499.5" r="22.5"/>
		</g>
	</g>
</g>
<g id="Toallero" class="st1">
	<g class="st2">
		<path class="st3" d="M208.8,143.9c0-22.1,7.8-41.6,19.8-53.5H119.2c-12.6,0-22.8,14.2-22.8,31.8l0,0c0,17.6,10.2,31.8,22.8,31.8
			h89.7L208.8,143.9L208.8,143.9z"/>
		<path class="st3" d="M744.5,873.1V128.8c0-26.1,21.1-47.2,47.2-47.2H258c-26.1,0-47.2,21.1-47.2,47.2V873
			c0,26.1,21.1,47.2,47.2,47.2h533.7C765.6,920.3,744.5,899.1,744.5,873.1z"/>
		<line class="st3" x1="214.4" y1="811.4" x2="737.3" y2="811.4"/>
		<path class="st3" d="M686.6,883H265.1c-9.9,0-18-8.1-18-18l0,0c0-9.9,8.1-18,18-18h421.5c9.9,0,18,8.1,18,18l0,0
			C704.6,874.9,696.5,883,686.6,883z"/>
		<g>
			<path class="st3" d="M880.8,88.4h-62c-7.8-5.1-17.8-8.4-28.7-8.7c-9.6,0.3-18.5,3.5-25.8,8.7h-0.6c-0.5,0.5-1,1-1.4,1.5
				c-10.9,8.6-17.8,22-17.8,36.9v5c-0.4,3.3-0.6,6.6-0.6,10V152h0.6v570.3h43.6c26.1,0,47.2-16.2,47.2-36.2V152h45.6
				c12.6,0,22.8-14.2,22.8-31.8l0,0C903.7,102.7,893.5,88.4,880.8,88.4z"/>
			<line class="st3" x1="835.3" y1="152" x2="743.9" y2="152"/>
		</g>
	</g>
</g>
<g id="Llaves_para_lavabo" class="st1">
	<g class="st2">
		<rect x="536.7" y="321.7" class="st3" width="263.5" height="570.9"/>
		<rect x="73.5" y="386.5" class="st3" width="459.5" height="133.6"/>
		
			<rect x="586.3" y="35.2" transform="matrix(8.802392e-02 -0.9961 0.9961 8.802392e-02 451.5117 827.0592)" class="st15" width="182.3" height="263.5"/>
		
			<rect x="374.3" y="-66.2" transform="matrix(8.802392e-02 -0.9961 0.9961 8.802392e-02 288.3058 473.5945)" class="st15" width="57" height="291.1"/>
		<line class="st4" x1="569.2" y1="248.9" x2="569.2" y2="321.7"/>
		<line class="st4" x1="765.3" y1="266.2" x2="765.3" y2="321.7"/>
		<rect x="492.3" y="892.5" class="st3" width="352.3" height="43.5"/>
		<line class="st3" x1="349.3" y1="961.9" x2="926.5" y2="961.9"/>
	</g>
</g>
<g id="Fondo_Flushmate" class="st1">
</g>
<g id="Fluhmate" class="st1">
	<g class="st2">
		<rect x="363.1" y="681.6" class="st3" width="406" height="31.7"/>
		<rect x="284.8" y="713.2" class="st3" width="533.8" height="31.7"/>
		<polygon class="st3" points="116.9,485.1 60.9,485.1 60.9,675 71.7,675 71.7,751.5 106.1,751.5 106.1,675 116.9,675 		"/>
		<line class="st3" x1="510.1" y1="248.5" x2="588.3" y2="248.5"/>
		<rect x="530.8" y="248.5" class="st3" width="39.4" height="28.6"/>
		<path class="st16" d="M89,479.3c0-150.9,137.7-152.8,181.6-135.7"/>
		<path class="st3" d="M916.1,481v-16c0-91.4-74.1-165.4-165.4-165.4h-94.2V277H441.6v22.6h-51.9c-91.4,0-165.4,74.1-165.4,165.4v16
			h-22.8v27h22.8v8.1c0,91.4,74.1,165.4,165.4,165.4h360.9c91.4,0,165.4-74.1,165.4-165.4V508h23v-27H916.1z"/>
	</g>
</g>
<g id="Asientos_WC" class="st1">
	<g class="st2">
		<g>
			<path class="st17" d="M469.5,121.8c41.6,0,83.2,0,124.9,0c4.2,0,8.4,0,12.6,0c16.5,0,33,0,49.5,0c0.7,0,1.4,0,2.1,0
				c3.1,0,5.2,1.6,6.3,4.4c3.8,9.1,7.5,18.1,11.2,27.2c2.2,5.2,4.4,10.5,6.5,15.7c0.6,1.5,1.6,2.5,3,3.3c11,5.8,21.3,12.7,31,20.5
				c6.9,5.6,13.5,11.6,19.8,17.9c7.9,8,15.3,16.5,22,25.5c4.7,6.2,9.1,12.7,13.4,19.2c4.1,6.2,8,12.6,11.7,19.1
				c2.7,4.7,5.1,9.5,7.6,14.4c4.9,9.7,9.3,19.5,13.3,29.6c4.5,11.3,8.4,22.7,12,34.3c3.3,10.8,5.9,21.8,8.6,32.7
				c1,3.9,1.5,8,2.3,11.9c2.3,10.6,3.7,21.4,4.9,32.2c0.7,6.1,1.6,12.1,2,18.2c0.6,8.7,1.1,17.4,1.2,26c0.1,12.2,0,24.3-0.4,36.5
				c-0.3,8.4-1.2,16.8-2,25.2c-0.5,5.1-0.9,10.3-1.7,15.4c-1.2,8.5-2.6,17-4.1,25.5c-1,5.7-2.2,11.3-3.4,16.9
				c-1.3,6-2.7,11.9-4.3,17.8c-2.4,8.5-4.9,17-7.6,25.4c-2.5,7.8-5.1,15.5-8.2,23.1c-3.7,9.3-7.7,18.4-11.8,27.4
				c-3.7,8-7.7,16-11.9,23.7c-4.4,8.1-9.2,16.1-14.1,24c-3.7,5.9-7.5,11.7-11.6,17.4c-9.4,13.3-19.6,26-30.7,38
				c-11.4,12.3-23.4,23.8-36.4,34.4c-7,5.7-14.2,11.3-21.7,16.4c-7.4,5-14.9,9.7-22.5,14.3c-8.9,5.3-18.1,10-27.6,14.1
				c-5.6,2.4-11.1,4.9-16.8,7c-8.3,3-16.4,2.5-24.2-1.9c-5.6-3.1-9.6-7.8-12.2-13.5c-1.6-3.4-2.3-7.2-2.3-11c0-2.1,0-4.3,0-6.4
				c0-33.5,0-66.9,0-100.4c0-8.4,1.7-16.4,6-23.7c2.9-5,6.7-9.4,11.4-12.8c5.2-3.8,10.6-7.3,15.7-11.2c6.2-4.7,12.3-9.5,18.1-14.7
				c4.8-4.3,9.1-9.3,13.6-14c3.3-3.6,6.7-7.1,9.8-10.9c2.7-3.3,5.1-6.9,7.6-10.4c2.4-3.3,4.9-6.6,7.2-10c1.2-1.7,2.1-3.5,3.2-5.3
				c0.4-0.7,0.9-1.4,1.4-2.2c0.9-1.5,1.7-3,2.6-4.4c1.3-2.1,2.7-4.2,3.8-6.4c2.4-4.8,4.7-9.8,6.9-14.7c2.4-5.5,5-11,7.1-16.6
				c2.2-5.9,4.2-12,6-18.1c1.8-6,3.4-12.1,4.7-18.3c2.3-11.1,4.3-22.3,5.3-33.7c1-11.8,1.6-23.6,1.3-35.4c-0.2-6-0.7-12-1.3-18
				c-0.4-4.6-0.9-9.3-1.7-13.8c-1.5-8.3-3-16.6-5.5-24.7c-1.4-4.4-2.5-9-4.1-13.3c-2-5.6-4.4-11-6.8-16.5c-2.2-5-4.5-10-7.1-14.9
				c-1.9-3.6-4.3-7-6.5-10.5c-0.9-1.5-1.8-2.9-2.7-4.4c-0.7-1.2-1.4-2.4-2.2-3.5c-3.7-5.1-7.3-10.2-11.6-14.8
				c-2.9-3.1-6-6.1-8.8-9.3c-3.8-4.4-8.2-8-12.6-11.7c-5.5-4.5-11.2-8.8-17-12.8c-4.8-3.3-9.9-6.1-15-8.9
				c-8.9-4.9-18.3-8.7-27.9-12.1c-8.7-3.1-17.6-5.1-26.5-6.8c-6.9-1.3-13.9-2-20.9-2.4c-8.9-0.4-17.8-0.3-26.7,0
				c-5.5,0.2-11.1,1-16.6,1.9c-5.8,0.9-11.6,2.1-17.3,3.5c-8,1.9-15.8,4.5-23.3,7.7c-6.5,2.8-12.9,5.9-19.1,9.1
				c-4.8,2.5-9.3,5.5-13.8,8.3c-2.5,1.6-5.1,3.2-7.5,5c-3,2.3-6,4.6-8.8,7.1c-4.8,4.4-9.6,8.8-14.2,13.5
				c-5.5,5.5-10.5,11.6-15.3,17.7c-4.4,5.5-7.7,11.6-11.6,17.3c-1.5,2.1-2.5,4.5-3.7,6.8c-3,5.9-6,11.8-8.8,17.8
				c-1.1,2.4-1.8,5-2.8,7.5c-3.4,8.6-6,17.4-8.1,26.3c-2.4,10.2-4.4,20.5-5.3,31c-1,10.9-1.5,21.8-1.2,32.8
				c0.2,6.5,0.7,12.9,1.3,19.3c0.4,4.7,0.9,9.4,1.6,14.1c0.8,5.6,1.8,11.2,3,16.8c1.6,7.2,3.2,14.4,5.2,21.6c2.6,9.6,6,19,10,28.2
				c3.1,7.2,6.7,14.1,10,21.2c2.5,5.4,6.1,10.2,8.9,15.3c3.3,6.1,7.4,11.5,11.4,17.1c2.1,2.9,4.7,5.4,7,8.1c0.3,0.3,0.6,0.6,0.8,1
				c3.7,5.4,8.3,10.1,13,14.5c5,4.7,9.9,9.4,15.1,14c8.2,7.3,17.2,13.5,26.2,19.8c3.4,2.3,6.2,5.4,8.8,8.6c2.6,3.2,4.2,6.8,5.9,10.5
				c2.6,5.6,3.2,11.8,3.2,17.9c0,34.2,0,68.5,0,102.7c0,4.5-0.1,8.9-1.7,13.2c-2.8,7.3-7.6,12.7-14.5,16.3
				c-5.7,2.9-11.7,3.3-17.7,2.4c-3.3-0.5-6.5-1.9-9.7-3.2c-6.4-2.7-12.7-5.5-19-8.4c-4.6-2.2-9.2-4.5-13.7-7
				c-6.9-3.9-13.8-7.9-20.5-12.1c-5.5-3.5-10.8-7.2-16.1-11.1c-5.6-4.1-11-8.5-16.4-12.8c-8.2-6.7-16-13.9-23.6-21.4
				c-8.5-8.5-16.7-17.3-24.2-26.7c-4.6-5.7-9.2-11.3-13.4-17.3c-6.2-8.7-12.2-17.4-17.9-26.4c-4.7-7.5-8.9-15.3-13.2-23
				c-3.2-5.8-6.2-11.7-9-17.7c-4.4-9.2-8.5-18.6-12.3-28.1c-3.7-9.5-7.3-19.1-10.3-28.9c-2.6-8.5-5.3-17.1-7.5-25.7
				c-2.2-8.4-3.9-16.9-5.7-25.4c-1.3-6.2-2.5-12.5-3.6-18.7c-0.4-2.4-0.5-4.8-0.8-7.2c-0.4-2.9-0.8-5.8-1.2-8.7
				c-1.3-10.6-2.5-21.2-3.1-31.9c-1.1-18.6-1.3-37.2-0.3-55.8c0.5-9,1.3-18,2.2-27c0.8-7.8,1.8-15.6,3.1-23.3
				c1.2-7.3,2.7-14.6,4.3-21.8c2-9.2,4.1-18.3,6.6-27.3c2-7.5,4.6-14.8,7-22.1c3.4-10.5,7.4-20.7,11.9-30.8
				c3.6-8.1,7.3-16.1,11.3-24c5.9-11.6,12.6-22.9,20-33.7c6.8-9.9,14.1-19.5,22-28.5c5.5-6.3,11.2-12.3,17.3-18
				c7-6.5,14.2-12.7,22.1-18c4-2.7,8.1-5.5,12.2-8.1c3-1.9,6.1-3.7,9.4-5.3c1.6-0.8,2.5-1.9,3.2-3.5c1-2.5,2-4.9,3-7.4
				c2.9-6.9,5.8-13.8,8.7-20.7c2-4.7,4-9.3,5.8-14.1c1.3-3.4,3.5-5,7.2-5c8,0.1,15.9,0,23.9,0C400.7,121.8,435.1,121.8,469.5,121.8
				L469.5,121.8z M572.6,794.9c0,9.4,0,18.8,0,28.2c0,8.4-0.1,16.7,0,25.1c0.1,5.1,1.6,9.7,5.6,13.1c5.3,4.5,11.2,4.8,17.3,2.3
				c6.9-2.8,13.7-5.8,20.5-8.8c8.8-3.8,17.1-8.6,25.3-13.5c9.3-5.6,18.4-11.6,27-18.3c6.3-4.9,12.4-10,18.5-15.1
				c4.4-3.8,8.8-7.7,12.9-11.8c5.8-5.8,11.4-11.9,17-17.9c8-8.7,15.5-17.9,22.4-27.6c6.9-9.7,13.6-19.6,19.8-29.8
				c5.5-9,10.5-18.3,15.3-27.7c5.9-11.6,11.4-23.5,16-35.7c2.9-7.7,6-15.4,8.6-23.2c2.7-8.2,5.2-16.6,7.5-25
				c2.1-7.5,3.8-15.2,5.5-22.8c1.3-5.6,2.6-11.2,3.6-16.9c1.5-8.8,2.9-17.7,3.9-26.6c1-8.3,1.7-16.6,2.3-24.9
				c0.5-6.9,0.9-13.8,0.9-20.7c0.1-11.4,0-22.7-0.3-34.1c-0.2-6.6-0.7-13.3-1.4-19.9c-1-9.5-2.1-19-3.5-28.5
				c-1.1-7.7-2.7-15.4-4.3-23.1c-2-9.2-4.3-18.4-6.6-27.6c-1.1-4.5-2.6-8.9-4.1-13.3c-2.4-7.3-4.7-14.6-7.4-21.7
				c-3.9-10.2-8-20.3-13-30.1c-4.3-8.3-8.5-16.7-13.2-24.8c-3.7-6.4-7.9-12.5-12-18.6c-5.8-8.8-12.4-17-19.4-25
				c-10.8-12.4-22.7-23.6-35.9-33.3c-7.8-5.7-16-10.9-24.7-15.1c-2.2-1.1-3.8-2.6-4.6-4.9c-0.6-1.6-1.3-3.2-1.9-4.8
				c-2.9-6.8-5.7-13.6-8.6-20.5c-2.2-5.2-4.4-10.5-6.5-15.7c-0.5-1.3-1.3-1.9-2.7-1.8c-1.4,0.1-2.7,0-4.1,0c-78.8,0-157.7,0-236.5,0
				c-21,0-42,0-62.9,0c-3.1,0-3.1,0-4.3,2.9c-1.8,4.4-3.7,8.9-5.5,13.3c-3.4,8.3-6.9,16.5-10.2,24.8c-1.4,3.4-3.3,6.2-7,7.3
				c-0.4,0.1-0.8,0.4-1.1,0.6c-4.3,2.6-8.8,5-13,7.8c-5.9,4-11.7,8.1-17.3,12.5c-6.7,5.3-13.1,11-18.9,17.4
				c-5.8,6.3-11.4,12.8-17,19.3c-2.8,3.3-5.3,6.9-7.9,10.4c-2.3,3.1-4.5,6.3-6.6,9.5c-2.4,3.7-4.8,7.5-7.1,11.4
				c-4.1,7.2-8.2,14.3-12,21.6c-3.1,5.9-5.8,11.9-8.4,18c-4,9.4-7.9,18.9-11.3,28.5c-3.1,8.9-5.7,18-8.2,27.2
				c-2.5,9.4-4.7,18.8-6.9,28.3c-1,4.3-1.6,8.6-2.3,13c-1.2,7.9-2.8,15.8-3.5,23.7c-1.1,11.6-1.9,23.3-2.5,35
				c-0.4,8.8-0.4,17.6-0.3,26.4c0.2,18.4,1.5,36.8,4,55.1c0.2,1.8,0.6,3.6,0.9,5.3c1.2,7.1,2.2,14.3,3.5,21.4
				c1.2,6.3,2.5,12.5,4.1,18.6c2.8,10.8,5.6,21.6,8.9,32.3c2.5,8.2,5.5,16.3,8.5,24.4c2.5,6.8,5.2,13.7,8.2,20.3
				c4.4,9.7,8.9,19.4,13.9,28.8c5,9.5,10.5,18.7,16.2,27.8c4.3,7,9.1,13.7,13.8,20.4c3.2,4.6,6.6,9.2,10.1,13.6
				c7.5,9.3,15.3,18.2,23.6,26.9c7.5,7.8,15.3,15.2,23.5,22.2c7,6,14.4,11.6,21.9,17.1c4.9,3.7,10.2,7,15.3,10.3
				c3.6,2.3,7.4,4.3,11,6.6c7.3,4.5,15,8.2,22.7,11.7c5.7,2.6,11.4,4.9,17.2,7.3c4.7,1.9,9.5,2.1,14.1-0.4c6.1-3.3,8.6-8.7,8.6-15.3
				c0.1-13.2,0-26.4,0-39.6c0-22.3,0.1-44.5-0.1-66.7c-0.1-8.4-2.9-15.9-9-21.8c-2.5-2.4-5.5-4.4-8.3-6.5c-6.2-4.6-12.5-9-18.5-13.8
				c-5.6-4.5-10.8-9.5-16.1-14.3c-2-1.8-3.9-3.8-5.8-5.9c-2-2.2-3.6-4.8-5.8-6.8c-3.2-2.8-5.7-6.2-8.3-9.5
				c-4.2-5.2-8.2-10.6-12-16.1c-4.3-6.3-8.4-12.7-12.2-19.3c-4.9-8.6-9.4-17.4-13-26.6c-2.4-6.1-5-12.3-7.1-18.5
				c-2.9-8.6-5.6-17.2-7.4-26c-0.8-4-2-7.8-2.7-11.8c-1.3-8-2.2-16-3.4-24c-1.2-8.6-1.7-17.3-1.9-26c-0.3-11.7,0-23.4,1.5-35.1
				c0.7-5.7,1.3-11.5,2.3-17.2c1-5.4,2.4-10.7,3.6-16.1c2.5-11,6.1-21.7,10.5-32c2.7-6.3,5.7-12.5,8.8-18.6
				c4-7.8,8.5-15.3,13.7-22.4c4.1-5.6,8.4-11.1,12.8-16.4c3.6-4.3,7.5-8.5,11.5-12.4c4.5-4.3,9.3-8.4,14.1-12.4
				c8-6.8,16.7-12.6,25.8-17.7c5.9-3.3,12.1-6.4,18.3-9.2c5.4-2.4,10.9-4.5,16.5-6.3c5.7-1.9,11.5-3.5,17.4-4.9
				c6.1-1.5,12.3-2.8,18.6-3.7c8.1-1.1,16.3-1.9,24.6-1.8c6.5,0.1,13,0.1,19.5,0.5c5.7,0.4,11.4,1.3,17,2.1
				c3.6,0.5,7.3,1.1,10.8,1.9c7.1,1.5,14,3.6,21,5.8c8.8,2.8,17.3,6.4,25.6,10.5s16.3,8.8,23.8,14.1c5.9,4.2,11.8,8.5,17.2,13.5
				c4.5,4.2,9.1,8.3,13.4,12.7c7.2,7.4,13.6,15.4,19.5,23.9c2.8,3.9,5.2,8,7.6,12.2c1.2,2.2,2.8,4.3,4.1,6.5c4,7.1,7.5,14.5,10.6,22
				c3.2,7.8,6,15.7,8.3,23.9c2.5,8.9,4.8,17.8,6.1,26.9c1.3,8.6,2.4,17.2,3,25.9c1.3,18.2,0.3,36.4-1.9,54.4
				c-1.1,9-2.3,17.9-4.6,26.7c-1.2,4.8-2.1,9.6-3.5,14.3c-2.1,7.1-4.5,14.1-6.8,21.1c-2.4,7.5-5.5,14.8-9.1,21.9
				c-0.7,1.4-1.4,2.8-2.1,4.1c-2.6,5.1-5,10.3-7.7,15.4c-1.6,3.1-3.6,6-5.5,9c-2.1,3.2-4.4,6.3-6.6,9.5c-2,2.9-3.8,6-5.9,8.8
				c-7.3,9.6-15,18.8-23.7,27.1c-5.9,5.6-11.8,11.3-18,16.4c-6.7,5.5-13.7,10.6-20.8,15.4c-9.9,6.7-14.8,15.9-14.9,27.8
				C572.5,760.2,572.6,777.6,572.6,794.9z"/>
		</g>
	</g>
</g>
<g id="Flux_Base" class="st1">
	<g id="ltTcKn.tif" class="st18">
	</g>
	<path class="st19" d="M338.4,342H201.6c-7,0-12.6-5.7-12.6-12.6v-1.7c0-7,5.7-12.6,12.6-12.6h136.7c7,0,12.6,5.7,12.6,12.6v1.7
		C351,336.3,345.3,342,338.4,342z"/>
	<path class="st19" d="M742.5,189c-25.9,0-48.4,14.6-59.7,36H585v-27c0-63-54-54-54-54v-18h-90v18c-54,0-45,54-45,54l27,18v81h-72
		v63h72l18,9v72h18v324h-18v9h-36v45h180v-45h-45v-9h-18V441h18v-54h-9v-99h151.8c11.3,21.4,33.8,36,59.7,36
		c37.3,0,67.5-30.2,67.5-67.5S779.8,189,742.5,189z"/>
	<line class="st19" x1="558" y1="225" x2="441" y2="225"/>
</g>
<g id="Layer_20" class="st1">
</g>
<g id="Base_Regadera" class="st1">
	<g class="st2">
		<polygon class="st3" points="881.1,934.2 118.9,934.2 118.9,860.4 881.1,860.4 881.1,897.3 		"/>
		<path class="st3" d="M745.8,110.6L795,73.7c0,0,86-36.9,86,49.2v737.5"/>
		<path class="st3" d="M623.5,111.8l121.7,121.7c33.6-33.6,33.6-88.1,0-121.7S657.1,78.2,623.5,111.8z"/>
		<line class="st3" x1="524.6" y1="196.6" x2="591.6" y2="178.7"/>
		<line class="st3" x1="542.3" y1="287.9" x2="631.6" y2="217.9"/>
		<line class="st3" x1="634.6" y1="326.4" x2="670.8" y2="256.4"/>
	</g>
</g>
<g id="B-8221_base" class="st1">
	<g id="GcEydn.tif" class="st2">
	</g>
</g>
<g id="Jabonera" class="st1">
	<g class="st2">
		<g>
			<path class="st10" d="M1253.6,598.4c3.2,0,3.2-5,0-5S1250.4,598.4,1253.6,598.4L1253.6,598.4z"/>
		</g>
	</g>
	<g class="st2">
		<path class="st3" d="M136.4,684.4c-15.8,43.9,228.3,46.9,279.4,11c6-4.2,8.5-12,6.1-18.9l-15.1-44.1c-1.5-4.5-4.9-8.1-9.3-9.9
			L370.7,611c-5.5-2.3-9.4-7.4-10-13.4l-1.6-13.4c-0.7-5.7,1.7-11.3,6.1-14.9l0,0c4.8-3.8,7.1-10,5.9-16l-13.6-71.9
			c-1.5-7.8,2.7-15.5,10-18.5l319.4-130.2c0.3-0.1,0.7-0.3,1-0.4c41.1-13.9,65.9,10.4,68.2,12.7c0.1,0.1,0.3,0.3,0.4,0.4l44.4,42.7
			c6.4,6.2,16.6,6.2,23,0l13-12.5c7-6.7,6.8-17.9-0.5-24.4l-54.9-49c-0.4-0.4-0.9-0.7-1.3-1.1c-6.6-4.8-55.3-37.1-122-11.4
			c-61.8,23.8-248.6,99.1-299.8,119.7c-5.9,2.4-12.5,1.2-17.3-3c-18.4-16.3-90.5-36.1-136.6,4.1c-2.9,2.5-4.8,6-5.4,9.8l-21.5,132.9
			c-1,6,1.4,12,6.2,15.7l5.8,4.5c4.2,3.2,6.5,8.3,6.4,13.5l-0.3,12.1c-0.1,5.9-3.4,11.2-8.5,14.1l-25.3,14.1c-3.4,1.9-6.1,5-7.5,8.7
			L136.4,684.4z"/>
		<path class="st4" d="M830.4,419.7l-21.7,71.5c-5.5,18.3,8.1,36.7,27.2,36.7l0,0c19.1,0,32.8-18.4,27.2-36.7l-21.7-71.5
			C839.7,414.2,832,414.2,830.4,419.7z"/>
	</g>
	<path class="st8" d="M161.9,627.5"/>
	<path class="st8" d="M161.9,627.5c0,0,27.1,17.6,151.3,11.7"/>
</g>
<g id="Base_Cambiador" class="st1">
</g>
<g id="Cambiador" class="st1">
	<g class="st2">
		<g>
			<circle class="st4" cx="523.4" cy="135" r="68.3"/>
			<path class="st4" d="M598.5,395.7l-79.2-36.8l-14.1-110.3c-1.3-15.2-8.1-29.9-20.4-40.7l-19-16.8c-25.3-22.4-63.9-20-86.3,5.3
				L216.3,381h-0.5l-38.1,173.5h-0.1l-17.4,79.3h109.2v262.3c0,20.6,16.7,37.2,37.2,37.2l0,0c20.6,0,37.2-16.7,37.2-37.2V633.8h88.8
				l-48.8-219.5l79.4-89.9l7.1,55.7c1.4,11,9.7,19.5,19.9,21.7l86.6,40.2c12.8,6,28.1,0.4,34-12.4
				C616.9,416.8,611.3,401.6,598.5,395.7z"/>
		</g>
		<circle class="st4" cx="756.9" cy="598.7" r="47.5"/>
		<path class="st4" d="M823.5,730.2H463.7c-9,0-16.3-7.3-16.3-16.3v-21.6c0-9,7.3-16.3,16.3-16.3h359.8c9,0,16.3,7.3,16.3,16.3v21.6
			C839.8,722.9,832.5,730.2,823.5,730.2z"/>
		<path class="st4" d="M682.2,494.2L682.2,494.2c-12-0.8-22.4,8.3-23.2,20.3l-3.4,49.6h-0.3v0.9H577l11.9-47l0.6-0.1
			c0.6-9.2-4.7-18.2-13.8-21.8l-62.1-24.3c-11.2-4.4-23.9,1.2-28.2,12.4l0,0c-4.4,11.2,1.2,23.9,12.4,28.2l34.8,13.6
			c-60.9,99.7-17.2,134.1,34.1,135.8h12.1H593h49.2c30,0,54.3-24.3,54.3-54.3v-11.8c0.7-1.9,1.2-4,1.3-6.1l4.9-72.1
			C703.2,505.4,694.2,495,682.2,494.2z"/>
	</g>
</g>
<g id="Bebedero" class="st1">
	<g class="st2">
		<path class="st20" d="M458.2,399.9c0,1.6,0,2.5,0,3.5c0,21-0.1,41.9,0.1,62.9c0,4,0.5,8,1.3,12c2.2,10.2,8,18,15.5,25.2
			c23.1,21.9,45.8,44.2,68.6,66.3c10.8,10.4,21.4,21,32.4,31.2c13.2,12.2,33.6,14.1,48.7,4.7c10-6.3,15.7-15.2,14.7-27.3
			s-6.2-22.6-14.5-31.3c-9.9-10.3-20.4-19.9-30.7-29.9c-16.7-16.1-33.4-32.3-50.2-48.3c-1.7-1.6-2.3-3.2-2.3-5.5
			c0.1-55.6,0.1-111.2,0-166.8c0-4.3-0.1-8.6-0.6-12.8c-2-16.7-7.5-32.3-16.9-46.3c-12.9-19.3-31.2-30.1-54.2-32.9
			c-19.1-2.3-36.6,2.1-51.9,13.6c-15.6,11.8-30.6,24.5-45.8,36.8c-17.3,14-34.5,28.1-51.7,42.1c-17.4,14.2-34.9,28.3-52.4,42.5
			c-17.3,14.1-34.6,28.2-52,42.2c-7.1,5.7-14.1,11.5-19.8,18.7c-15.4,19.8-22.3,42.4-22.2,67.3c0.1,14.4,0.3,28.7,0.4,43.1
			c0.2,45.8,0.4,91.5,0.5,137.3c0.2,48.7,0.4,97.5,0.5,146.2c0.1,25.5,0,51,0.2,76.5c0,4.3,0.3,8.6,1.3,12.7
			c4.6,19.9,24,35.1,45.1,33.6c17.8-1.2,33-12.2,38.1-29.4c2.1-7.2,2.7-14.9,3.7-22.4c1.3-9.4,2.2-18.9,3.4-28.4
			c1.3-10.9,2.7-21.9,4-32.8c1.3-10.9,2.5-21.9,3.8-32.8c1.3-11.3,2.8-22.6,4.1-33.8c1.3-10.7,2.5-21.4,3.8-32c1.3-11,2.7-22,4-33.1
			c1.5-12.3,2.9-24.7,4.4-37c1.5-12.5,3.1-25,4.6-37.5c1.5-12.3,2.9-24.7,4.3-37c1.7-14.3,3.4-28.6,5.2-42.9c0.2-1.2,1-2.7,1.9-3.4
			c18.5-14.3,37.1-28.4,55.6-42.6c24.2-18.5,48.4-36.9,72.6-55.4C443.1,411.4,450.4,405.8,458.2,399.9z M742,366.3
			c-1.1,0-2.4,0-3.6,0c-42.3,0-84.7,0-127,0c-1.3,0-2.6,0-3.9,0.1c-9.1,0.8-15.6,7.7-15.7,16.9c0,10.6-0.1,21.2,0.1,31.8
			c0.1,3.9,0.6,7.9,1.4,11.7c2.5,12.7,8.9,23.4,18,32.5c45,45,90,90,135,135c0.7,0.7,1.5,1.5,2.2,2.3c8.5,10,19.5,15.9,32.2,18.8
			c8.9,2,17.9,1.5,26.9,1.5c11.1,0,18.2-7,18.2-18.2c0-71.5,0-142.9,0-214.4c0-2.1-0.3-4.2-0.9-6.2c-2.2-7.5-8.5-11.8-17.2-11.8
			c-9.9,0-19.8,0-29.7,0c-1.7,0-2.5-0.4-2.7-2.3c-1.1-9.6-10.9-16.4-20.3-14C747.5,352.1,743.2,357.3,742,366.3z M675.2,282.9
			c9.3,0,16.9-7.6,16.9-16.8c0-9-7.9-16.8-16.8-16.7c-9.1,0.1-16.7,7.7-16.7,16.8C658.6,275.3,666.1,282.9,675.2,282.9z
			 M725.4,266.1c-9,0-16.7,7.7-16.7,16.7s7.7,16.7,16.7,16.8c9.2,0.1,16.9-7.7,16.8-16.9C742.1,273.7,734.5,266.1,725.4,266.1z
			 M758.9,332.9c9.3,0,16.7-7.3,16.7-16.5c0-9.3-7.6-16.8-16.9-16.7c-9.3,0.1-16.5,7.4-16.5,16.8
			C742.3,325.7,749.5,332.9,758.9,332.9z"/>
		<path class="st20" d="M590.2,82.5c4.3,0.9,8.6,1.4,12.8,2.6c30.2,9.1,48.9,29.1,54.5,60.2c4.6,25.6-3.2,48-21.6,66.2
			c-15.1,14.9-33.7,22-54.9,21.3c-35.9-1.2-65-27.3-71.2-61c-4.7-25.5,2.1-47.8,20-66.5c12.2-12.8,27.4-20.2,45.1-22.2
			c0.6-0.1,1.2-0.3,1.7-0.5C581.1,82.5,585.6,82.5,590.2,82.5z"/>
		<path class="st20" d="M458.2,399.9c-7.8,6-15.1,11.5-22.4,17.1c-24.2,18.5-48.4,36.9-72.6,55.4c-18.6,14.2-37.1,28.3-55.6,42.6
			c-1,0.7-1.8,2.2-1.9,3.4c-1.8,14.3-3.5,28.6-5.2,42.9c-1.5,12.3-2.9,24.7-4.3,37c-1.5,12.5-3.1,25-4.6,37.5
			c-1.5,12.3-2.9,24.7-4.4,37c-1.3,11-2.7,22-4,33.1c-1.3,10.7-2.5,21.4-3.8,32c-1.4,11.3-2.8,22.6-4.1,33.8
			c-1.3,10.9-2.5,21.9-3.8,32.8c-1.3,10.9-2.7,21.9-4,32.8c-1.1,9.5-2.1,18.9-3.4,28.4c-1,7.5-1.6,15.2-3.7,22.4
			c-5.1,17.2-20.3,28.1-38.1,29.4c-21.1,1.4-40.5-13.7-45.1-33.6c-1-4.1-1.2-8.5-1.3-12.7c-0.1-25.5-0.1-51-0.2-76.5
			c-0.1-48.7-0.3-97.5-0.5-146.2c-0.2-45.8-0.3-91.5-0.5-137.3c-0.1-14.4-0.3-28.7-0.4-43.1c-0.1-24.9,6.8-47.5,22.2-67.3
			c5.7-7.3,12.7-13,19.8-18.7c17.3-14.1,34.6-28.1,52-42.2c17.5-14.2,34.9-28.3,52.4-42.5c17.2-14,34.4-28.1,51.7-42.1
			c15.2-12.3,30.2-25,45.8-36.8c15.3-11.6,32.8-16,51.9-13.6c23,2.8,41.3,13.5,54.2,32.9c9.3,14,14.9,29.6,16.9,46.3
			c0.5,4.2,0.6,8.6,0.6,12.8c0,55.6,0,111.2,0,166.8c0,2.3,0.6,3.9,2.3,5.5c16.8,16.1,33.5,32.2,50.2,48.3
			c10.3,9.9,20.8,19.6,30.7,29.9c8.3,8.6,13.5,19.2,14.5,31.3c1.1,12.1-4.7,21.1-14.7,27.3c-15.1,9.4-35.5,7.5-48.7-4.7
			c-11-10.2-21.6-20.8-32.4-31.2c-22.9-22.1-45.5-44.5-68.6-66.3c-7.6-7.2-13.4-15-15.5-25.2c-0.8-3.9-1.3-8-1.3-12
			c-0.1-21-0.1-41.9-0.1-62.9C458.2,402.4,458.2,401.5,458.2,399.9z"/>
		<path class="st20" d="M742,366.3c1.2-9.1,5.5-14.3,13.1-16.2c9.4-2.4,19.2,4.3,20.3,14c0.2,1.9,1,2.3,2.7,2.3
			c9.9-0.1,19.8-0.1,29.7,0c8.7,0,15,4.4,17.2,11.8c0.6,2,0.9,4.1,0.9,6.2c0,71.5,0,142.9,0,214.4c0,11.2-7.1,18.2-18.2,18.2
			c-9,0-18,0.5-26.9-1.5c-12.7-2.9-23.7-8.8-32.2-18.8c-0.7-0.8-1.5-1.5-2.2-2.3c-45-45-90-90-135-135c-9.1-9.1-15.5-19.8-18-32.5
			c-0.8-3.8-1.3-7.8-1.4-11.7c-0.2-10.6-0.1-21.2-0.1-31.8c0-9.1,6.5-16.1,15.7-16.9c1.3-0.1,2.6-0.1,3.9-0.1c42.3,0,84.7,0,127,0
			C739.6,366.3,740.8,366.3,742,366.3z"/>
		<path class="st20" d="M675.2,282.9c-9.2,0-16.6-7.6-16.6-16.7s7.6-16.7,16.7-16.8c9-0.1,16.8,7.7,16.8,16.7
			C692.2,275.3,684.5,282.9,675.2,282.9z"/>
		<path class="st20" d="M725.4,266.1c9.1,0,16.7,7.5,16.8,16.6c0.1,9.2-7.7,17-16.8,16.9c-9-0.1-16.7-7.8-16.7-16.8
			C708.7,273.8,716.4,266.1,725.4,266.1z"/>
		<path class="st20" d="M758.9,332.9c-9.4,0-16.6-7.2-16.6-16.5c0-9.4,7.2-16.7,16.5-16.8c9.3-0.1,16.9,7.4,16.9,16.7
			C775.5,325.6,768.2,332.9,758.9,332.9z"/>
	</g>
</g>
<g id="Layer_27" class="st1">
	<g class="st2">
		<polyline class="st21" points="849.4,653 849.4,272.4 909,225 		"/>
		<circle class="st22" cx="167.7" cy="758.8" r="47.2"/>
		<circle class="st22" cx="766.2" cy="758.8" r="47.2"/>
		<path class="st22" d="M883.1,653H87.7c-0.1,0-0.2,0.1-0.2,0.2v26.7c0,0.1,0.1,0.2,0.2,0.2h139.2c0.1,0,0.2,0.2,0.1,0.3l-56.5,56.5
			c-7.8,7.8-7.8,20.4,0,28.2l4.9,4.9c0.1,0.1,0.2,0.1,0.2,0l89.8-89.8h0.1h493.7c0.1,0,0.2,0.1,0.2,0.2v80.7c0,0.1,0.1,0.2,0.2,0.2
			l0,0c9.8,0,17.8-8,17.8-17.8v-63c0-0.1,0.1-0.2,0.2-0.2h105.5c0.1,0,0.2-0.1,0.2-0.2v-26.7C883.3,653.1,883.2,653,883.1,653z"/>
		<g>
			<rect x="368.7" y="413.5" class="st22" width="251.1" height="221.5"/>
			<rect x="228.4" y="487.3" class="st22" width="214.2" height="147.7"/>
			<rect x="560.7" y="347" class="st22" width="192" height="288"/>
			<rect x="309.7" y="487.3" class="st23" width="51.7" height="44.3"/>
			<rect x="464.7" y="413.5" class="st23" width="51.7" height="44.3"/>
			<rect x="627.2" y="347" class="st23" width="51.7" height="44.3"/>
		</g>
	</g>
</g>
<g id="Layer_28" class="st1">
</g>
<g id="Carro_Servicio" class="st1">
	<g class="st2">
		<path class="st21" d="M493,681.3h-59.5c-44,0-79.7-35.7-79.7-79.7v-5.3c0-10,8.1-18,18-18h181.7c10.5,0,19.1,8.5,19.1,19.1v4.3
			C572.7,645.7,537,681.3,493,681.3z"/>
		<path class="st21" d="M610.9,228.9c-3-1.7-4.8-4.9-4.8-8.4c0,0,0,0,0-0.1v-96.3c0-6.9-5.2-12.6-11.6-12.6h-10.6
			c-6.4,0-11.6,5.6-11.6,12.6v96.3c0,0.2,0,0.4,0,0.6c0.2,3.3-1.6,6.4-4.5,8.1c-15,8.5-25.2,25.5-25.2,45v45.8c0,4.9,4,8.9,8.9,8.9
			h75c4.9,0,8.9-4,8.9-8.9v-47.4C635.5,253.6,625.5,237.1,610.9,228.9z"/>
		<g>
			<circle class="st21" cx="711.8" cy="846.5" r="49.5"/>
			<path class="st24" d="M712.2,846.5V192.9c0-23.7,13.3-45,33.4-53.5l83.6-35.4"/>
			<g>
				<circle class="st21" cx="288.2" cy="846.5" r="49.5"/>
				<path class="st24" d="M287.8,846.5V192.9c0-23.7-13.3-45-33.4-53.5L170.8,104"/>
			</g>
			<rect x="275.2" y="320" class="st25" width="450" height="63"/>
			<rect x="275.2" y="680" class="st25" width="450" height="63"/>
		</g>
	</g>
</g>
<g id="Cenicero" class="st1">
	<g class="st2">
		<g>
			<g>
				<path class="st22" d="M706.8,925.5H290.3c-17.4,0-31.5-14.1-31.5-31.5V141.7h479.5V894C738.3,911.4,724.2,925.5,706.8,925.5z"/>
				<path class="st22" d="M641.4,449.6H355.6c-24.5,0-44.4-19.9-44.4-44.4v-132c0-24.5,19.9-44.4,44.4-44.4h285.8
					c24.5,0,44.4,19.9,44.4,44.4v132C685.8,429.8,666,449.6,641.4,449.6z"/>
				<path class="st22" d="M738.3,141.7H258.8V92c0-20.7,16.8-37.4,37.4-37.4h404.6c20.7,0,37.4,16.8,37.4,37.4L738.3,141.7
					L738.3,141.7z"/>
			</g>
			<line class="st21" x1="72.5" y1="945.4" x2="927.5" y2="945.4"/>
		</g>
		<g>
			<circle class="st26" cx="320.4" cy="75.9" r="4.8"/>
			<circle class="st26" cx="365" cy="75.9" r="4.8"/>
			<circle class="st26" cx="409.5" cy="75.9" r="4.8"/>
			<circle class="st26" cx="454" cy="75.9" r="4.8"/>
			<circle class="st26" cx="498.5" cy="75.9" r="4.8"/>
			<circle class="st26" cx="543" cy="75.9" r="4.8"/>
			<circle class="st26" cx="587.6" cy="75.9" r="4.8"/>
			<circle class="st26" cx="632.1" cy="75.9" r="4.8"/>
			<circle class="st26" cx="676.6" cy="75.9" r="4.8"/>
		</g>
		<g>
			<circle class="st26" cx="320.4" cy="98.1" r="4.8"/>
			<circle class="st26" cx="365" cy="98.1" r="4.8"/>
			<circle class="st26" cx="409.5" cy="98.1" r="4.8"/>
			<circle class="st26" cx="454" cy="98.1" r="4.8"/>
			<circle class="st26" cx="498.5" cy="98.1" r="4.8"/>
			<circle class="st26" cx="543" cy="98.1" r="4.8"/>
			<circle class="st26" cx="587.6" cy="98.1" r="4.8"/>
			<circle class="st26" cx="632.1" cy="98.1" r="4.8"/>
			<circle class="st26" cx="676.6" cy="98.1" r="4.8"/>
		</g>
		<g>
			<circle class="st26" cx="320.4" cy="120.4" r="4.8"/>
			<circle class="st26" cx="365" cy="120.4" r="4.8"/>
			<circle class="st26" cx="409.5" cy="120.4" r="4.8"/>
			<circle class="st26" cx="454" cy="120.4" r="4.8"/>
			<circle class="st26" cx="498.5" cy="120.4" r="4.8"/>
			<circle class="st26" cx="543" cy="120.4" r="4.8"/>
			<circle class="st26" cx="587.6" cy="120.4" r="4.8"/>
			<circle class="st26" cx="632.1" cy="120.4" r="4.8"/>
			<circle class="st26" cx="676.6" cy="120.4" r="4.8"/>
		</g>
		<g>
			<g>
				<path class="st21" d="M418,718.1c21.3-55.1-19.8-34,0-111.7"/>
				<path class="st21" d="M446.3,700.4c21.3-55.1-19.8-34,0-111.7"/>
			</g>
			<g>
				
					<rect x="449.4" y="679.6" transform="matrix(0.7071 -0.7071 0.7071 0.7071 -343.1584 559.1833)" class="st26" width="108" height="28.5"/>
				
					<rect x="538.1" y="617.8" transform="matrix(0.7071 -0.7071 0.7071 0.7071 -281.4173 584.6885)" class="st26" width="54" height="28.5"/>
				<line class="st27" x1="453.1" y1="728.2" x2="469" y2="744"/>
				<line class="st27" x1="446.3" y1="735" x2="462.1" y2="750.9"/>
				<line class="st27" x1="439.4" y1="741.9" x2="455.3" y2="757.8"/>
				<line class="st27" x1="432.5" y1="748.8" x2="448.4" y2="764.7"/>
			</g>
		</g>
	</g>
</g>
<g id="Layer_31" class="st1">
</g>
<g id="Consumibles" class="st1">
	<g class="st2">
		<path class="st21" d="M705.5,130.5h-169H404.9H370c-135,0-244.4,109.4-244.4,244.4v494.6h410.9v-230"/>
		<ellipse class="st21" cx="705.5" cy="385" rx="168.9" ry="254.5"/>
		<ellipse class="st21" cx="716.6" cy="392.8" rx="44" ry="64.2"/>
		<polyline class="st21" points="705.5,639.5 536.5,639.5 536.5,385 		"/>
	</g>
</g>
<g id="Contenedor" class="st1">
	<g class="st2">
		<path class="st20" d="M798.4,360.4c0,4.6,0,8.5,0,12.5c0,49.8-0.1,99.6,0.1,149.5c0.1,15.7,9.1,25.9,21.7,26
			c13.2,0,21-9.2,21-25.9c0.1-55.6,0.5-111.2-0.1-166.9c-0.4-40.7-29.6-70.2-70.2-71.1c-33.8-0.7-67.6-0.5-101.3,0
			c-22.2,0.3-41.8,8.2-54.5,27c-18.6,27.5-36.4,55.7-53.7,84.1c-4.1,6.7-8.2,8.6-15.4,8.5c-23.5-0.3-47.1-0.1-70.6-0.1
			c-8.9,0-17.1,1.9-22.4,9.8c-10,14.7-0.5,32.3,18.4,32.9c24.2,0.7,48.4,0.1,72.7,0.2c40.7,0,33.1,2.2,54.6-29.3
			c1-1.4,1.5-3.1,2.4-4.5c10.3-16.1,20.7-32.3,31-48.4c2.4,4.8,2.4,9,2.4,13.2c-0.1,139.2-0.1,278.4-0.2,417.6
			c0,3.8-0.2,7.5,0.3,11.2c2,17.8,17.6,30.2,35.1,28c16.1-2,26.8-15.5,26.8-34.5c0.1-65.5,0-131,0-196.5c0-16.4,0.2-32.8-0.1-49.1
			c-0.1-5.5,1.6-7.6,7.5-8.1c9.6-0.8,12.9,1.9,12.9,12.2c-0.5,78.8-0.3,157.6-0.4,236.5c0,4.1-0.2,8.2,0.4,12.3
			c3.1,23.1,27.4,34.9,46.9,22.9c11.7-7.2,15-18.6,14.9-31.6c-0.1-141.6,0-283.2,0-424.8c0-4.3,0-8.6,0-13.4
			C785.5,360.4,790.9,360.4,798.4,360.4z M420.6,828.5c10.9-30.4,22-60.7,32.8-91.1c15.4-43.2,30.7-86.5,45.8-129.8
			c5.9-17,14.1-33.9,16.1-51.4c2.9-25.6,0.9-51.8,1.3-77.7c0.1-6.7-2.5-8.9-9-8.9c-100.6,0.2-201.3,0.3-301.9,0.2
			c-6.8,0-8.8,2.5-8.7,9c0.3,17.4,0.1,34.8,0.1,52.2c0,46.1,0.1,92.1-0.2,138.2c-0.1,8,2.3,11,10.4,10.4c7.5-0.6,15-0.4,22.5,0
			c36.1,2.1,62.1,19.5,78.3,51.8c8.4,16.9,8.3,34.8,8,52.9c-0.3,14.5-0.1,29.1-0.1,44.2C350.7,828.5,385.4,828.5,420.6,828.5z
			 M364.2,301.5c-12.2,34.9-23.8,68.2-35.5,101.5c-0.7,1.9-1.4,3.8-2,5.8c-2.5,9,1.2,16.8,10.5,20.3c19.4,7.2,39,14,58.6,20.8
			c12.3,4.3,20.8-0.3,25.1-13c4.1-12.2,8.6-24.3,12.8-36.5c7.5-21.6,14.8-43.2,22.6-66.1c-5,1.5-8.1,2.4-11.4,3.4
			c-2.4-3.7-4.6-7-6.8-10.4c-4.2,1.3-7.9,2.5-11.8,3.8c-2.5-3.7-4.6-7-7.2-11c-9.4,7.8-14.5,2-18.3-6.3c-4.1,1.9-7.4,3.4-11.1,5.1
			c-2.5-3.9-4.7-7.5-7.1-11.2c-4.2,1.8-7.8,3.3-11.5,4.9C369.2,309.3,367.3,306.5,364.2,301.5z M158.6,769
			c0.1,37.4,30.6,67.8,67.5,67.5s67-31.2,66.6-68.5c-0.3-37.1-30.2-66.9-67.2-66.8C188.3,701.2,158.5,731.4,158.6,769z M706.3,272.3
			c28,2.1,54.4-22.3,55.1-53.6c0.6-30.1-24.7-55.2-55.1-55.2c-30.1,0.1-54.4,24.6-54.6,54.6C651.6,248.3,678.4,274.5,706.3,272.3z
			 M196.1,469.3c69.5-82.4,138.2-163.9,207.5-246c-6.3-5.3-11.7-9.8-17.6-14.8c-69.3,82.1-138.1,163.7-207.3,245.7
			C184.8,459.5,189.9,463.9,196.1,469.3z"/>
		<path class="st20" d="M798.4,360.4c-7.5,0-12.9,0-19.8,0c0,4.8,0,9.1,0,13.4c0,141.6,0,283.2,0,424.8c0,13.1-3.2,24.4-14.9,31.6
			c-19.5,12.1-43.8,0.2-46.9-22.9c-0.5-4-0.4-8.2-0.4-12.3c0-78.8-0.1-157.6,0.4-236.5c0.1-10.3-3.3-13-12.9-12.2
			c-5.9,0.5-7.6,2.6-7.5,8.1c0.2,16.4,0.1,32.8,0.1,49.1c0,65.5,0,131,0,196.5c0,19-10.7,32.6-26.8,34.5c-17.5,2.1-33-10.2-35.1-28
			c-0.4-3.7-0.3-7.5-0.3-11.2c0-139.2,0.1-278.4,0.2-417.6c0-4.2,0-8.5-2.4-13.2c-10.4,16.1-20.7,32.3-31,48.4
			c-0.9,1.4-1.5,3.1-2.4,4.5c-21.5,31.5-13.9,29.4-54.6,29.3c-24.2,0-48.5,0.5-72.7-0.2c-18.9-0.5-28.4-18.1-18.4-32.9
			c5.3-7.8,13.5-9.8,22.4-9.8c23.5,0,47.1-0.2,70.6,0.1c7.1,0.1,11.3-1.8,15.4-8.5c17.3-28.4,35-56.6,53.7-84.1
			c12.7-18.8,32.3-26.7,54.5-27c33.8-0.5,67.6-0.7,101.3,0c40.6,0.9,69.8,30.3,70.2,71.1c0.6,55.6,0.3,111.2,0.1,166.9
			c0,16.7-7.9,25.9-21,25.9c-12.6,0-21.6-10.3-21.7-26c-0.2-49.8-0.1-99.6-0.1-149.5C798.4,369,798.4,365,798.4,360.4z"/>
		<path class="st20" d="M420.6,828.5c-35.2,0-69.9,0-104.9,0c0-15-0.2-29.6,0.1-44.2c0.3-18.1,0.5-36.1-8-52.9
			c-16.2-32.4-42.2-49.8-78.3-51.8c-7.5-0.4-15-0.6-22.5,0c-8.1,0.7-10.5-2.3-10.4-10.4c0.4-46.1,0.2-92.1,0.2-138.2
			c0-17.4,0.2-34.8-0.1-52.2c-0.1-6.5,1.9-9,8.7-9c100.6,0.1,201.3,0,301.9-0.2c6.6,0,9.1,2.2,9,8.9c-0.4,25.9,1.6,52.1-1.3,77.7
			c-2,17.5-10.2,34.4-16.1,51.4c-15.1,43.3-30.4,86.6-45.8,129.8C442.5,767.8,431.5,798.2,420.6,828.5z"/>
		<path class="st20" d="M364.2,301.5c3.1,4.9,4.9,7.8,7,11c3.7-1.6,7.3-3.1,11.5-4.9c2.3,3.7,4.6,7.3,7.1,11.2
			c3.6-1.7,7-3.2,11.1-5.1c3.8,8.3,8.8,14.1,18.3,6.3c2.6,4,4.8,7.3,7.2,11c3.9-1.3,7.7-2.5,11.8-3.8c2.2,3.4,4.4,6.7,6.8,10.4
			c3.3-1,6.4-1.9,11.4-3.4c-7.8,22.9-15.2,44.5-22.6,66.1c-4.2,12.2-8.8,24.3-12.8,36.5c-4.2,12.7-12.7,17.3-25.1,13
			c-19.6-6.8-39.2-13.6-58.6-20.8c-9.3-3.5-12.9-11.3-10.5-20.3c0.5-2,1.3-3.9,2-5.8C340.4,369.8,352,336.5,364.2,301.5z"/>
		<path class="st20" d="M158.6,769c-0.1-37.6,29.7-67.8,67-67.8c37,0,66.9,29.7,67.2,66.8c0.3,37.4-29.7,68.2-66.6,68.5
			C189.1,836.8,158.7,806.4,158.6,769z M254.9,768.8c0.1-15.5-13.7-29.6-29.1-29.7c-15.6-0.1-29.1,13.5-29.2,29.4
			c-0.1,16.4,12.5,29.2,28.9,29.3C241.6,797.9,254.9,784.8,254.9,768.8z"/>
		<path class="st20" d="M706.3,272.3c-27.8,2.2-54.7-24-54.5-54.2c0.1-30.1,24.5-54.6,54.6-54.6c30.4-0.1,55.7,25.1,55.1,55.2
			C760.7,250,734.2,274.3,706.3,272.3z"/>
		<path class="st20" d="M196.1,469.3c-6.2-5.3-11.2-9.7-17.5-15.1c69.2-82,138-163.5,207.3-245.7c6,5,11.3,9.5,17.6,14.8
			C334.3,305.3,265.5,386.9,196.1,469.3z"/>
		<path class="st20" d="M254.9,768.8c-0.1,16-13.4,29.1-29.4,29c-16.4-0.1-29-12.9-28.9-29.3c0.1-15.9,13.6-29.5,29.2-29.4
			C241.2,739.2,255,753.3,254.9,768.8z"/>
	</g>
</g>
<g id="Discapacitados" class="st1">
	<g id="tZBNas_1_" class="st2">
		<g>
			<path class="st10" d="M486,417.2c5.2,0,9.7,0,14.2,0c32.4,0,64.8-0.1,97.2,0c21,0,36.1,14.2,36.3,33.9
				c0.1,17.8-16.1,32.4-36.1,32.5c-34.7,0.1-69.3,0.1-104,0.1c-2.2,0-4.5,0-7.1,0c0,11.3,0,22,0,33.5c2.5,0,4.9,0,7.3,0
				c51.6,0,103.2,0,154.8,0c18,0,31.8,6.3,41,21.7c22.3,37.3,45,74.4,67.6,111.5c14.6,24,29.2,47.9,43.8,71.9
				c14.7,24.2,1.8,52.7-26.3,58.3c-16.8,3.4-34-4.6-43.2-19.9c-10.5-17.5-21.1-35-31.7-52.6c-0.6-1.1-1.5-2-2.3-3.2
				c-3.9,10.9-7.2,21.6-11.6,31.9c-29.1,67.2-79.5,114.3-151.4,138.4c-78.2,26.2-153.8,18.1-223.7-24.5
				c-62.4-37.9-101.1-92.4-113.5-162c-15-84.5,11-157.2,74.7-217.7c15.5-14.7,33.2-26.9,52.5-36.8c3.7-1.9,4.8-4.1,4.8-7.9
				c-0.2-24.3,0-48.7-0.1-73c-0.1-37.5,31.9-69.7,71.5-73c39.7-3.3,76.7,22.6,84.1,61.1c0.9,4.9,1.2,10,1.2,15
				C486.1,376.4,486,396.4,486,417.2z M329.2,464.7c-0.6-0.4-1.2-0.8-1.7-1.3c-10.4,7.8-21.5,14.9-31.1,23.6
				c-59.6,54.2-84.7,120.3-70.7,197.9c10.8,59.8,44.2,106.9,97.2,140.9c45.6,29.2,96.1,40.4,150.8,35c35.7-3.6,68.7-14.7,98.3-33.6
				c55-34.9,88.8-83.5,100.4-145.5c1.2-6.2,3.8-12.7-0.4-19.3c-8-12.5-15.6-25.3-23.2-38c-1.5-2.6-3.2-3.4-6.2-3.3
				c-8.1,0.2-16.2,0.1-24.3,0.1c-84.6,0-169.1,0-253.7,0c-19.5,0-35.2-14.9-35.3-33.5c-0.2-22.7,0-45.5,0-68.2
				C329.2,501.1,329.2,482.9,329.2,464.7z M357.8,469C357.8,469,357.7,469,357.8,469c0,38.1,0,76.3-0.1,114.4
				c0,8.1,2.4,10.5,11.1,10.5c85.3,0,170.6-0.1,255.9-0.1c7.5,0,15,0.2,22.5-0.1c10-0.4,17.7,1.6,23.3,11.1
				c17.1,29.4,35.1,58.4,52.7,87.5c11.3,18.6,22.5,37.2,33.9,55.7c3.6,5.8,9.8,7.4,15.4,4.4c5.1-2.7,7-9,4.3-14.6
				c-0.8-1.6-1.8-3.2-2.7-4.7C738,673.5,701.6,613.8,665.6,554c-4.3-7.1-9.5-9.5-17.7-9.4c-35.4,0.3-70.8,0.1-106.2,0.1
				c-22.6,0-45.2,0-67.8,0c-10.1,0-16.5-5.1-16.6-13.8c-0.2-20.2-0.1-40.5,0-60.7c0-5.9,3.1-10.4,8.8-12.6c2.7-1,5.9-1.1,8.8-1.1
				c39.9-0.1,79.9,0,119.8-0.1c6.6,0,10.7-2.3,10.3-6c-0.6-5.6-5.1-5.6-9.7-5.6c-40.1,0.1-80.2,0-120.3,0c-12.4,0-17.7-5.2-17.7-17
				c0-24.9,0.3-49.8-0.1-74.7c-0.5-30.6-32.2-52.5-63.1-43.9c-21.5,6-36,24-36.1,45.5C357.7,392.8,357.8,430.9,357.8,469z"/>
			<path class="st10" d="M329.1,183.8c0.1-40.9,35.5-74.2,78.7-74c42.8,0.1,78.1,33.6,78.2,74.1c0.1,41.2-35.3,75.2-78.3,75.1
				C363.8,258.9,329.1,225.6,329.1,183.8z M406.8,231.4c27.4,0.4,49.9-20.2,50.3-46.2c0.4-26.3-21.5-47.7-49.1-48
				c-27.1-0.3-49.9,20.8-50.2,46.6C357.4,209.6,379.4,231,406.8,231.4z"/>
		</g>
	</g>
</g>
<g id="Dispensador_aroma" class="st1">
	<g class="st2">
		<g>
			<path class="st4" d="M508.1,916.7H299.3c-24.5,0-44.3-19.8-44.3-44.3V127.6c0-24.5,19.8-44.3,44.3-44.3h208.8
				c24.5,0,44.3,19.8,44.3,44.3v744.9C552.4,896.9,532.5,916.7,508.1,916.7z"/>
			<path class="st4" d="M403.7,529.3L403.7,529.3c-33.6,0-60.8-27.2-60.8-60.8v-26.6c0-18.9,15.3-34.2,34.2-34.2h53.2
				c18.9,0,34.2,15.3,34.2,34.2v26.6C464.5,502.1,437.3,529.3,403.7,529.3z"/>
			<path class="st4" d="M403.7,503.4L403.7,503.4c-33.6,0-60.8-27.2-60.8-60.8l0,0c0-18.9,15.3-34.2,34.2-34.2h53.2
				c18.9,0,34.2,15.3,34.2,34.2l0,0C464.5,476.2,437.3,503.4,403.7,503.4z"/>
			<path class="st4" d="M477.4,334.4H330c-9.1,0-16.4-7.3-16.4-16.4v-55c0-9.1,7.3-16.4,16.4-16.4h147.4c9.1,0,16.4,7.3,16.4,16.4
				v55C493.8,327.1,486.5,334.4,477.4,334.4z"/>
			<line class="st4" x1="313.6" y1="840.1" x2="493.8" y2="840.1"/>
		</g>
		<path class="st4" d="M718.3,916.7h-63.9c-14.7,0-26.6-11.9-26.6-26.6V658.5c0-14.7,11.9-26.6,26.6-26.6h63.9
			c14.7,0,26.6,11.9,26.6,26.6V890C745,904.8,733,916.7,718.3,916.7z"/>
		<g>
			<circle class="st10" cx="667.2" cy="683.1" r="7.6"/>
			<circle class="st10" cx="705.6" cy="683.1" r="7.6"/>
		</g>
		<g>
			<circle class="st10" cx="667.2" cy="741.1" r="7.6"/>
			<circle class="st10" cx="705.6" cy="741.1" r="7.6"/>
		</g>
		<g>
			<circle class="st10" cx="667.2" cy="799.2" r="7.6"/>
			<circle class="st10" cx="705.6" cy="799.2" r="7.6"/>
		</g>
	</g>
</g>
<g id="asji7D_1_" class="st1">
</g>
<g>
	<g>
		<circle class="st28" cx="500" cy="494.8" r="421.1"/>
		<ellipse class="st29" cx="500" cy="494.8" rx="58.2" ry="58.2"/>
	</g>
	<line class="st30" x1="500.9" y1="607.1" x2="499.1" y2="774"/>
	<line class="st30" x1="698.2" y1="873.7" x2="698.2" y2="926.3"/>
	<line class="st30" x1="288.4" y1="863.2" x2="288.4" y2="915.9"/>
</g>
<g id="Dispensador_de_Toalla" class="st1">
	<g class="st2">
		<g>
			<polygon class="st3" points="272.5,706.2 272.5,883.3 304,928 332.2,888 360.3,928 388.5,888 416.7,928 444.9,888 473.1,928 
				501.3,888 529.5,928 557.6,888 585.8,928 614,888 642.2,928 668.9,890.1 695.6,928 727,883.3 727.5,883.3 727.5,706.2 			"/>
			<path class="st3" d="M777.8,736.4l-19-484.4c0-63.2-51.3-114.5-114.5-114.5h-288c-63.2,0-114.5,51.3-114.5,114.5L222,736.4
				c-0.5,12.4,9.4,22.8,21.9,22.8h28.4v-49.6h455v49.6h28.4C768.4,759.2,778.3,748.8,777.8,736.4z"/>
		</g>
		<path class="st3" d="M727.5,706.2h-455C374,673.6,629.4,671.3,727.5,706.2z"/>
		<line class="st3" x1="500" y1="393.4" x2="500" y2="503.2"/>
	</g>
</g>
<g id="Ensambles" class="st1">
	<g class="st2">
		<g>
			<circle class="st3" cx="134.1" cy="601.4" r="95.9"/>
			<circle class="st3" cx="134.1" cy="601.4" r="44.2"/>
		</g>
		<g>
			<circle class="st3" cx="865.9" cy="601.4" r="95.9"/>
			<circle class="st3" cx="865.9" cy="601.4" r="44.2"/>
		</g>
		<path class="st3" d="M746,545H560.7V302.6H447.9V545H253.8c11.5,15.8,18.3,35.3,18.3,56.4c0,21.1-6.8,40.6-18.3,56.4H746
			c-11.5-15.8-18.3-35.3-18.3-56.4C727.6,580.4,734.5,560.9,746,545z"/>
		<line class="st3" x1="560.7" y1="383.6" x2="447.9" y2="373.7"/>
		<line class="st3" x1="560.7" y1="357.9" x2="447.9" y2="348.1"/>
		<line class="st3" x1="560.7" y1="332.3" x2="447.9" y2="322.4"/>
	</g>
</g>
<g id="Jardineras" class="st1">
	<g class="st2">
		<g>
			<path class="st3" d="M843.8,692.5H156.2c-30,0-54.4-24.3-54.4-54.4V422c0-9.2,7.4-16.6,16.6-16.6h763.1c9.2,0,16.6,7.4,16.6,16.6
				v216.2C898.2,668.2,873.9,692.5,843.8,692.5z"/>
			<line class="st3" x1="63.2" y1="709.5" x2="936.8" y2="709.5"/>
		</g>
		<path class="st31" d="M118.3,405.3c0,0,0.3-47-30-80.1s59.3,0.7,62.4,80.1H118.3z"/>
		<path class="st31" d="M185.7,405.3c0,0,0.3-58.2-37.1-99.2s73.5,0.9,77.3,99.2H185.7z"/>
		<path class="st31" d="M266,405.3c0,0,0.2-37.4-23.8-63.7c-24-26.3,47.1,0.6,49.6,63.7H266z"/>
		<path class="st31" d="M320.5,405.3c0,0,0.3-47-30-80.1c-30.2-33.1,59.3,0.7,62.4,80.1H320.5z"/>
		<path class="st31" d="M387.9,405.3c0,0,0.3-58.2-37.1-99.2s73.5,0.9,77.3,99.2H387.9z"/>
		<path class="st31" d="M468.2,405.3c0,0,0.2-37.4-23.8-63.7c-24-26.3,47.1,0.6,49.6,63.7H468.2z"/>
		<path class="st31" d="M522.7,405.3c0,0,0.3-47-30-80.1c-30.2-33.1,59.3,0.7,62.4,80.1H522.7z"/>
		<path class="st31" d="M590,405.3c0,0,0.3-58.2-37.1-99.2c-37.5-41,73.5,0.9,77.3,99.2H590z"/>
		<path class="st31" d="M670.4,405.3c0,0,0.2-37.4-23.8-63.7c-24-26.3,47.1,0.6,49.6,63.7H670.4z"/>
		<path class="st31" d="M724.9,405.3c0,0,0.3-47-30-80.1c-30.2-33.1,59.3,0.7,62.4,80.1H724.9z"/>
		<path class="st31" d="M792.2,405.3c0,0,0.3-58.2-37.1-99.2c-37.5-41,73.5,0.9,77.3,99.2H792.2z"/>
		<path class="st31" d="M856.1,405.3c0,0,0.2-37.4-23.8-63.7c-24-26.3,47.1,0.6,49.6,63.7H856.1z"/>
		<path class="st31" d="M880.8,405.3c0,0-0.3-47,30-80.1s-59.3,0.7-62.4,80.1H880.8z"/>
		<path class="st31" d="M825.3,405.3c0,0-0.3-58.2,37.1-99.2c37.5-41-73.5,0.9-77.3,99.2H825.3z"/>
		<path class="st31" d="M745,405.3c0,0-0.2-37.4,23.8-63.7c24-26.3-47.1,0.6-49.6,63.7H745z"/>
		<path class="st31" d="M690.5,405.3c0,0-0.3-47,30-80.1s-59.3,0.7-62.4,80.1H690.5z"/>
		<path class="st31" d="M623.1,405.3c0,0-0.3-58.2,37.1-99.2c37.5-41-73.5,0.9-77.3,99.2H623.1z"/>
		<path class="st31" d="M542.8,405.3c0,0-0.2-37.4,23.8-63.7c24-26.3-47.1,0.6-49.6,63.7H542.8z"/>
		<path class="st31" d="M488.3,405.3c0,0-0.3-47,30-80.1s-59.3,0.7-62.4,80.1H488.3z"/>
		<path class="st31" d="M421,405.3c0,0-0.3-58.2,37.1-99.2s-73.5,0.9-77.3,99.2H421z"/>
		<path class="st31" d="M340.6,405.3c0,0-0.2-37.4,23.8-63.7c24-26.3-47.1,0.6-49.6,63.7H340.6z"/>
		<path class="st31" d="M286.1,405.3c0,0-0.3-47,30-80.1c30.2-33.1-59.3,0.7-62.4,80.1H286.1z"/>
		<path class="st31" d="M218.8,405.3c0,0-0.3-58.2,37.1-99.2s-73.5,0.9-77.3,99.2H218.8z"/>
		<path class="st31" d="M138.4,405.3c0,0-0.2-37.4,23.8-63.7c24-26.3-47.1,0.6-49.6,63.7H138.4z"/>
	</g>
</g>
<g id="Llave_automatica" class="st1">
	<g class="st2">
		<rect x="63" y="189.5" class="st3" width="37.3" height="331.8"/>
		<path class="st3" d="M597,412.1c7.2-7.2,7.2-19,0-26.2l-76.4-76.4v-0.3H100.3v92.7h381.6l49.6,49.6c7.2,7.2,19,7.2,26.2,0
			L597,412.1z"/>
		<g>
			<path class="st32" d="M730.9,652.9c-0.8-0.3-1.5-1-1.9-1.9c-7.8-18.4-6.8-16.7-31.3-17.9h-71.5c-7.7,0-14.4,6.6-14.8,15.3
				c-0.4,9.2,6.2,16.8,14.4,16.8h58.4c-0.5,1.4-0.9,2.8-1.4,4.2H565.6c-7.9,0-14.4,7.2-14.4,16l0,0c0,8.9,6.4,16,14.4,16h110.3
				c-0.2,1.4-0.3,2.8-0.4,4.2H550.8c-7.7,0-14.4,6.6-14.8,15.3c-0.4,9.2,6.2,16.8,14.4,16.8h127.1c0.3,1.4,0.7,2.8,1,4.2H565.6
				c-7.9,0-14.4,7.2-14.4,16l0,0c0,8.9,6.4,16,14.4,16H694c1,1.4,2.1,2.9,3.2,4.2h-97.9c-7.7,0-14.4,6.6-14.8,15.3
				c-0.4,9.2,6.2,16.8,14.4,16.8h132.2c4.9,0,9.2-2.7,11.8-6.9c41.3-22.5,63.5-16.8,63.5-16.8l-0.5-107.3c0-6.7,6,1,0,0L730.9,652.9
				z"/>
			<path class="st32" d="M833,802.5h77.4c14.7,0,26.6-11.9,26.6-26.6V669.5c0-14.7-11.9-26.6-26.6-26.6H833
				c-14.7,0-26.6,11.9-26.6,26.6v106.4C806.3,790.5,818.2,802.5,833,802.5z"/>
		</g>
		<circle class="st10" cx="573.9" cy="488.4" r="9"/>
		<circle class="st10" cx="582.9" cy="521.1" r="9"/>
		<circle class="st10" cx="591.8" cy="553.9" r="9"/>
		<circle class="st10" cx="600.8" cy="586.7" r="9"/>
		<circle class="st10" cx="600.2" cy="465.8" r="9"/>
		<circle class="st10" cx="622.9" cy="493.4" r="9"/>
		<circle class="st10" cx="645.6" cy="521.1" r="9"/>
		<circle class="st10" cx="668.3" cy="548.8" r="9"/>
		<circle class="st10" cx="626.4" cy="438.6" r="9"/>
		<circle class="st10" cx="660.1" cy="461.6" r="9"/>
		<circle class="st10" cx="693.9" cy="484.5" r="9"/>
		<circle class="st10" cx="727.6" cy="507.4" r="9"/>
	</g>
</g>
<g id="LLAVE_BIDET" class="st1">
	<g class="st2">
		<g>
			<path class="st4" d="M242.3,358.9c-1.8-12.5-13.3-21.1-25.8-19.3l-90.9,13c-12.5,1.8-21.1,13.3-19.3,25.8l9.7,67.4
				c1.8,12.5,13.3,21.1,25.8,19.3l90.9-13c12.5-1.8,21.1-13.3,19.3-25.8L242.3,358.9z"/>
			<path class="st4" d="M806.5,125H234.9l0,0c0,21.8,17.7,39.5,39.5,39.5H297c230.4,2,279.2,32.4,287.7,50.4V228v17.9
				c0,14.3,11.6,25.8,25.8,25.8c-8,0-12.4,35.3-12.4,35.3h-5.2c-4.5,0-8.2,3.7-8.2,8.2v24.2H282.2c-7.4,0-13.4,6-13.4,13.4v19.9
				h-24.5l5.2,36.1c0.9,6.6,6.6,11.5,13.2,11.5h6.1v21.3c0,6.6,4.7,12,10.9,13.2l-10.9,0.2c0,0,316,0,316,63.5v10.9v304.3
				c0,12.9,10.4,23.3,23.3,23.3h184.7c12.9,0,23.3-10.4,23.3-23.3V441.6v-88.8v-36c0-5.4-4.4-9.8-9.8-9.8h-1.8
				c-2.9,0-5.2-2.2-5.4-5.1c-1.7-23.4-14.6-30.2-14.6-30.2h5.9c14.3,0,25.8-11.6,25.8-25.8v-81.4v-30C816,129.2,811.8,125,806.5,125
				z"/>
		</g>
		<line class="st4" x1="610.5" y1="271.7" x2="784.3" y2="271.7"/>
		<line class="st4" x1="893.9" y1="875" x2="250.2" y2="875"/>
	</g>
</g>
<g id="LLAVE_FREGADERO" class="st1">
	<g id="P3Fp0C_1_" class="st2">
	</g>
	<g class="st2">
		<path class="st4" d="M562,46.5c-137.9,0-249.7,111.8-249.7,249.7v367.1l0,0c-11.6,0-21,9.4-21,21v84.5h-19.7V626.9h-23.7v141.9
			h4.6c-11.9,0-21.5,9.6-21.5,21.5v53.9c0,11.9,9.6,21.5,21.5,21.5h38.8v47.8c0,11.6,9.4,21,21,21H375c11.6,0,21-9.4,21-21V684.3
			c0-11.6-9.4-21-21-21h-7V453.4v-162l0,0c0-0.2,0-0.4,0-0.7c0-107.2,86.9-194,194-194s194,86.9,194,194c0,0.2,0,0.4,0,0.7l0,0V311
			c0,11.4,9.3,20.7,20.7,20.7H791c9.4,0,17.3-6.3,19.9-14.8c0.5-1.9,0.9-3.8,0.9-5.9v-14.8C811.8,158.3,700,46.5,562,46.5z"/>
		<line class="st4" x1="141" y1="949.7" x2="859" y2="949.7"/>
	</g>
</g>
<g id="LLAVE_TINA" class="st1">
	<g class="st2">
		<g>
			<path class="st33" d="M500,463.7c0,0-185.4-0.5-256.2,2.2c-58.5,2.3-230.2,8.9-230.2,34.9c0,26.6,142.2,36.2,190.5,37.1
				c228.5,4.4,295.9,4.4,295.9,4.4"/>
			<path class="st33" d="M501.3,849.9c0,0-307.8,5.7-376.9-40.8c0,0-1.3-54.5-5.7-72.1c-15.6-62.2-99.4-228.1-99.4-228.1 M500,463.7
				c0,0,185.4-0.5,256.2,2.2c58.6,2.3,230.2,8.9,230.2,34.9c0,26.6-142.2,36.2-190.5,37.1c-228.5,4.4-295.9,4.4-295.9,4.4"/>
			<path class="st33" d="M500,849.9c0,0,307.8,5.7,376.9-40.8c1.3-54.5,0.9-53.3,5.7-72.1c15.6-62.2,99.4-228.1,99.4-228.1"/>
		</g>
		<polygon class="st5" points="572.6,381.2 537.8,381.2 537.8,342.1 496.3,342.1 496.3,381.2 429.6,381.2 429.6,422.6 496.3,422.6 
			496.3,463.6 537.8,463.6 537.8,422.6 572.6,422.6 		"/>
		<g>
			<circle class="st5" cx="452.4" cy="303.9" r="20.2"/>
			<line class="st5" x1="452.4" y1="324.1" x2="452.4" y2="463.6"/>
		</g>
		<polyline class="st5" points="572.6,402.9 593.9,402.9 593.9,360.3 		"/>
		<path class="st5" d="M519.1,342.1V199.7c0-67.6,89.5-65.5,89.5,0"/>
	</g>
</g>
</svg>
