<svg xmlns="http://www.w3.org/2000/svg" width="165.901" height="86.748" viewBox="0 0 165.901 86.748"><defs><style>.a,.b{fill:#aeb7ba;}.b{fill-rule:evenodd;}</style></defs><g transform="translate(0)"><path class="a" d="M155.669,0V4.429h-9.7V0H138.5V4.429h-9.7V0H121.33V4.429h-9.7V0H104.16V4.429h-9.7V0H86.99V4.429h-9.7V0H69.82V4.429h-9.7V0H52.652V4.429h-9.7V0H35.483V4.429h-9.7V0H18.313V4.429h-9.7V0H0V13.466H165.9V0Z"/><path class="a" d="M10.232,352.006v-4.429h9.7v4.429H27.4v-4.429h9.7v4.429h7.474v-4.429h9.7v4.429h7.472v-4.429h9.7v4.429h7.472v-4.429h9.7v4.429h7.474v-4.429h9.693v4.429h7.474v-4.429h9.7v4.429h7.474v-4.429h9.7v4.429h7.472v-4.429h9.7v4.429H165.9V338.54H0v13.466Z" transform="translate(0 -265.259)"/><path class="b" d="M728.531,186.74v1.476h.613a1.42,1.42,0,0,0,.8-.173.615.615,0,0,0,.255-.545.649.649,0,0,0-.273-.574,1.515,1.515,0,0,0-.842-.184Zm-1.247-.788h2a2.936,2.936,0,0,1,1.632.37,1.227,1.227,0,0,1,.55,1.1,1.316,1.316,0,0,1-.294.866,1.515,1.515,0,0,1-.825.489l1.145,2.284h-1.385l-.963-2.1h-.613v2.091h-1.247Zm1.914-1.206a3.777,3.777,0,0,0-1.461.277,3.566,3.566,0,0,0-1.212.812,3.939,3.939,0,0,0-.866,1.281,3.766,3.766,0,0,0,.805,4.158,3.9,3.9,0,0,0,1.255.866,3.753,3.753,0,0,0,2.909,0,4.137,4.137,0,0,0,1.281-.838,3.68,3.68,0,0,0,.836-1.21,3.627,3.627,0,0,0,.3-1.437,4.014,4.014,0,0,0-.279-1.515,3.68,3.68,0,0,0-.816-1.245,3.775,3.775,0,0,0-1.255-.866,3.9,3.9,0,0,0-1.491-.288m-.013-.762a4.52,4.52,0,0,1,1.794.359,4.576,4.576,0,0,1,1.515,1.026,4.441,4.441,0,0,1,.97,1.474,4.777,4.777,0,0,1-.013,3.539,4.291,4.291,0,0,1-1.007,1.472,4.663,4.663,0,0,1-1.515,1,4.574,4.574,0,0,1-1.745.344,4.47,4.47,0,0,1-1.764-.357,4.66,4.66,0,0,1-1.5-1.033,4.55,4.55,0,0,1-1.149-4.431,4.848,4.848,0,0,1,.5-1.171,4.414,4.414,0,0,1,1.654-1.632,4.479,4.479,0,0,1,2.271-.584" transform="translate(-570.056 -165.983)"/><path class="b" d="M46.539,236.185v21.6h.325a1.825,1.825,0,0,0,1.316-.383,1.755,1.755,0,0,0,.383-1.275v-18.2a1.782,1.782,0,0,0-.4-1.377,2.723,2.723,0,0,0-1.619-.364M40.61,262.022V232.15h6.966q3.805,0,5.386,1.66t1.58,5.689V254.63q0,4.031-1.7,5.708t-5.669,1.682Z" transform="translate(-34.125 -203.726)"/><path class="b" d="M126.933,232.18v22.861q0,4.169-1.619,5.931t-5.347,1.743q-3.745,0-5.366-1.743t-1.6-5.931V232.18h5.933v24.56a1.965,1.965,0,0,0,.245,1.115.9.9,0,0,0,.788.342.866.866,0,0,0,.771-.323,2.19,2.19,0,0,0,.216-1.134V232.18Z" transform="translate(-90.844 -203.75)"/><path class="b" d="M175.507,161.205V135.572H171.68V131.34h13.607v4.232h-3.868v25.634Z" transform="translate(-134.518 -102.91)"/><path class="b" d="M249.893,262.045V250.727L245.38,232.18h6.135l1.082,6.8q.2,1.258.325,2.453t.18,2.368h.245q.182-1.582.323-2.775t.305-2l1.195-6.842h5.3l-4.637,18.547v11.319Z" transform="translate(-194.57 -203.75)"/><path class="b" d="M355.646,262.022,352.67,232.15h5.994l.708,11.4q.1,1.5.162,3.3t.182,5.16h.2q.139-2,.281-3.745t.3-2.957l1.561-13.159h6.319l1.234,14.092c.013.229.074,1.007.182,2.327s.2,2.459.284,3.442h.2q.082-2.468.182-4.576t.264-4.061l.931-11.217h5l-3.219,29.872H366.56l-1.5-16.018c-.054-.565-.106-1.221-.16-1.963s-.082-1.732-.123-2.916h-.216l-2.108,20.9Z" transform="translate(-278.635 -203.726)"/><path class="b" d="M470.059,236.895q0-4.169,1.619-5.933t5.347-1.781q3.725,0,5.345,1.762t1.621,5.953v15.754q0,4.189-1.621,5.953t-5.345,1.762q-3.747,0-5.366-1.762t-1.6-5.953Zm5.974-2v19.5a2.231,2.231,0,0,0,.216,1.134.9.9,0,0,0,.768.323.866.866,0,0,0,.79-.344,1.935,1.935,0,0,0,.245-1.113v-19.5a1.891,1.891,0,0,0-.245-1.113.9.9,0,0,0-.79-.325.866.866,0,0,0-.768.344,2.058,2.058,0,0,0-.216,1.093" transform="translate(-370.614 -201.399)"/><path class="b" d="M550.615,242.394v-4.762a1.758,1.758,0,0,0-.4-1.357,2.523,2.523,0,0,0-1.578-.344v8.161h.323a1.823,1.823,0,0,0,1.3-.364,1.89,1.89,0,0,0,.364-1.336m-7.957,19.62V232.14h6.966q3.643,0,5.284,1.3a4.928,4.928,0,0,1,1.641,4.113v3.139a5.135,5.135,0,0,1-1.154,3.6,4.8,4.8,0,0,1-3.444,1.377v.162a5.117,5.117,0,0,1,3.565,1.275,5.6,5.6,0,0,1,1.033,3.747v7.594a12.15,12.15,0,0,0,.143,1.842,11.226,11.226,0,0,0,.4,1.721H551.2a9.594,9.594,0,0,1-.433-1.7,13.35,13.35,0,0,1-.143-2.026V250.7a3.048,3.048,0,0,0-.485-1.883,1.641,1.641,0,0,0-1.418-.649h-.08v13.854Z" transform="translate(-427.499 -203.718)"/><path class="b" d="M603.47,161.205V131.34h5.974V144.5h.08l2.957-13.161h5.708l-3.684,12.371,3.725,17.495H612.3l-2.773-15.388h-.08v15.388Z" transform="translate(-472.841 -102.91)"/><path class="b" d="M683.694,235.233a5.55,5.55,0,0,1,1.823-4.433,7.624,7.624,0,0,1,5.143-1.58,7.456,7.456,0,0,1,5.121,1.6,5.763,5.763,0,0,1,1.8,4.535v4.881h-5.933v-5.314a2.069,2.069,0,0,0-.216-1.113.866.866,0,0,0-.771-.325.92.92,0,0,0-.81.344,2.055,2.055,0,0,0-.216,1.093v2.654a3.826,3.826,0,0,0,.162,1.171,3.339,3.339,0,0,0,.565.952l5.73,6.3a5.374,5.374,0,0,1,1.154,1.844,10.088,10.088,0,0,1,.344,3.1v3.481a5.516,5.516,0,0,1-1.823,4.435,7.608,7.608,0,0,1-5.143,1.539,7.449,7.449,0,0,1-5.2-1.621,6.04,6.04,0,0,1-1.732-4.779v-5.587h5.933v6.013a2.1,2.1,0,0,0,.216,1.113.916.916,0,0,0,.81.344.84.84,0,0,0,.749-.323,2.015,2.015,0,0,0,.242-1.134v-3.158a2.906,2.906,0,0,0-.242-1.195,4.264,4.264,0,0,0-.79-1.214l-5.386-6.1a6.277,6.277,0,0,1-1.195-1.864,7.6,7.6,0,0,1-.344-2.53v-3.13Z" transform="translate(-538.002 -201.43)"/></g></svg>