<svg xmlns="http://www.w3.org/2000/svg" xmlns:xlink="http://www.w3.org/1999/xlink" width="288.319" height="91.05" viewBox="0 0 288.319 91.05"><defs><style>.a{fill:none;}.b{clip-path:url(#a);}.c,.d{fill:#aeb7ba;}.c{fill-rule:evenodd;}</style><clipPath id="a"><rect class="a" width="288.319" height="91.05" transform="translate(-57.79 -56.91)"/></clipPath></defs><g class="b" transform="translate(57.79 56.91)"><path class="c" d="M185.438,397.135a41.02,41.02,0,0,1-11.72,1.393c-8.015,0-17.418-4.015-17.418-15.42s8.015-15.878,19.115-15.878c2.008,0,6.307.152,9.25,1.388v6.627a19.1,19.1,0,0,0-8.015-2c-6.633,0-12.025,2.775-12.025,9.865,0,5.86,4.315,9.56,10.175,9.56a8.278,8.278,0,0,0,2.927-.615V386.03h-4.767v-5.7h12.488v16.818" transform="translate(-144.557 -394.23)"/><path class="c" d="M143.15.88h21.275V6.74h-13.26v6.165h12.488v5.7H151.165v6.938h13.723v5.708H143.15Z" transform="translate(-95.331 -27.417)"/><path class="c" d="M286.036,385.685h2.475c2.775,0,6.013.31,6.013,3.548,0,3.08-3.08,3.542-6.013,3.542h-2.465v-7.09M278,398.483h12.8c5.392,0,11.72-1.545,11.72-8.793,0-3.679-2.008-5.855-6.17-6.628v-.152c3.39-1.083,5.392-3.238,5.392-7.09,0-5.093-4.157-7.71-9.865-7.71H278Zm8.02-24.518h2.313c2.775,0,5.4.158,5.4,2.933,0,2.628-2.775,3.238-5.4,3.238H286.02Z" transform="translate(-202.294 -394.647)"/><path class="c" d="M254.03.88h21.428V6.74H262.2v6.165H274.69v5.7H262.2v6.938H275.92v5.708H254.03Z" transform="translate(-147.936 -27.417)"/><path class="c" d="M397.087,373.965H399.1c3.085,0,6.013.468,6.013,3.238,0,3.553-3.4,3.553-6.013,3.553h-2.008v-6.79m-8.167,24.518h8.167V386.447h1.7c2.927,0,4.01,1.393,5.55,6.633l1.85,5.4h8.325l-2.948-8.167c-1.54-3.679-1.692-6.013-4.315-6.785,4.01-.925,5.86-3.679,5.86-7.7,0-5.256-4.315-7.71-9.713-7.71H388.92Z" transform="translate(-254.918 -394.647)"/><rect class="d" width="8.173" height="30.373" transform="translate(164.68 -26.537)"/><path class="c" d="M396.813,6.893H389.26V.88h22.973V6.893h-7.4v24.36h-8.02Z" transform="translate(-212.092 -27.417)"/><rect class="d" width="30.373" height="30.373" transform="translate(-27.417 -26.537)"/></g></svg>