<svg xmlns="http://www.w3.org/2000/svg" width="243.059" height="63.792" viewBox="0 0 243.059 63.792"><defs><style>.a{fill:#aeb7ba;}.b{fill:#f3f3f3;}</style></defs><g transform="translate(0 0)"><path class="a" d="M403.271,244.285Q296.09,253.842,183,244.2V190.1q113.086-9.649,220.271-.1Z" transform="translate(-183 -185.25)"/><path class="b" d="M140.87,41.37h27.743v8.5h-17.54V66.3h18.094v8.682h-28.3Z" transform="translate(-88.851 -26.093)"/><path class="b" d="M43.5,41.37H53.84V52.913h9.693V41.37H73.78V74.981H63.533V61.5H53.84V74.981H43.5Z" transform="translate(-27.437 -26.093)"/><path class="b" d="M368.706,259.38v7.755H353.75Q360.751,260.167,368.706,259.38Z" transform="translate(-290.697 -232.006)"/><path class="b" d="M230.25,41.37h10.34V66.207h12.186v8.774H230.25Z" transform="translate(-145.225 -26.093)"/><path class="b" d="M280.75,41.37h10.594l5.469,19.852,5.469-19.852h10.41L302.6,74.981H290.842Z" transform="translate(-177.077 -26.093)"/><path class="b" d="M374.8,41.37h27.743v8.5H385V66.3H403.1v8.682H374.8Z" transform="translate(-236.397 -26.093)"/><path class="b" d="M602.635,259.38v7.755H587.68Q594.689,260.167,602.635,259.38Z" transform="translate(-438.243 -232.006)"/><path class="b" d="M641.267,226.62h12.027c2.1,3.659,5.018,8.752,5.077,8.951.059-.2,2.954-5.292,5.078-8.951h11.473L664,242.314,676.1,259.995v.222H663.541c-2.09-3.634-5.654-9.841-5.716-10.063-.063.222-3.626,6.429-5.716,10.063H640v-.085L652.186,242.3Z" transform="translate(-471.243 -211.343)"/><path class="a" d="M803.045,201.945c-.048-.875-.1-1.928-.092-2.71h-.03c-.2.739-.447,1.529-.739,2.4l-1.049,3.072h-.587l-.971-2.973c-.284-.879-.524-1.684-.694-2.426h-.018c0,.783-.059,1.846-.111,2.781l-.155,2.7h-.738l.406-6.278.982-.022,1.023,3.017c.251.768.458,1.455.609,2.1h.026c.148-.635.369-1.329.624-2.127l1.06-3.061.982-.018.369,6.278H803.2Z" transform="translate(-570.809 -193.544)"/><path class="a" d="M819.606,212.978a.55.55,0,0,1,.528-.6.524.524,0,0,1,.524.58.55.55,0,0,1-.528.6.532.532,0,0,1-.524-.58Z" transform="translate(-584.524 -202.362)"/><path class="a" d="M826,198.072a7.682,7.682,0,0,1,1.477-.162,2.415,2.415,0,0,1,1.728.476,1.577,1.577,0,0,1,.473,1.185,1.684,1.684,0,0,1-1.108,1.625v.03a1.512,1.512,0,0,1,.879,1.248,10,10,0,0,0,.465,1.713l-.8.018a8.2,8.2,0,0,1-.4-1.477c-.177-.864-.5-1.182-1.2-1.2h-.739v2.722h-.772Zm.775,2.843h.79a1.212,1.212,0,0,0,1.344-1.222c0-.809-.561-1.152-1.374-1.145a2.989,2.989,0,0,0-.764.092Z" transform="translate(-588.558 -193.235)"/><path class="a" d="M838.345,212.538a.55.55,0,0,1,.528-.6.524.524,0,0,1,.524.576.547.547,0,0,1-.532.6.521.521,0,0,1-.521-.576Z" transform="translate(-596.342 -202.084)"/></g></svg>