<svg xmlns="http://www.w3.org/2000/svg" width="221" height="65.969" viewBox="0 0 221 65.969"><defs><style>.a{fill:#b8bfc2;}</style></defs><g transform="translate(-37.438 -229.424)"><g transform="translate(37.437 229.545)"><path class="a" d="M46.313,301.864h5.5l-3.607,16.968a13.415,13.415,0,0,1,10.465-4.807c3.069,0,7.234,1.1,8.167,4.635.329,1.157.441,2.549-.458,6.773L62.515,343.62H56.955l3.654-17.2c.556-2.6,1.75-8.221-4.505-8.221a9.665,9.665,0,0,0-7.657,3.88c-1.272,1.615-1.851,4.341-2.233,6.134L42.941,343.62h-5.5Z" transform="translate(-37.437 -301.864)"/></g><g transform="translate(66.992 242.431)"><path class="a" d="M151.641,293.184l-6.009,10.722h-5.221L146.7,292.9l-5.529-28.663h5.7l3.92,22.7,13.135-22.7h5.489Z" transform="translate(-140.411 -264.236)"/></g><g transform="translate(88.79 241.822)"><path class="a" d="M236.545,283.305c1.43-1.5,2.536-3.072,3.623-8.337.752-3.65.395-5.733-.7-7.24a6.6,6.6,0,0,0-5.534-2.549c-6.674,0-9,6.951-9.765,10.658-.918,4.458-.842,10.363,5.6,10.363a8.734,8.734,0,0,0,6.769-2.894m-14.29,9.729c-.445,3.244.4,5.676,5.4,5.676,7.348,0,8.59-5.5,10.214-13.375-3.232,4.808-8.586,4.921-10.266,4.921-2.584,0-6.165-.579-7.9-3.591-1.81-2.95-1.793-6.834-.994-10.717,2.026-9.845,8.623-14.649,15.521-14.649,5.666,0,7.145,2.895,7.959,4.4l.879-4h5.1l-1.2,5.274-3.8,18.183c-1.441,7.007-2.251,9.845-3.823,12.048-3.311,4.631-8.929,5.214-12.8,5.214-11.272,0-10.491-5.447-9.9-9.387Z" transform="translate(-216.36 -261.299)"/></g><g transform="translate(118.88 241.477)"><path class="a" d="M333.362,325.2c3.989,0,9.152-2.955,10.958-11.7,1.491-7.245-.976-11.059-5.927-11.059-3.372,0-9.277,2.2-11.154,11.292-1.231,5.966.108,11.466,6.123,11.466m5.851-26.754c11.3,0,11.94,9.15,10.692,15.228-1.758,8.515-7.88,15.578-17.5,15.578-9.326,0-12.506-6.657-10.748-15.172,1.48-7.18,6.484-15.634,17.552-15.634" transform="translate(-321.199 -298.446)"/></g><g transform="translate(146.637 229.545)"><path class="a" d="M426.6,301.864h5.333l-8.7,41.756h-5.33Z" transform="translate(-417.907 -301.864)"/></g><g transform="translate(156.426 241.477)"><path class="a" d="M473.548,311.288c.637-2.782,1.331-8.57-5.244-8.57-3.46,0-8.1,2.142-9.547,8.57Zm-15.815,3.823c-1.365,6.022.145,10.481,5.981,10.481a8.02,8.02,0,0,0,7.943-6.022h5.328a12.656,12.656,0,0,1-3.7,6.083,15.027,15.027,0,0,1-10.609,3.879c-8.96,0-12.026-5.677-10.111-14.882,1.19-5.738,3.311-10.485,8.454-13.669a15.487,15.487,0,0,1,8.21-2.142c12.757,0,10.075,11.521,8.973,16.273Z" transform="translate(-452.014 -298.838)"/></g><g transform="translate(183.969 234.293)"><path class="a" d="M548.8,308.269h4.942l1.238-6.083,5.521-1.736-1.6,7.819h6.218l-.814,4h-6.219L554.534,329.7c-.294,1.447-.79,3.884,2.931,3.884a11.876,11.876,0,0,0,2.56-.294l-.864,4.229a25.527,25.527,0,0,1-4.4.35c-4.773,0-6.756-1.451-5.787-6.2l3.951-19.4H547.98Z" transform="translate(-547.98 -300.45)"/></g><g transform="translate(197.724 235.537)"><path class="a" d="M597.85,411.408h.581c.181,0,.523,0,.523-.406,0-.423-.328-.423-.523-.423h-.581Zm-.367-1.145h.948c.194,0,.9,0,.9.674a.634.634,0,0,1-.5.639c.276.064.367.186.411.514a3.734,3.734,0,0,0,.158.843h-.383a3.388,3.388,0,0,1-.129-.7c-.039-.411-.145-.514-.579-.514h-.46v1.21h-.367Zm-1.283,1.352a2.187,2.187,0,1,0,2.19-2.19,2.2,2.2,0,0,0-2.19,2.19m4.672,0a2.484,2.484,0,1,1-2.482-2.48,2.489,2.489,0,0,1,2.482,2.48" transform="translate(-595.904 -409.135)"/></g><g transform="translate(208.86 229.424)"><path class="a" d="M681.085,343.128H637.631a2.791,2.791,0,0,1-2.794-2.783l-.13-36.555A2.75,2.75,0,0,1,637.341,301h43.612a2.7,2.7,0,0,1,2.8,2.782l.125,36.555a2.792,2.792,0,0,1-2.791,2.787m-43.744-40.966a1.614,1.614,0,0,0-1.464,1.624L636,340.341a1.627,1.627,0,0,0,1.631,1.62h43.455a1.623,1.623,0,0,0,1.624-1.62l-.125-36.551a1.548,1.548,0,0,0-1.63-1.629H637.341" transform="translate(-634.706 -301.004)"/></g><g transform="translate(231.48 236.099)"><rect class="a" width="2.704" height="29.837" transform="translate(0 0)"/></g><g transform="translate(219.203 238.159)"><path class="a" d="M672.928,406.477a2.186,2.186,0,1,1,2.183-2.186,2.187,2.187,0,0,1-2.183,2.186" transform="translate(-670.74 -402.105)"/></g><g transform="translate(243.511 238.159)"><path class="a" d="M757.617,406.477a2.186,2.186,0,1,1,2.188-2.186,2.187,2.187,0,0,1-2.188,2.186" transform="translate(-755.433 -402.105)"/></g><g transform="translate(212.865 235.787)"><path class="a" d="M653.057,350.643c-.053,0-.106,0-.161-.008a1.2,1.2,0,0,1-1.152-1.245l.952-8.916-3.24-.449,4.574-10.847-5.237-7.313a.872.872,0,0,1,.283-1.2,1.029,1.029,0,0,1,.59-.195.768.768,0,0,1,.641.311l5.05,7.041,3.1.281,5.274-6.691a.764.764,0,0,1,.614-.285.989.989,0,0,1,.62.225.88.88,0,0,1,.231,1.214l-5.694,7.223,1.521,11.824-1.346-.181,2.167,7.72a1.214,1.214,0,0,1-.936,1.426,1.509,1.509,0,0,1-.393.052,1.143,1.143,0,0,1-1.139-.782l-2.463-8.8-1.685-.229-.946,8.843a1.178,1.178,0,0,1-1.23.98" transform="translate(-648.657 -320.468)"/></g><g transform="translate(235.701 235.485)"><path class="a" d="M741.594,350.665h-.026a1.213,1.213,0,0,1-1.257-1.162l.209-10.484-1.708.207-3.541,10.6a1.136,1.136,0,0,1-1.115.734,1.4,1.4,0,0,1-.453-.073,1.212,1.212,0,0,1-.866-1.465l4.034-12.065-.827-6.895-7.577-6.826a.877.877,0,0,1,.017-1.235.987.987,0,0,1,.726-.341.742.742,0,0,1,.5.19l6.838,6.16,3.772-.432,5.248-7.192a.764.764,0,0,1,.637-.311,1.015,1.015,0,0,1,.594.2.883.883,0,0,1,.271,1.209l-5.332,7.309,1.272,9.5.073.38-.218,10.879a1.214,1.214,0,0,1-1.274,1.118" transform="translate(-728.222 -320.076)"/></g><g transform="translate(127.655 278.9)"><path class="a" d="M359.517,243.344H357.8l1.127-5.318c.173-.8.54-2.536-1.391-2.536a3,3,0,0,0-2.367,1.2,5,5,0,0,0-.687,1.9l-1.011,4.761h-1.7l2.739-12.9h1.7l-1.112,5.244a4.134,4.134,0,0,1,3.231-1.487c.948,0,2.235.337,2.521,1.43a4.168,4.168,0,0,1-.141,2.095l-1.194,5.616" transform="translate(-351.772 -230.445)"/></g><g transform="translate(137.185 282.819)"><path class="a" d="M386.711,230.991h-1.737l2.091-3.434-1.836-8.942h1.9l1.3,7.084,4.365-7.084h1.827l-5.91,9.033Z" transform="translate(-384.974 -218.614)"/></g><g transform="translate(145.075 282.693)"><path class="a" d="M415.717,230.622c-3.594,0-3.348-1.68-3.158-2.9h1.788c-.142,1,.13,1.75,1.722,1.75,2.342,0,2.737-1.693,3.255-4.126a3.863,3.863,0,0,1-3.274,1.516,2.81,2.81,0,0,1-2.518-1.105,4.464,4.464,0,0,1-.317-3.309c.648-3.041,2.754-4.527,4.953-4.527a2.455,2.455,0,0,1,2.536,1.361l.281-1.235h1.629l-.385,1.629-1.209,5.616c-.459,2.164-.717,3.04-1.223,3.719a4.829,4.829,0,0,1-4.078,1.611m2.354-11.5c-2.129,0-2.868,2.147-3.112,3.3-.3,1.374-.27,3.2,1.786,3.2a2.836,2.836,0,0,0,2.16-.894,4.421,4.421,0,0,0,1.151-2.58,2.584,2.584,0,0,0-.222-2.234,2.124,2.124,0,0,0-1.763-.79" transform="translate(-412.467 -217.922)"/></g><g transform="translate(155.099 278.917)"><path class="a" d="M449.072,243.327h-1.681l1.909-8.981h1.681l-1.909,8.981m2.506-11.033H449.56l.391-1.849h2.02Z" transform="translate(-447.391 -230.445)"/></g><g transform="translate(158.816 282.59)"><path class="a" d="M463.7,238.99c-2.823,0-3.793-1.754-3.19-4.6a5.926,5.926,0,0,1,2.669-4.225,5.009,5.009,0,0,1,2.593-.656c4.024,0,3.179,3.555,2.829,5.024h-6.456c-.429,1.861.041,3.235,1.886,3.235a2.527,2.527,0,0,0,2.51-1.862h1.68a3.861,3.861,0,0,1-1.171,1.879,4.779,4.779,0,0,1-3.35,1.2m1.782-8.28a3.109,3.109,0,0,0-3.015,2.647h4.67c.2-.86.419-2.647-1.655-2.647" transform="translate(-460.342 -229.513)"/></g><g transform="translate(167.37 282.641)"><path class="a" d="M497.962,239.6h-1.718l1.212-5.707a1.8,1.8,0,0,0-.156-1.542,1.882,1.882,0,0,0-1.46-.6,3.086,3.086,0,0,0-2.913,2.683l-1.1,5.171h-1.683l1.687-7.944.2-1.037h1.682l-.291,1.448a3.782,3.782,0,0,1,3.227-1.625c.808,0,3.193.3,2.6,3.058l-1.3,6.1" transform="translate(-490.144 -230.445)"/></g><g transform="translate(177.009 282.59)"><path class="a" d="M527.09,238.99c-2.825,0-3.8-1.754-3.188-4.6a5.928,5.928,0,0,1,2.666-4.225,5.009,5.009,0,0,1,2.591-.656c4.026,0,3.177,3.555,2.83,5.024h-6.454c-.436,1.861.044,3.235,1.886,3.235a2.521,2.521,0,0,0,2.505-1.862h1.683a3.874,3.874,0,0,1-1.171,1.879,4.776,4.776,0,0,1-3.348,1.2m1.776-8.28a3.11,3.11,0,0,0-3.011,2.647h4.666c.206-.86.423-2.647-1.655-2.647" transform="translate(-523.729 -229.513)"/></g><g transform="translate(192.447 282.603)"><path class="a" d="M580.493,239.019c-1.825,0-3.367-.752-2.885-2.92h1.767c-.161.683-.009,1.633,1.62,1.633a2.215,2.215,0,0,0,1.7-.574,1.774,1.774,0,0,0,.467-.843c.186-.877-.41-1.032-1.685-1.339-1.786-.432-3.279-.808-2.884-2.683.351-1.646,2.012-2.721,4.084-2.721,1.127,0,2.635.324,2.942,1.4a2.713,2.713,0,0,1-.043,1.305h-1.717c.341-1.357-.815-1.465-1.423-1.465-.25,0-1.825,0-2.1,1.287-.175.825.588,1.019,1.026,1.144,2.361.592,2.868.735,3.3,1.236a1.914,1.914,0,0,1,.328,1.667,3.586,3.586,0,0,1-1.7,2.268,5.741,5.741,0,0,1-2.791.609" transform="translate(-577.518 -229.572)"/></g><g transform="translate(200.496 282.589)"><path class="a" d="M609.128,238.9c-2.968,0-3.979-2.056-3.417-4.687.471-2.221,2.06-4.825,5.586-4.825,3.6,0,3.8,2.821,3.4,4.7a5.657,5.657,0,0,1-5.571,4.812m1.908-8.282c-1.074,0-2.955.679-3.549,3.486-.393,1.844.032,3.543,1.949,3.543,1.27,0,2.911-.911,3.486-3.611.477-2.238-.314-3.418-1.886-3.418" transform="translate(-605.562 -229.392)"/></g><g transform="translate(214.415 291.799) rotate(180)"><path class="a" d="M2.739,0H4.417L1.676,12.9H0Z" transform="translate(0)"/></g><g transform="translate(213.949 282.819)"><path class="a" d="M655.136,239.211c-2.219,0-2.985-1.27-2.61-3.036l1.279-6.031h1.719l-1.227,5.78c-.186.877-.225,1.987,1.49,1.987a3.038,3.038,0,0,0,2.324-1,3.51,3.51,0,0,0,.734-1.686l1.078-5.079h1.739l-1.555,7.3c-.039.177-.216,1.18-.3,1.681h-1.755l.292-1.538a3.606,3.606,0,0,1-3.208,1.624" transform="translate(-652.435 -230.144)"/></g><g transform="translate(223.456 280.369)"><path class="a" d="M687.742,241.563c-1.538,0-2.178-.449-1.864-1.918l1.272-5.987h-1.592l.262-1.236h1.594l.4-1.883,1.776-.531-.512,2.414h2l-.264,1.236h-2l-1.143,5.382c-.1.445-.257,1.2.944,1.2a4.407,4.407,0,0,0,.821-.086l-.277,1.3a8.525,8.525,0,0,1-1.417.108" transform="translate(-685.558 -230.008)"/></g><g transform="translate(227.812 278.917)"><path class="a" d="M702.417,243.327h-1.681l1.909-8.981h1.681l-1.909,8.981m2.505-11.033H702.9l.4-1.849h2.017Z" transform="translate(-700.736 -230.445)"/></g><g transform="translate(231.547 282.589)"><path class="a" d="M717.32,238.9c-2.972,0-3.98-2.056-3.423-4.687.473-2.221,2.063-4.825,5.588-4.825,3.6,0,3.8,2.821,3.4,4.7a5.658,5.658,0,0,1-5.567,4.812m1.9-8.282c-1.074,0-2.953.679-3.549,3.486-.393,1.844.035,3.543,1.948,3.543,1.27,0,2.912-.911,3.486-3.611.475-2.238-.311-3.418-1.885-3.418" transform="translate(-713.751 -229.392)"/></g><g transform="translate(241.066 282.641)"><path class="a" d="M754.734,239.6h-1.718l1.212-5.707a1.8,1.8,0,0,0-.158-1.542,1.882,1.882,0,0,0-1.463-.6,3.086,3.086,0,0,0-2.911,2.683l-1.1,5.171h-1.685l1.689-7.944.2-1.037h1.68l-.291,1.448a3.777,3.777,0,0,1,3.227-1.625c.806,0,3.195.3,2.607,3.058l-1.3,6.1" transform="translate(-746.914 -230.445)"/></g><g transform="translate(250.273 282.603)"><path class="a" d="M781.969,239.019c-1.825,0-3.363-.752-2.888-2.92h1.773c-.162.683,0,1.633,1.617,1.633a2.218,2.218,0,0,0,1.7-.574,1.775,1.775,0,0,0,.466-.843c.182-.877-.408-1.032-1.685-1.339-1.786-.432-3.284-.808-2.884-2.683.353-1.646,2.011-2.721,4.085-2.721,1.127,0,2.633.324,2.942,1.4a2.746,2.746,0,0,1-.045,1.305h-1.717c.342-1.357-.814-1.465-1.426-1.465-.249,0-1.821,0-2.1,1.287-.173.825.588,1.019,1.028,1.144,2.361.592,2.867.735,3.3,1.236a1.892,1.892,0,0,1,.324,1.667,3.576,3.576,0,0,1-1.7,2.268,5.77,5.77,0,0,1-2.8.609" transform="translate(-778.994 -229.572)"/></g></g></svg>