<svg id="Capa_1" data-name="Capa 1" xmlns="http://www.w3.org/2000/svg" viewBox="0 0 206.44 77.99"><defs><style>.cls-1{fill:#1d3c4e;}.cls-2{fill:#316582;}.cls-3{fill:#e30613;}</style></defs><path class="cls-1" d="M72.74,10.86h4.82l3.93,6.37,3.93-6.37h4.82V27.33H85.7V17.87l-4.21,6.45h-.1l-4.18-6.4v9.41H72.74Z"/><path class="cls-1" d="M93,20.1V10.86h4.64V20c0,2.38,1.2,3.51,3,3.51s3-1.09,3-3.39V10.86h4.63V20c0,5.31-3,7.64-7.71,7.64S93,25.26,93,20.1Z"/><path class="cls-1" d="M111,10.86h13.24v3.88h-8.73v2.49h7.91v3.6h-7.91v2.61h8.85v3.89H111Z"/><path class="cls-1" d="M126.71,10.86h8.44a6.12,6.12,0,0,1,4.5,1.48,3.64,3.64,0,0,1,1,2.66v.05a3.82,3.82,0,0,1-2.54,3.67c2,.65,3.27,1.78,3.27,4v.05c0,2.82-2.3,4.54-6.23,4.54h-8.49ZM134,17.42c1.39,0,2.17-.47,2.17-1.43v-.05c0-.89-.71-1.41-2.07-1.41h-3v2.89Zm.66,6.24c1.39,0,2.19-.54,2.19-1.51v0c0-.89-.71-1.48-2.23-1.48h-3.49v3Z"/><path class="cls-1" d="M143.53,10.86h4.57V23.33h8v4H143.53Z"/><path class="cls-1" d="M158,10.86h13.25v3.88h-8.73v2.49h7.91v3.6h-7.91v2.61h8.85v3.89H158Z"/><path class="cls-1" d="M172.49,24.88l2.54-3a8.48,8.48,0,0,0,5.34,2c1.22,0,1.88-.42,1.88-1.13v0c0-.69-.54-1.06-2.78-1.58-3.5-.8-6.21-1.79-6.21-5.18v0c0-3.06,2.43-5.27,6.38-5.27a10.36,10.36,0,0,1,6.77,2.18L184.13,16a8.24,8.24,0,0,0-4.61-1.63c-1.1,0-1.65.47-1.65,1.06v.05c0,.75.57,1.08,2.85,1.6,3.79.82,6.14,2.05,6.14,5.13v0c0,3.37-2.66,5.37-6.66,5.37A11.5,11.5,0,0,1,172.49,24.88Z"/><path class="cls-1" d="M73.34,34.64H80.4c4.17,0,6.85,2.14,6.85,5.79v0c0,3.88-3,5.93-7.08,5.93H77.91v4.7H73.34Zm6.73,8.19c1.63,0,2.62-.85,2.62-2.14v0c0-1.41-1-2.16-2.64-2.16H77.91v4.35Z"/><path class="cls-1" d="M90.2,32h3.41V53.77H90.2Z"/><path class="cls-2" d="M39.27,69.19c13.41,0,24.29-10.59,24.29-23.65H15C15,58.6,25.85,69.19,39.27,69.19Z"/><path class="cls-2" d="M63.56,45.54H15c0,13.06,10.88,23.65,24.3,23.65S63.56,58.6,63.56,45.54Z"/><path class="cls-2" d="M63.1,11.13H15.43c-.08,0-.14,0-.14.09V37.74s.06.09.14.09H63.1c.08,0,.14,0,.14-.09V11.22C63.24,11.17,63.18,11.13,63.1,11.13Z"/><path class="cls-1" d="M98.55,33.26h9.87c2.42,0,4.12.6,5.25,1.73a4.21,4.21,0,0,1,1.24,3.1v.06a4.48,4.48,0,0,1-3,4.29c2.34.77,3.82,2.08,3.82,4.7v0c0,3.3-2.69,5.31-7.28,5.31H98.55Zm8.55,7.66c1.62,0,2.53-.55,2.53-1.67v-.06c0-1-.82-1.65-2.42-1.65h-3.46v3.38Zm.77,7.29c1.62,0,2.56-.63,2.56-1.76V46.4c0-1-.83-1.74-2.61-1.74h-4.07v3.55Z"/><path class="cls-1" d="M126.52,33.12h5.14l8.19,19.38h-5.72l-1.4-3.44h-7.42l-1.38,3.44h-5.6Zm4.67,11.79L129,39.44l-2.17,5.47Z"/><path class="cls-1" d="M143.38,33.26h5l7.92,10.17v-4.2h5.28V52.5h-4.68l-8.22-10.56V52.5h-5.27Z"/><path class="cls-1" d="M166,42.93v0a10.37,10.37,0,0,1,20.72-.06v.06a10.37,10.37,0,0,1-20.72,0Zm15.28,0v0a5,5,0,0,0-5-5.2,4.9,4.9,0,0,0-4.86,5.14v.06a5,5,0,0,0,4.92,5.19A4.91,4.91,0,0,0,181.24,42.93Z"/><rect class="cls-1" x="153" y="33.43" width="8.54" height="3.93"/><path class="cls-3" d="M75.39,68.48H74.25v-10h1.23v3.55a2.39,2.39,0,0,1,2-1,3.12,3.12,0,0,1,1.26.26,2.65,2.65,0,0,1,1,.76,3.4,3.4,0,0,1,.6,1.17,4.71,4.71,0,0,1,.22,1.47,4.11,4.11,0,0,1-.92,2.86,2.85,2.85,0,0,1-2.2,1,2.29,2.29,0,0,1-2-1.07Zm0-3.66a3.71,3.71,0,0,0,.36,1.88,1.75,1.75,0,0,0,3,.24,3.19,3.19,0,0,0,.58-2.07,3.26,3.26,0,0,0-.56-2.09,1.71,1.71,0,0,0-2.74,0A3,3,0,0,0,75.37,64.82Z"/><path class="cls-3" d="M81.25,71.26l-.14-1.15a2.45,2.45,0,0,0,.7.11,1.34,1.34,0,0,0,.65-.13,1,1,0,0,0,.4-.38,5.8,5.8,0,0,0,.38-.91c0-.07.06-.17.11-.3l-2.74-7.23h1.32l1.5,4.18c.19.53.37,1.08.52,1.67.14-.56.31-1.11.5-1.65L86,61.27h1.23l-2.75,7.34a14.46,14.46,0,0,1-.68,1.63,2.43,2.43,0,0,1-.75.89,1.76,1.76,0,0,1-1,.28A2.42,2.42,0,0,1,81.25,71.26Z"/><path class="cls-3" d="M93,68.48h-2l2.09-10h1.95l-.75,3.54a5.2,5.2,0,0,1,1.23-.74,3.31,3.31,0,0,1,1.22-.23,1.91,1.91,0,0,1,1.39.5,1.79,1.79,0,0,1,.51,1.32,8.08,8.08,0,0,1-.19,1.35l-.89,4.21H95.71l.9-4.3a6.62,6.62,0,0,0,.14-.89.76.76,0,0,0-.22-.58.83.83,0,0,0-.61-.22,1.57,1.57,0,0,0-.94.34,3,3,0,0,0-.89,1.1,10.81,10.81,0,0,0-.45,1.69Z"/><path class="cls-3" d="M100.17,61.27h1.94l.49,3.59c.12.93.19,1.57.2,2a16.67,16.67,0,0,1,1-2.34l1.73-3.2h2.06l-4.46,7.92a10.09,10.09,0,0,1-.86,1.38,2.17,2.17,0,0,1-1.83.84,5.11,5.11,0,0,1-1.4-.22l.17-1.45a2.45,2.45,0,0,0,.69.1c.6,0,1.09-.45,1.47-1.36Z"/><path class="cls-3" d="M107.2,68.86l2.06.3a.71.71,0,0,0,.43.75,1.5,1.5,0,0,0,.62.11,1.73,1.73,0,0,0,1-.25,1.3,1.3,0,0,0,.46-.61A7.59,7.59,0,0,0,112,68l.07-.34a3.23,3.23,0,0,1-2.09.84,2.23,2.23,0,0,1-1.74-.75,3.13,3.13,0,0,1-.68-2.18,5.87,5.87,0,0,1,.46-2.33,3.57,3.57,0,0,1,1.3-1.61,3.13,3.13,0,0,1,1.71-.54,2.39,2.39,0,0,1,1.31.38,2.5,2.5,0,0,1,.93,1.07l.28-1.28h1.82l-1.25,6a19.91,19.91,0,0,1-.51,2.07,3.58,3.58,0,0,1-.48,1,2.42,2.42,0,0,1-.69.62,3.06,3.06,0,0,1-1,.35,6.59,6.59,0,0,1-1.22.11,4.16,4.16,0,0,1-2.31-.52,1.94,1.94,0,0,1-.78-1.74A1.52,1.52,0,0,1,107.2,68.86Zm2.29-3.48a1.9,1.9,0,0,0,.37,1.25,1.17,1.17,0,0,0,.93.43,1.6,1.6,0,0,0,1-.38,2.45,2.45,0,0,0,.73-1.1,4.14,4.14,0,0,0,.26-1.38,1.79,1.79,0,0,0-.42-1.24,1.24,1.24,0,0,0-.95-.47,1.36,1.36,0,0,0-1,.42,2.94,2.94,0,0,0-.73,1.27A4.14,4.14,0,0,0,109.49,65.38Z"/><path class="cls-3" d="M116.08,65.49a4.48,4.48,0,0,1,1.13-3.2,4,4,0,0,1,3-1.19,3.4,3.4,0,0,1,2.49.88,3.15,3.15,0,0,1,.89,2.37,4.46,4.46,0,0,1-1.12,3,3.77,3.77,0,0,1-3,1.27,3.92,3.92,0,0,1-1.81-.4,2.73,2.73,0,0,1-1.17-1.16A3.41,3.41,0,0,1,116.08,65.49Zm5.56-1.39a1.54,1.54,0,0,0-.41-1.12,1.39,1.39,0,0,0-1-.41,1.76,1.76,0,0,0-1.12.39,2.56,2.56,0,0,0-.76,1.13,4,4,0,0,0-.27,1.37,1.73,1.73,0,0,0,.42,1.23,1.38,1.38,0,0,0,1.06.45,1.64,1.64,0,0,0,1.34-.68A3.67,3.67,0,0,0,121.64,64.1Z"/><path class="cls-3" d="M124.28,68.48l2.09-10h1.94l-2.08,10Z"/><path class="cls-3" d="M135.18,65.48h-4.89v.18a1.62,1.62,0,0,0,.41,1.16,1.31,1.31,0,0,0,1,.44,1.65,1.65,0,0,0,1.51-1l1.75.29a3.67,3.67,0,0,1-1.36,1.58,3.58,3.58,0,0,1-1.91.52,3.17,3.17,0,0,1-2.37-.92,3.28,3.28,0,0,1-.91-2.43,4.49,4.49,0,0,1,.82-2.64,3.71,3.71,0,0,1,3.2-1.56,2.76,2.76,0,0,1,2.11.82,3.18,3.18,0,0,1,.78,2.29A5.49,5.49,0,0,1,135.18,65.48Zm-1.64-1.19c0-.08,0-.15,0-.19a1.77,1.77,0,0,0-.36-1.21,1.27,1.27,0,0,0-1-.4,1.51,1.51,0,0,0-1.08.46,2.39,2.39,0,0,0-.65,1.34Z"/><path class="cls-3" d="M136.39,62.72l.29-1.45h1l.23-1.16,2.24-1.34-.53,2.5h1.19l-.3,1.45h-1.19l-.63,3a7.57,7.57,0,0,0-.17.94.47.47,0,0,0,.14.35.84.84,0,0,0,.52.12,6.35,6.35,0,0,0,.64-.05l-.3,1.45a5.1,5.1,0,0,1-1,.1,2.36,2.36,0,0,1-1.5-.39,1.4,1.4,0,0,1-.47-1.11,10.46,10.46,0,0,1,.26-1.53l.6-2.9Z"/></svg>