<svg xmlns="http://www.w3.org/2000/svg" width="224.729" height="59.667" viewBox="0 0 224.729 59.667"><defs><style>.a{fill:#b8bfc2;}</style></defs><g transform="translate(-154.503 -126.965)"><g transform="translate(154.503 126.965)"><g transform="translate(0 0.021)"><path class="a" d="M297.365,257.363h-6.476L315.126,295l24.237-37.637h-6.476l-17.761,27.571Z" transform="translate(-290.889 -257.363)"/></g><g transform="translate(224.725 37.658) rotate(180)"><path class="a" d="M6.476,0H0L24.237,37.637,48.474,0H42L24.237,27.571Z" transform="translate(0 0)"/></g><g transform="translate(53.068 0.012)"><path class="a" d="M485.062,306.011h32.769v-5.02h-27.08V288.943h22.565v-5.02h-22.5V273.682h25.33v-5.02H485.062Z" transform="translate(-485.062 -268.662)"/></g><g transform="translate(95.327 0.31)"><path class="a" d="M635.639,268.662H629.95v37.349h31.041v-5.02H635.639Z" transform="translate(-629.95 -268.662)"/></g><g transform="translate(120.534 0)"><path class="a" d="M745.662,273.682V306.32h5.69V273.682h16.271v-5.02H728.917v5.02Z" transform="translate(-728.917 -268.662)"/></g><g transform="translate(166.38 0.31)"><rect class="a" width="5.689" height="37.349" transform="translate(0)"/></g></g><g transform="translate(154.503 177.999)"><path class="a" d="M134.271,223.738a.809.809,0,0,1,.13.009.334.334,0,0,1,.094.029.361.361,0,0,1,.083.059.924.924,0,0,1,.088.1l4.885,6.358c-.008-.1-.015-.2-.021-.3s-.009-.188-.009-.274v-5.981h1v8.444h-.571a.492.492,0,0,1-.227-.047.572.572,0,0,1-.18-.159l-4.885-6.358q.012.147.018.289c0,.094.006.181.006.259v6.016h-1v-8.444Z" transform="translate(-133.681 -223.643)"/><path class="a" d="M175.377,223.738v.931h-4.06v2.8h3.288v.9h-3.288v2.882h4.066l-.006.931h-5.2v-8.444Z" transform="translate(-159.739 -223.643)"/><path class="a" d="M195.87,223.738h.949a.417.417,0,0,1,.256.076.341.341,0,0,1,.133.195l1.744,5.869q.041.159.08.342t.074.383q.041-.2.085-.386t.1-.339l1.986-5.869a.432.432,0,0,1,.138-.186.38.38,0,0,1,.251-.085h.33a.38.38,0,0,1,.247.076.47.47,0,0,1,.142.195l1.98,5.869q.053.153.1.33t.08.365q.035-.188.071-.365t.076-.33l1.75-5.869a.365.365,0,0,1,.133-.188.388.388,0,0,1,.25-.082h.89l-2.634,8.444h-1.025l-2.139-6.44a3.554,3.554,0,0,1-.118-.424q-.03.118-.056.227t-.056.2l-2.151,6.44H198.5Z" transform="translate(-178.087 -223.643)"/><path class="a" d="M267.833,231.127a4.734,4.734,0,0,1-1.358.687,5.257,5.257,0,0,1-1.582.227,5.087,5.087,0,0,1-1.838-.315,4.05,4.05,0,0,1-1.4-.884,3.857,3.857,0,0,1-.893-1.364,4.751,4.751,0,0,1-.312-1.75,4.908,4.908,0,0,1,.3-1.762,3.9,3.9,0,0,1,.863-1.364,3.835,3.835,0,0,1,1.361-.881,4.894,4.894,0,0,1,1.791-.312,5.533,5.533,0,0,1,.931.074,4.29,4.29,0,0,1,.8.212,3.761,3.761,0,0,1,.678.336,4.168,4.168,0,0,1,.583.445l-.324.518a.336.336,0,0,1-.2.15.344.344,0,0,1-.268-.056q-.141-.083-.324-.2a2.842,2.842,0,0,0-.445-.227,3.578,3.578,0,0,0-.619-.185,4.069,4.069,0,0,0-.846-.077,3.425,3.425,0,0,0-1.29.233,2.73,2.73,0,0,0-.984.666,2.947,2.947,0,0,0-.625,1.049,4.121,4.121,0,0,0-.218,1.382,4.17,4.17,0,0,0,.227,1.423,2.982,2.982,0,0,0,.648,1.066,2.761,2.761,0,0,0,1.022.669,3.752,3.752,0,0,0,1.349.23,4.031,4.031,0,0,0,.551-.035,4.156,4.156,0,0,0,.492-.1,3.4,3.4,0,0,0,.454-.153q.218-.091.442-.209v-1.862h-1.314a.249.249,0,0,1-.18-.065.212.212,0,0,1-.068-.159v-.648h2.593Z" transform="translate(-224.199 -223.408)"/><path class="a" d="M302.621,223.738v.931h-4.06v2.8h3.288v.9h-3.288v2.882h4.066l-.006.931h-5.2v-8.444Z" transform="translate(-250.596 -223.643)"/><path class="a" d="M326.834,223.738a.811.811,0,0,1,.13.009.338.338,0,0,1,.094.029.366.366,0,0,1,.083.059.925.925,0,0,1,.088.1l4.885,6.358q-.012-.153-.021-.3c-.006-.1-.009-.188-.009-.274v-5.981h1v8.444h-.572a.491.491,0,0,1-.227-.047.574.574,0,0,1-.18-.159l-4.885-6.358q.012.147.018.289t.006.259v6.016h-1v-8.444Z" transform="translate(-271.18 -223.643)"/><path class="a" d="M367.942,223.738v.931h-4.06v2.8h3.288v.9h-3.288v2.882h4.066l-.006.931h-5.2v-8.444Z" transform="translate(-297.238 -223.643)"/><path class="a" d="M392.7,228.658v3.524h-1.137v-8.444h2.387a5.223,5.223,0,0,1,1.385.162,2.642,2.642,0,0,1,.963.469,1.876,1.876,0,0,1,.563.74,2.474,2.474,0,0,1,.183.969,2.43,2.43,0,0,1-.141.837,2.208,2.208,0,0,1-.41.7,2.5,2.5,0,0,1-.654.53,3.057,3.057,0,0,1-.875.327,1.315,1.315,0,0,1,.377.359l2.463,3.353h-1.014a.5.5,0,0,1-.46-.242l-2.192-3.017a.649.649,0,0,0-.215-.2.783.783,0,0,0-.356-.062Zm0-.831h1.2a2.888,2.888,0,0,0,.875-.121,1.792,1.792,0,0,0,.636-.342,1.416,1.416,0,0,0,.386-.527,1.72,1.72,0,0,0,.13-.678,1.349,1.349,0,0,0-.495-1.137,2.4,2.4,0,0,0-1.485-.383H392.7Z" transform="translate(-317.822 -223.643)"/><path class="a" d="M426.674,232.182h-.884a.38.38,0,0,1-.247-.077.47.47,0,0,1-.141-.195l-.79-2.039h-3.789l-.79,2.039a.413.413,0,0,1-.135.189.376.376,0,0,1-.247.083h-.884l3.376-8.444H423.3Zm-5.533-3.135h3.152l-1.326-3.435a3.723,3.723,0,0,1-.127-.354q-.062-.2-.127-.43-.059.23-.121.433a3.67,3.67,0,0,1-.127.357Z" transform="translate(-337.244 -223.643)"/><path class="a" d="M455.9,223.738v.96h-2.734v7.483h-1.137V224.7h-2.74v-.96Z" transform="translate(-359.035 -223.643)"/><rect class="a" width="1.143" height="8.444" transform="translate(99.548 0.094)"/><path class="a" d="M504.86,227.727a4.873,4.873,0,0,1-.3,1.741,3.987,3.987,0,0,1-.849,1.364,3.792,3.792,0,0,1-1.317.887,4.735,4.735,0,0,1-3.4,0,3.8,3.8,0,0,1-1.314-.887,3.987,3.987,0,0,1-.848-1.364,5.192,5.192,0,0,1,0-3.482,4.022,4.022,0,0,1,.848-1.367,3.814,3.814,0,0,1,1.314-.893,4.691,4.691,0,0,1,3.4,0,3.805,3.805,0,0,1,1.317.893,4.022,4.022,0,0,1,.849,1.367A4.874,4.874,0,0,1,504.86,227.727Zm-1.173,0a4.294,4.294,0,0,0-.212-1.4,2.958,2.958,0,0,0-.6-1.046,2.6,2.6,0,0,0-.943-.657,3.429,3.429,0,0,0-2.469,0,2.634,2.634,0,0,0-.946.657,2.932,2.932,0,0,0-.6,1.046,4.693,4.693,0,0,0,0,2.79,2.934,2.934,0,0,0,.6,1.043,2.607,2.607,0,0,0,.946.654,3.473,3.473,0,0,0,2.469,0,2.579,2.579,0,0,0,.943-.654,2.961,2.961,0,0,0,.6-1.043A4.268,4.268,0,0,0,503.687,227.727Z" transform="translate(-392.773 -223.408)"/><path class="a" d="M536.975,223.738a.81.81,0,0,1,.13.009.338.338,0,0,1,.094.029.365.365,0,0,1,.082.059.915.915,0,0,1,.088.1l4.885,6.358q-.012-.153-.021-.3c-.006-.1-.009-.188-.009-.274v-5.981h1v8.444h-.572a.491.491,0,0,1-.227-.047.575.575,0,0,1-.18-.159l-4.885-6.358q.012.147.018.289t.006.259v6.016h-1v-8.444Z" transform="translate(-421.23 -223.643)"/><path class="a" d="M595.3,232.182h-1.143V228.34H589.6v3.842h-1.143v-8.444H589.6V227.5h4.555v-3.765H595.3Z" transform="translate(-458.411 -223.643)"/><path class="a" d="M629.212,232.182h-.884a.38.38,0,0,1-.247-.077.471.471,0,0,1-.141-.195l-.79-2.039h-3.789l-.79,2.039a.415.415,0,0,1-.136.189.376.376,0,0,1-.247.083H621.3l3.376-8.444h1.155Zm-5.533-3.135h3.152l-1.326-3.435q-.065-.153-.127-.354t-.127-.43q-.059.23-.121.433a3.6,3.6,0,0,1-.127.357Z" transform="translate(-481.864 -223.643)"/><path class="a" d="M658.469,223.738a.806.806,0,0,1,.13.009.337.337,0,0,1,.094.029.364.364,0,0,1,.083.059.929.929,0,0,1,.088.1l4.885,6.358q-.012-.153-.021-.3c-.006-.1-.009-.188-.009-.274v-5.981h1v8.444h-.572a.491.491,0,0,1-.227-.047.575.575,0,0,1-.18-.159l-4.885-6.358q.012.147.018.289t.006.259v6.016h-1v-8.444Z" transform="translate(-507.981 -223.643)"/><path class="a" d="M701.692,227.963a4.759,4.759,0,0,1-.3,1.727,3.832,3.832,0,0,1-.849,1.332,3.777,3.777,0,0,1-1.317.857,4.594,4.594,0,0,1-1.7.3h-3.152v-8.444h3.152a4.594,4.594,0,0,1,1.7.3,3.755,3.755,0,0,1,1.317.86,3.86,3.86,0,0,1,.849,1.335A4.757,4.757,0,0,1,701.692,227.963Zm-1.172,0a4.236,4.236,0,0,0-.212-1.391,2.932,2.932,0,0,0-.6-1.037,2.563,2.563,0,0,0-.943-.648,3.274,3.274,0,0,0-1.238-.224h-2.009v6.594h2.009a3.273,3.273,0,0,0,1.238-.224,2.58,2.58,0,0,0,.943-.645,2.9,2.9,0,0,0,.6-1.034A4.236,4.236,0,0,0,700.519,227.963Z" transform="translate(-534.039 -223.643)"/><path class="a" d="M753.641,227.963a4.787,4.787,0,0,1-.3,1.727,3.828,3.828,0,0,1-.85,1.332,3.766,3.766,0,0,1-1.317.857,4.585,4.585,0,0,1-1.7.3h-3.151v-8.444h3.151a4.585,4.585,0,0,1,1.7.3,3.743,3.743,0,0,1,1.317.86,3.857,3.857,0,0,1,.85,1.335A4.786,4.786,0,0,1,753.641,227.963Zm-1.172,0a4.266,4.266,0,0,0-.212-1.391,2.971,2.971,0,0,0-.6-1.037,2.56,2.56,0,0,0-.944-.648,3.268,3.268,0,0,0-1.237-.224h-2.008v6.594h2.008a3.268,3.268,0,0,0,1.237-.224,2.578,2.578,0,0,0,.944-.645,2.941,2.941,0,0,0,.6-1.034A4.266,4.266,0,0,0,752.468,227.963Z" transform="translate(-571.133 -223.643)"/><path class="a" d="M783.829,228.658v3.524h-1.137v-8.444h2.387a5.221,5.221,0,0,1,1.384.162,2.636,2.636,0,0,1,.963.469,1.874,1.874,0,0,1,.563.74,2.477,2.477,0,0,1,.182.969,2.431,2.431,0,0,1-.14.837,2.226,2.226,0,0,1-.41.7,2.481,2.481,0,0,1-.653.53,3.078,3.078,0,0,1-.875.327,1.327,1.327,0,0,1,.377.359l2.462,3.353h-1.013a.5.5,0,0,1-.459-.242l-2.192-3.017a.645.645,0,0,0-.216-.2.783.783,0,0,0-.356-.062Zm0-.831h1.2a2.885,2.885,0,0,0,.875-.121,1.8,1.8,0,0,0,.637-.342,1.4,1.4,0,0,0,.385-.527,1.7,1.7,0,0,0,.13-.678,1.352,1.352,0,0,0-.494-1.137,2.4,2.4,0,0,0-1.485-.383h-1.25Z" transform="translate(-597.102 -223.643)"/><path class="a" d="M812.914,228.817v3.365h-1.143v-3.365l-3.093-5.079h1a.363.363,0,0,1,.241.073.682.682,0,0,1,.155.192l1.933,3.282c.069.138.134.266.191.386s.107.239.151.357c.042-.118.092-.237.147-.357s.117-.248.188-.386L814.612,224a.608.608,0,0,1,.147-.183.351.351,0,0,1,.241-.082h1.007Z" transform="translate(-615.658 -223.643)"/><path class="a" d="M848.354,223.738v.931h-4.06v2.8h3.287v.9h-3.287v2.882h4.066l-.006.931h-5.2v-8.444Z" transform="translate(-640.273 -223.643)"/><path class="a" d="M873.116,228.658v3.524h-1.137v-8.444h2.387a5.223,5.223,0,0,1,1.384.162,2.636,2.636,0,0,1,.963.469,1.873,1.873,0,0,1,.563.74,2.477,2.477,0,0,1,.182.969,2.43,2.43,0,0,1-.14.837,2.268,2.268,0,0,1-.41.7,2.516,2.516,0,0,1-.653.53,3.077,3.077,0,0,1-.875.327,1.328,1.328,0,0,1,.377.359l2.462,3.353H877.2a.5.5,0,0,1-.461-.242l-2.19-3.017a.645.645,0,0,0-.216-.2.782.782,0,0,0-.356-.062Zm0-.831h1.2a2.885,2.885,0,0,0,.875-.121,1.8,1.8,0,0,0,.637-.342,1.4,1.4,0,0,0,.385-.527,1.7,1.7,0,0,0,.13-.678,1.352,1.352,0,0,0-.494-1.137,2.4,2.4,0,0,0-1.485-.383h-1.25Z" transform="translate(-660.857 -223.643)"/><path class="a" d="M905.419,224.822a.425.425,0,0,1-.113.133.256.256,0,0,1-.151.044.422.422,0,0,1-.237-.1,3.945,3.945,0,0,0-.339-.221,2.645,2.645,0,0,0-.488-.221,2.1,2.1,0,0,0-.693-.1,2.016,2.016,0,0,0-.674.1,1.452,1.452,0,0,0-.49.28,1.175,1.175,0,0,0-.3.415,1.316,1.316,0,0,0-.1.516.946.946,0,0,0,.176.586,1.487,1.487,0,0,0,.459.4,3.526,3.526,0,0,0,.647.286c.243.081.49.164.743.25s.5.184.743.292a2.617,2.617,0,0,1,.647.41,1.89,1.89,0,0,1,.461.607,2.029,2.029,0,0,1,.174.884,2.851,2.851,0,0,1-.188,1.04,2.408,2.408,0,0,1-.551.846,2.587,2.587,0,0,1-.89.566,3.274,3.274,0,0,1-1.2.206,3.654,3.654,0,0,1-1.5-.3,3.511,3.511,0,0,1-1.15-.8l.331-.542a.421.421,0,0,1,.115-.109.265.265,0,0,1,.151-.044.336.336,0,0,1,.174.062q.1.062.22.156t.283.206a2.434,2.434,0,0,0,.362.206,2.5,2.5,0,0,0,.463.156,2.534,2.534,0,0,0,.584.062,2.179,2.179,0,0,0,.724-.112,1.565,1.565,0,0,0,.54-.315,1.356,1.356,0,0,0,.337-.486,1.606,1.606,0,0,0,.119-.63,1.063,1.063,0,0,0-.174-.628,1.443,1.443,0,0,0-.459-.41,3.178,3.178,0,0,0-.647-.28l-.743-.236a7.8,7.8,0,0,1-.741-.28,2.375,2.375,0,0,1-.649-.413,1.886,1.886,0,0,1-.456-.633,2.43,2.43,0,0,1,0-1.806,2.2,2.2,0,0,1,.507-.742,2.494,2.494,0,0,1,.819-.518,3,3,0,0,1,1.118-.195,3.554,3.554,0,0,1,1.288.224,3.06,3.06,0,0,1,1.022.648Z" transform="translate(-681.158 -223.408)"/></g></g></svg>