<?xml version="1.0" encoding="utf-8"?>
<!-- Generator: Adobe Illustrator 25.1.0, SVG Export Plug-In . SVG Version: 6.00 Build 0)  -->
<svg version="1.1" id="Layer_1" xmlns="http://www.w3.org/2000/svg" xmlns:xlink="http://www.w3.org/1999/xlink" x="0px" y="0px"
	 viewBox="0 0 600 600" style="enable-background:new 0 0 600 600;" xml:space="preserve">
<style type="text/css">
	.st0{fill:#1C3C4D;}
	.st1{fill:none;stroke:#1C3C4D;stroke-width:18;stroke-miterlimit:10;}
</style>
<path class="st0" d="M309.53,392.72l-3.37,2.83v-28.65c0-3.05-2.94-5.52-6.57-5.52c-3.63,0-6.57,2.48-6.57,5.52v28.65l-3.37-2.84
	c-2.57-2.16-6.73-2.16-9.29,0c-2.57,2.16-2.57,5.66,0,7.81l14.58,12.26c1.28,1.08,2.96,1.62,4.64,1.62c1.68,0,3.36-0.54,4.64-1.62
	l14.58-12.26c2.57-2.16,2.57-5.66,0-7.81C316.25,390.57,312.09,390.57,309.53,392.72z"/>
<path class="st0" d="M300.07,349.53c1.97,0,3.9-0.8,5.29-2.19c1.39-1.39,2.19-3.32,2.19-5.29c0-1.97-0.8-3.9-2.19-5.29
	c-1.39-1.39-3.32-2.19-5.29-2.19s-3.9,0.8-5.29,2.19s-2.19,3.32-2.19,5.29c0,1.97,0.8,3.9,2.19,5.29
	C296.17,348.73,298.1,349.53,300.07,349.53z"/>
<path class="st0" d="M418.21,396.87l-3.57,3.57v-64c0-3.85-3.12-6.97-6.97-6.97c-3.85,0-6.97,3.12-6.97,6.97v64l-3.58-3.58
	c-2.72-2.72-7.13-2.72-9.85,0c-2.72,2.72-2.72,7.13,0,9.85l15.47,15.47c1.31,1.31,3.08,2.04,4.93,2.04c1.85,0,3.62-0.73,4.93-2.04
	l15.47-15.47c2.72-2.72,2.72-7.13,0-9.85C425.34,394.15,420.93,394.15,418.21,396.87z"/>
<path class="st0" d="M203.25,396.87l-3.57,3.57v-64c0-3.85-3.12-6.97-6.97-6.97s-6.97,3.12-6.97,6.97v64l-3.58-3.58
	c-2.72-2.72-7.13-2.72-9.85,0c-2.72,2.72-2.72,7.13,0,9.85l15.47,15.47c1.31,1.31,3.08,2.04,4.93,2.04c1.85,0,3.62-0.73,4.93-2.04
	l15.47-15.47c2.72-2.72,2.72-7.13,0-9.85C210.38,394.15,205.97,394.15,203.25,396.87z"/>
<path class="st0" d="M450,304.69v17.7H150v-17.7h34.03v-4.88c0-4.69,3.8-8.49,8.49-8.49s8.49,3.8,8.49,8.49v4.88h91.45v-4.88
	c0-4.69,3.8-8.49,8.48-8.49c4.69,0,8.49,3.8,8.49,8.49v4.88h89.56v-4.88c0-4.69,3.8-8.49,8.49-8.49s8.49,3.8,8.49,8.49v4.88H450z"/>
<path class="st0" d="M450,266.04v17.7h-87.77v7.58c0,4.69-3.8,8.49-8.49,8.49s-8.49-3.8-8.49-8.49v-7.58h-89.56v5.7
	c0,4.68-3.8,8.48-8.49,8.48c-4.68,0-8.48-3.8-8.48-8.48v-5.7H150v-17.7H450z"/>
<path class="st1" d="M435,224c0,14.91-12.09,27-27,27s-27-12.09-27-27s14.5-28.5,27-41C420.5,195.5,435,209.09,435,224z"/>
<path class="st1" d="M327,224c0,14.91-12.09,27-27,27s-27-12.09-27-27s14.5-28.5,27-41C312.5,195.5,327,209.09,327,224z"/>
<path class="st1" d="M220,224c0,14.91-12.09,27-27,27s-27-12.09-27-27s14.5-28.5,27-41C205.5,195.5,220,209.09,220,224z"/>
</svg>
