<?xml version="1.0" encoding="utf-8"?>
<!-- Generator: Adobe Illustrator 25.1.0, SVG Export Plug-In . SVG Version: 6.00 Build 0)  -->
<svg version="1.1" id="Layer_1" xmlns="http://www.w3.org/2000/svg" xmlns:xlink="http://www.w3.org/1999/xlink" x="0px" y="0px"
	 viewBox="0 0 600 600" style="enable-background:new 0 0 600 600;" xml:space="preserve">
<g>
	<g>
		<path d="M451.96,115.49c-18.58,0-33.65,15.07-33.65,33.65c0,18.59,15.06,33.65,33.65,33.65c18.59,0,33.65-15.07,33.65-33.65
			C485.61,130.56,470.55,115.49,451.96,115.49z"/>
		<path d="M302.36,158.64C224.41,158.64,161,222.05,161,300c0,77.94,63.42,141.36,141.36,141.36c77.94,0,141.36-63.42,141.36-141.36
			C443.71,222.05,380.3,158.64,302.36,158.64z M302.36,390.55c-49.93,0-90.55-40.62-90.55-90.55s40.62-90.55,90.55-90.55
			c49.93,0,90.54,40.62,90.54,90.55S352.28,390.55,302.36,390.55z"/>
		<path d="M414.58,587H185.41C90.34,587,13,509.66,13,414.59V185.41C13,90.34,90.34,13,185.41,13h229.17
			C509.65,13,587,90.34,587,185.41v229.18C587,509.66,509.65,587,414.58,587z M185.41,67C120.11,67,67,120.12,67,185.41v229.18
			C67,479.89,120.11,533,185.41,533h229.17C479.87,533,533,479.89,533,414.59V185.41C533,120.12,479.87,67,414.58,67H185.41z"/>
	</g>
</g>
</svg>
