<?xml version="1.0" encoding="utf-8"?>
<!-- Generator: Adobe Illustrator 25.1.0, SVG Export Plug-In . SVG Version: 6.00 Build 0)  -->
<svg version="1.1" id="Layer_1" xmlns="http://www.w3.org/2000/svg" xmlns:xlink="http://www.w3.org/1999/xlink" x="0px" y="0px"
	 viewBox="0 0 600 600" style="enable-background:new 0 0 600 600;" xml:space="preserve">
<style type="text/css">
	.st0{fill:#316582;}
</style>
<g>
	<path class="st0" d="M421.88,206.25c5.18,0,9.38,4.2,9.38,9.38v168.75c0,5.18-4.2,9.38-9.38,9.38H178.12
		c-5.18,0-9.38-4.2-9.38-9.38V215.62c0-5.18,4.2-9.38,9.38-9.38H421.88z M178.12,187.5c-15.53,0-28.12,12.59-28.12,28.12v168.75
		c0,15.53,12.59,28.12,28.12,28.12h243.75c15.53,0,28.12-12.59,28.12-28.12V215.62c0-15.53-12.59-28.12-28.12-28.12H178.12z"/>
	<path class="st0" d="M281.25,253.12c0-5.18,4.2-9.38,9.38-9.38h93.75c5.18,0,9.38,4.2,9.38,9.38s-4.2,9.38-9.38,9.38h-93.75
		C285.45,262.5,281.25,258.3,281.25,253.12z M253.2,237.11c3.67,3.66,3.67,9.59,0.02,13.26c-0.01,0.01-0.01,0.01-0.02,0.02
		l-28.12,28.13c-3.66,3.67-9.59,3.67-13.26,0.02c-0.01-0.01-0.01-0.01-0.02-0.02l-9.38-9.38c-3.67-3.67-3.67-9.61,0-13.28
		c3.67-3.67,9.61-3.67,13.27,0l0,0l2.74,2.76l21.49-21.51c3.66-3.67,9.59-3.67,13.26-0.02C253.19,237.1,253.19,237.11,253.2,237.11z
		 M281.25,328.12c0-5.18,4.2-9.38,9.38-9.38h93.75c5.18,0,9.38,4.2,9.38,9.38s-4.2,9.38-9.38,9.38h-93.75
		C285.45,337.5,281.25,333.3,281.25,328.12z M253.2,312.11c3.67,3.66,3.67,9.59,0.02,13.26c-0.01,0.01-0.01,0.01-0.02,0.02
		l-28.12,28.12c-3.66,3.67-9.59,3.67-13.26,0.02c-0.01-0.01-0.01-0.01-0.02-0.02l-9.38-9.38c-3.67-3.67-3.67-9.61,0-13.28
		c3.67-3.67,9.61-3.67,13.27,0l2.74,2.76l21.49-21.51c3.66-3.67,9.59-3.67,13.26-0.02C253.19,312.1,253.19,312.11,253.2,312.11z"/>
</g>
</svg>
