<?xml version="1.0" encoding="utf-8"?>
<!-- Generator: Adobe Illustrator 25.1.0, SVG Export Plug-In . SVG Version: 6.00 Build 0)  -->
<svg version="1.1" id="Layer_1" xmlns="http://www.w3.org/2000/svg" xmlns:xlink="http://www.w3.org/1999/xlink" x="0px" y="0px"
	 viewBox="0 0 500 500" style="enable-background:new 0 0 500 500;" xml:space="preserve">
<style type="text/css">
	.st0{fill:#00D954;}
	.st1{fill-rule:evenodd;clip-rule:evenodd;fill:#00D954;}
</style>
<g>
	<path class="st0" d="M5.6,495l35.13-131.07c-19.89-35.89-30.36-76.1-30.36-116.91C10.37,113.57,118.94,5,252.38,5
		C385.83,5,494.4,113.57,494.4,247.01c0,133.45-108.57,242.02-242.02,242.02c-40.06,0-79.62-10.12-115.04-29.32L5.6,495z
		 M143.9,410.59l8.29,4.95c30.46,18.15,65.11,27.75,100.19,27.75c108.22,0,196.27-88.04,196.27-196.27
		c0-108.23-88.05-196.27-196.27-196.27c-108.22,0-196.27,88.04-196.27,196.27c0,35.74,9.93,70.92,28.7,101.76l5.09,8.36L70.3,430.31
		L143.9,410.59z"/>
	<path class="st1" d="M342.41,280.67c-9.96-5.96-22.92-12.61-34.66-7.81c-9,3.68-14.75,17.78-20.58,24.97
		c-2.99,3.69-6.57,4.27-11.16,2.42c-33.8-13.46-59.69-36.02-78.34-67.11c-3.16-4.83-2.59-8.64,1.21-13.12
		c5.64-6.63,12.71-14.16,14.23-23.11c1.52-8.94-2.67-19.39-6.37-27.35c-4.72-10.17-10-24.68-20.19-30.43
		c-9.37-5.29-21.71-2.33-30.05,4.47c-14.4,11.73-21.35,30.1-21.14,48.32c0.06,5.18,0.7,10.34,1.9,15.33
		c2.91,12.02,8.46,23.23,14.71,33.9c4.71,8.04,9.83,15.85,15.36,23.35c18.08,24.55,40.57,45.89,66.6,61.84
		c13.01,7.97,27.02,14.96,41.54,19.75c16.27,5.38,30.77,10.97,48.35,7.64c18.4-3.49,36.54-14.88,43.84-32.61
		c2.16-5.25,3.24-11.1,2.03-16.64C367.2,293.03,351.69,286.22,342.41,280.67z"/>
</g>
</svg>
