<?xml version="1.0" encoding="utf-8"?>
<!-- Generator: Adobe Illustrator 25.1.0, SVG Export Plug-In . SVG Version: 6.00 Build 0)  -->
<svg version="1.1" id="Layer_1" xmlns="http://www.w3.org/2000/svg" xmlns:xlink="http://www.w3.org/1999/xlink" x="0px" y="0px"
	 viewBox="0 0 600 600" style="enable-background:new 0 0 600 600;" xml:space="preserve">
<style type="text/css">
	.st0{fill:#1C3C4D;}
</style>
<g>
	<path class="st0" d="M377.5,162.9c15.1-3.8,30.3,5.4,34.1,20.5c0.6,2.2,0.8,4.5,0.8,6.8V213h9.4c15.5,0,28.1,12.6,28.1,28.1v168.7
		c0,15.5-12.6,28.1-28.1,28.1H178.1c-15.5,0-28.1-12.6-28.1-28.1V241.1c0-15,11.8-27.4,26.9-28.1L377.5,162.9z M254.3,213h139.5
		v-22.9c0-5.2-4.2-9.4-9.4-9.4c-0.8,0-1.5,0.1-2.2,0.3L254.3,213z M178.1,231.7c-5.2,0-9.4,4.2-9.4,9.4v168.7c0,5.2,4.2,9.4,9.4,9.4
		h243.8c5.2,0,9.4-4.2,9.4-9.4V241.1c0-5.2-4.2-9.4-9.4-9.4L178.1,231.7L178.1,231.7z"/>
	<g>
		<path class="st0" d="M306.3,399.6v12.2h-10.9v-11.8c-10.8-0.6-21.1-4-27-8.7l6-13.3c5.4,4,13.2,7,21.1,7.7v-18.1
			c-12.1-2.9-25.5-7-25.5-22.5c0-11.5,8.4-21.4,25.5-23.4v-12.1h10.9v11.8c8.1,0.6,16.1,2.8,22,6.6l-5.4,13.4
			c-5.5-3.1-11.2-5-16.6-5.6v18.5c12.1,2.8,25.3,6.9,25.3,22.2C331.6,387.8,323.4,397.5,306.3,399.6z M295.4,351.6v-15.4
			c-5.8,1.3-8,4.5-8,8C287.4,348,290.7,350.1,295.4,351.6z M314.1,377.8c0-3.8-3.1-5.9-7.8-7.5v15
			C311.7,384.1,314.1,381.2,314.1,377.8z"/>
	</g>
</g>
</svg>
