<?xml version="1.0" encoding="utf-8"?>
<!-- Generator: Adobe Illustrator 25.1.0, SVG Export Plug-In . SVG Version: 6.00 Build 0)  -->
<svg version="1.1" id="Layer_1" xmlns="http://www.w3.org/2000/svg" xmlns:xlink="http://www.w3.org/1999/xlink" x="0px" y="0px"
	 viewBox="0 0 600 600" style="enable-background:new 0 0 600 600;" xml:space="preserve">
<style type="text/css">
	.st0{fill:#1C3C4D;}
</style>
<g>
	<path class="st0" d="M400.48,360.71C432.38,332.25,450,300,450,300s-56.25-103.12-150-103.12c-18.01,0.06-35.81,3.81-52.31,11.02
		l14.44,14.46c12.14-4.42,24.96-6.7,37.88-6.73c39.75,0,72.73,21.9,96.9,46.07c11.63,11.69,22.06,24.53,31.12,38.31
		c-1.09,1.63-2.29,3.43-3.66,5.4c-6.28,9-15.56,21-27.47,32.91c-3.09,3.09-6.32,6.15-9.69,9.11L400.48,360.71z"/>
	<path class="st0" d="M361.82,322.05c12.2-34.13-5.57-71.69-39.7-83.89c-14.29-5.11-29.9-5.11-44.19,0l15.43,15.43
		c25.63-3.67,49.38,14.13,53.04,39.76c0.63,4.41,0.63,8.88,0,13.28C346.41,306.64,361.82,322.05,361.82,322.05z M306.64,346.41
		l15.41,15.41c-34.13,12.2-71.69-5.57-83.89-39.7c-5.11-14.29-5.11-29.9,0-44.19l15.43,15.43c-3.67,25.63,14.13,49.38,39.76,53.04
		C297.76,347.04,302.23,347.04,306.64,346.41z"/>
	<path class="st0" d="M212.81,252.56c-3.38,3-6.62,6.04-9.71,9.13c-11.63,11.69-22.06,24.53-31.12,38.31l3.66,5.4
		c6.28,9,15.56,21,27.47,32.91c24.17,24.17,57.17,46.07,96.9,46.07c13.42,0,26.06-2.49,37.88-6.75l14.44,14.48
		c-16.5,7.21-34.3,10.96-52.31,11.02C206.25,403.12,150,300,150,300s17.61-32.27,49.52-60.71l13.27,13.29L212.81,252.56z
		 M405.86,419.14l-225-225l13.27-13.27l225,225L405.86,419.14z"/>
</g>
</svg>
