<?xml version="1.0" encoding="utf-8"?>
<!-- Generator: Adobe Illustrator 25.1.0, SVG Export Plug-In . SVG Version: 6.00 Build 0)  -->
<svg version="1.1" id="Layer_1" xmlns="http://www.w3.org/2000/svg" xmlns:xlink="http://www.w3.org/1999/xlink" x="0px" y="0px"
	 viewBox="0 0 600 600" style="enable-background:new 0 0 600 600;" xml:space="preserve">
<style type="text/css">
	.st0{fill:#316582;}
</style>
<path class="st0" d="M384.38,150H253.12c-20.71,0-37.5,16.79-37.5,37.5c-20.71,0-37.5,16.79-37.5,37.5v187.5
	c0,20.71,16.79,37.5,37.5,37.5h131.25c20.71,0,37.5-16.79,37.5-37.5c20.71,0,37.5-16.79,37.5-37.5V187.5
	C421.88,166.79,405.09,150,384.38,150z M384.38,393.75V225c0-20.71-16.79-37.5-37.5-37.5h-112.5c0-10.36,8.39-18.75,18.75-18.75
	h131.25c10.36,0,18.75,8.39,18.75,18.75V375C403.12,385.36,394.73,393.75,384.38,393.75z M196.88,225
	c0-10.36,8.39-18.75,18.75-18.75h131.25c10.36,0,18.75,8.39,18.75,18.75v187.5c0,10.36-8.39,18.75-18.75,18.75H215.62
	c-10.36,0-18.75-8.39-18.75-18.75V225z"/>
</svg>
