<?xml version="1.0" encoding="utf-8"?>
<!-- Generator: Adobe Illustrator 25.1.0, SVG Export Plug-In . SVG Version: 6.00 Build 0)  -->
<svg version="1.1" id="Layer_1" xmlns="http://www.w3.org/2000/svg" xmlns:xlink="http://www.w3.org/1999/xlink" x="0px" y="0px"
	 viewBox="0 0 600 600" style="enable-background:new 0 0 600 600;" xml:space="preserve">
<style type="text/css">
	.st0{fill:#316582;}
</style>
<path class="st0" d="M309.7,169.1c-3.21-0.24-6.43-0.36-9.66-0.36V150c3.68,0,7.37,0.14,11.04,0.41
	C311.09,150.41,309.7,169.1,309.7,169.1z M347.27,177.54c-6.01-2.32-12.18-4.19-18.47-5.61l4.11-18.3
	c7.18,1.61,14.25,3.75,21.11,6.41C354.02,160.05,347.27,177.54,347.27,177.54z M372.96,190.85c-2.68-1.79-5.43-3.48-8.23-5.06
	l9.24-16.31c6.41,3.63,12.54,7.73,18.35,12.26l-11.53,14.79c-2.54-1.98-5.16-3.87-7.84-5.66V190.85z M407.34,224.41
	c-3.71-5.27-7.8-10.26-12.24-14.92l13.57-12.94c5.06,5.34,9.75,11.06,14,17.06L407.34,224.41z M421.29,249.76
	c-1.23-2.97-2.57-5.9-4.01-8.77l16.74-8.44c3.31,6.58,6.13,13.4,8.44,20.4l-17.81,5.87C423.64,255.75,422.52,252.73,421.29,249.76z
	 M431.23,296.76c-0.15-6.44-0.78-12.87-1.87-19.22l18.47-3.19c1.26,7.24,1.99,14.59,2.17,21.93l-18.75,0.47H431.23z M428.77,325.59
	c0.62-3.19,1.12-6.36,1.52-9.56l18.62,2.31c-0.9,7.31-2.34,14.55-4.31,21.65l-18.07-5.01C427.38,331.89,428.13,328.76,428.77,325.59
	z M410.92,370.19c3.45-5.44,6.49-11.14,9.11-17.02l17.14,7.59c-3,6.75-6.47,13.24-10.4,19.46
	C426.76,380.22,410.92,370.19,410.92,370.19z M392.85,392.78c2.29-2.29,4.48-4.65,6.56-7.09l14.21,12.24
	c-2.41,2.79-4.91,5.49-7.52,8.1C406.1,406.04,392.85,392.78,392.85,392.78z"/>
<path class="st0" d="M300.05,168.75c-72.48,0.01-131.23,58.76-131.22,131.24c0.01,72.48,58.76,131.23,131.24,131.22
	c34.8,0,68.17-13.83,92.78-38.43l13.25,13.25c-58.56,58.59-153.54,58.62-212.13,0.06s-58.62-153.54-0.06-212.13
	c28.14-28.16,66.32-43.97,106.14-43.96V168.75z"/>
<g>
	<g>
		<path class="st0" d="M291.77,328.54v12.81h-60.1v-10.13l32.38-30.75c7.92-7.57,9.32-12.35,9.32-16.89
			c0-7.45-5.13-11.76-15.14-11.76c-7.92,0-14.56,2.68-19.1,8.51l-10.6-8.16c6.29-8.51,17.58-13.51,30.98-13.51
			c17.71,0,29.12,8.97,29.12,23.41c0,7.92-2.21,15.14-13.51,25.74l-21.78,20.73H291.77z"/>
		<path class="st0" d="M371.47,322.83h-14.44v18.52h-14.68v-18.52h-44.72v-10.48l40.18-52.53H354l-37.85,50.2h26.67V293.6h14.21
			v16.42h14.44V322.83z"/>
	</g>
	<g>
		<path class="st0" d="M336.74,362.69v10.66h-4.35v-10.1c0-3.31-1.64-4.91-4.42-4.91c-3.1,0-5.19,1.88-5.19,5.61v9.4h-4.35v-25.85
			h4.35v9.4c1.43-1.53,3.62-2.37,6.2-2.37C333.43,354.54,336.74,357.09,336.74,362.69z"/>
		<path class="st0" d="M353.05,354.54v4.15c-0.38-0.07-0.7-0.1-1.01-0.1c-3.31,0-5.4,1.95-5.4,5.75v9.02h-4.35v-18.6h4.15v2.72
			C347.69,355.52,349.95,354.54,353.05,354.54z"/>
		<path class="st0" d="M354.7,371.51l1.67-3.31c1.64,1.08,4.15,1.85,6.48,1.85c2.75,0,3.9-0.77,3.9-2.05
			c0-3.55-11.49-0.21-11.49-7.63c0-3.52,3.17-5.82,8.19-5.82c2.47,0,5.3,0.59,6.97,1.6l-1.67,3.31c-1.78-1.05-3.55-1.39-5.33-1.39
			c-2.65,0-3.9,0.87-3.9,2.09c0,3.76,11.5,0.42,11.5,7.7c0,3.48-3.2,5.75-8.43,5.75C359.47,373.6,356.37,372.69,354.7,371.51z"/>
	</g>
</g>
</svg>
