<?xml version="1.0" encoding="utf-8"?>
<!-- Generator: Adobe Illustrator 25.1.0, SVG Export Plug-In . SVG Version: 6.00 Build 0)  -->
<svg version="1.1" id="Layer_1" xmlns="http://www.w3.org/2000/svg" xmlns:xlink="http://www.w3.org/1999/xlink" x="0px" y="0px"
	 viewBox="0 0 600 600" style="enable-background:new 0 0 600 600;" xml:space="preserve">
<style type="text/css">
	.st0{fill:#1C3C4D;}
</style>
<g>
	<path class="st0" d="M421.9,206.2c5.2,0,9.4,4.2,9.4,9.4v168.8c0,5.2-4.2,9.4-9.4,9.4H178.1c-5.2,0-9.4-4.2-9.4-9.4V215.6
		c0-5.2,4.2-9.4,9.4-9.4L421.9,206.2L421.9,206.2z M178.1,187.5c-15.5,0-28.1,12.6-28.1,28.1v168.8c0,15.5,12.6,28.1,28.1,28.1
		h243.8c15.5,0,28.1-12.6,28.1-28.1V215.6c0-15.5-12.6-28.1-28.1-28.1H178.1z"/>
	<path class="st0" d="M281.2,253.1c0-5.2,4.2-9.4,9.4-9.4h93.8c5.2,0,9.4,4.2,9.4,9.4c0,5.2-4.2,9.4-9.4,9.4h-93.8
		C285.5,262.5,281.2,258.3,281.2,253.1z M253.2,237.1c3.7,3.7,3.7,9.6,0,13.3c0,0,0,0,0,0l-28.1,28.1c-3.7,3.7-9.6,3.7-13.3,0
		c0,0,0,0,0,0l-9.4-9.4c-3.7-3.7-3.7-9.6,0-13.3c3.7-3.7,9.6-3.7,13.3,0l0,0l2.7,2.8l21.5-21.5C243.6,233.4,249.5,233.4,253.2,237.1
		C253.2,237.1,253.2,237.1,253.2,237.1z M281.2,328.1c0-5.2,4.2-9.4,9.4-9.4h93.8c5.2,0,9.4,4.2,9.4,9.4s-4.2,9.4-9.4,9.4h-93.8
		C285.5,337.5,281.2,333.3,281.2,328.1z M253.2,312.1c3.7,3.7,3.7,9.6,0,13.3c0,0,0,0,0,0l-28.1,28.1c-3.7,3.7-9.6,3.7-13.3,0
		c0,0,0,0,0,0l-9.4-9.4c-3.7-3.7-3.7-9.6,0-13.3s9.6-3.7,13.3,0l2.7,2.8l21.5-21.5C243.6,308.4,249.5,308.4,253.2,312.1
		C253.2,312.1,253.2,312.1,253.2,312.1z"/>
</g>
</svg>
