<?xml version="1.0" encoding="utf-8"?>
<!-- Generator: Adobe Illustrator 25.1.0, SVG Export Plug-In . SVG Version: 6.00 Build 0)  -->
<svg version="1.1" id="Layer_1" xmlns="http://www.w3.org/2000/svg" xmlns:xlink="http://www.w3.org/1999/xlink" x="0px" y="0px"
	 viewBox="0 0 600 600" style="enable-background:new 0 0 600 600;" xml:space="preserve">
<style type="text/css">
	.st0{fill:#1C3C4D;}
</style>
<path class="st0" d="M384.4,150H253.1c-20.7,0-37.5,16.8-37.5,37.5c-20.7,0-37.5,16.8-37.5,37.5v187.5c0,20.7,16.8,37.5,37.5,37.5
	h131.2c20.7,0,37.5-16.8,37.5-37.5c20.7,0,37.5-16.8,37.5-37.5V187.5C421.9,166.8,405.1,150,384.4,150z M384.4,393.8V225
	c0-20.7-16.8-37.5-37.5-37.5H234.4c0-10.4,8.4-18.8,18.8-18.8h131.2c10.4,0,18.8,8.4,18.8,18.8V375
	C403.1,385.4,394.7,393.8,384.4,393.8z M196.9,225c0-10.4,8.4-18.8,18.8-18.8h131.2c10.4,0,18.8,8.4,18.8,18.8v187.5
	c0,10.4-8.4,18.8-18.8,18.8H215.6c-10.4,0-18.8-8.4-18.8-18.8L196.9,225L196.9,225z"/>
</svg>
