<?xml version="1.0" encoding="utf-8"?>
<!-- Generator: Adobe Illustrator 25.1.0, SVG Export Plug-In . SVG Version: 6.00 Build 0)  -->
<svg version="1.1" id="Layer_1" xmlns="http://www.w3.org/2000/svg" xmlns:xlink="http://www.w3.org/1999/xlink" x="0px" y="0px"
	 viewBox="0 0 600 600" style="enable-background:new 0 0 600 600;" xml:space="preserve">
<style type="text/css">
	.st0{fill:#316582;}
</style>
<path class="st0" d="M150,215.58c0-15.53,12.59-28.12,28.12-28.12h168.75c15.53,0,28.12,12.59,28.12,28.12v28.12h19.12
	c8.54,0.01,16.61,3.89,21.94,10.56l27.77,34.69c4,4.99,6.17,11.19,6.17,17.59v40.29c0,15.53-12.59,28.12-28.12,28.12h-9.38
	c0,20.71-16.79,37.5-37.5,37.5c-20.71,0-37.5-16.79-37.5-37.5h-93.75c0.04,20.71-16.71,37.54-37.42,37.58
	c-20.71,0.04-37.54-16.71-37.58-37.42c0-0.59,0.01-1.17,0.04-1.76c-11.26-3.96-18.79-14.6-18.79-26.53V215.58z M174.26,355.38
	c10.79-17.67,33.86-23.24,51.52-12.45c5.36,3.27,9.81,7.84,12.94,13.27h103.8c3.3-5.69,8.03-10.43,13.73-13.73v-126.9
	c0-5.18-4.2-9.38-9.38-9.38H178.12c-5.18,0-9.38,4.2-9.38,9.38v131.25C168.75,350.52,170.9,353.87,174.26,355.38z M375,337.46
	c13.4,0,25.78,7.15,32.48,18.75h14.4c5.18,0,9.38-4.2,9.38-9.38v-40.31c0-2.13-0.73-4.19-2.06-5.85l-27.75-34.69
	c-1.78-2.22-4.47-3.52-7.31-3.53H375V337.46z M206.25,356.21c-10.36,0-18.75,8.39-18.75,18.75s8.39,18.75,18.75,18.75
	S225,385.31,225,374.96S216.61,356.21,206.25,356.21z M375,356.21c-10.36,0-18.75,8.39-18.75,18.75s8.39,18.75,18.75,18.75
	s18.75-8.39,18.75-18.75S385.36,356.21,375,356.21z"/>
</svg>
