<?xml version="1.0" encoding="utf-8"?>
<!-- Generator: Adobe Illustrator 25.1.0, SVG Export Plug-In . SVG Version: 6.00 Build 0)  -->
<svg version="1.1" id="Layer_1" xmlns="http://www.w3.org/2000/svg" xmlns:xlink="http://www.w3.org/1999/xlink" x="0px" y="0px"
	 viewBox="0 0 600 600" style="enable-background:new 0 0 600 600;" xml:space="preserve">
<style type="text/css">
	.st0{fill:#316582;}
</style>
<path class="st0" d="M177.42,160.03l-17.4,17.4l38.29,53.62c3.27,4.58,8.56,7.3,14.18,7.29h1.22c4.62,0,9.06,1.83,12.32,5.1
	l46.56,46.56l-45.55,46.19c-27.69-8.15-56.75,7.69-64.9,35.38c-1.41,4.78-2.12,9.73-2.13,14.71c0.04,28.84,23.45,52.18,52.29,52.14
	c28.84-0.04,52.18-23.45,52.14-52.29c-0.01-4.96-0.72-9.9-2.12-14.67l46.19-45.55l16.85,16.85l-5.31,15.91
	c-2.08,6.25-0.45,13.15,4.21,17.81l58.41,58.41c6.8,6.79,17.81,6.79,24.61,0l27.6-27.6c6.79-6.8,6.79-17.81,0-24.61l-58.41-58.41
	c-4.66-4.66-11.55-6.29-17.81-4.21l-15.91,5.31l-16.71-16.71l46.65-46c27.91,7.45,56.57-9.14,64.02-37.04
	c1.17-4.36,1.76-8.86,1.77-13.38c0-4.68-0.61-9.22-1.78-13.52l-37.25,37.26l-30.6-6.34l-6.34-30.58l37.26-37.26
	c-27.85-7.49-56.49,9.02-63.98,36.87c-2.39,8.9-2.39,18.28,0.02,27.18l-45.95,46.61l-46.45-46.42c-3.26-3.26-5.1-7.69-5.1-12.31
	v-1.24c0-5.62-2.72-10.9-7.29-14.17L177.42,160.03z M345.31,345.32c3.39-3.4,8.9-3.41,12.31-0.02c0.01,0.01,0.01,0.01,0.02,0.02
	l52.21,52.21c3.4,3.4,3.4,8.92,0,12.32c-3.4,3.4-8.92,3.4-12.32,0l-52.21-52.21c-3.4-3.39-3.41-8.9-0.02-12.31
	C345.3,345.33,345.3,345.33,345.31,345.32z M212.23,351.48l8.2,4.21l9.21,0.45l5,7.75l7.75,5l0.45,9.21l4.21,8.2l-4.21,8.2
	l-0.45,9.21l-7.75,5l-5,7.75l-9.21,0.45l-8.2,4.21l-8.2-4.21l-9.21-0.45l-5-7.75l-7.75-5l-0.45-9.21l-4.21-8.2l4.21-8.2l0.45-9.21
	l7.75-5l5-7.75l9.21-0.45L212.23,351.48z"/>
</svg>
