<?xml version="1.0" encoding="utf-8"?>
<!-- Generator: Adobe Illustrator 25.1.0, SVG Export Plug-In . SVG Version: 6.00 Build 0)  -->
<svg version="1.1" id="Layer_1" xmlns="http://www.w3.org/2000/svg" xmlns:xlink="http://www.w3.org/1999/xlink" x="0px" y="0px"
	 viewBox="0 0 600 600" style="enable-background:new 0 0 600 600;" xml:space="preserve">
<style type="text/css">
	.st0{fill:#1C3C4D;}
	.st1{fill:none;stroke:#1C3C4D;stroke-width:18;stroke-miterlimit:10;}
</style>
<g>
	<g>
		<circle class="st0" cx="402.72" cy="255.56" r="17.9"/>
		<ellipse class="st0" cx="237.96" cy="398.41" rx="4.44" ry="4.79"/>
		<circle class="st0" cx="240.03" cy="205.12" r="12.65"/>
		<path class="st0" d="M329.44,174.58c-20.64,0-37.42,16.79-37.42,37.42s16.79,37.42,37.42,37.42c20.64,0,37.42-16.79,37.42-37.42
			S350.08,174.58,329.44,174.58z M329.44,231.05c-10.5,0-19.05-8.55-19.05-19.05c0-10.5,8.55-19.05,19.05-19.05
			s19.05,8.55,19.05,19.05C348.49,222.5,339.94,231.05,329.44,231.05z"/>
		<path class="st0" d="M332.94,329.64c1.53,8.65,6.61,15.77,13.47,20.19c-0.24,0.31-0.47,0.63-0.7,0.95
			c-4.65,6.64-6.43,14.7-5.01,22.68c1.41,7.98,5.85,14.94,12.49,19.58c5.16,3.61,11.16,5.49,17.33,5.49c1.78,0,3.57-0.16,5.35-0.47
			c7.98-1.41,14.94-5.85,19.58-12.49c4.65-6.64,6.43-14.7,5.01-22.68l0,0c-1.41-7.98-5.85-14.94-12.49-19.58
			c-0.32-0.22-0.64-0.43-0.97-0.64c4.92-6.5,7.24-14.95,5.71-23.6l0,0c-2.91-16.48-18.69-27.52-35.17-24.6
			C341.06,297.38,330.02,313.16,332.94,329.64z M382.17,376.29c-2.17,3.1-5.41,5.17-9.14,5.83c-3.72,0.66-7.48-0.17-10.58-2.34
			c-3.1-2.17-5.17-5.41-5.83-9.14c-0.66-3.72,0.17-7.48,2.34-10.58s5.41-5.17,9.14-5.83c0.83-0.15,1.67-0.22,2.5-0.22
			c2.88,0,5.68,0.88,8.08,2.56c3.1,2.17,5.17,5.41,5.83,9.14l0,0C385.17,369.44,384.34,373.19,382.17,376.29z M362.83,310.19
			c6.74,0,12.72,4.84,13.94,11.69c1.36,7.69-3.79,15.05-11.48,16.41c-7.68,1.36-15.05-3.79-16.41-11.48
			c-1.36-7.69,3.79-15.05,11.48-16.41C361.19,310.26,362.01,310.19,362.83,310.19z"/>
		<path class="st0" d="M163.42,308.14c-0.42,4.63,2.98,8.73,7.61,9.15l41.44,3.8c0.5,2.39,1.31,4.75,2.44,7.03l10.86,21.98
			l-17.42,5.97c-4.4,1.51-6.74,6.29-5.24,10.69c1.2,3.49,4.47,5.69,7.96,5.69c0.9,0,1.83-0.15,2.73-0.46l19.48-6.68l0.73,1.49
			c4.97,10.06,14.91,16.06,25.4,16.53l2.34,30.3c0.34,4.42,4.03,7.77,8.38,7.77c0.22,0,0.44-0.01,0.66-0.02
			c4.64-0.36,8.11-4.41,7.75-9.04l-2.55-33.07l6.93-3.43c9.37-4.63,15.22-13.56,16.36-23.24h20.78c4.65,0,8.42-3.77,8.42-8.42
			c0-4.65-3.77-8.42-8.42-8.42h-23.75l-15.91-32.19l27.88-29.96c3.17-3.4,2.98-8.73-0.43-11.9c-3.4-3.17-8.73-2.98-11.9,0.43
			l-24.87,26.72c-6.35-6.01-15.1-8.95-23.8-7.99l-4.46-18.59c-1.09-4.52-5.63-7.31-10.15-6.22c-4.52,1.09-7.31,5.63-6.22,10.15
			l4.93,20.53l-3,1.48c-6.98,3.45-12.01,9.3-14.6,16.06l-41.24-3.79C167.94,300.1,163.85,303.51,163.42,308.14z M235.88,303.35
			l9.03-4.46c1.84-0.91,3.79-1.34,5.71-1.34c4.77,0,9.36,2.64,11.61,7.2l19.12,38.69c3.16,6.39,0.53,14.16-5.86,17.32l-9.03,4.46
			c-6.39,3.16-14.16,0.53-17.32-5.86l-19.12-38.69C226.85,314.28,229.49,306.51,235.88,303.35z"/>
	</g>
	<circle class="st1" cx="300" cy="300" r="150"/>
</g>
</svg>
