<?xml version="1.0" encoding="utf-8"?>
<!-- Generator: Adobe Illustrator 25.1.0, SVG Export Plug-In . SVG Version: 6.00 Build 0)  -->
<svg version="1.1" id="Layer_1" xmlns="http://www.w3.org/2000/svg" xmlns:xlink="http://www.w3.org/1999/xlink" x="0px" y="0px"
	 viewBox="0 0 600 600" style="enable-background:new 0 0 600 600;" xml:space="preserve">
<style type="text/css">
	.st0{fill:#00D954;}
	.st1{fill:#FFFFFF;}
	.st2{fill-rule:evenodd;clip-rule:evenodd;fill:#FFFFFF;}
</style>
<g>
	<ellipse transform="matrix(0.7071 -0.7071 0.7071 0.7071 -124.2644 300.0001)" class="st0" cx="300" cy="300" rx="295" ry="295"/>
	<g>
		<path class="st1" d="M95.38,505.12l29.41-109.73c-16.65-30.05-25.42-63.71-25.42-97.88c0-111.72,90.9-202.62,202.62-202.62
			c111.72,0,202.62,90.9,202.62,202.62c0,111.72-90.9,202.62-202.62,202.62c-33.54,0-66.66-8.47-96.31-24.55L95.38,505.12z
			 M211.17,434.45l6.95,4.14c25.5,15.19,54.51,23.23,83.88,23.23c90.6,0,164.32-73.71,164.32-164.32
			c0-90.61-73.72-164.32-164.32-164.32c-90.6,0-164.32,73.71-164.32,164.32c0,29.92,8.31,59.38,24.03,85.2l4.26,7l-16.42,61.26
			L211.17,434.45z"/>
		<path class="st2" d="M377.37,325.68c-8.34-4.99-19.19-10.56-29.02-6.54c-7.54,3.08-12.35,14.88-17.23,20.91
			c-2.51,3.09-5.5,3.58-9.35,2.03c-28.29-11.27-49.97-30.16-65.59-56.18c-2.65-4.05-2.17-7.23,1.01-10.98
			c4.72-5.55,10.64-11.86,11.91-19.35c1.28-7.48-2.23-16.23-5.32-22.89c-3.96-8.51-8.37-20.66-16.9-25.48
			c-7.84-4.43-18.17-1.95-25.15,3.74c-12.06,9.82-17.88,25.2-17.7,40.45c0.05,4.33,0.58,8.66,1.59,12.84
			c2.43,10.06,7.08,19.45,12.31,28.38c3.95,6.74,8.23,13.27,12.86,19.55c15.13,20.56,33.96,38.42,55.76,51.78
			c10.89,6.67,22.63,12.52,34.77,16.54c13.62,4.5,25.76,9.19,40.48,6.39c15.4-2.93,30.59-12.46,36.71-27.3
			c1.81-4.4,2.72-9.29,1.7-13.93C398.13,336.03,385.13,330.32,377.37,325.68z"/>
	</g>
</g>
</svg>
