<?xml version="1.0" encoding="utf-8"?>
<!-- Generator: Adobe Illustrator 25.1.0, SVG Export Plug-In . SVG Version: 6.00 Build 0)  -->
<svg version="1.1" id="Layer_1" xmlns="http://www.w3.org/2000/svg" xmlns:xlink="http://www.w3.org/1999/xlink" x="0px" y="0px"
	 viewBox="0 0 600 600" style="enable-background:new 0 0 600 600;" xml:space="preserve">
<style type="text/css">
	.st0{fill:#1C3C4D;}
</style>
<path class="st0" d="M309.7,169.1c-3.2-0.2-6.4-0.4-9.7-0.4V150c3.7,0,7.4,0.1,11,0.4C311.1,150.4,309.7,169.1,309.7,169.1z
	 M347.3,177.5c-6-2.3-12.2-4.2-18.5-5.6l4.1-18.3c7.2,1.6,14.2,3.8,21.1,6.4C354,160.1,347.3,177.5,347.3,177.5z M373,190.9
	c-2.7-1.8-5.4-3.5-8.2-5.1l9.2-16.3c6.4,3.6,12.5,7.7,18.4,12.3l-11.5,14.8C378.2,194.6,375.6,192.7,373,190.9L373,190.9L373,190.9z
	 M407.3,224.4c-3.7-5.3-7.8-10.3-12.2-14.9l13.6-12.9c5.1,5.3,9.8,11.1,14,17.1L407.3,224.4z M421.3,249.8c-1.2-3-2.6-5.9-4-8.8
	l16.7-8.4c3.3,6.6,6.1,13.4,8.4,20.4l-17.8,5.9C423.6,255.8,422.5,252.7,421.3,249.8z M431.2,296.8c-0.1-6.4-0.8-12.9-1.9-19.2
	l18.5-3.2c1.3,7.2,2,14.6,2.2,21.9L431.2,296.8L431.2,296.8L431.2,296.8z M428.8,325.6c0.6-3.2,1.1-6.4,1.5-9.6l18.6,2.3
	c-0.9,7.3-2.3,14.5-4.3,21.6l-18.1-5C427.4,331.9,428.1,328.8,428.8,325.6z M410.9,370.2c3.5-5.4,6.5-11.1,9.1-17l17.1,7.6
	c-3,6.8-6.5,13.2-10.4,19.5C426.8,380.2,410.9,370.2,410.9,370.2z M392.9,392.8c2.3-2.3,4.5-4.6,6.6-7.1l14.2,12.2
	c-2.4,2.8-4.9,5.5-7.5,8.1C406.1,406,392.9,392.8,392.9,392.8z"/>
<path class="st0" d="M300,168.8c-72.5,0-131.2,58.8-131.2,131.2s58.8,131.2,131.2,131.2c34.8,0,68.2-13.8,92.8-38.4l13.2,13.2
	c-58.6,58.6-153.5,58.6-212.1,0.1s-58.6-153.5-0.1-212.1c28.1-28.2,66.3-44,106.1-44V168.8z"/>
<g>
	<g>
		<path class="st0" d="M291.8,328.5v12.8h-60.1v-10.1l32.4-30.8c7.9-7.6,9.3-12.4,9.3-16.9c0-7.5-5.1-11.8-15.1-11.8
			c-7.9,0-14.6,2.7-19.1,8.5l-10.6-8.2c6.3-8.5,17.6-13.5,31-13.5c17.7,0,29.1,9,29.1,23.4c0,7.9-2.2,15.1-13.5,25.7l-21.8,20.7
			H291.8z"/>
		<path class="st0" d="M371.5,322.8H357v18.5h-14.7v-18.5h-44.7v-10.5l40.2-52.5H354L316.1,310h26.7v-16.4H357V310h14.4V322.8z"/>
	</g>
	<g>
		<path class="st0" d="M336.7,362.7v10.7h-4.4v-10.1c0-3.3-1.6-4.9-4.4-4.9c-3.1,0-5.2,1.9-5.2,5.6v9.4h-4.4v-25.9h4.4v9.4
			c1.4-1.5,3.6-2.4,6.2-2.4C333.4,354.5,336.7,357.1,336.7,362.7z"/>
		<path class="st0" d="M353,354.5v4.1c-0.4-0.1-0.7-0.1-1-0.1c-3.3,0-5.4,2-5.4,5.8v9h-4.4v-18.6h4.1v2.7
			C347.7,355.5,350,354.5,353,354.5z"/>
		<path class="st0" d="M354.7,371.5l1.7-3.3c1.6,1.1,4.1,1.9,6.5,1.9c2.8,0,3.9-0.8,3.9-2c0-3.5-11.5-0.2-11.5-7.6
			c0-3.5,3.2-5.8,8.2-5.8c2.5,0,5.3,0.6,7,1.6l-1.7,3.3c-1.8-1-3.5-1.4-5.3-1.4c-2.6,0-3.9,0.9-3.9,2.1c0,3.8,11.5,0.4,11.5,7.7
			c0,3.5-3.2,5.8-8.4,5.8C359.5,373.6,356.4,372.7,354.7,371.5z"/>
	</g>
</g>
</svg>
