<?xml version="1.0" encoding="utf-8"?>
<!-- Generator: Adobe Illustrator 25.1.0, SVG Export Plug-In . SVG Version: 6.00 Build 0)  -->
<svg version="1.1" id="Layer_1" xmlns="http://www.w3.org/2000/svg" xmlns:xlink="http://www.w3.org/1999/xlink" x="0px" y="0px"
	 viewBox="0 0 600 600" style="enable-background:new 0 0 600 600;" xml:space="preserve">
<style type="text/css">
	.st0{fill:#1C3C4D;}
</style>
<path class="st0" d="M177.4,160L160,177.4l38.3,53.6c3.3,4.6,8.6,7.3,14.2,7.3h1.2c4.6,0,9.1,1.8,12.3,5.1l46.6,46.6L227,336.2
	c-27.7-8.1-56.8,7.7-64.9,35.4c-1.4,4.8-2.1,9.7-2.1,14.7c0,28.8,23.4,52.2,52.3,52.1s52.2-23.5,52.1-52.3c0-5-0.7-9.9-2.1-14.7
	l46.2-45.5l16.9,16.9l-5.3,15.9c-2.1,6.2-0.5,13.1,4.2,17.8l58.4,58.4c6.8,6.8,17.8,6.8,24.6,0l27.6-27.6c6.8-6.8,6.8-17.8,0-24.6
	l-58.4-58.4c-4.7-4.7-11.5-6.3-17.8-4.2l-15.9,5.3L326,308.7l46.6-46c27.9,7.5,56.6-9.1,64-37c1.2-4.4,1.8-8.9,1.8-13.4
	c0-4.7-0.6-9.2-1.8-13.5L399.5,236l-30.6-6.3l-6.3-30.6l37.3-37.3c-27.9-7.5-56.5,9-64,36.9c-2.4,8.9-2.4,18.3,0,27.2l-46,46.6
	L243.4,226c-3.3-3.3-5.1-7.7-5.1-12.3v-1.2c0-5.6-2.7-10.9-7.3-14.2L177.4,160z M345.3,345.3c3.4-3.4,8.9-3.4,12.3,0c0,0,0,0,0,0
	l52.2,52.2c3.4,3.4,3.4,8.9,0,12.3s-8.9,3.4-12.3,0l-52.2-52.2C341.9,354.2,341.9,348.7,345.3,345.3
	C345.3,345.3,345.3,345.3,345.3,345.3z M212.2,351.5l8.2,4.2l9.2,0.5l5,7.8l7.8,5l0.4,9.2l4.2,8.2l-4.2,8.2l-0.4,9.2l-7.8,5l-5,7.8
	l-9.2,0.5l-8.2,4.2l-8.2-4.2l-9.2-0.5l-5-7.8l-7.8-5l-0.4-9.2l-4.2-8.2l4.2-8.2l0.4-9.2l7.8-5l5-7.8l9.2-0.5L212.2,351.5z"/>
</svg>
