<?xml version="1.0" encoding="utf-8"?>
<!-- Generator: Adobe Illustrator 25.1.0, SVG Export Plug-In . SVG Version: 6.00 Build 0)  -->
<svg version="1.1" id="Layer_1" xmlns="http://www.w3.org/2000/svg" xmlns:xlink="http://www.w3.org/1999/xlink" x="0px" y="0px"
	 viewBox="0 0 600 600" style="enable-background:new 0 0 600 600;" xml:space="preserve">
<style type="text/css">
	.st0{fill:#1C3C4D;}
</style>
<path class="st0" d="M150,215.6c0-15.5,12.6-28.1,28.1-28.1h168.8c15.5,0,28.1,12.6,28.1,28.1v28.1h19.1c8.5,0,16.6,3.9,21.9,10.6
	l27.8,34.7c4,5,6.2,11.2,6.2,17.6v40.3c0,15.5-12.6,28.1-28.1,28.1h-9.4c0,20.7-16.8,37.5-37.5,37.5s-37.5-16.8-37.5-37.5h-93.8
	c0,20.7-16.7,37.5-37.4,37.6c-20.7,0-37.5-16.7-37.6-37.4c0-0.6,0-1.2,0-1.8c-11.3-4-18.8-14.6-18.8-26.5L150,215.6L150,215.6z
	 M174.3,355.4c10.8-17.7,33.9-23.2,51.5-12.5c5.4,3.3,9.8,7.8,12.9,13.3h103.8c3.3-5.7,8-10.4,13.7-13.7V215.6
	c0-5.2-4.2-9.4-9.4-9.4H178.1c-5.2,0-9.4,4.2-9.4,9.4v131.2C168.8,350.5,170.9,353.9,174.3,355.4z M375,337.5
	c13.4,0,25.8,7.1,32.5,18.8h14.4c5.2,0,9.4-4.2,9.4-9.4v-40.3c0-2.1-0.7-4.2-2.1-5.9L401.5,266c-1.8-2.2-4.5-3.5-7.3-3.5H375V337.5z
	 M206.2,356.2c-10.4,0-18.8,8.4-18.8,18.8s8.4,18.8,18.8,18.8S225,385.3,225,375S216.6,356.2,206.2,356.2z M375,356.2
	c-10.4,0-18.8,8.4-18.8,18.8s8.4,18.8,18.8,18.8s18.8-8.4,18.8-18.8S385.4,356.2,375,356.2z"/>
</svg>
