<?xml version="1.0" encoding="utf-8"?>
<!-- Generator: Adobe Illustrator 25.1.0, SVG Export Plug-In . SVG Version: 6.00 Build 0)  -->
<svg version="1.1" id="Layer_1" xmlns="http://www.w3.org/2000/svg" xmlns:xlink="http://www.w3.org/1999/xlink" x="0px" y="0px"
	 viewBox="0 0 600 600" style="enable-background:new 0 0 600 600;" xml:space="preserve">
<style type="text/css">
	.st0{fill:#1C3C4D;}
</style>
<g>
	<path class="st0" d="M377.72,152.75c3.66-3.67,9.59-3.67,13.26-0.02c0.01,0.01,0.01,0.01,0.02,0.02L447.24,209
		c3.67,3.66,3.67,9.59,0.02,13.26c-0.01,0.01-0.01,0.01-0.02,0.02L259.75,409.77c-0.9,0.89-1.97,1.6-3.15,2.06l-93.75,37.5
		c-4.81,1.92-10.26-0.41-12.19-5.22c-0.9-2.24-0.9-4.73,0-6.97l37.5-93.75c0.47-1.18,1.17-2.25,2.06-3.15
		C190.23,340.24,377.72,152.75,377.72,152.75z M360.12,196.89l42.99,42.99l24.24-24.24l-42.99-42.99L360.12,196.89z M389.85,253.14
		l-42.99-42.99L224.99,332.01v5.49h9.37c5.18,0,9.37,4.2,9.37,9.37v9.37h9.37c5.18,0,9.37,4.2,9.37,9.37v9.37h5.49
		C267.99,375.01,389.85,253.14,389.85,253.14z M206.84,350.16l-1.99,1.99l-28.65,71.64l71.64-28.65l1.99-1.99
		c-3.66-1.37-6.09-4.87-6.09-8.77v-9.37h-9.37c-5.18,0-9.37-4.2-9.37-9.37v-9.37h-9.37C211.71,356.25,208.21,353.82,206.84,350.16z"
		/>
</g>
<rect x="290.61" y="140.9" transform="matrix(0.7071 -0.7071 0.7071 0.7071 -124.2641 300)" class="st0" width="18.77" height="318.2"/>
</svg>
