<?xml version="1.0" encoding="utf-8"?>
<!-- Generator: Adobe Illustrator 25.1.0, SVG Export Plug-In . SVG Version: 6.00 Build 0)  -->
<svg version="1.1" id="Layer_1" xmlns="http://www.w3.org/2000/svg" xmlns:xlink="http://www.w3.org/1999/xlink" x="0px" y="0px"
	 viewBox="0 0 600 131" style="enable-background:new 0 0 600 131;" xml:space="preserve">
<style type="text/css">
	.st0{fill:#326581;}
	.st1{fill:#FFFFFF;}
</style>
<g>
	<path class="st0" d="M6.46,17.75h91.99v76.67H6.46V17.75z"/>
	<g>
		<path class="st1" d="M166.93,56.34v38.4h-21.54v-6.53c-3.59,4.79-9.46,7.51-17.3,7.51c-12.62,0-20.02-7.51-20.02-18.6
			c0-11.42,7.94-17.73,22.84-17.95h14.47v-0.22c0-4.9-3.48-7.83-10.23-7.83c-4.68,0-11.31,1.41-17.84,4.24l-5.44-14.58
			c9.68-3.92,19.25-6.09,28.5-6.09C157.03,34.69,166.93,42.63,166.93,56.34z M145.39,75.26v-5.33h-10.01
			c-4.35,0-6.64,1.85-6.64,5.55c0,3.7,2.39,5.87,6.64,5.87C139.84,81.36,143.76,78.96,145.39,75.26z"/>
		<path class="st1" d="M279.41,57.21v37.53h-21.97V63.52c0-5.87-3.26-9.57-8.16-9.57c-5.66,0.11-9.25,4.79-9.25,11.53v29.26h-21.97
			V63.52c0-5.87-3.26-9.57-8.16-9.57c-5.77,0.11-9.36,4.79-9.36,11.53v29.26h-21.97V35.56h21.97v9.03c4.03-6.42,10.33-9.9,18.38-9.9
			c9.25,0,16.32,4.79,19.47,12.84c3.81-8.27,10.77-12.84,20.02-12.84C270.92,34.69,279.41,43.5,279.41,57.21z"/>
		<path class="st1" d="M357.19,65.47c0,18.17-10.55,30.03-26.87,30.03c-6.96,0-12.73-2.72-16.75-7.62v27.96h-21.97V35.56h21.97v6.85
			c3.92-4.9,9.57-7.61,16.21-7.61C346.31,34.8,357.19,46.98,357.19,65.47z M334.99,64.93c0-7.83-4.24-13.16-10.77-13.16
			c-6.31,0-10.66,5.33-10.66,13.16c0,7.83,4.35,13.16,10.66,13.16C330.75,78.09,334.99,72.76,334.99,64.93z"/>
		<path class="st1" d="M420.28,56.34v38.4h-21.54v-6.53c-3.59,4.79-9.46,7.51-17.3,7.51c-12.62,0-20.02-7.51-20.02-18.6
			c0-11.42,7.94-17.73,22.85-17.95h14.47v-0.22c0-4.9-3.48-7.83-10.22-7.83c-4.68,0-11.31,1.41-17.84,4.24l-5.44-14.58
			c9.68-3.92,19.25-6.09,28.5-6.09C410.38,34.69,420.28,42.63,420.28,56.34z M398.74,75.26v-5.33h-10.01
			c-4.35,0-6.64,1.85-6.64,5.55c0,3.7,2.39,5.87,6.64,5.87C393.19,81.36,397.11,78.96,398.74,75.26z"/>
		<path class="st1" d="M453.89,44.91c4.13-6.53,10.55-10.22,18.6-10.22v19.8c-11.31-1.41-18.6,3.37-18.6,11.97v28.28h-21.97V35.56
			h21.97V44.91z"/>
		<path class="st1" d="M533.3,56.34v38.4h-21.54v-6.53c-3.59,4.79-9.46,7.51-17.3,7.51c-12.62,0-20.02-7.51-20.02-18.6
			c0-11.42,7.94-17.73,22.85-17.95h14.47v-0.22c0-4.9-3.48-7.83-10.22-7.83c-4.68,0-11.31,1.41-17.84,4.24l-5.44-14.58
			c9.68-3.92,19.25-6.09,28.5-6.09C523.4,34.69,533.3,42.63,533.3,56.34z M511.76,75.26v-5.33h-10.01c-4.35,0-6.64,1.85-6.64,5.55
			c0,3.7,2.39,5.87,6.64,5.87C506.21,81.36,510.13,78.96,511.76,75.26z"/>
		<path class="st1" d="M593.89,41.76l-7.29,13.82c-8.05-4.13-14.69-6.2-19.36-6.2c-2.72,0-4.46,0.98-4.46,2.83
			c0,6.64,30.89,3.7,30.89,23.93c0,12.18-10.55,19.58-26,19.58c-10.44,0-20.12-2.83-27.85-8.38l6.74-13.82
			c7.4,4.79,14.9,7.29,21.43,7.29c2.94,0,4.9-0.87,4.9-2.72c0-6.74-30.24-3.48-30.24-23.71c0-12.4,10.34-19.8,25.24-19.8
			C576.81,34.58,585.84,37.08,593.89,41.76z"/>
	</g>
	<polygon class="st1" points="101.04,15.16 101.04,97.86 79.6,97.86 79.6,101.66 76.91,101.66 76.91,27.47 53.49,62.02 30.23,30.38 
		30.23,101.66 27.55,101.66 27.55,97.86 6.11,97.86 6.11,15.16 30.23,15.16 30.23,17.76 76.91,17.76 76.91,15.16 	"/>
</g>
</svg>
