<svg xmlns="http://www.w3.org/2000/svg" width="229.885" height="40.738" viewBox="0 0 229.885 40.738"><defs><style>.a{fill:#132f3d;}.b{fill:#205370;}</style></defs><g transform="translate(63 10.753)"><path class="a" d="M1988.858,66.316l-.052-8.376-3.991,6.722h-2.731l-3.991-6.433v8.087h-5.645V47.937h5.094l5.986,9.793,5.829-9.793h5.094l.052,18.379Z" transform="translate(-1972.448 -47.517)"/><path class="a" d="M2216.357,63.113h-6.984l-1.234,3.2h-6.3l8.034-18.379h6.092L2224,66.316h-6.406Zm-1.707-4.463-1.785-4.621-1.785,4.621Z" transform="translate(-2178.785 -47.517)"/><path class="a" d="M2448.685,66.316l-.052-8.376-3.991,6.722h-2.731l-3.991-6.433v8.087h-5.645V47.937h5.094l5.986,9.793,5.829-9.793h5.094l.053,18.379Z" transform="translate(-2386.064 -47.517)"/><path class="a" d="M2698.745,54.869c0,4.253-3.256,6.931-8.375,6.931h-2.652v4.516h-6.2V47.937h8.848C2695.489,47.937,2698.745,50.615,2698.745,54.869Zm-6.249,0c0-1.339-.814-2.153-2.521-2.153h-2.258v4.306h2.258C2691.682,57.022,2692.5,56.208,2692.5,54.869Z" transform="translate(-2610.261 -47.517)"/><path class="a" d="M2858.549,63.113h-6.984l-1.234,3.2h-6.3l8.034-18.379h6.092l8.034,18.379h-6.407Zm-1.707-4.463-1.785-4.621-1.785,4.621Z" transform="translate(-2756.438 -47.517)"/><path class="a" d="M3082.341,61.7h-1.681v4.621h-6.2V47.937h8.848c5.12,0,8.376,2.678,8.376,6.932a6.155,6.155,0,0,1-3.466,5.776l3.86,5.671h-6.616Zm.578-8.979h-2.258v4.306h2.258c1.707,0,2.521-.814,2.521-2.153S3084.625,52.716,3082.918,52.716Z" transform="translate(-2963.714 -47.517)"/><path class="a" d="M3263.77,63.113h-6.984l-1.234,3.2h-6.3l8.035-18.379h6.091l8.035,18.379H3265Zm-1.707-4.463-1.785-4.621-1.786,4.621Z" transform="translate(-3120.935 -47.517)"/><path class="a" d="M3468.191,61.085l2-4.516a12.61,12.61,0,0,0,6.065,1.68c1.759,0,2.389-.368,2.389-1,0-2.31-10.161-.446-10.161-7.3,0-3.413,2.862-6.2,8.56-6.2a14.589,14.589,0,0,1,6.931,1.6l-1.865,4.49a11.335,11.335,0,0,0-5.12-1.365c-1.812,0-2.389.525-2.389,1.155,0,2.206,10.161.368,10.161,7.142,0,3.361-2.862,6.2-8.559,6.2A16.468,16.468,0,0,1,3468.191,61.085Z" transform="translate(-3317.873 -43.756)"/></g><g transform="translate(0 0)"><path class="b" d="M1433.98,50.558V91.3h11.289V50.558Zm24.582,21.672.02.036.434-.8Zm24.189-21.672h-11.292V91.3h11.408Z" transform="translate(-1433.98 -50.558)"/></g><path class="b" d="M1582.347,50.558V87.63h-23.862V50.558l12.069,21.672.02.036.434-.8Z" transform="translate(-1545.973 -50.558)"/><path class="b" d="M1582.347,50.558l-11.338,20.906-.434.8-.02-.036-12.069-21.672Z" transform="translate(-1545.973 -50.558)"/><path class="a" d="M1582.347,50.558l-11.338,20.906-.434.8-.02-.036-12.069-21.672Z" transform="translate(-1545.973 -50.558)"/></svg>