<?xml version="1.0" encoding="utf-8"?>
<!-- Generator: Adobe Illustrator 25.1.0, SVG Export Plug-In . SVG Version: 6.00 Build 0)  -->
<svg version="1.1" id="Layer_1" xmlns="http://www.w3.org/2000/svg" width="229.885" height="40.738" xmlns:xlink="http://www.w3.org/1999/xlink" x="0px" y="0px"
	 viewBox="0 0 600 105" style="enable-background:new 0 0 600 105;" xml:space="preserve">
<style type="text/css">
	.st0{fill:#326581;}
	.st1{fill:#1C3C4D;}
</style>
<g>
	<g>
		<path class="st0" d="M170.12,43.56v37.48H149.1v-6.37c-3.5,4.67-9.24,7.33-16.88,7.33c-12.32,0-19.54-7.33-19.54-18.16
			c0-11.15,7.75-17.31,22.3-17.52h14.12V46.1c0-4.78-3.4-7.64-9.98-7.64c-4.57,0-11.04,1.38-17.41,4.14l-5.31-14.23
			c9.45-3.82,18.79-5.95,27.82-5.95C160.46,22.43,170.12,30.18,170.12,43.56z M149.1,62.03v-5.2h-9.77c-4.25,0-6.48,1.8-6.48,5.41
			c0,3.61,2.34,5.73,6.48,5.73C143.68,67.98,147.51,65.64,149.1,62.03z"/>
		<path class="st0" d="M279.9,44.4v36.63h-21.45V50.56c0-5.73-3.19-9.34-7.96-9.34c-5.52,0.11-9.02,4.67-9.02,11.25v28.56h-21.45
			V50.56c0-5.73-3.19-9.34-7.96-9.34c-5.63,0.11-9.13,4.67-9.13,11.25v28.56h-21.45V23.28h21.45v8.81
			c3.93-6.26,10.09-9.66,17.94-9.66c9.02,0,15.93,4.67,19,12.53c3.72-8.07,10.51-12.53,19.54-12.53
			C271.62,22.43,279.9,31.03,279.9,44.4z"/>
		<path class="st0" d="M355.81,52.47c0,17.73-10.3,29.3-26.22,29.3c-6.8,0-12.42-2.65-16.35-7.43v27.29h-21.45V23.28h21.45v6.69
			c3.82-4.78,9.34-7.43,15.82-7.43C345.2,22.53,355.81,34.42,355.81,52.47z M334.16,51.94c0-7.64-4.14-12.85-10.51-12.85
			c-6.16,0-10.41,5.2-10.41,12.85c0,7.64,4.25,12.85,10.41,12.85C330.01,64.79,334.16,59.59,334.16,51.94z"/>
		<path class="st0" d="M417.39,43.56v37.48h-21.02v-6.37c-3.5,4.67-9.24,7.33-16.88,7.33c-12.32,0-19.54-7.33-19.54-18.16
			c0-11.15,7.75-17.31,22.3-17.52h14.12V46.1c0-4.78-3.4-7.64-9.98-7.64c-4.57,0-11.04,1.38-17.41,4.14l-5.31-14.23
			c9.45-3.82,18.79-5.95,27.82-5.95C407.73,22.43,417.39,30.18,417.39,43.56z M396.37,62.03v-5.2h-9.77c-4.25,0-6.48,1.8-6.48,5.41
			c0,3.61,2.34,5.73,6.48,5.73C390.96,67.98,394.78,65.64,396.37,62.03z"/>
		<path class="st0" d="M450.2,32.41c4.03-6.37,10.3-9.98,18.16-9.98v19.32c-11.04-1.38-18.16,3.29-18.16,11.68v27.6h-21.45V23.28
			h21.45V32.41z"/>
		<path class="st0" d="M527.7,43.56v37.48h-21.02v-6.37c-3.5,4.67-9.24,7.33-16.88,7.33c-12.32,0-19.54-7.33-19.54-18.16
			c0-11.15,7.75-17.31,22.3-17.52h14.12V46.1c0-4.78-3.4-7.64-9.98-7.64c-4.57,0-11.04,1.38-17.41,4.14l-5.31-14.23
			c9.45-3.82,18.79-5.95,27.82-5.95C518.04,22.43,527.7,30.18,527.7,43.56z M506.68,62.03v-5.2h-9.77c-4.25,0-6.48,1.8-6.48,5.41
			c0,3.61,2.34,5.73,6.48,5.73C501.27,67.98,505.09,65.64,506.68,62.03z"/>
		<path class="st0" d="M586.84,29.33l-7.11,13.48c-7.86-4.03-14.33-6.05-18.9-6.05c-2.65,0-4.35,0.96-4.35,2.76
			c0,6.48,30.15,3.61,30.15,23.36c0,11.89-10.3,19.11-25.38,19.11c-10.19,0-19.64-2.76-27.18-8.17l6.58-13.48
			c7.22,4.67,14.55,7.11,20.92,7.11c2.87,0,4.78-0.85,4.78-2.65c0-6.58-29.52-3.4-29.52-23.15c0-12.1,10.09-19.32,24.63-19.32
			C570.17,22.32,578.98,24.76,586.84,29.33z"/>
	</g>
	<g>
		<path class="st0" d="M13.51,5.9h89.79v74.83H13.51V5.9z"/>
		<polygon class="st1" points="105.81,3.37 105.81,84.08 84.89,84.08 84.89,87.79 82.26,87.79 82.26,15.38 59.4,49.11 36.7,18.22 
			36.7,87.79 34.09,87.79 34.09,84.08 13.16,84.08 13.16,3.37 36.7,3.37 36.7,5.9 82.26,5.9 82.26,3.37 		"/>
	</g>
</g>
</svg>
