<?xml version="1.0" encoding="UTF-8" standalone="no"?>
<!DOCTYPE svg PUBLIC "-//W3C//DTD SVG 1.1//EN" "http://www.w3.org/Graphics/SVG/1.1/DTD/svg11.dtd">
<svg width="100%" height="100%" viewBox="0 0 230 41" version="1.1" xmlns="http://www.w3.org/2000/svg" xmlns:xlink="http://www.w3.org/1999/xlink" xml:space="preserve" xmlns:serif="http://www.serif.com/" style="fill-rule:evenodd;clip-rule:evenodd;stroke-linejoin:round;stroke-miterlimit:2;">
    <g transform="matrix(1,0,0,1,63,10.753)">
        <g transform="matrix(1,0,0,1,-1972.45,-47.517)">
            <path d="M1988.86,66.316L1988.81,57.94L1984.82,64.662L1982.08,64.662L1978.09,58.229L1978.09,66.316L1972.45,66.316L1972.45,47.937L1977.54,47.937L1983.53,57.73L1989.36,47.937L1994.45,47.937L1994.5,66.316L1988.86,66.316Z" style="fill:white;fill-rule:nonzero;"/>
        </g>
        <g transform="matrix(1,0,0,1,-2178.78,-47.517)">
            <path d="M2216.36,63.113L2209.37,63.113L2208.14,66.313L2201.84,66.313L2209.87,47.934L2215.97,47.934L2224,66.316L2217.59,66.316L2216.36,63.113ZM2214.65,58.65L2212.87,54.029L2211.08,58.65L2214.65,58.65Z" style="fill:white;fill-rule:nonzero;"/>
        </g>
        <g transform="matrix(1,0,0,1,-2386.06,-47.517)">
            <path d="M2448.68,66.316L2448.63,57.94L2444.64,64.662L2441.91,64.662L2437.92,58.229L2437.92,66.316L2432.28,66.316L2432.28,47.937L2437.37,47.937L2443.36,57.73L2449.18,47.937L2454.28,47.937L2454.33,66.316L2448.68,66.316Z" style="fill:white;fill-rule:nonzero;"/>
        </g>
        <g transform="matrix(1,0,0,1,-2610.26,-47.517)">
            <path d="M2698.74,54.869C2698.74,59.122 2695.49,61.8 2690.37,61.8L2687.72,61.8L2687.72,66.316L2681.52,66.316L2681.52,47.937L2690.37,47.937C2695.49,47.937 2698.74,50.615 2698.74,54.869ZM2692.5,54.869C2692.5,53.53 2691.68,52.716 2689.97,52.716L2687.72,52.716L2687.72,57.022L2689.97,57.022C2691.68,57.022 2692.5,56.208 2692.5,54.869L2692.5,54.869Z" style="fill:white;fill-rule:nonzero;"/>
        </g>
        <g transform="matrix(1,0,0,1,-2756.44,-47.517)">
            <path d="M2858.55,63.113L2851.57,63.113L2850.33,66.313L2844.03,66.313L2852.07,47.934L2858.16,47.934L2866.19,66.313L2859.78,66.313L2858.55,63.113ZM2856.84,58.65L2855.06,54.029L2853.27,58.65L2856.84,58.65Z" style="fill:white;fill-rule:nonzero;"/>
        </g>
        <g transform="matrix(1,0,0,1,-2963.71,-47.517)">
            <path d="M3082.34,61.7L3080.66,61.7L3080.66,66.321L3074.46,66.321L3074.46,47.937L3083.31,47.937C3088.43,47.937 3091.68,50.615 3091.68,54.869C3091.78,57.307 3090.41,59.581 3088.22,60.645L3092.08,66.316L3085.46,66.316L3082.34,61.7ZM3082.92,52.721L3080.66,52.721L3080.66,57.027L3082.92,57.027C3084.63,57.027 3085.44,56.213 3085.44,54.874C3085.44,53.535 3084.62,52.716 3082.92,52.716L3082.92,52.721Z" style="fill:white;fill-rule:nonzero;"/>
        </g>
        <g transform="matrix(1,0,0,1,-3120.93,-47.517)">
            <path d="M3263.77,63.113L3256.79,63.113L3255.55,66.313L3249.25,66.313L3257.29,47.934L3263.38,47.934L3271.41,66.313L3265,66.313L3263.77,63.113ZM3262.06,58.65L3260.28,54.029L3258.49,58.65L3262.06,58.65Z" style="fill:white;fill-rule:nonzero;"/>
        </g>
        <g transform="matrix(1,0,0,1,-3317.87,-43.756)">
            <path d="M3468.19,61.085L3470.19,56.569C3472.04,57.633 3474.12,58.211 3476.26,58.249C3478.01,58.249 3478.64,57.881 3478.64,57.249C3478.64,54.939 3468.48,56.803 3468.48,49.949C3468.48,46.536 3471.35,43.749 3477.04,43.749C3479.45,43.702 3481.83,44.252 3483.97,45.349L3482.11,49.839C3480.53,48.986 3478.78,48.518 3476.99,48.474C3475.18,48.474 3474.6,48.999 3474.6,49.629C3474.6,51.835 3484.76,49.997 3484.76,56.771C3484.76,60.132 3481.9,62.971 3476.2,62.971C3473.42,63.031 3470.66,62.382 3468.19,61.085Z" style="fill:white;fill-rule:nonzero;"/>
        </g>
    </g>
    <g transform="matrix(1,0,0,1,-1433.98,-50.558)">
        <path d="M1433.98,50.558L1433.98,91.3L1445.27,91.3L1445.27,50.558L1433.98,50.558ZM1458.56,72.23L1458.58,72.266L1459.02,71.466L1458.56,72.23ZM1482.75,50.558L1471.46,50.558L1471.46,91.3L1482.87,91.3L1482.75,50.558Z" style="fill:white;fill-rule:nonzero;"/>
    </g>
    <g transform="matrix(1,0,0,1,-1545.97,-50.558)">
        <path d="M1582.35,50.558L1582.35,87.63L1558.49,87.63L1558.49,50.558L1570.55,72.23L1570.57,72.266L1571.01,71.466L1582.35,50.558Z" style="fill:white;fill-rule:nonzero;"/>
    </g>
    <g transform="matrix(1,0,0,1,-1545.97,-50.558)">
        <path d="M1582.35,50.558L1571.01,71.464L1570.58,72.264L1570.56,72.228L1558.49,50.556L1582.35,50.558Z" style="fill:rgb(32,83,112);fill-rule:nonzero;"/>
    </g>
    <g transform="matrix(1,0,0,1,-1545.97,-50.558)">
        <path d="M1582.35,50.558L1571.01,71.464L1570.58,72.264L1570.56,72.228L1558.49,50.556L1582.35,50.558Z" style="fill:rgb(19,47,61);fill-rule:nonzero;"/>
    </g>
</svg>
